999
FreeCAD v0.21 33694 (Git)
  0
SECTION
  2
HEADER
  9
$ACADVER
  1
AC1014
  9
$ACADMAINTVER
 70
     9
  9
$DWGCODEPAGE
  3
ANSI_1252
  9
$TEXTSTYLE
  7
STANDARD
  9
$DIMSTYLE
  2
STANDARD
  9
$DIMTXSTY
  7
STANDARD
  9
$CMLSTYLE
  2
STANDARD
  9
$LUNITS
 70
2
  9
$INSUNITS
 70
4
  9
$PEXTMAX
 10
50
 20
50
 30
50
  9
$PEXTMIN
 10
0
 20
0
 30
0
  9
$HANDSEED
  5
FFFF
  0
ENDSEC
  0
SECTION
  2
CLASSES
  0
CLASS
  1
ACDBDICTIONARYWDFLT
  2
AcDbDictionaryWithDefault
  3
ObjectDBX Classes
 90
        0
280
     0
281
     0
  0
CLASS
  1
XRECORD
  2
AcDbXrecord
  3
ObjectDBX Classes
 90
        0
280
     0
281
     0
  0
CLASS
  1
LWPOLYLINE
  2
AcDbPolyline
  3
ObjectDBX Classes
 90
        0
280
     0
281
     1
  0
ENDSEC
  0
SECTION
  2
TABLES
  0
TABLE
  2
VPORT
  5
20
330
0
100
AcDbSymbolTable
 70
     1
  0
VPORT
  5
21
330
20
100
AcDbSymbolTableRecord
100
AcDbViewportTableRecord
  2
*ACTIVE
 70
     0
  0
ENDTAB
  0
TABLE
  2
LTYPE
  5
22
330
0
100
AcDbSymbolTable
 70
     1
  0
LTYPE
  5
23
330
21
100
AcDbSymbolTableRecord
100
AcDbLinetypeTableRecord
  2
BYBLOCK
 70
     0
  3

 72
    65
 73
     0
 40
0.0
  0
LTYPE
  5
24
330
21
100
AcDbSymbolTableRecord
100
AcDbLinetypeTableRecord
  2
BYLAYER
 70
     0
  3

 72
    65
 73
     0
 40
0.0
  0
LTYPE
  5
25
330
21
100
AcDbSymbolTableRecord
100
AcDbLinetypeTableRecord
  2
CONTINUOUS
 70
     0
  3
Solid line
 72
    65
 73
     0
 40
0.0
  0
ENDTAB
  0
TABLE
  2
LAYER
  5
C0F
330
0
100
AcDbSymbolTable
 70
2
  0
LAYER
  5
C10
330
C0F
100
AcDbSymbolTableRecord
100
AcDbLayerTableRecord
  2
0
 70
   0
 62
   7
  6
CONTINUOUS
  0
LAYER
  5
C11
330
C0F
100
AcDbSymbolTableRecord
100
AcDbLayerTableRecord
  2
View046
 70
    0
 62
    7
  6
CONTINUOUS
  0
ENDTAB
  0
TABLE
  2
STYLE
  5
70
330
0
100
AcDbSymbolTable
 70
     2
  0
STYLE
  5
71
330
70
100
AcDbSymbolTableRecord
100
AcDbTextStyleTableRecord
  2
STANDARD
 70
     0
 40
0.0
 41
1.0
 50
0.0
 71
     0
 42
2.5
  3
arial.ttf
  4

  0
STYLE
  5
72
330
70
100
AcDbSymbolTableRecord
100
AcDbTextStyleTableRecord
  2
ANNOTATIVE
 70
     0
 40
0.0
 41
1.0
 50
0.0
 71
     0
 42
2.5
  3
arial.ttf
  4

  0
ENDTAB
  0
TABLE
  2
VIEW
  5
73
330
0
100
AcDbSymbolTable
 70
     0
  0
ENDTAB
  0
TABLE
  2
UCS
  5
74
330
0
100
AcDbSymbolTable
 70
     0
  0
ENDTAB
  0
TABLE
  2
APPID
  5
75
330
0
100
AcDbSymbolTable
 70
     2
  0
APPID
  5
76
330
75
100
AcDbSymbolTableRecord
100
AcDbRegAppTableRecord
  2
ACAD
 70
     0
  0
APPID
  5
77
330
75
100
AcDbSymbolTableRecord
100
AcDbRegAppTableRecord
  2
ACADANNOTATIVE
 70
     0
  0
ENDTAB
  0
TABLE
  2
DIMSTYLE
  5
78
330
0
100
AcDbSymbolTable
 70
     2
  0
DIMSTYLE
105
79
330
78
100
AcDbSymbolTableRecord
100
AcDbDimStyleTableRecord
  2
STANDARD
 70
     0
  3

  4

  5

  6

  7

 40
0.0
 41
2.5
 42
0.625
 43
3.75
 44
1.25
 45
0.0
 46
0.0
 47
0.0
 48
0.0
140
2.5
141
2.5
142
0.0
143
0.03937007874016
144
1.0
145
0.0
146
1.0
147
0.625
 71
     0
 72
     0
 73
     0
 74
     0
 75
     0
 76
     0
 77
     1
 78
     8
170
     0
171
     3
172
     1
173
     0
174
     0
175
     0
176
     0
177
     0
178
     0
270
     2
271
     2
272
     2
273
     2
274
     3
340
71
275
     0
280
     0
281
     0
282
     0
283
     0
284
     8
285
     0
286
     0
287
     3
288
     0
  0
ENDTAB
  0
TABLE
  2
BLOCK_RECORD
  5
A01
330
0
100
AcDbSymbolTable
  70
5
  0
BLOCK_RECORD
  5
A02
330
A01
100
AcDbSymbolTableRecord
100
AcDbBlockTableRecord
  2
*MODEL_SPACE
  0
BLOCK_RECORD
  5
A03
330
A01
100
AcDbSymbolTableRecord
100
AcDbBlockTableRecord
  2
*PAPER_SPACE
  0
ENDTAB
  0
ENDSEC
  0
SECTION
  2
BLOCKS
  0
BLOCK
  5
A04
330
A02
100
AcDbEntity
  8
0
100
AcDbBlockBegin
  2
*MODEL_SPACE
 70
   0
 10
0
 20
0
 30
0
  3
*MODEL_SPACE
  1
 
  0
ENDBLK
  5
A05
330
A02
100
AcDbEntity
  8
0
100
AcDbBlockEnd
  0
BLOCK
  5
A06
330
A03
100
AcDbEntity
 67
1
  8
0
100
AcDbBlockBegin
  2
*PAPER_SPACE
 70
   0
 10
0
 20
0
 30
0
  3
*PAPER_SPACE
  1
 
  0
ENDBLK
  5
A07
330
A03
100
AcDbEntity
 67
    1
  8
0
100
AcDbBlockEnd
  0
ENDSEC
  0
SECTION
  2
ENTITIES
  0
ARC
  5
A08
330
A02
100
AcDbEntity
  8
View046
100
AcDbCircle
 10
575.982
 20
359.7
 30
0
 40
13
100
AcDbArc
 50
-5.22868e-05
 51
114.48
  0
LINE
  5
A09
330
A02
100
AcDbEntity
  8
View046
100
AcDbLine
 10
588.982
 20
359.7
 30
0
 11
588.982
 21
325.861
 31
0
  0
ARC
  5
A0A
330
A02
100
AcDbEntity
  8
View046
100
AcDbCircle
 10
545.732
 20
426.138
 30
0
 40
60
100
AcDbArc
 50
-114.481
 51
-65.5195
  0
ARC
  5
A0B
330
A02
100
AcDbEntity
  8
View046
100
AcDbCircle
 10
587.582
 20
326.4
 30
0
 40
1.5
100
AcDbArc
 50
-90.0001
 51
-21.0395
  0
LINE
  5
A0C
330
A02
100
AcDbEntity
  8
View046
100
AcDbLine
 10
578.282
 20
324.9
 30
0
 11
587.582
 21
324.9
 31
0
  0
ARC
  5
A0D
330
A02
100
AcDbEntity
  8
View046
100
AcDbCircle
 10
578.282
 20
324.6
 30
0
 40
0.3
100
AcDbArc
 50
89.9999
 51
180
  0
LINE
  5
A0E
330
A02
100
AcDbEntity
  8
View046
100
AcDbLine
 10
577.982
 20
319.2
 30
0
 11
577.982
 21
324.6
 31
0
  0
LINE
  5
A0F
330
A02
100
AcDbEntity
  8
View046
100
AcDbLine
 10
577.982
 20
319.2
 30
0
 11
577.982
 21
317.2
 31
0
  0
LINE
  5
A10
330
A02
100
AcDbEntity
  8
View046
100
AcDbLine
 10
587.582
 20
317.2
 30
0
 11
577.982
 21
317.2
 31
0
  0
ARC
  5
A11
330
A02
100
AcDbEntity
  8
View046
100
AcDbCircle
 10
587.582
 20
315.7
 30
0
 40
1.5
100
AcDbArc
 50
21.0394
 51
89.9999
  0
LINE
  5
A12
330
A02
100
AcDbEntity
  8
View046
100
AcDbLine
 10
588.982
 20
316.239
 30
0
 11
588.982
 21
296.1
 31
0
  0
ARC
  5
A13
330
A02
100
AcDbEntity
  8
View046
100
AcDbCircle
 10
575.982
 20
296.1
 30
0
 40
13
100
AcDbArc
 50
-114.481
 51
-5.22868e-05
  0
ARC
  5
A14
330
A02
100
AcDbEntity
  8
View046
100
AcDbCircle
 10
545.732
 20
229.663
 30
0
 40
60
100
AcDbArc
 50
65.5194
 51
114.48
  0
ARC
  5
A15
330
A02
100
AcDbEntity
  8
View046
100
AcDbCircle
 10
515.482
 20
296.1
 30
0
 40
13
100
AcDbArc
 50
168.633
 51
-65.5195
  0
ARC
  5
A16
330
A02
100
AcDbEntity
  8
View046
100
AcDbCircle
 10
492.933
 20
300.633
 30
0
 40
10
100
AcDbArc
 50
-11.3672
 51
25.8923
  0
LINE
  5
A17
330
A02
100
AcDbEntity
  8
View046
100
AcDbLine
 10
501.929
 20
305
 30
0
 11
492.933
 21
323.533
 31
0
  0
ARC
  5
A18
330
A02
100
AcDbEntity
  8
View046
100
AcDbCircle
 10
501.929
 20
327.9
 30
0
 40
10
100
AcDbArc
 50
154.108
 51
-154.108
  0
LINE
  5
A19
330
A02
100
AcDbEntity
  8
View046
100
AcDbLine
 10
501.93
 20
350.8
 30
0
 11
492.933
 21
332.267
 31
0
  0
ARC
  5
A1A
330
A02
100
AcDbEntity
  8
View046
100
AcDbCircle
 10
492.933
 20
355.167
 30
0
 40
10
100
AcDbArc
 50
-25.8924
 51
11.3671
  0
ARC
  5
A1B
330
A02
100
AcDbEntity
  8
View046
100
AcDbCircle
 10
515.482
 20
359.7
 30
0
 40
13
100
AcDbArc
 50
65.5194
 51
-168.633
  0
ARC
  5
A1C
330
A02
100
AcDbEntity
  8
View046
100
AcDbCircle
 10
507.232
 20
363.7
 30
0
 40
1.5
100
AcDbArc
 50
-5.22868e-05
 51
180
  0
LINE
  5
A1D
330
A02
100
AcDbEntity
  8
View046
100
AcDbLine
 10
505.732
 20
356.2
 30
0
 11
505.732
 21
363.7
 31
0
  0
ARC
  5
A1E
330
A02
100
AcDbEntity
  8
View046
100
AcDbCircle
 10
507.232
 20
356.2
 30
0
 40
1.5
100
AcDbArc
 50
180
 51
-5.22868e-05
  0
LINE
  5
A1F
330
A02
100
AcDbEntity
  8
View046
100
AcDbLine
 10
508.732
 20
356.2
 30
0
 11
508.732
 21
363.7
 31
0
  0
ARC
  5
A20
330
A02
100
AcDbEntity
  8
View046
100
AcDbCircle
 10
514.232
 20
358.9
 30
0
 40
2.6
100
AcDbArc
 50
89.9999
 51
-90.0001
  0
LINE
  5
A21
330
A02
100
AcDbEntity
  8
View046
100
AcDbLine
 10
514.232
 20
356.3
 30
0
 11
516.732
 21
356.3
 31
0
  0
ARC
  5
A22
330
A02
100
AcDbEntity
  8
View046
100
AcDbCircle
 10
516.732
 20
358.9
 30
0
 40
2.6
100
AcDbArc
 50
-90.0001
 51
89.9999
  0
LINE
  5
A23
330
A02
100
AcDbEntity
  8
View046
100
AcDbLine
 10
516.732
 20
361.5
 30
0
 11
514.232
 21
361.5
 31
0
  0
LINE
  5
A24
330
A02
100
AcDbEntity
  8
View046
100
AcDbLine
 10
503.73
 20
337.378
 30
0
 11
507.723
 21
334.369
 31
0
  0
LINE
  5
A25
330
A02
100
AcDbEntity
  8
View046
100
AcDbLine
 10
507.723
 20
334.369
 30
0
 11
510.732
 21
338.362
 31
0
  0
LINE
  5
A26
330
A02
100
AcDbEntity
  8
View046
100
AcDbLine
 10
510.732
 20
338.362
 30
0
 11
506.739
 21
341.371
 31
0
  0
LINE
  5
A27
330
A02
100
AcDbEntity
  8
View046
100
AcDbLine
 10
506.739
 20
341.371
 30
0
 11
503.73
 21
337.378
 31
0
  0
LINE
  5
A28
330
A02
100
AcDbEntity
  8
View046
100
AcDbLine
 10
496.508
 20
327.794
 30
0
 11
500.501
 21
324.785
 31
0
  0
LINE
  5
A29
330
A02
100
AcDbEntity
  8
View046
100
AcDbLine
 10
500.501
 20
324.785
 30
0
 11
503.51
 21
328.778
 31
0
  0
LINE
  5
A2A
330
A02
100
AcDbEntity
  8
View046
100
AcDbLine
 10
503.51
 20
328.778
 30
0
 11
499.517
 21
331.787
 31
0
  0
LINE
  5
A2B
330
A02
100
AcDbEntity
  8
View046
100
AcDbLine
 10
499.517
 20
331.787
 30
0
 11
496.508
 21
327.794
 31
0
  0
LINE
  5
A2C
330
A02
100
AcDbEntity
  8
View046
100
AcDbLine
 10
500.119
 20
332.586
 30
0
 11
504.112
 21
329.577
 31
0
  0
LINE
  5
A2D
330
A02
100
AcDbEntity
  8
View046
100
AcDbLine
 10
504.112
 20
329.577
 30
0
 11
507.121
 21
333.57
 31
0
  0
LINE
  5
A2E
330
A02
100
AcDbEntity
  8
View046
100
AcDbLine
 10
507.121
 20
333.57
 30
0
 11
503.128
 21
336.579
 31
0
  0
LINE
  5
A2F
330
A02
100
AcDbEntity
  8
View046
100
AcDbLine
 10
503.128
 20
336.579
 30
0
 11
500.119
 21
332.586
 31
0
  0
CIRCLE
  5
A30
330
A02
100
AcDbEntity
  8
View046
100
AcDbCircle
 10
515.732
 20
335.9
 40
1.2
  0
CIRCLE
  5
A31
330
A02
100
AcDbEntity
  8
View046
100
AcDbCircle
 10
521.232
 20
343.4
 40
1.8
  0
LINE
  5
A32
330
A02
100
AcDbEntity
  8
View046
100
AcDbLine
 10
502.549
 20
325.841
 30
0
 11
506.542
 21
322.832
 31
0
  0
LINE
  5
A33
330
A02
100
AcDbEntity
  8
View046
100
AcDbLine
 10
506.542
 20
322.832
 30
0
 11
509.551
 21
326.825
 31
0
  0
LINE
  5
A34
330
A02
100
AcDbEntity
  8
View046
100
AcDbLine
 10
509.551
 20
326.825
 30
0
 11
505.558
 21
329.834
 31
0
  0
LINE
  5
A35
330
A02
100
AcDbEntity
  8
View046
100
AcDbLine
 10
505.558
 20
329.834
 30
0
 11
502.549
 21
325.841
 31
0
  0
LINE
  5
A36
330
A02
100
AcDbEntity
  8
View046
100
AcDbLine
 10
498.938
 20
321.049
 30
0
 11
502.931
 21
318.04
 31
0
  0
LINE
  5
A37
330
A02
100
AcDbEntity
  8
View046
100
AcDbLine
 10
502.931
 20
318.04
 30
0
 11
505.94
 21
322.033
 31
0
  0
LINE
  5
A38
330
A02
100
AcDbEntity
  8
View046
100
AcDbLine
 10
505.94
 20
322.033
 30
0
 11
501.947
 21
325.042
 31
0
  0
LINE
  5
A39
330
A02
100
AcDbEntity
  8
View046
100
AcDbLine
 10
501.947
 20
325.042
 30
0
 11
498.938
 21
321.049
 31
0
  0
LINE
  5
A3A
330
A02
100
AcDbEntity
  8
View046
100
AcDbLine
 10
503.73
 20
317.438
 30
0
 11
507.723
 21
314.429
 31
0
  0
LINE
  5
A3B
330
A02
100
AcDbEntity
  8
View046
100
AcDbLine
 10
507.723
 20
314.429
 30
0
 11
510.732
 21
318.422
 31
0
  0
LINE
  5
A3C
330
A02
100
AcDbEntity
  8
View046
100
AcDbLine
 10
510.732
 20
318.422
 30
0
 11
506.739
 21
321.431
 31
0
  0
LINE
  5
A3D
330
A02
100
AcDbEntity
  8
View046
100
AcDbLine
 10
506.739
 20
321.431
 30
0
 11
503.73
 21
317.438
 31
0
  0
CIRCLE
  5
A3E
330
A02
100
AcDbEntity
  8
View046
100
AcDbCircle
 10
515.732
 20
319.9
 40
1.2
  0
ARC
  5
A3F
330
A02
100
AcDbEntity
  8
View046
100
AcDbCircle
 10
507.232
 20
299.6
 30
0
 40
1.5
100
AcDbArc
 50
-5.22868e-05
 51
180
  0
LINE
  5
A40
330
A02
100
AcDbEntity
  8
View046
100
AcDbLine
 10
505.732
 20
292.1
 30
0
 11
505.732
 21
299.6
 31
0
  0
ARC
  5
A41
330
A02
100
AcDbEntity
  8
View046
100
AcDbCircle
 10
507.232
 20
292.1
 30
0
 40
1.5
100
AcDbArc
 50
180
 51
-5.22868e-05
  0
LINE
  5
A42
330
A02
100
AcDbEntity
  8
View046
100
AcDbLine
 10
508.732
 20
299.6
 30
0
 11
508.732
 21
292.1
 31
0
  0
ARC
  5
A43
330
A02
100
AcDbEntity
  8
View046
100
AcDbCircle
 10
514.232
 20
296.9
 30
0
 40
2.6
100
AcDbArc
 50
89.9999
 51
-90.0001
  0
LINE
  5
A44
330
A02
100
AcDbEntity
  8
View046
100
AcDbLine
 10
514.232
 20
294.3
 30
0
 11
516.732
 21
294.3
 31
0
  0
ARC
  5
A45
330
A02
100
AcDbEntity
  8
View046
100
AcDbCircle
 10
516.732
 20
296.9
 30
0
 40
2.6
100
AcDbArc
 50
-90.0001
 51
89.9999
  0
LINE
  5
A46
330
A02
100
AcDbEntity
  8
View046
100
AcDbLine
 10
516.732
 20
299.5
 30
0
 11
514.232
 21
299.5
 31
0
  0
CIRCLE
  5
A47
330
A02
100
AcDbEntity
  8
View046
100
AcDbCircle
 10
525.732
 20
327.9
 40
1.2
  0
CIRCLE
  5
A48
330
A02
100
AcDbEntity
  8
View046
100
AcDbCircle
 10
521.232
 20
312.4
 40
1.8
  0
CIRCLE
  5
A49
330
A02
100
AcDbEntity
  8
View046
100
AcDbCircle
 10
534.232
 20
327.9
 40
1.2
  0
ARC
  5
A4A
330
A02
100
AcDbEntity
  8
View046
100
AcDbCircle
 10
545.732
 20
413.9
 30
0
 40
60
100
AcDbArc
 50
-106.931
 51
-73.0689
  0
ARC
  5
A4B
330
A02
100
AcDbEntity
  8
View046
100
AcDbCircle
 10
515.482
 20
358.9
 30
0
 40
13
100
AcDbArc
 50
-68.154
 51
-10.6357
  0
ARC
  5
A4C
330
A02
100
AcDbEntity
  8
View046
100
AcDbCircle
 10
518.732
 20
327.9
 30
0
 40
19
100
AcDbArc
 50
-85.2073
 51
85.2072
  0
ARC
  5
A4D
330
A02
100
AcDbEntity
  8
View046
100
AcDbCircle
 10
515.482
 20
296.9
 30
0
 40
13
100
AcDbArc
 50
10.6356
 51
68.1539
  0
ARC
  5
A4E
330
A02
100
AcDbEntity
  8
View046
100
AcDbCircle
 10
545.732
 20
241.9
 30
0
 40
60
100
AcDbArc
 50
73.0688
 51
106.931
  0
ARC
  5
A4F
330
A02
100
AcDbEntity
  8
View046
100
AcDbCircle
 10
575.982
 20
296.9
 30
0
 40
13
100
AcDbArc
 50
109.082
 51
169.364
  0
LINE
  5
A50
330
A02
100
AcDbEntity
  8
View046
100
AcDbLine
 10
571.732
 20
346.614
 30
0
 11
571.732
 21
309.186
 31
0
  0
ARC
  5
A51
330
A02
100
AcDbEntity
  8
View046
100
AcDbCircle
 10
575.982
 20
358.9
 30
0
 40
13
100
AcDbArc
 50
-169.364
 51
-109.082
  0
CIRCLE
  5
A52
330
A02
100
AcDbEntity
  8
View046
100
AcDbCircle
 10
575.982
 20
358.9
 40
3.65
  0
ARC
  5
A53
330
A02
100
AcDbEntity
  8
View046
100
AcDbCircle
 10
584.232
 20
356.2
 30
0
 40
1.5
100
AcDbArc
 50
180
 51
-5.22868e-05
  0
LINE
  5
A54
330
A02
100
AcDbEntity
  8
View046
100
AcDbLine
 10
585.732
 20
363.7
 30
0
 11
585.732
 21
356.2
 31
0
  0
ARC
  5
A55
330
A02
100
AcDbEntity
  8
View046
100
AcDbCircle
 10
584.232
 20
363.7
 30
0
 40
1.5
100
AcDbArc
 50
-5.22868e-05
 51
180
  0
LINE
  5
A56
330
A02
100
AcDbEntity
  8
View046
100
AcDbLine
 10
582.732
 20
356.2
 30
0
 11
582.732
 21
363.7
 31
0
  0
CIRCLE
  5
A57
330
A02
100
AcDbEntity
  8
View046
100
AcDbCircle
 10
582.982
 20
348.9
 40
1.5
  0
CIRCLE
  5
A58
330
A02
100
AcDbEntity
  8
View046
100
AcDbCircle
 10
585.182
 20
333.9
 40
1.5
  0
CIRCLE
  5
A59
330
A02
100
AcDbEntity
  8
View046
100
AcDbCircle
 10
582.982
 20
329.9
 40
1.5
  0
CIRCLE
  5
A5A
330
A02
100
AcDbEntity
  8
View046
100
AcDbCircle
 10
586.232
 20
327.9
 40
1.2
  0
CIRCLE
  5
A5B
330
A02
100
AcDbEntity
  8
View046
100
AcDbCircle
 10
575.982
 20
296.9
 40
3.65
  0
CIRCLE
  5
A5C
330
A02
100
AcDbEntity
  8
View046
100
AcDbCircle
 10
585.182
 20
305.9
 40
1.5
  0
ARC
  5
A5D
330
A02
100
AcDbEntity
  8
View046
100
AcDbCircle
 10
584.232
 20
292.1
 30
0
 40
1.5
100
AcDbArc
 50
180
 51
-5.22868e-05
  0
LINE
  5
A5E
330
A02
100
AcDbEntity
  8
View046
100
AcDbLine
 10
585.732
 20
299.6
 30
0
 11
585.732
 21
292.1
 31
0
  0
ARC
  5
A5F
330
A02
100
AcDbEntity
  8
View046
100
AcDbCircle
 10
584.232
 20
299.6
 30
0
 40
1.5
100
AcDbArc
 50
-5.22868e-05
 51
180
  0
LINE
  5
A60
330
A02
100
AcDbEntity
  8
View046
100
AcDbLine
 10
582.732
 20
299.6
 30
0
 11
582.732
 21
292.1
 31
0
  0
ARC
  5
A61
330
A02
100
AcDbEntity
  8
View046
100
AcDbCircle
 10
604.982
 20
296.1
 30
0
 40
13
100
AcDbArc
 50
180
 51
-65.5196
  0
ARC
  5
A62
330
A02
100
AcDbEntity
  8
View046
100
AcDbCircle
 10
604.982
 20
296.1
 30
0
 40
13
100
AcDbArc
 50
129.964
 51
180
  0
ARC
  5
A63
330
A02
100
AcDbEntity
  8
View046
100
AcDbCircle
 10
635.232
 20
229.662
 30
0
 40
60
100
AcDbArc
 50
65.5194
 51
114.48
  0
LINE
  5
A64
330
A02
100
AcDbEntity
  8
View046
100
AcDbLine
 10
596.732
 20
306.064
 30
0
 11
596.632
 21
306.064
 31
0
  0
ARC
  5
A65
330
A02
100
AcDbEntity
  8
View046
100
AcDbCircle
 10
596.732
 20
306.314
 30
0
 40
0.25
100
AcDbArc
 50
-90.0001
 51
-5.72958e-05
  0
LINE
  5
A66
330
A02
100
AcDbEntity
  8
View046
100
AcDbLine
 10
596.982
 20
306.314
 30
0
 11
596.982
 21
349.486
 31
0
  0
ARC
  5
A67
330
A02
100
AcDbEntity
  8
View046
100
AcDbCircle
 10
596.732
 20
349.486
 30
0
 40
0.25
100
AcDbArc
 50
-5.72958e-05
 51
89.9999
  0
LINE
  5
A68
330
A02
100
AcDbEntity
  8
View046
100
AcDbLine
 10
596.732
 20
349.736
 30
0
 11
596.632
 21
349.736
 31
0
  0
ARC
  5
A69
330
A02
100
AcDbEntity
  8
View046
100
AcDbCircle
 10
604.982
 20
359.7
 30
0
 40
13
100
AcDbArc
 50
180
 51
-129.964
  0
ARC
  5
A6A
330
A02
100
AcDbEntity
  8
View046
100
AcDbCircle
 10
604.982
 20
359.7
 30
0
 40
13
100
AcDbArc
 50
65.5194
 51
180
  0
ARC
  5
A6B
330
A02
100
AcDbEntity
  8
View046
100
AcDbCircle
 10
635.232
 20
426.137
 30
0
 40
60
100
AcDbArc
 50
-114.481
 51
-65.5196
  0
ARC
  5
A6C
330
A02
100
AcDbEntity
  8
View046
100
AcDbCircle
 10
665.482
 20
359.7
 30
0
 40
13
100
AcDbArc
 50
-11.5062
 51
114.48
  0
ARC
  5
A6D
330
A02
100
AcDbEntity
  8
View046
100
AcDbCircle
 10
684.1
 20
355.91
 30
0
 40
6
100
AcDbArc
 50
168.494
 51
-90.0001
  0
LINE
  5
A6E
330
A02
100
AcDbEntity
  8
View046
100
AcDbLine
 10
684.1
 20
349.91
 30
0
 11
691.07
 21
349.91
 31
0
  0
ARC
  5
A6F
330
A02
100
AcDbEntity
  8
View046
100
AcDbCircle
 10
691.07
 20
343.91
 30
0
 40
6
100
AcDbArc
 50
-5.72958e-05
 51
89.9999
  0
LINE
  5
A70
330
A02
100
AcDbEntity
  8
View046
100
AcDbLine
 10
697.07
 20
343.91
 30
0
 11
697.07
 21
311.89
 31
0
  0
ARC
  5
A71
330
A02
100
AcDbEntity
  8
View046
100
AcDbCircle
 10
691.07
 20
311.89
 30
0
 40
6
100
AcDbArc
 50
-90.0001
 51
-5.72958e-05
  0
LINE
  5
A72
330
A02
100
AcDbEntity
  8
View046
100
AcDbLine
 10
684.1
 20
305.89
 30
0
 11
691.07
 21
305.89
 31
0
  0
ARC
  5
A73
330
A02
100
AcDbEntity
  8
View046
100
AcDbCircle
 10
684.1
 20
299.89
 30
0
 40
6
100
AcDbArc
 50
89.9999
 51
-168.494
  0
ARC
  5
A74
330
A02
100
AcDbEntity
  8
View046
100
AcDbCircle
 10
665.482
 20
296.1
 30
0
 40
13
100
AcDbArc
 50
-114.481
 51
11.5061
  0
ARC
  5
A75
330
A02
100
AcDbEntity
  8
View046
100
AcDbCircle
 10
673.732
 20
292.1
 30
0
 40
1.5
100
AcDbArc
 50
180
 51
-5.72958e-05
  0
LINE
  5
A76
330
A02
100
AcDbEntity
  8
View046
100
AcDbLine
 10
675.232
 20
299.6
 30
0
 11
675.232
 21
292.1
 31
0
  0
ARC
  5
A77
330
A02
100
AcDbEntity
  8
View046
100
AcDbCircle
 10
673.732
 20
299.6
 30
0
 40
1.5
100
AcDbArc
 50
-5.72958e-05
 51
180
  0
LINE
  5
A78
330
A02
100
AcDbEntity
  8
View046
100
AcDbLine
 10
672.232
 20
299.6
 30
0
 11
672.232
 21
292.1
 31
0
  0
CIRCLE
  5
A79
330
A02
100
AcDbEntity
  8
View046
100
AcDbCircle
 10
690.732
 20
312.4
 40
1.8
  0
ARC
  5
A7A
330
A02
100
AcDbEntity
  8
View046
100
AcDbCircle
 10
666.732
 20
296.9
 30
0
 40
2.6
100
AcDbArc
 50
-90.0001
 51
89.9999
  0
LINE
  5
A7B
330
A02
100
AcDbEntity
  8
View046
100
AcDbLine
 10
666.732
 20
299.5
 30
0
 11
664.232
 21
299.5
 31
0
  0
ARC
  5
A7C
330
A02
100
AcDbEntity
  8
View046
100
AcDbCircle
 10
664.232
 20
296.9
 30
0
 40
2.6
100
AcDbArc
 50
89.9999
 51
-90.0001
  0
LINE
  5
A7D
330
A02
100
AcDbEntity
  8
View046
100
AcDbLine
 10
664.232
 20
294.3
 30
0
 11
666.732
 21
294.3
 31
0
  0
CIRCLE
  5
A7E
330
A02
100
AcDbEntity
  8
View046
100
AcDbCircle
 10
645.232
 20
294.1
 40
2.1
  0
CIRCLE
  5
A7F
330
A02
100
AcDbEntity
  8
View046
100
AcDbCircle
 10
659.732
 20
312.4
 40
1.8
  0
LINE
  5
A80
330
A02
100
AcDbEntity
  8
View046
100
AcDbLine
 10
649.456
 20
328.006
 30
0
 11
645.463
 21
331.015
 31
0
  0
LINE
  5
A81
330
A02
100
AcDbEntity
  8
View046
100
AcDbLine
 10
645.463
 20
331.015
 30
0
 11
642.454
 21
327.022
 31
0
  0
LINE
  5
A82
330
A02
100
AcDbEntity
  8
View046
100
AcDbLine
 10
642.454
 20
327.022
 30
0
 11
646.447
 21
324.013
 31
0
  0
LINE
  5
A83
330
A02
100
AcDbEntity
  8
View046
100
AcDbLine
 10
646.447
 20
324.013
 30
0
 11
649.456
 21
328.006
 31
0
  0
CIRCLE
  5
A84
330
A02
100
AcDbEntity
  8
View046
100
AcDbCircle
 10
690.732
 20
343.4
 40
1.8
  0
CIRCLE
  5
A85
330
A02
100
AcDbEntity
  8
View046
100
AcDbCircle
 10
675.232
 20
327.9
 40
11.25
  0
ARC
  5
A86
330
A02
100
AcDbEntity
  8
View046
100
AcDbCircle
 10
673.732
 20
356.2
 30
0
 40
1.5
100
AcDbArc
 50
180
 51
-5.72958e-05
  0
LINE
  5
A87
330
A02
100
AcDbEntity
  8
View046
100
AcDbLine
 10
675.232
 20
363.7
 30
0
 11
675.232
 21
356.2
 31
0
  0
ARC
  5
A88
330
A02
100
AcDbEntity
  8
View046
100
AcDbCircle
 10
673.732
 20
363.7
 30
0
 40
1.5
100
AcDbArc
 50
-5.72958e-05
 51
180
  0
LINE
  5
A89
330
A02
100
AcDbEntity
  8
View046
100
AcDbLine
 10
672.232
 20
356.2
 30
0
 11
672.232
 21
363.7
 31
0
  0
CIRCLE
  5
A8A
330
A02
100
AcDbEntity
  8
View046
100
AcDbCircle
 10
659.732
 20
343.4
 40
1.8
  0
ARC
  5
A8B
330
A02
100
AcDbEntity
  8
View046
100
AcDbCircle
 10
666.732
 20
358.9
 30
0
 40
2.6
100
AcDbArc
 50
-90.0001
 51
89.9999
  0
LINE
  5
A8C
330
A02
100
AcDbEntity
  8
View046
100
AcDbLine
 10
666.732
 20
361.5
 30
0
 11
664.232
 21
361.5
 31
0
  0
ARC
  5
A8D
330
A02
100
AcDbEntity
  8
View046
100
AcDbCircle
 10
664.232
 20
358.9
 30
0
 40
2.6
100
AcDbArc
 50
89.9999
 51
-90.0001
  0
LINE
  5
A8E
330
A02
100
AcDbEntity
  8
View046
100
AcDbLine
 10
664.232
 20
356.3
 30
0
 11
666.732
 21
356.3
 31
0
  0
CIRCLE
  5
A8F
330
A02
100
AcDbEntity
  8
View046
100
AcDbCircle
 10
645.232
 20
361.7
 40
2.1
  0
CIRCLE
  5
A90
330
A02
100
AcDbEntity
  8
View046
100
AcDbCircle
 10
625.232
 20
294.1
 40
2.1
  0
CIRCLE
  5
A91
330
A02
100
AcDbEntity
  8
View046
100
AcDbCircle
 10
625.232
 20
307.9
 40
2.1
  0
LINE
  5
A92
330
A02
100
AcDbEntity
  8
View046
100
AcDbLine
 10
642.234
 20
318.422
 30
0
 11
638.241
 21
321.431
 31
0
  0
LINE
  5
A93
330
A02
100
AcDbEntity
  8
View046
100
AcDbLine
 10
638.241
 20
321.431
 30
0
 11
635.232
 21
317.438
 31
0
  0
LINE
  5
A94
330
A02
100
AcDbEntity
  8
View046
100
AcDbLine
 10
635.232
 20
317.438
 30
0
 11
639.225
 21
314.429
 31
0
  0
LINE
  5
A95
330
A02
100
AcDbEntity
  8
View046
100
AcDbLine
 10
639.225
 20
314.429
 30
0
 11
642.234
 21
318.422
 31
0
  0
LINE
  5
A96
330
A02
100
AcDbEntity
  8
View046
100
AcDbLine
 10
645.845
 20
323.214
 30
0
 11
641.852
 21
326.223
 31
0
  0
LINE
  5
A97
330
A02
100
AcDbEntity
  8
View046
100
AcDbLine
 10
641.852
 20
326.223
 30
0
 11
638.843
 21
322.23
 31
0
  0
LINE
  5
A98
330
A02
100
AcDbEntity
  8
View046
100
AcDbLine
 10
638.843
 20
322.23
 30
0
 11
642.836
 21
319.221
 31
0
  0
LINE
  5
A99
330
A02
100
AcDbEntity
  8
View046
100
AcDbLine
 10
642.836
 20
319.221
 30
0
 11
645.845
 21
323.214
 31
0
  0
CIRCLE
  5
A9A
330
A02
100
AcDbEntity
  8
View046
100
AcDbCircle
 10
604.982
 20
296.9
 40
3.65
  0
ARC
  5
A9B
330
A02
100
AcDbEntity
  8
View046
100
AcDbCircle
 10
596.732
 20
299.6
 30
0
 40
1.5
100
AcDbArc
 50
-5.72958e-05
 51
180
  0
LINE
  5
A9C
330
A02
100
AcDbEntity
  8
View046
100
AcDbLine
 10
595.232
 20
292.1
 30
0
 11
595.232
 21
299.6
 31
0
  0
ARC
  5
A9D
330
A02
100
AcDbEntity
  8
View046
100
AcDbCircle
 10
596.732
 20
292.1
 30
0
 40
1.5
100
AcDbArc
 50
180
 51
-5.72958e-05
  0
LINE
  5
A9E
330
A02
100
AcDbEntity
  8
View046
100
AcDbLine
 10
598.232
 20
299.6
 30
0
 11
598.232
 21
292.1
 31
0
  0
CIRCLE
  5
A9F
330
A02
100
AcDbEntity
  8
View046
100
AcDbCircle
 10
605.232
 20
307.9
 40
2.1
  0
LINE
  5
AA0
330
A02
100
AcDbEntity
  8
View046
100
AcDbLine
 10
643.415
 20
329.959
 30
0
 11
639.422
 21
332.968
 31
0
  0
LINE
  5
AA1
330
A02
100
AcDbEntity
  8
View046
100
AcDbLine
 10
639.422
 20
332.968
 30
0
 11
636.413
 21
328.975
 31
0
  0
LINE
  5
AA2
330
A02
100
AcDbEntity
  8
View046
100
AcDbLine
 10
636.413
 20
328.975
 30
0
 11
640.406
 21
325.966
 31
0
  0
LINE
  5
AA3
330
A02
100
AcDbEntity
  8
View046
100
AcDbLine
 10
640.406
 20
325.966
 30
0
 11
643.415
 21
329.959
 31
0
  0
LINE
  5
AA4
330
A02
100
AcDbEntity
  8
View046
100
AcDbLine
 10
647.026
 20
334.751
 30
0
 11
643.033
 21
337.76
 31
0
  0
LINE
  5
AA5
330
A02
100
AcDbEntity
  8
View046
100
AcDbLine
 10
643.033
 20
337.76
 30
0
 11
640.024
 21
333.767
 31
0
  0
LINE
  5
AA6
330
A02
100
AcDbEntity
  8
View046
100
AcDbLine
 10
640.024
 20
333.767
 30
0
 11
644.017
 21
330.758
 31
0
  0
LINE
  5
AA7
330
A02
100
AcDbEntity
  8
View046
100
AcDbLine
 10
644.017
 20
330.758
 30
0
 11
647.026
 21
334.751
 31
0
  0
LINE
  5
AA8
330
A02
100
AcDbEntity
  8
View046
100
AcDbLine
 10
642.234
 20
338.362
 30
0
 11
638.241
 21
341.371
 31
0
  0
LINE
  5
AA9
330
A02
100
AcDbEntity
  8
View046
100
AcDbLine
 10
638.241
 20
341.371
 30
0
 11
635.232
 21
337.378
 31
0
  0
LINE
  5
AAA
330
A02
100
AcDbEntity
  8
View046
100
AcDbLine
 10
635.232
 20
337.378
 30
0
 11
639.225
 21
334.369
 31
0
  0
LINE
  5
AAB
330
A02
100
AcDbEntity
  8
View046
100
AcDbLine
 10
639.225
 20
334.369
 30
0
 11
642.234
 21
338.362
 31
0
  0
CIRCLE
  5
AAC
330
A02
100
AcDbEntity
  8
View046
100
AcDbCircle
 10
625.232
 20
347.9
 40
2.1
  0
CIRCLE
  5
AAD
330
A02
100
AcDbEntity
  8
View046
100
AcDbCircle
 10
625.232
 20
361.7
 40
2.1
  0
CIRCLE
  5
AAE
330
A02
100
AcDbEntity
  8
View046
100
AcDbCircle
 10
605.232
 20
327.9
 40
2.5
  0
CIRCLE
  5
AAF
330
A02
100
AcDbEntity
  8
View046
100
AcDbCircle
 10
605.232
 20
347.9
 40
2.1
  0
CIRCLE
  5
AB0
330
A02
100
AcDbEntity
  8
View046
100
AcDbCircle
 10
604.982
 20
358.9
 40
3.65
  0
ARC
  5
AB1
330
A02
100
AcDbEntity
  8
View046
100
AcDbCircle
 10
596.732
 20
363.7
 30
0
 40
1.5
100
AcDbArc
 50
-5.72958e-05
 51
180
  0
LINE
  5
AB2
330
A02
100
AcDbEntity
  8
View046
100
AcDbLine
 10
595.232
 20
356.2
 30
0
 11
595.232
 21
363.7
 31
0
  0
ARC
  5
AB3
330
A02
100
AcDbEntity
  8
View046
100
AcDbCircle
 10
596.732
 20
356.2
 30
0
 40
1.5
100
AcDbArc
 50
180
 51
-5.72958e-05
  0
LINE
  5
AB4
330
A02
100
AcDbEntity
  8
View046
100
AcDbLine
 10
598.232
 20
356.2
 30
0
 11
598.232
 21
363.7
 31
0
  0
ARC
  5
AB5
330
A02
100
AcDbEntity
  8
View046
100
AcDbCircle
 10
575.982
 20
452.3
 30
0
 40
13
100
AcDbArc
 50
-5.22868e-05
 51
114.48
  0
LINE
  5
AB6
330
A02
100
AcDbEntity
  8
View046
100
AcDbLine
 10
588.982
 20
452.3
 30
0
 11
588.982
 21
418.461
 31
0
  0
ARC
  5
AB7
330
A02
100
AcDbEntity
  8
View046
100
AcDbCircle
 10
545.732
 20
518.738
 30
0
 40
60
100
AcDbArc
 50
-114.481
 51
-65.5195
  0
ARC
  5
AB8
330
A02
100
AcDbEntity
  8
View046
100
AcDbCircle
 10
587.582
 20
419
 30
0
 40
1.5
100
AcDbArc
 50
-90.0001
 51
-21.0395
  0
LINE
  5
AB9
330
A02
100
AcDbEntity
  8
View046
100
AcDbLine
 10
578.282
 20
417.5
 30
0
 11
587.582
 21
417.5
 31
0
  0
ARC
  5
ABA
330
A02
100
AcDbEntity
  8
View046
100
AcDbCircle
 10
578.282
 20
417.2
 30
0
 40
0.3
100
AcDbArc
 50
89.9999
 51
180
  0
LINE
  5
ABB
330
A02
100
AcDbEntity
  8
View046
100
AcDbLine
 10
577.982
 20
411.8
 30
0
 11
577.982
 21
417.2
 31
0
  0
LINE
  5
ABC
330
A02
100
AcDbEntity
  8
View046
100
AcDbLine
 10
577.982
 20
411.8
 30
0
 11
577.982
 21
409.8
 31
0
  0
LINE
  5
ABD
330
A02
100
AcDbEntity
  8
View046
100
AcDbLine
 10
587.582
 20
409.8
 30
0
 11
577.982
 21
409.8
 31
0
  0
ARC
  5
ABE
330
A02
100
AcDbEntity
  8
View046
100
AcDbCircle
 10
587.582
 20
408.3
 30
0
 40
1.5
100
AcDbArc
 50
21.0394
 51
89.9999
  0
LINE
  5
ABF
330
A02
100
AcDbEntity
  8
View046
100
AcDbLine
 10
588.982
 20
408.839
 30
0
 11
588.982
 21
388.7
 31
0
  0
ARC
  5
AC0
330
A02
100
AcDbEntity
  8
View046
100
AcDbCircle
 10
575.982
 20
388.7
 30
0
 40
13
100
AcDbArc
 50
-114.481
 51
-5.22868e-05
  0
ARC
  5
AC1
330
A02
100
AcDbEntity
  8
View046
100
AcDbCircle
 10
545.732
 20
322.263
 30
0
 40
60
100
AcDbArc
 50
65.5194
 51
114.48
  0
ARC
  5
AC2
330
A02
100
AcDbEntity
  8
View046
100
AcDbCircle
 10
515.482
 20
388.7
 30
0
 40
13
100
AcDbArc
 50
168.633
 51
-65.5195
  0
ARC
  5
AC3
330
A02
100
AcDbEntity
  8
View046
100
AcDbCircle
 10
492.933
 20
393.233
 30
0
 40
10
100
AcDbArc
 50
-11.3672
 51
25.8923
  0
LINE
  5
AC4
330
A02
100
AcDbEntity
  8
View046
100
AcDbLine
 10
501.93
 20
397.6
 30
0
 11
492.933
 21
416.133
 31
0
  0
ARC
  5
AC5
330
A02
100
AcDbEntity
  8
View046
100
AcDbCircle
 10
501.93
 20
420.5
 30
0
 40
10
100
AcDbArc
 50
154.108
 51
-154.108
  0
LINE
  5
AC6
330
A02
100
AcDbEntity
  8
View046
100
AcDbLine
 10
501.93
 20
443.4
 30
0
 11
492.933
 21
424.867
 31
0
  0
ARC
  5
AC7
330
A02
100
AcDbEntity
  8
View046
100
AcDbCircle
 10
492.933
 20
447.767
 30
0
 40
10
100
AcDbArc
 50
-25.8924
 51
11.3671
  0
ARC
  5
AC8
330
A02
100
AcDbEntity
  8
View046
100
AcDbCircle
 10
515.482
 20
452.3
 30
0
 40
13
100
AcDbArc
 50
65.5194
 51
-168.633
  0
ARC
  5
AC9
330
A02
100
AcDbEntity
  8
View046
100
AcDbCircle
 10
507.232
 20
456.3
 30
0
 40
1.5
100
AcDbArc
 50
-5.22868e-05
 51
180
  0
LINE
  5
ACA
330
A02
100
AcDbEntity
  8
View046
100
AcDbLine
 10
505.732
 20
448.8
 30
0
 11
505.732
 21
456.3
 31
0
  0
ARC
  5
ACB
330
A02
100
AcDbEntity
  8
View046
100
AcDbCircle
 10
507.232
 20
448.8
 30
0
 40
1.5
100
AcDbArc
 50
180
 51
-5.22868e-05
  0
LINE
  5
ACC
330
A02
100
AcDbEntity
  8
View046
100
AcDbLine
 10
508.732
 20
448.8
 30
0
 11
508.732
 21
456.3
 31
0
  0
ARC
  5
ACD
330
A02
100
AcDbEntity
  8
View046
100
AcDbCircle
 10
514.232
 20
451.5
 30
0
 40
2.6
100
AcDbArc
 50
89.9999
 51
-90.0001
  0
LINE
  5
ACE
330
A02
100
AcDbEntity
  8
View046
100
AcDbLine
 10
514.232
 20
448.9
 30
0
 11
516.732
 21
448.9
 31
0
  0
ARC
  5
ACF
330
A02
100
AcDbEntity
  8
View046
100
AcDbCircle
 10
516.732
 20
451.5
 30
0
 40
2.6
100
AcDbArc
 50
-90.0001
 51
89.9999
  0
LINE
  5
AD0
330
A02
100
AcDbEntity
  8
View046
100
AcDbLine
 10
516.732
 20
454.1
 30
0
 11
514.232
 21
454.1
 31
0
  0
LINE
  5
AD1
330
A02
100
AcDbEntity
  8
View046
100
AcDbLine
 10
503.73
 20
429.978
 30
0
 11
507.723
 21
426.969
 31
0
  0
LINE
  5
AD2
330
A02
100
AcDbEntity
  8
View046
100
AcDbLine
 10
507.723
 20
426.969
 30
0
 11
510.732
 21
430.962
 31
0
  0
LINE
  5
AD3
330
A02
100
AcDbEntity
  8
View046
100
AcDbLine
 10
510.732
 20
430.962
 30
0
 11
506.739
 21
433.971
 31
0
  0
LINE
  5
AD4
330
A02
100
AcDbEntity
  8
View046
100
AcDbLine
 10
506.739
 20
433.971
 30
0
 11
503.73
 21
429.978
 31
0
  0
LINE
  5
AD5
330
A02
100
AcDbEntity
  8
View046
100
AcDbLine
 10
496.508
 20
420.394
 30
0
 11
500.501
 21
417.385
 31
0
  0
LINE
  5
AD6
330
A02
100
AcDbEntity
  8
View046
100
AcDbLine
 10
500.501
 20
417.385
 30
0
 11
503.51
 21
421.378
 31
0
  0
LINE
  5
AD7
330
A02
100
AcDbEntity
  8
View046
100
AcDbLine
 10
503.51
 20
421.378
 30
0
 11
499.517
 21
424.387
 31
0
  0
LINE
  5
AD8
330
A02
100
AcDbEntity
  8
View046
100
AcDbLine
 10
499.517
 20
424.387
 30
0
 11
496.508
 21
420.394
 31
0
  0
LINE
  5
AD9
330
A02
100
AcDbEntity
  8
View046
100
AcDbLine
 10
500.119
 20
425.186
 30
0
 11
504.112
 21
422.177
 31
0
  0
LINE
  5
ADA
330
A02
100
AcDbEntity
  8
View046
100
AcDbLine
 10
504.112
 20
422.177
 30
0
 11
507.121
 21
426.17
 31
0
  0
LINE
  5
ADB
330
A02
100
AcDbEntity
  8
View046
100
AcDbLine
 10
507.121
 20
426.17
 30
0
 11
503.128
 21
429.179
 31
0
  0
LINE
  5
ADC
330
A02
100
AcDbEntity
  8
View046
100
AcDbLine
 10
503.128
 20
429.179
 30
0
 11
500.119
 21
425.186
 31
0
  0
CIRCLE
  5
ADD
330
A02
100
AcDbEntity
  8
View046
100
AcDbCircle
 10
515.732
 20
428.5
 40
1.2
  0
CIRCLE
  5
ADE
330
A02
100
AcDbEntity
  8
View046
100
AcDbCircle
 10
521.232
 20
436
 40
1.8
  0
LINE
  5
ADF
330
A02
100
AcDbEntity
  8
View046
100
AcDbLine
 10
502.549
 20
418.441
 30
0
 11
506.542
 21
415.432
 31
0
  0
LINE
  5
AE0
330
A02
100
AcDbEntity
  8
View046
100
AcDbLine
 10
506.542
 20
415.432
 30
0
 11
509.551
 21
419.425
 31
0
  0
LINE
  5
AE1
330
A02
100
AcDbEntity
  8
View046
100
AcDbLine
 10
509.551
 20
419.425
 30
0
 11
505.558
 21
422.434
 31
0
  0
LINE
  5
AE2
330
A02
100
AcDbEntity
  8
View046
100
AcDbLine
 10
505.558
 20
422.434
 30
0
 11
502.549
 21
418.441
 31
0
  0
LINE
  5
AE3
330
A02
100
AcDbEntity
  8
View046
100
AcDbLine
 10
498.938
 20
413.649
 30
0
 11
502.931
 21
410.64
 31
0
  0
LINE
  5
AE4
330
A02
100
AcDbEntity
  8
View046
100
AcDbLine
 10
502.931
 20
410.64
 30
0
 11
505.94
 21
414.633
 31
0
  0
LINE
  5
AE5
330
A02
100
AcDbEntity
  8
View046
100
AcDbLine
 10
505.94
 20
414.633
 30
0
 11
501.947
 21
417.642
 31
0
  0
LINE
  5
AE6
330
A02
100
AcDbEntity
  8
View046
100
AcDbLine
 10
501.947
 20
417.642
 30
0
 11
498.938
 21
413.649
 31
0
  0
LINE
  5
AE7
330
A02
100
AcDbEntity
  8
View046
100
AcDbLine
 10
503.73
 20
410.038
 30
0
 11
507.723
 21
407.029
 31
0
  0
LINE
  5
AE8
330
A02
100
AcDbEntity
  8
View046
100
AcDbLine
 10
507.723
 20
407.029
 30
0
 11
510.732
 21
411.022
 31
0
  0
LINE
  5
AE9
330
A02
100
AcDbEntity
  8
View046
100
AcDbLine
 10
510.732
 20
411.022
 30
0
 11
506.739
 21
414.031
 31
0
  0
LINE
  5
AEA
330
A02
100
AcDbEntity
  8
View046
100
AcDbLine
 10
506.739
 20
414.031
 30
0
 11
503.73
 21
410.038
 31
0
  0
CIRCLE
  5
AEB
330
A02
100
AcDbEntity
  8
View046
100
AcDbCircle
 10
515.732
 20
412.5
 40
1.2
  0
ARC
  5
AEC
330
A02
100
AcDbEntity
  8
View046
100
AcDbCircle
 10
507.232
 20
392.2
 30
0
 40
1.5
100
AcDbArc
 50
-5.22868e-05
 51
180
  0
LINE
  5
AED
330
A02
100
AcDbEntity
  8
View046
100
AcDbLine
 10
505.732
 20
384.7
 30
0
 11
505.732
 21
392.2
 31
0
  0
ARC
  5
AEE
330
A02
100
AcDbEntity
  8
View046
100
AcDbCircle
 10
507.232
 20
384.7
 30
0
 40
1.5
100
AcDbArc
 50
180
 51
-5.22868e-05
  0
LINE
  5
AEF
330
A02
100
AcDbEntity
  8
View046
100
AcDbLine
 10
508.732
 20
392.2
 30
0
 11
508.732
 21
384.7
 31
0
  0
ARC
  5
AF0
330
A02
100
AcDbEntity
  8
View046
100
AcDbCircle
 10
514.232
 20
389.5
 30
0
 40
2.6
100
AcDbArc
 50
89.9999
 51
-90.0001
  0
LINE
  5
AF1
330
A02
100
AcDbEntity
  8
View046
100
AcDbLine
 10
514.232
 20
386.9
 30
0
 11
516.732
 21
386.9
 31
0
  0
ARC
  5
AF2
330
A02
100
AcDbEntity
  8
View046
100
AcDbCircle
 10
516.732
 20
389.5
 30
0
 40
2.6
100
AcDbArc
 50
-90.0001
 51
89.9999
  0
LINE
  5
AF3
330
A02
100
AcDbEntity
  8
View046
100
AcDbLine
 10
516.732
 20
392.1
 30
0
 11
514.232
 21
392.1
 31
0
  0
CIRCLE
  5
AF4
330
A02
100
AcDbEntity
  8
View046
100
AcDbCircle
 10
525.732
 20
420.5
 40
1.2
  0
CIRCLE
  5
AF5
330
A02
100
AcDbEntity
  8
View046
100
AcDbCircle
 10
521.232
 20
405
 40
1.8
  0
CIRCLE
  5
AF6
330
A02
100
AcDbEntity
  8
View046
100
AcDbCircle
 10
534.232
 20
420.5
 40
1.2
  0
ARC
  5
AF7
330
A02
100
AcDbEntity
  8
View046
100
AcDbCircle
 10
545.732
 20
506.5
 30
0
 40
60
100
AcDbArc
 50
-106.931
 51
-73.0689
  0
ARC
  5
AF8
330
A02
100
AcDbEntity
  8
View046
100
AcDbCircle
 10
515.482
 20
451.5
 30
0
 40
13
100
AcDbArc
 50
-68.154
 51
-10.6357
  0
ARC
  5
AF9
330
A02
100
AcDbEntity
  8
View046
100
AcDbCircle
 10
518.732
 20
420.5
 30
0
 40
19
100
AcDbArc
 50
-85.2073
 51
85.2072
  0
ARC
  5
AFA
330
A02
100
AcDbEntity
  8
View046
100
AcDbCircle
 10
515.482
 20
389.5
 30
0
 40
13
100
AcDbArc
 50
10.6356
 51
68.1539
  0
ARC
  5
AFB
330
A02
100
AcDbEntity
  8
View046
100
AcDbCircle
 10
545.732
 20
334.5
 30
0
 40
60
100
AcDbArc
 50
73.0688
 51
106.931
  0
ARC
  5
AFC
330
A02
100
AcDbEntity
  8
View046
100
AcDbCircle
 10
575.982
 20
389.5
 30
0
 40
13
100
AcDbArc
 50
109.082
 51
169.364
  0
LINE
  5
AFD
330
A02
100
AcDbEntity
  8
View046
100
AcDbLine
 10
571.732
 20
439.214
 30
0
 11
571.732
 21
401.786
 31
0
  0
ARC
  5
AFE
330
A02
100
AcDbEntity
  8
View046
100
AcDbCircle
 10
575.982
 20
451.5
 30
0
 40
13
100
AcDbArc
 50
-169.364
 51
-109.082
  0
CIRCLE
  5
AFF
330
A02
100
AcDbEntity
  8
View046
100
AcDbCircle
 10
575.982
 20
451.5
 40
3.65
  0
ARC
  5
B00
330
A02
100
AcDbEntity
  8
View046
100
AcDbCircle
 10
584.232
 20
448.8
 30
0
 40
1.5
100
AcDbArc
 50
180
 51
-5.22868e-05
  0
LINE
  5
B01
330
A02
100
AcDbEntity
  8
View046
100
AcDbLine
 10
585.732
 20
456.3
 30
0
 11
585.732
 21
448.8
 31
0
  0
ARC
  5
B02
330
A02
100
AcDbEntity
  8
View046
100
AcDbCircle
 10
584.232
 20
456.3
 30
0
 40
1.5
100
AcDbArc
 50
-5.22868e-05
 51
180
  0
LINE
  5
B03
330
A02
100
AcDbEntity
  8
View046
100
AcDbLine
 10
582.732
 20
448.8
 30
0
 11
582.732
 21
456.3
 31
0
  0
CIRCLE
  5
B04
330
A02
100
AcDbEntity
  8
View046
100
AcDbCircle
 10
582.982
 20
441.5
 40
1.5
  0
CIRCLE
  5
B05
330
A02
100
AcDbEntity
  8
View046
100
AcDbCircle
 10
585.182
 20
426.5
 40
1.5
  0
CIRCLE
  5
B06
330
A02
100
AcDbEntity
  8
View046
100
AcDbCircle
 10
582.982
 20
422.5
 40
1.5
  0
CIRCLE
  5
B07
330
A02
100
AcDbEntity
  8
View046
100
AcDbCircle
 10
586.232
 20
420.5
 40
1.2
  0
CIRCLE
  5
B08
330
A02
100
AcDbEntity
  8
View046
100
AcDbCircle
 10
575.982
 20
389.5
 40
3.65
  0
CIRCLE
  5
B09
330
A02
100
AcDbEntity
  8
View046
100
AcDbCircle
 10
585.182
 20
398.5
 40
1.5
  0
ARC
  5
B0A
330
A02
100
AcDbEntity
  8
View046
100
AcDbCircle
 10
584.232
 20
384.7
 30
0
 40
1.5
100
AcDbArc
 50
180
 51
-5.22868e-05
  0
LINE
  5
B0B
330
A02
100
AcDbEntity
  8
View046
100
AcDbLine
 10
585.732
 20
392.2
 30
0
 11
585.732
 21
384.7
 31
0
  0
ARC
  5
B0C
330
A02
100
AcDbEntity
  8
View046
100
AcDbCircle
 10
584.232
 20
392.2
 30
0
 40
1.5
100
AcDbArc
 50
-5.22868e-05
 51
180
  0
LINE
  5
B0D
330
A02
100
AcDbEntity
  8
View046
100
AcDbLine
 10
582.732
 20
392.2
 30
0
 11
582.732
 21
384.7
 31
0
  0
ARC
  5
B0E
330
A02
100
AcDbEntity
  8
View046
100
AcDbCircle
 10
604.982
 20
388.7
 30
0
 40
13
100
AcDbArc
 50
180
 51
-65.5196
  0
ARC
  5
B0F
330
A02
100
AcDbEntity
  8
View046
100
AcDbCircle
 10
604.982
 20
388.7
 30
0
 40
13
100
AcDbArc
 50
129.964
 51
180
  0
ARC
  5
B10
330
A02
100
AcDbEntity
  8
View046
100
AcDbCircle
 10
635.232
 20
322.262
 30
0
 40
60
100
AcDbArc
 50
65.5194
 51
114.48
  0
LINE
  5
B11
330
A02
100
AcDbEntity
  8
View046
100
AcDbLine
 10
596.732
 20
398.664
 30
0
 11
596.632
 21
398.664
 31
0
  0
ARC
  5
B12
330
A02
100
AcDbEntity
  8
View046
100
AcDbCircle
 10
596.732
 20
398.914
 30
0
 40
0.25
100
AcDbArc
 50
-90.0001
 51
-5.72958e-05
  0
LINE
  5
B13
330
A02
100
AcDbEntity
  8
View046
100
AcDbLine
 10
596.982
 20
398.914
 30
0
 11
596.982
 21
442.086
 31
0
  0
ARC
  5
B14
330
A02
100
AcDbEntity
  8
View046
100
AcDbCircle
 10
596.732
 20
442.086
 30
0
 40
0.25
100
AcDbArc
 50
-5.72958e-05
 51
89.9999
  0
LINE
  5
B15
330
A02
100
AcDbEntity
  8
View046
100
AcDbLine
 10
596.732
 20
442.336
 30
0
 11
596.632
 21
442.336
 31
0
  0
ARC
  5
B16
330
A02
100
AcDbEntity
  8
View046
100
AcDbCircle
 10
604.982
 20
452.3
 30
0
 40
13
100
AcDbArc
 50
180
 51
-129.964
  0
ARC
  5
B17
330
A02
100
AcDbEntity
  8
View046
100
AcDbCircle
 10
604.982
 20
452.3
 30
0
 40
13
100
AcDbArc
 50
65.5194
 51
180
  0
ARC
  5
B18
330
A02
100
AcDbEntity
  8
View046
100
AcDbCircle
 10
635.232
 20
518.737
 30
0
 40
60
100
AcDbArc
 50
-114.481
 51
-65.5196
  0
ARC
  5
B19
330
A02
100
AcDbEntity
  8
View046
100
AcDbCircle
 10
665.482
 20
452.3
 30
0
 40
13
100
AcDbArc
 50
-11.5062
 51
114.48
  0
ARC
  5
B1A
330
A02
100
AcDbEntity
  8
View046
100
AcDbCircle
 10
684.1
 20
448.51
 30
0
 40
6
100
AcDbArc
 50
168.494
 51
-90.0001
  0
LINE
  5
B1B
330
A02
100
AcDbEntity
  8
View046
100
AcDbLine
 10
684.1
 20
442.51
 30
0
 11
691.07
 21
442.51
 31
0
  0
ARC
  5
B1C
330
A02
100
AcDbEntity
  8
View046
100
AcDbCircle
 10
691.07
 20
436.51
 30
0
 40
6
100
AcDbArc
 50
-5.72958e-05
 51
89.9999
  0
LINE
  5
B1D
330
A02
100
AcDbEntity
  8
View046
100
AcDbLine
 10
697.07
 20
436.51
 30
0
 11
697.07
 21
404.49
 31
0
  0
ARC
  5
B1E
330
A02
100
AcDbEntity
  8
View046
100
AcDbCircle
 10
691.07
 20
404.49
 30
0
 40
6
100
AcDbArc
 50
-90.0001
 51
-5.72958e-05
  0
LINE
  5
B1F
330
A02
100
AcDbEntity
  8
View046
100
AcDbLine
 10
684.1
 20
398.49
 30
0
 11
691.07
 21
398.49
 31
0
  0
ARC
  5
B20
330
A02
100
AcDbEntity
  8
View046
100
AcDbCircle
 10
684.1
 20
392.49
 30
0
 40
6
100
AcDbArc
 50
89.9999
 51
-168.494
  0
ARC
  5
B21
330
A02
100
AcDbEntity
  8
View046
100
AcDbCircle
 10
665.482
 20
388.7
 30
0
 40
13
100
AcDbArc
 50
-114.481
 51
11.5061
  0
ARC
  5
B22
330
A02
100
AcDbEntity
  8
View046
100
AcDbCircle
 10
673.732
 20
384.7
 30
0
 40
1.5
100
AcDbArc
 50
180
 51
-5.72958e-05
  0
LINE
  5
B23
330
A02
100
AcDbEntity
  8
View046
100
AcDbLine
 10
675.232
 20
392.2
 30
0
 11
675.232
 21
384.7
 31
0
  0
ARC
  5
B24
330
A02
100
AcDbEntity
  8
View046
100
AcDbCircle
 10
673.732
 20
392.2
 30
0
 40
1.5
100
AcDbArc
 50
-5.72958e-05
 51
180
  0
LINE
  5
B25
330
A02
100
AcDbEntity
  8
View046
100
AcDbLine
 10
672.232
 20
392.2
 30
0
 11
672.232
 21
384.7
 31
0
  0
CIRCLE
  5
B26
330
A02
100
AcDbEntity
  8
View046
100
AcDbCircle
 10
690.732
 20
405
 40
1.8
  0
ARC
  5
B27
330
A02
100
AcDbEntity
  8
View046
100
AcDbCircle
 10
666.732
 20
389.5
 30
0
 40
2.6
100
AcDbArc
 50
-90.0001
 51
89.9999
  0
LINE
  5
B28
330
A02
100
AcDbEntity
  8
View046
100
AcDbLine
 10
666.732
 20
392.1
 30
0
 11
664.232
 21
392.1
 31
0
  0
ARC
  5
B29
330
A02
100
AcDbEntity
  8
View046
100
AcDbCircle
 10
664.232
 20
389.5
 30
0
 40
2.6
100
AcDbArc
 50
89.9999
 51
-90.0001
  0
LINE
  5
B2A
330
A02
100
AcDbEntity
  8
View046
100
AcDbLine
 10
664.232
 20
386.9
 30
0
 11
666.732
 21
386.9
 31
0
  0
CIRCLE
  5
B2B
330
A02
100
AcDbEntity
  8
View046
100
AcDbCircle
 10
645.232
 20
386.7
 40
2.1
  0
CIRCLE
  5
B2C
330
A02
100
AcDbEntity
  8
View046
100
AcDbCircle
 10
659.732
 20
405
 40
1.8
  0
LINE
  5
B2D
330
A02
100
AcDbEntity
  8
View046
100
AcDbLine
 10
649.456
 20
420.606
 30
0
 11
645.463
 21
423.615
 31
0
  0
LINE
  5
B2E
330
A02
100
AcDbEntity
  8
View046
100
AcDbLine
 10
645.463
 20
423.615
 30
0
 11
642.454
 21
419.622
 31
0
  0
LINE
  5
B2F
330
A02
100
AcDbEntity
  8
View046
100
AcDbLine
 10
642.454
 20
419.622
 30
0
 11
646.447
 21
416.613
 31
0
  0
LINE
  5
B30
330
A02
100
AcDbEntity
  8
View046
100
AcDbLine
 10
646.447
 20
416.613
 30
0
 11
649.456
 21
420.606
 31
0
  0
CIRCLE
  5
B31
330
A02
100
AcDbEntity
  8
View046
100
AcDbCircle
 10
690.732
 20
436
 40
1.8
  0
CIRCLE
  5
B32
330
A02
100
AcDbEntity
  8
View046
100
AcDbCircle
 10
675.232
 20
420.5
 40
11.25
  0
ARC
  5
B33
330
A02
100
AcDbEntity
  8
View046
100
AcDbCircle
 10
673.732
 20
448.8
 30
0
 40
1.5
100
AcDbArc
 50
180
 51
-5.72958e-05
  0
LINE
  5
B34
330
A02
100
AcDbEntity
  8
View046
100
AcDbLine
 10
675.232
 20
456.3
 30
0
 11
675.232
 21
448.8
 31
0
  0
ARC
  5
B35
330
A02
100
AcDbEntity
  8
View046
100
AcDbCircle
 10
673.732
 20
456.3
 30
0
 40
1.5
100
AcDbArc
 50
-5.72958e-05
 51
180
  0
LINE
  5
B36
330
A02
100
AcDbEntity
  8
View046
100
AcDbLine
 10
672.232
 20
448.8
 30
0
 11
672.232
 21
456.3
 31
0
  0
CIRCLE
  5
B37
330
A02
100
AcDbEntity
  8
View046
100
AcDbCircle
 10
659.732
 20
436
 40
1.8
  0
ARC
  5
B38
330
A02
100
AcDbEntity
  8
View046
100
AcDbCircle
 10
666.732
 20
451.5
 30
0
 40
2.6
100
AcDbArc
 50
-90.0001
 51
89.9999
  0
LINE
  5
B39
330
A02
100
AcDbEntity
  8
View046
100
AcDbLine
 10
666.732
 20
454.1
 30
0
 11
664.232
 21
454.1
 31
0
  0
ARC
  5
B3A
330
A02
100
AcDbEntity
  8
View046
100
AcDbCircle
 10
664.232
 20
451.5
 30
0
 40
2.6
100
AcDbArc
 50
89.9999
 51
-90.0001
  0
LINE
  5
B3B
330
A02
100
AcDbEntity
  8
View046
100
AcDbLine
 10
664.232
 20
448.9
 30
0
 11
666.732
 21
448.9
 31
0
  0
CIRCLE
  5
B3C
330
A02
100
AcDbEntity
  8
View046
100
AcDbCircle
 10
645.232
 20
454.3
 40
2.1
  0
CIRCLE
  5
B3D
330
A02
100
AcDbEntity
  8
View046
100
AcDbCircle
 10
625.232
 20
386.7
 40
2.1
  0
CIRCLE
  5
B3E
330
A02
100
AcDbEntity
  8
View046
100
AcDbCircle
 10
625.232
 20
400.5
 40
2.1
  0
LINE
  5
B3F
330
A02
100
AcDbEntity
  8
View046
100
AcDbLine
 10
642.234
 20
411.022
 30
0
 11
638.241
 21
414.031
 31
0
  0
LINE
  5
B40
330
A02
100
AcDbEntity
  8
View046
100
AcDbLine
 10
638.241
 20
414.031
 30
0
 11
635.232
 21
410.038
 31
0
  0
LINE
  5
B41
330
A02
100
AcDbEntity
  8
View046
100
AcDbLine
 10
635.232
 20
410.038
 30
0
 11
639.225
 21
407.029
 31
0
  0
LINE
  5
B42
330
A02
100
AcDbEntity
  8
View046
100
AcDbLine
 10
639.225
 20
407.029
 30
0
 11
642.234
 21
411.022
 31
0
  0
LINE
  5
B43
330
A02
100
AcDbEntity
  8
View046
100
AcDbLine
 10
645.845
 20
415.814
 30
0
 11
641.852
 21
418.823
 31
0
  0
LINE
  5
B44
330
A02
100
AcDbEntity
  8
View046
100
AcDbLine
 10
641.852
 20
418.823
 30
0
 11
638.843
 21
414.83
 31
0
  0
LINE
  5
B45
330
A02
100
AcDbEntity
  8
View046
100
AcDbLine
 10
638.843
 20
414.83
 30
0
 11
642.836
 21
411.821
 31
0
  0
LINE
  5
B46
330
A02
100
AcDbEntity
  8
View046
100
AcDbLine
 10
642.836
 20
411.821
 30
0
 11
645.845
 21
415.814
 31
0
  0
CIRCLE
  5
B47
330
A02
100
AcDbEntity
  8
View046
100
AcDbCircle
 10
604.982
 20
389.5
 40
3.65
  0
ARC
  5
B48
330
A02
100
AcDbEntity
  8
View046
100
AcDbCircle
 10
596.732
 20
392.2
 30
0
 40
1.5
100
AcDbArc
 50
-5.72958e-05
 51
180
  0
LINE
  5
B49
330
A02
100
AcDbEntity
  8
View046
100
AcDbLine
 10
595.232
 20
384.7
 30
0
 11
595.232
 21
392.2
 31
0
  0
ARC
  5
B4A
330
A02
100
AcDbEntity
  8
View046
100
AcDbCircle
 10
596.732
 20
384.7
 30
0
 40
1.5
100
AcDbArc
 50
180
 51
-5.72958e-05
  0
LINE
  5
B4B
330
A02
100
AcDbEntity
  8
View046
100
AcDbLine
 10
598.232
 20
392.2
 30
0
 11
598.232
 21
384.7
 31
0
  0
CIRCLE
  5
B4C
330
A02
100
AcDbEntity
  8
View046
100
AcDbCircle
 10
605.232
 20
400.5
 40
2.1
  0
LINE
  5
B4D
330
A02
100
AcDbEntity
  8
View046
100
AcDbLine
 10
643.415
 20
422.559
 30
0
 11
639.422
 21
425.568
 31
0
  0
LINE
  5
B4E
330
A02
100
AcDbEntity
  8
View046
100
AcDbLine
 10
639.422
 20
425.568
 30
0
 11
636.413
 21
421.575
 31
0
  0
LINE
  5
B4F
330
A02
100
AcDbEntity
  8
View046
100
AcDbLine
 10
636.413
 20
421.575
 30
0
 11
640.406
 21
418.566
 31
0
  0
LINE
  5
B50
330
A02
100
AcDbEntity
  8
View046
100
AcDbLine
 10
640.406
 20
418.566
 30
0
 11
643.415
 21
422.559
 31
0
  0
LINE
  5
B51
330
A02
100
AcDbEntity
  8
View046
100
AcDbLine
 10
647.026
 20
427.351
 30
0
 11
643.033
 21
430.36
 31
0
  0
LINE
  5
B52
330
A02
100
AcDbEntity
  8
View046
100
AcDbLine
 10
643.033
 20
430.36
 30
0
 11
640.024
 21
426.367
 31
0
  0
LINE
  5
B53
330
A02
100
AcDbEntity
  8
View046
100
AcDbLine
 10
640.024
 20
426.367
 30
0
 11
644.017
 21
423.358
 31
0
  0
LINE
  5
B54
330
A02
100
AcDbEntity
  8
View046
100
AcDbLine
 10
644.017
 20
423.358
 30
0
 11
647.026
 21
427.351
 31
0
  0
LINE
  5
B55
330
A02
100
AcDbEntity
  8
View046
100
AcDbLine
 10
642.235
 20
430.962
 30
0
 11
638.241
 21
433.971
 31
0
  0
LINE
  5
B56
330
A02
100
AcDbEntity
  8
View046
100
AcDbLine
 10
638.241
 20
433.971
 30
0
 11
635.232
 21
429.978
 31
0
  0
LINE
  5
B57
330
A02
100
AcDbEntity
  8
View046
100
AcDbLine
 10
635.232
 20
429.978
 30
0
 11
639.225
 21
426.969
 31
0
  0
LINE
  5
B58
330
A02
100
AcDbEntity
  8
View046
100
AcDbLine
 10
639.225
 20
426.969
 30
0
 11
642.235
 21
430.962
 31
0
  0
CIRCLE
  5
B59
330
A02
100
AcDbEntity
  8
View046
100
AcDbCircle
 10
625.232
 20
440.5
 40
2.1
  0
CIRCLE
  5
B5A
330
A02
100
AcDbEntity
  8
View046
100
AcDbCircle
 10
625.232
 20
454.3
 40
2.1
  0
CIRCLE
  5
B5B
330
A02
100
AcDbEntity
  8
View046
100
AcDbCircle
 10
605.232
 20
420.5
 40
2.5
  0
CIRCLE
  5
B5C
330
A02
100
AcDbEntity
  8
View046
100
AcDbCircle
 10
605.232
 20
440.5
 40
2.1
  0
CIRCLE
  5
B5D
330
A02
100
AcDbEntity
  8
View046
100
AcDbCircle
 10
604.982
 20
451.5
 40
3.65
  0
ARC
  5
B5E
330
A02
100
AcDbEntity
  8
View046
100
AcDbCircle
 10
596.732
 20
456.3
 30
0
 40
1.5
100
AcDbArc
 50
-5.72958e-05
 51
180
  0
LINE
  5
B5F
330
A02
100
AcDbEntity
  8
View046
100
AcDbLine
 10
595.232
 20
448.8
 30
0
 11
595.232
 21
456.3
 31
0
  0
ARC
  5
B60
330
A02
100
AcDbEntity
  8
View046
100
AcDbCircle
 10
596.732
 20
448.8
 30
0
 40
1.5
100
AcDbArc
 50
180
 51
-5.72958e-05
  0
LINE
  5
B61
330
A02
100
AcDbEntity
  8
View046
100
AcDbLine
 10
598.232
 20
448.8
 30
0
 11
598.232
 21
456.3
 31
0
  0
ARC
  5
B62
330
A02
100
AcDbEntity
  8
View046
100
AcDbCircle
 10
575.982
 20
544.9
 30
0
 40
13
100
AcDbArc
 50
-5.22868e-05
 51
114.48
  0
LINE
  5
B63
330
A02
100
AcDbEntity
  8
View046
100
AcDbLine
 10
588.982
 20
544.9
 30
0
 11
588.982
 21
511.061
 31
0
  0
ARC
  5
B64
330
A02
100
AcDbEntity
  8
View046
100
AcDbCircle
 10
545.732
 20
611.338
 30
0
 40
60
100
AcDbArc
 50
-114.481
 51
-65.5195
  0
ARC
  5
B65
330
A02
100
AcDbEntity
  8
View046
100
AcDbCircle
 10
587.582
 20
511.6
 30
0
 40
1.5
100
AcDbArc
 50
-90.0001
 51
-21.0395
  0
LINE
  5
B66
330
A02
100
AcDbEntity
  8
View046
100
AcDbLine
 10
578.282
 20
510.1
 30
0
 11
587.582
 21
510.1
 31
0
  0
ARC
  5
B67
330
A02
100
AcDbEntity
  8
View046
100
AcDbCircle
 10
578.282
 20
509.8
 30
0
 40
0.3
100
AcDbArc
 50
89.9999
 51
180
  0
LINE
  5
B68
330
A02
100
AcDbEntity
  8
View046
100
AcDbLine
 10
577.982
 20
504.4
 30
0
 11
577.982
 21
509.8
 31
0
  0
LINE
  5
B69
330
A02
100
AcDbEntity
  8
View046
100
AcDbLine
 10
577.982
 20
504.4
 30
0
 11
577.982
 21
502.4
 31
0
  0
LINE
  5
B6A
330
A02
100
AcDbEntity
  8
View046
100
AcDbLine
 10
587.582
 20
502.4
 30
0
 11
577.982
 21
502.4
 31
0
  0
ARC
  5
B6B
330
A02
100
AcDbEntity
  8
View046
100
AcDbCircle
 10
587.582
 20
500.9
 30
0
 40
1.5
100
AcDbArc
 50
21.0394
 51
89.9999
  0
LINE
  5
B6C
330
A02
100
AcDbEntity
  8
View046
100
AcDbLine
 10
588.982
 20
501.439
 30
0
 11
588.982
 21
481.3
 31
0
  0
ARC
  5
B6D
330
A02
100
AcDbEntity
  8
View046
100
AcDbCircle
 10
575.982
 20
481.3
 30
0
 40
13
100
AcDbArc
 50
-114.481
 51
-5.22868e-05
  0
ARC
  5
B6E
330
A02
100
AcDbEntity
  8
View046
100
AcDbCircle
 10
545.732
 20
414.863
 30
0
 40
60
100
AcDbArc
 50
65.5194
 51
114.48
  0
ARC
  5
B6F
330
A02
100
AcDbEntity
  8
View046
100
AcDbCircle
 10
515.482
 20
481.3
 30
0
 40
13
100
AcDbArc
 50
168.633
 51
-65.5195
  0
ARC
  5
B70
330
A02
100
AcDbEntity
  8
View046
100
AcDbCircle
 10
492.933
 20
485.833
 30
0
 40
10
100
AcDbArc
 50
-11.3672
 51
25.8923
  0
LINE
  5
B71
330
A02
100
AcDbEntity
  8
View046
100
AcDbLine
 10
501.93
 20
490.2
 30
0
 11
492.933
 21
508.733
 31
0
  0
ARC
  5
B72
330
A02
100
AcDbEntity
  8
View046
100
AcDbCircle
 10
501.93
 20
513.1
 30
0
 40
10
100
AcDbArc
 50
154.108
 51
-154.108
  0
LINE
  5
B73
330
A02
100
AcDbEntity
  8
View046
100
AcDbLine
 10
501.93
 20
536
 30
0
 11
492.934
 21
517.467
 31
0
  0
ARC
  5
B74
330
A02
100
AcDbEntity
  8
View046
100
AcDbCircle
 10
492.934
 20
540.367
 30
0
 40
10
100
AcDbArc
 50
-25.8924
 51
11.3671
  0
ARC
  5
B75
330
A02
100
AcDbEntity
  8
View046
100
AcDbCircle
 10
515.482
 20
544.9
 30
0
 40
13
100
AcDbArc
 50
65.5194
 51
-168.633
  0
ARC
  5
B76
330
A02
100
AcDbEntity
  8
View046
100
AcDbCircle
 10
507.232
 20
548.9
 30
0
 40
1.5
100
AcDbArc
 50
-5.22868e-05
 51
180
  0
LINE
  5
B77
330
A02
100
AcDbEntity
  8
View046
100
AcDbLine
 10
505.732
 20
541.4
 30
0
 11
505.732
 21
548.9
 31
0
  0
ARC
  5
B78
330
A02
100
AcDbEntity
  8
View046
100
AcDbCircle
 10
507.232
 20
541.4
 30
0
 40
1.5
100
AcDbArc
 50
180
 51
-5.22868e-05
  0
LINE
  5
B79
330
A02
100
AcDbEntity
  8
View046
100
AcDbLine
 10
508.732
 20
541.4
 30
0
 11
508.732
 21
548.9
 31
0
  0
ARC
  5
B7A
330
A02
100
AcDbEntity
  8
View046
100
AcDbCircle
 10
514.232
 20
544.1
 30
0
 40
2.6
100
AcDbArc
 50
89.9999
 51
-90.0001
  0
LINE
  5
B7B
330
A02
100
AcDbEntity
  8
View046
100
AcDbLine
 10
514.232
 20
541.5
 30
0
 11
516.732
 21
541.5
 31
0
  0
ARC
  5
B7C
330
A02
100
AcDbEntity
  8
View046
100
AcDbCircle
 10
516.732
 20
544.1
 30
0
 40
2.6
100
AcDbArc
 50
-90.0001
 51
89.9999
  0
LINE
  5
B7D
330
A02
100
AcDbEntity
  8
View046
100
AcDbLine
 10
516.732
 20
546.7
 30
0
 11
514.232
 21
546.7
 31
0
  0
LINE
  5
B7E
330
A02
100
AcDbEntity
  8
View046
100
AcDbLine
 10
503.73
 20
522.578
 30
0
 11
507.723
 21
519.569
 31
0
  0
LINE
  5
B7F
330
A02
100
AcDbEntity
  8
View046
100
AcDbLine
 10
507.723
 20
519.569
 30
0
 11
510.732
 21
523.562
 31
0
  0
LINE
  5
B80
330
A02
100
AcDbEntity
  8
View046
100
AcDbLine
 10
510.732
 20
523.562
 30
0
 11
506.739
 21
526.571
 31
0
  0
LINE
  5
B81
330
A02
100
AcDbEntity
  8
View046
100
AcDbLine
 10
506.739
 20
526.571
 30
0
 11
503.73
 21
522.578
 31
0
  0
LINE
  5
B82
330
A02
100
AcDbEntity
  8
View046
100
AcDbLine
 10
496.508
 20
512.994
 30
0
 11
500.501
 21
509.985
 31
0
  0
LINE
  5
B83
330
A02
100
AcDbEntity
  8
View046
100
AcDbLine
 10
500.501
 20
509.985
 30
0
 11
503.511
 21
513.978
 31
0
  0
LINE
  5
B84
330
A02
100
AcDbEntity
  8
View046
100
AcDbLine
 10
503.511
 20
513.978
 30
0
 11
499.517
 21
516.987
 31
0
  0
LINE
  5
B85
330
A02
100
AcDbEntity
  8
View046
100
AcDbLine
 10
499.517
 20
516.987
 30
0
 11
496.508
 21
512.994
 31
0
  0
LINE
  5
B86
330
A02
100
AcDbEntity
  8
View046
100
AcDbLine
 10
500.119
 20
517.786
 30
0
 11
504.112
 21
514.777
 31
0
  0
LINE
  5
B87
330
A02
100
AcDbEntity
  8
View046
100
AcDbLine
 10
504.112
 20
514.777
 30
0
 11
507.121
 21
518.77
 31
0
  0
LINE
  5
B88
330
A02
100
AcDbEntity
  8
View046
100
AcDbLine
 10
507.121
 20
518.77
 30
0
 11
503.128
 21
521.779
 31
0
  0
LINE
  5
B89
330
A02
100
AcDbEntity
  8
View046
100
AcDbLine
 10
503.128
 20
521.779
 30
0
 11
500.119
 21
517.786
 31
0
  0
CIRCLE
  5
B8A
330
A02
100
AcDbEntity
  8
View046
100
AcDbCircle
 10
515.732
 20
521.1
 40
1.2
  0
CIRCLE
  5
B8B
330
A02
100
AcDbEntity
  8
View046
100
AcDbCircle
 10
521.232
 20
528.6
 40
1.8
  0
LINE
  5
B8C
330
A02
100
AcDbEntity
  8
View046
100
AcDbLine
 10
502.549
 20
511.041
 30
0
 11
506.542
 21
508.032
 31
0
  0
LINE
  5
B8D
330
A02
100
AcDbEntity
  8
View046
100
AcDbLine
 10
506.542
 20
508.032
 30
0
 11
509.551
 21
512.025
 31
0
  0
LINE
  5
B8E
330
A02
100
AcDbEntity
  8
View046
100
AcDbLine
 10
509.551
 20
512.025
 30
0
 11
505.558
 21
515.034
 31
0
  0
LINE
  5
B8F
330
A02
100
AcDbEntity
  8
View046
100
AcDbLine
 10
505.558
 20
515.034
 30
0
 11
502.549
 21
511.041
 31
0
  0
LINE
  5
B90
330
A02
100
AcDbEntity
  8
View046
100
AcDbLine
 10
498.938
 20
506.249
 30
0
 11
502.931
 21
503.24
 31
0
  0
LINE
  5
B91
330
A02
100
AcDbEntity
  8
View046
100
AcDbLine
 10
502.931
 20
503.24
 30
0
 11
505.941
 21
507.233
 31
0
  0
LINE
  5
B92
330
A02
100
AcDbEntity
  8
View046
100
AcDbLine
 10
505.941
 20
507.233
 30
0
 11
501.947
 21
510.242
 31
0
  0
LINE
  5
B93
330
A02
100
AcDbEntity
  8
View046
100
AcDbLine
 10
501.947
 20
510.242
 30
0
 11
498.938
 21
506.249
 31
0
  0
LINE
  5
B94
330
A02
100
AcDbEntity
  8
View046
100
AcDbLine
 10
503.73
 20
502.638
 30
0
 11
507.723
 21
499.629
 31
0
  0
LINE
  5
B95
330
A02
100
AcDbEntity
  8
View046
100
AcDbLine
 10
507.723
 20
499.629
 30
0
 11
510.732
 21
503.622
 31
0
  0
LINE
  5
B96
330
A02
100
AcDbEntity
  8
View046
100
AcDbLine
 10
510.732
 20
503.622
 30
0
 11
506.739
 21
506.631
 31
0
  0
LINE
  5
B97
330
A02
100
AcDbEntity
  8
View046
100
AcDbLine
 10
506.739
 20
506.631
 30
0
 11
503.73
 21
502.638
 31
0
  0
CIRCLE
  5
B98
330
A02
100
AcDbEntity
  8
View046
100
AcDbCircle
 10
515.732
 20
505.1
 40
1.2
  0
ARC
  5
B99
330
A02
100
AcDbEntity
  8
View046
100
AcDbCircle
 10
507.232
 20
484.8
 30
0
 40
1.5
100
AcDbArc
 50
-5.22868e-05
 51
180
  0
LINE
  5
B9A
330
A02
100
AcDbEntity
  8
View046
100
AcDbLine
 10
505.732
 20
477.3
 30
0
 11
505.732
 21
484.8
 31
0
  0
ARC
  5
B9B
330
A02
100
AcDbEntity
  8
View046
100
AcDbCircle
 10
507.232
 20
477.3
 30
0
 40
1.5
100
AcDbArc
 50
180
 51
-5.22868e-05
  0
LINE
  5
B9C
330
A02
100
AcDbEntity
  8
View046
100
AcDbLine
 10
508.732
 20
484.8
 30
0
 11
508.732
 21
477.3
 31
0
  0
ARC
  5
B9D
330
A02
100
AcDbEntity
  8
View046
100
AcDbCircle
 10
514.232
 20
482.1
 30
0
 40
2.6
100
AcDbArc
 50
89.9999
 51
-90.0001
  0
LINE
  5
B9E
330
A02
100
AcDbEntity
  8
View046
100
AcDbLine
 10
514.232
 20
479.5
 30
0
 11
516.732
 21
479.5
 31
0
  0
ARC
  5
B9F
330
A02
100
AcDbEntity
  8
View046
100
AcDbCircle
 10
516.732
 20
482.1
 30
0
 40
2.6
100
AcDbArc
 50
-90.0001
 51
89.9999
  0
LINE
  5
BA0
330
A02
100
AcDbEntity
  8
View046
100
AcDbLine
 10
516.732
 20
484.7
 30
0
 11
514.232
 21
484.7
 31
0
  0
CIRCLE
  5
BA1
330
A02
100
AcDbEntity
  8
View046
100
AcDbCircle
 10
525.732
 20
513.1
 40
1.2
  0
CIRCLE
  5
BA2
330
A02
100
AcDbEntity
  8
View046
100
AcDbCircle
 10
521.232
 20
497.6
 40
1.8
  0
CIRCLE
  5
BA3
330
A02
100
AcDbEntity
  8
View046
100
AcDbCircle
 10
534.232
 20
513.1
 40
1.2
  0
ARC
  5
BA4
330
A02
100
AcDbEntity
  8
View046
100
AcDbCircle
 10
545.732
 20
599.1
 30
0
 40
60
100
AcDbArc
 50
-106.931
 51
-73.0689
  0
ARC
  5
BA5
330
A02
100
AcDbEntity
  8
View046
100
AcDbCircle
 10
515.482
 20
544.1
 30
0
 40
13
100
AcDbArc
 50
-68.154
 51
-10.6357
  0
ARC
  5
BA6
330
A02
100
AcDbEntity
  8
View046
100
AcDbCircle
 10
518.732
 20
513.1
 30
0
 40
19
100
AcDbArc
 50
-85.2073
 51
85.2072
  0
ARC
  5
BA7
330
A02
100
AcDbEntity
  8
View046
100
AcDbCircle
 10
515.482
 20
482.1
 30
0
 40
13
100
AcDbArc
 50
10.6356
 51
68.1539
  0
ARC
  5
BA8
330
A02
100
AcDbEntity
  8
View046
100
AcDbCircle
 10
545.732
 20
427.1
 30
0
 40
60
100
AcDbArc
 50
73.0688
 51
106.931
  0
ARC
  5
BA9
330
A02
100
AcDbEntity
  8
View046
100
AcDbCircle
 10
575.982
 20
482.1
 30
0
 40
13
100
AcDbArc
 50
109.082
 51
169.364
  0
LINE
  5
BAA
330
A02
100
AcDbEntity
  8
View046
100
AcDbLine
 10
571.732
 20
531.814
 30
0
 11
571.732
 21
494.386
 31
0
  0
ARC
  5
BAB
330
A02
100
AcDbEntity
  8
View046
100
AcDbCircle
 10
575.982
 20
544.1
 30
0
 40
13
100
AcDbArc
 50
-169.364
 51
-109.082
  0
CIRCLE
  5
BAC
330
A02
100
AcDbEntity
  8
View046
100
AcDbCircle
 10
575.982
 20
544.1
 40
3.65
  0
ARC
  5
BAD
330
A02
100
AcDbEntity
  8
View046
100
AcDbCircle
 10
584.232
 20
541.4
 30
0
 40
1.5
100
AcDbArc
 50
180
 51
-5.22868e-05
  0
LINE
  5
BAE
330
A02
100
AcDbEntity
  8
View046
100
AcDbLine
 10
585.732
 20
548.9
 30
0
 11
585.732
 21
541.4
 31
0
  0
ARC
  5
BAF
330
A02
100
AcDbEntity
  8
View046
100
AcDbCircle
 10
584.232
 20
548.9
 30
0
 40
1.5
100
AcDbArc
 50
-5.22868e-05
 51
180
  0
LINE
  5
BB0
330
A02
100
AcDbEntity
  8
View046
100
AcDbLine
 10
582.732
 20
541.4
 30
0
 11
582.732
 21
548.9
 31
0
  0
CIRCLE
  5
BB1
330
A02
100
AcDbEntity
  8
View046
100
AcDbCircle
 10
582.982
 20
534.1
 40
1.5
  0
CIRCLE
  5
BB2
330
A02
100
AcDbEntity
  8
View046
100
AcDbCircle
 10
585.182
 20
519.1
 40
1.5
  0
CIRCLE
  5
BB3
330
A02
100
AcDbEntity
  8
View046
100
AcDbCircle
 10
582.982
 20
515.1
 40
1.5
  0
CIRCLE
  5
BB4
330
A02
100
AcDbEntity
  8
View046
100
AcDbCircle
 10
586.232
 20
513.1
 40
1.2
  0
CIRCLE
  5
BB5
330
A02
100
AcDbEntity
  8
View046
100
AcDbCircle
 10
575.982
 20
482.1
 40
3.65
  0
CIRCLE
  5
BB6
330
A02
100
AcDbEntity
  8
View046
100
AcDbCircle
 10
585.182
 20
491.1
 40
1.5
  0
ARC
  5
BB7
330
A02
100
AcDbEntity
  8
View046
100
AcDbCircle
 10
584.232
 20
477.3
 30
0
 40
1.5
100
AcDbArc
 50
180
 51
-5.22868e-05
  0
LINE
  5
BB8
330
A02
100
AcDbEntity
  8
View046
100
AcDbLine
 10
585.732
 20
484.8
 30
0
 11
585.732
 21
477.3
 31
0
  0
ARC
  5
BB9
330
A02
100
AcDbEntity
  8
View046
100
AcDbCircle
 10
584.232
 20
484.8
 30
0
 40
1.5
100
AcDbArc
 50
-5.22868e-05
 51
180
  0
LINE
  5
BBA
330
A02
100
AcDbEntity
  8
View046
100
AcDbLine
 10
582.732
 20
484.8
 30
0
 11
582.732
 21
477.3
 31
0
  0
ARC
  5
BBB
330
A02
100
AcDbEntity
  8
View046
100
AcDbCircle
 10
604.982
 20
481.3
 30
0
 40
13
100
AcDbArc
 50
180
 51
-65.5196
  0
ARC
  5
BBC
330
A02
100
AcDbEntity
  8
View046
100
AcDbCircle
 10
604.982
 20
481.3
 30
0
 40
13
100
AcDbArc
 50
129.964
 51
180
  0
ARC
  5
BBD
330
A02
100
AcDbEntity
  8
View046
100
AcDbCircle
 10
635.232
 20
414.862
 30
0
 40
60
100
AcDbArc
 50
65.5194
 51
114.48
  0
LINE
  5
BBE
330
A02
100
AcDbEntity
  8
View046
100
AcDbLine
 10
596.732
 20
491.264
 30
0
 11
596.632
 21
491.264
 31
0
  0
ARC
  5
BBF
330
A02
100
AcDbEntity
  8
View046
100
AcDbCircle
 10
596.732
 20
491.514
 30
0
 40
0.25
100
AcDbArc
 50
-90.0001
 51
-5.72958e-05
  0
LINE
  5
BC0
330
A02
100
AcDbEntity
  8
View046
100
AcDbLine
 10
596.982
 20
491.514
 30
0
 11
596.982
 21
534.686
 31
0
  0
ARC
  5
BC1
330
A02
100
AcDbEntity
  8
View046
100
AcDbCircle
 10
596.732
 20
534.686
 30
0
 40
0.25
100
AcDbArc
 50
-5.72958e-05
 51
89.9999
  0
LINE
  5
BC2
330
A02
100
AcDbEntity
  8
View046
100
AcDbLine
 10
596.732
 20
534.936
 30
0
 11
596.632
 21
534.936
 31
0
  0
ARC
  5
BC3
330
A02
100
AcDbEntity
  8
View046
100
AcDbCircle
 10
604.982
 20
544.9
 30
0
 40
13
100
AcDbArc
 50
180
 51
-129.964
  0
ARC
  5
BC4
330
A02
100
AcDbEntity
  8
View046
100
AcDbCircle
 10
604.982
 20
544.9
 30
0
 40
13
100
AcDbArc
 50
65.5194
 51
180
  0
ARC
  5
BC5
330
A02
100
AcDbEntity
  8
View046
100
AcDbCircle
 10
635.232
 20
611.337
 30
0
 40
60
100
AcDbArc
 50
-114.481
 51
-65.5196
  0
ARC
  5
BC6
330
A02
100
AcDbEntity
  8
View046
100
AcDbCircle
 10
665.482
 20
544.9
 30
0
 40
13
100
AcDbArc
 50
-11.5062
 51
114.48
  0
ARC
  5
BC7
330
A02
100
AcDbEntity
  8
View046
100
AcDbCircle
 10
684.101
 20
541.11
 30
0
 40
6
100
AcDbArc
 50
168.494
 51
-90.0001
  0
LINE
  5
BC8
330
A02
100
AcDbEntity
  8
View046
100
AcDbLine
 10
684.101
 20
535.11
 30
0
 11
691.071
 21
535.11
 31
0
  0
ARC
  5
BC9
330
A02
100
AcDbEntity
  8
View046
100
AcDbCircle
 10
691.071
 20
529.11
 30
0
 40
6
100
AcDbArc
 50
-5.72958e-05
 51
89.9999
  0
LINE
  5
BCA
330
A02
100
AcDbEntity
  8
View046
100
AcDbLine
 10
697.071
 20
529.11
 30
0
 11
697.07
 21
497.09
 31
0
  0
ARC
  5
BCB
330
A02
100
AcDbEntity
  8
View046
100
AcDbCircle
 10
691.07
 20
497.09
 30
0
 40
6
100
AcDbArc
 50
-90.0001
 51
-5.72958e-05
  0
LINE
  5
BCC
330
A02
100
AcDbEntity
  8
View046
100
AcDbLine
 10
684.1
 20
491.09
 30
0
 11
691.07
 21
491.09
 31
0
  0
ARC
  5
BCD
330
A02
100
AcDbEntity
  8
View046
100
AcDbCircle
 10
684.1
 20
485.09
 30
0
 40
6
100
AcDbArc
 50
89.9999
 51
-168.494
  0
ARC
  5
BCE
330
A02
100
AcDbEntity
  8
View046
100
AcDbCircle
 10
665.482
 20
481.3
 30
0
 40
13
100
AcDbArc
 50
-114.481
 51
11.5061
  0
ARC
  5
BCF
330
A02
100
AcDbEntity
  8
View046
100
AcDbCircle
 10
673.732
 20
477.3
 30
0
 40
1.5
100
AcDbArc
 50
180
 51
-5.72958e-05
  0
LINE
  5
BD0
330
A02
100
AcDbEntity
  8
View046
100
AcDbLine
 10
675.232
 20
484.8
 30
0
 11
675.232
 21
477.3
 31
0
  0
ARC
  5
BD1
330
A02
100
AcDbEntity
  8
View046
100
AcDbCircle
 10
673.732
 20
484.8
 30
0
 40
1.5
100
AcDbArc
 50
-5.72958e-05
 51
180
  0
LINE
  5
BD2
330
A02
100
AcDbEntity
  8
View046
100
AcDbLine
 10
672.232
 20
484.8
 30
0
 11
672.232
 21
477.3
 31
0
  0
CIRCLE
  5
BD3
330
A02
100
AcDbEntity
  8
View046
100
AcDbCircle
 10
690.732
 20
497.6
 40
1.8
  0
ARC
  5
BD4
330
A02
100
AcDbEntity
  8
View046
100
AcDbCircle
 10
666.732
 20
482.1
 30
0
 40
2.6
100
AcDbArc
 50
-90.0001
 51
89.9999
  0
LINE
  5
BD5
330
A02
100
AcDbEntity
  8
View046
100
AcDbLine
 10
666.732
 20
484.7
 30
0
 11
664.232
 21
484.7
 31
0
  0
ARC
  5
BD6
330
A02
100
AcDbEntity
  8
View046
100
AcDbCircle
 10
664.232
 20
482.1
 30
0
 40
2.6
100
AcDbArc
 50
89.9999
 51
-90.0001
  0
LINE
  5
BD7
330
A02
100
AcDbEntity
  8
View046
100
AcDbLine
 10
664.232
 20
479.5
 30
0
 11
666.732
 21
479.5
 31
0
  0
CIRCLE
  5
BD8
330
A02
100
AcDbEntity
  8
View046
100
AcDbCircle
 10
645.232
 20
479.3
 40
2.1
  0
CIRCLE
  5
BD9
330
A02
100
AcDbEntity
  8
View046
100
AcDbCircle
 10
659.732
 20
497.6
 40
1.8
  0
LINE
  5
BDA
330
A02
100
AcDbEntity
  8
View046
100
AcDbLine
 10
649.456
 20
513.206
 30
0
 11
645.463
 21
516.215
 31
0
  0
LINE
  5
BDB
330
A02
100
AcDbEntity
  8
View046
100
AcDbLine
 10
645.463
 20
516.215
 30
0
 11
642.454
 21
512.222
 31
0
  0
LINE
  5
BDC
330
A02
100
AcDbEntity
  8
View046
100
AcDbLine
 10
642.454
 20
512.222
 30
0
 11
646.447
 21
509.213
 31
0
  0
LINE
  5
BDD
330
A02
100
AcDbEntity
  8
View046
100
AcDbLine
 10
646.447
 20
509.213
 30
0
 11
649.456
 21
513.206
 31
0
  0
CIRCLE
  5
BDE
330
A02
100
AcDbEntity
  8
View046
100
AcDbCircle
 10
690.732
 20
528.6
 40
1.8
  0
CIRCLE
  5
BDF
330
A02
100
AcDbEntity
  8
View046
100
AcDbCircle
 10
675.232
 20
513.1
 40
11.25
  0
ARC
  5
BE0
330
A02
100
AcDbEntity
  8
View046
100
AcDbCircle
 10
673.732
 20
541.4
 30
0
 40
1.5
100
AcDbArc
 50
180
 51
-5.72958e-05
  0
LINE
  5
BE1
330
A02
100
AcDbEntity
  8
View046
100
AcDbLine
 10
675.232
 20
548.9
 30
0
 11
675.232
 21
541.4
 31
0
  0
ARC
  5
BE2
330
A02
100
AcDbEntity
  8
View046
100
AcDbCircle
 10
673.732
 20
548.9
 30
0
 40
1.5
100
AcDbArc
 50
-5.72958e-05
 51
180
  0
LINE
  5
BE3
330
A02
100
AcDbEntity
  8
View046
100
AcDbLine
 10
672.232
 20
541.4
 30
0
 11
672.232
 21
548.9
 31
0
  0
CIRCLE
  5
BE4
330
A02
100
AcDbEntity
  8
View046
100
AcDbCircle
 10
659.732
 20
528.6
 40
1.8
  0
ARC
  5
BE5
330
A02
100
AcDbEntity
  8
View046
100
AcDbCircle
 10
666.732
 20
544.1
 30
0
 40
2.6
100
AcDbArc
 50
-90.0001
 51
89.9999
  0
LINE
  5
BE6
330
A02
100
AcDbEntity
  8
View046
100
AcDbLine
 10
666.732
 20
546.7
 30
0
 11
664.232
 21
546.7
 31
0
  0
ARC
  5
BE7
330
A02
100
AcDbEntity
  8
View046
100
AcDbCircle
 10
664.232
 20
544.1
 30
0
 40
2.6
100
AcDbArc
 50
89.9999
 51
-90.0001
  0
LINE
  5
BE8
330
A02
100
AcDbEntity
  8
View046
100
AcDbLine
 10
664.232
 20
541.5
 30
0
 11
666.732
 21
541.5
 31
0
  0
CIRCLE
  5
BE9
330
A02
100
AcDbEntity
  8
View046
100
AcDbCircle
 10
645.232
 20
546.9
 40
2.1
  0
CIRCLE
  5
BEA
330
A02
100
AcDbEntity
  8
View046
100
AcDbCircle
 10
625.232
 20
479.3
 40
2.1
  0
CIRCLE
  5
BEB
330
A02
100
AcDbEntity
  8
View046
100
AcDbCircle
 10
625.232
 20
493.1
 40
2.1
  0
LINE
  5
BEC
330
A02
100
AcDbEntity
  8
View046
100
AcDbLine
 10
642.235
 20
503.622
 30
0
 11
638.241
 21
506.631
 31
0
  0
LINE
  5
BED
330
A02
100
AcDbEntity
  8
View046
100
AcDbLine
 10
638.241
 20
506.631
 30
0
 11
635.232
 21
502.638
 31
0
  0
LINE
  5
BEE
330
A02
100
AcDbEntity
  8
View046
100
AcDbLine
 10
635.232
 20
502.638
 30
0
 11
639.226
 21
499.629
 31
0
  0
LINE
  5
BEF
330
A02
100
AcDbEntity
  8
View046
100
AcDbLine
 10
639.226
 20
499.629
 30
0
 11
642.235
 21
503.622
 31
0
  0
LINE
  5
BF0
330
A02
100
AcDbEntity
  8
View046
100
AcDbLine
 10
645.845
 20
508.414
 30
0
 11
641.852
 21
511.423
 31
0
  0
LINE
  5
BF1
330
A02
100
AcDbEntity
  8
View046
100
AcDbLine
 10
641.852
 20
511.423
 30
0
 11
638.843
 21
507.43
 31
0
  0
LINE
  5
BF2
330
A02
100
AcDbEntity
  8
View046
100
AcDbLine
 10
638.843
 20
507.43
 30
0
 11
642.836
 21
504.421
 31
0
  0
LINE
  5
BF3
330
A02
100
AcDbEntity
  8
View046
100
AcDbLine
 10
642.836
 20
504.421
 30
0
 11
645.845
 21
508.414
 31
0
  0
CIRCLE
  5
BF4
330
A02
100
AcDbEntity
  8
View046
100
AcDbCircle
 10
604.982
 20
482.1
 40
3.65
  0
ARC
  5
BF5
330
A02
100
AcDbEntity
  8
View046
100
AcDbCircle
 10
596.732
 20
484.8
 30
0
 40
1.5
100
AcDbArc
 50
-5.72958e-05
 51
180
  0
LINE
  5
BF6
330
A02
100
AcDbEntity
  8
View046
100
AcDbLine
 10
595.232
 20
477.3
 30
0
 11
595.232
 21
484.8
 31
0
  0
ARC
  5
BF7
330
A02
100
AcDbEntity
  8
View046
100
AcDbCircle
 10
596.732
 20
477.3
 30
0
 40
1.5
100
AcDbArc
 50
180
 51
-5.72958e-05
  0
LINE
  5
BF8
330
A02
100
AcDbEntity
  8
View046
100
AcDbLine
 10
598.232
 20
484.8
 30
0
 11
598.232
 21
477.3
 31
0
  0
CIRCLE
  5
BF9
330
A02
100
AcDbEntity
  8
View046
100
AcDbCircle
 10
605.232
 20
493.1
 40
2.1
  0
LINE
  5
BFA
330
A02
100
AcDbEntity
  8
View046
100
AcDbLine
 10
643.416
 20
515.159
 30
0
 11
639.422
 21
518.168
 31
0
  0
LINE
  5
BFB
330
A02
100
AcDbEntity
  8
View046
100
AcDbLine
 10
639.422
 20
518.168
 30
0
 11
636.413
 21
514.175
 31
0
  0
LINE
  5
BFC
330
A02
100
AcDbEntity
  8
View046
100
AcDbLine
 10
636.413
 20
514.175
 30
0
 11
640.406
 21
511.166
 31
0
  0
LINE
  5
BFD
330
A02
100
AcDbEntity
  8
View046
100
AcDbLine
 10
640.406
 20
511.166
 30
0
 11
643.416
 21
515.159
 31
0
  0
LINE
  5
BFE
330
A02
100
AcDbEntity
  8
View046
100
AcDbLine
 10
647.026
 20
519.951
 30
0
 11
643.033
 21
522.96
 31
0
  0
LINE
  5
BFF
330
A02
100
AcDbEntity
  8
View046
100
AcDbLine
 10
643.033
 20
522.96
 30
0
 11
640.024
 21
518.967
 31
0
  0
LINE
  5
C00
330
A02
100
AcDbEntity
  8
View046
100
AcDbLine
 10
640.024
 20
518.967
 30
0
 11
644.017
 21
515.958
 31
0
  0
LINE
  5
C01
330
A02
100
AcDbEntity
  8
View046
100
AcDbLine
 10
644.017
 20
515.958
 30
0
 11
647.026
 21
519.951
 31
0
  0
LINE
  5
C02
330
A02
100
AcDbEntity
  8
View046
100
AcDbLine
 10
642.235
 20
523.562
 30
0
 11
638.241
 21
526.571
 31
0
  0
LINE
  5
C03
330
A02
100
AcDbEntity
  8
View046
100
AcDbLine
 10
638.241
 20
526.571
 30
0
 11
635.232
 21
522.578
 31
0
  0
LINE
  5
C04
330
A02
100
AcDbEntity
  8
View046
100
AcDbLine
 10
635.232
 20
522.578
 30
0
 11
639.226
 21
519.569
 31
0
  0
LINE
  5
C05
330
A02
100
AcDbEntity
  8
View046
100
AcDbLine
 10
639.226
 20
519.569
 30
0
 11
642.235
 21
523.562
 31
0
  0
CIRCLE
  5
C06
330
A02
100
AcDbEntity
  8
View046
100
AcDbCircle
 10
625.232
 20
533.1
 40
2.1
  0
CIRCLE
  5
C07
330
A02
100
AcDbEntity
  8
View046
100
AcDbCircle
 10
625.232
 20
546.9
 40
2.1
  0
CIRCLE
  5
C08
330
A02
100
AcDbEntity
  8
View046
100
AcDbCircle
 10
605.232
 20
513.1
 40
2.5
  0
CIRCLE
  5
C09
330
A02
100
AcDbEntity
  8
View046
100
AcDbCircle
 10
605.232
 20
533.1
 40
2.1
  0
CIRCLE
  5
C0A
330
A02
100
AcDbEntity
  8
View046
100
AcDbCircle
 10
604.982
 20
544.1
 40
3.65
  0
ARC
  5
C0B
330
A02
100
AcDbEntity
  8
View046
100
AcDbCircle
 10
596.732
 20
548.9
 30
0
 40
1.5
100
AcDbArc
 50
-5.72958e-05
 51
180
  0
LINE
  5
C0C
330
A02
100
AcDbEntity
  8
View046
100
AcDbLine
 10
595.232
 20
541.4
 30
0
 11
595.232
 21
548.9
 31
0
  0
ARC
  5
C0D
330
A02
100
AcDbEntity
  8
View046
100
AcDbCircle
 10
596.732
 20
541.4
 30
0
 40
1.5
100
AcDbArc
 50
180
 51
-5.72958e-05
  0
LINE
  5
C0E
330
A02
100
AcDbEntity
  8
View046
100
AcDbLine
 10
598.232
 20
541.4
 30
0
 11
598.232
 21
548.9
 31
0
  0
ENDSEC
  0
SECTION
  2
OBJECTS
  0
DICTIONARY
  5
F000
330
0
100
AcDbDictionary
  3
ACAD_GROUP
350
F001
  0
DICTIONARY
  5
F001
330
F000
100
AcDbDictionary
  0
ENDSEC
  0
EOF