999
FreeCAD v0.21 33694 (Git)
  0
SECTION
  2
HEADER
  9
$ACADVER
  1
AC1014
  9
$ACADMAINTVER
 70
     9
  9
$DWGCODEPAGE
  3
ANSI_1252
  9
$TEXTSTYLE
  7
STANDARD
  9
$DIMSTYLE
  2
STANDARD
  9
$DIMTXSTY
  7
STANDARD
  9
$CMLSTYLE
  2
STANDARD
  9
$LUNITS
 70
2
  9
$INSUNITS
 70
4
  9
$PEXTMAX
 10
50
 20
50
 30
50
  9
$PEXTMIN
 10
0
 20
0
 30
0
  9
$HANDSEED
  5
FFFF
  0
ENDSEC
  0
SECTION
  2
CLASSES
  0
CLASS
  1
ACDBDICTIONARYWDFLT
  2
AcDbDictionaryWithDefault
  3
ObjectDBX Classes
 90
        0
280
     0
281
     0
  0
CLASS
  1
XRECORD
  2
AcDbXrecord
  3
ObjectDBX Classes
 90
        0
280
     0
281
     0
  0
CLASS
  1
LWPOLYLINE
  2
AcDbPolyline
  3
ObjectDBX Classes
 90
        0
280
     0
281
     1
  0
ENDSEC
  0
SECTION
  2
TABLES
  0
TABLE
  2
VPORT
  5
20
330
0
100
AcDbSymbolTable
 70
     1
  0
VPORT
  5
21
330
20
100
AcDbSymbolTableRecord
100
AcDbViewportTableRecord
  2
*ACTIVE
 70
     0
  0
ENDTAB
  0
TABLE
  2
LTYPE
  5
22
330
0
100
AcDbSymbolTable
 70
     1
  0
LTYPE
  5
23
330
21
100
AcDbSymbolTableRecord
100
AcDbLinetypeTableRecord
  2
BYBLOCK
 70
     0
  3

 72
    65
 73
     0
 40
0.0
  0
LTYPE
  5
24
330
21
100
AcDbSymbolTableRecord
100
AcDbLinetypeTableRecord
  2
BYLAYER
 70
     0
  3

 72
    65
 73
     0
 40
0.0
  0
LTYPE
  5
25
330
21
100
AcDbSymbolTableRecord
100
AcDbLinetypeTableRecord
  2
CONTINUOUS
 70
     0
  3
Solid line
 72
    65
 73
     0
 40
0.0
  0
ENDTAB
  0
TABLE
  2
LAYER
  5
D49
330
0
100
AcDbSymbolTable
 70
2
  0
LAYER
  5
D4A
330
D49
100
AcDbSymbolTableRecord
100
AcDbLayerTableRecord
  2
0
 70
   0
 62
   7
  6
CONTINUOUS
  0
LAYER
  5
D4B
330
D49
100
AcDbSymbolTableRecord
100
AcDbLayerTableRecord
  2
View046
 70
    0
 62
    7
  6
CONTINUOUS
  0
ENDTAB
  0
TABLE
  2
STYLE
  5
70
330
0
100
AcDbSymbolTable
 70
     2
  0
STYLE
  5
71
330
70
100
AcDbSymbolTableRecord
100
AcDbTextStyleTableRecord
  2
STANDARD
 70
     0
 40
0.0
 41
1.0
 50
0.0
 71
     0
 42
2.5
  3
arial.ttf
  4

  0
STYLE
  5
72
330
70
100
AcDbSymbolTableRecord
100
AcDbTextStyleTableRecord
  2
ANNOTATIVE
 70
     0
 40
0.0
 41
1.0
 50
0.0
 71
     0
 42
2.5
  3
arial.ttf
  4

  0
ENDTAB
  0
TABLE
  2
VIEW
  5
73
330
0
100
AcDbSymbolTable
 70
     0
  0
ENDTAB
  0
TABLE
  2
UCS
  5
74
330
0
100
AcDbSymbolTable
 70
     0
  0
ENDTAB
  0
TABLE
  2
APPID
  5
75
330
0
100
AcDbSymbolTable
 70
     2
  0
APPID
  5
76
330
75
100
AcDbSymbolTableRecord
100
AcDbRegAppTableRecord
  2
ACAD
 70
     0
  0
APPID
  5
77
330
75
100
AcDbSymbolTableRecord
100
AcDbRegAppTableRecord
  2
ACADANNOTATIVE
 70
     0
  0
ENDTAB
  0
TABLE
  2
DIMSTYLE
  5
78
330
0
100
AcDbSymbolTable
 70
     2
  0
DIMSTYLE
105
79
330
78
100
AcDbSymbolTableRecord
100
AcDbDimStyleTableRecord
  2
STANDARD
 70
     0
  3

  4

  5

  6

  7

 40
0.0
 41
2.5
 42
0.625
 43
3.75
 44
1.25
 45
0.0
 46
0.0
 47
0.0
 48
0.0
140
2.5
141
2.5
142
0.0
143
0.03937007874016
144
1.0
145
0.0
146
1.0
147
0.625
 71
     0
 72
     0
 73
     0
 74
     0
 75
     0
 76
     0
 77
     1
 78
     8
170
     0
171
     3
172
     1
173
     0
174
     0
175
     0
176
     0
177
     0
178
     0
270
     2
271
     2
272
     2
273
     2
274
     3
340
71
275
     0
280
     0
281
     0
282
     0
283
     0
284
     8
285
     0
286
     0
287
     3
288
     0
  0
ENDTAB
  0
TABLE
  2
BLOCK_RECORD
  5
A01
330
0
100
AcDbSymbolTable
  70
5
  0
BLOCK_RECORD
  5
A02
330
A01
100
AcDbSymbolTableRecord
100
AcDbBlockTableRecord
  2
*MODEL_SPACE
  0
BLOCK_RECORD
  5
A03
330
A01
100
AcDbSymbolTableRecord
100
AcDbBlockTableRecord
  2
*PAPER_SPACE
  0
ENDTAB
  0
ENDSEC
  0
SECTION
  2
BLOCKS
  0
BLOCK
  5
A04
330
A02
100
AcDbEntity
  8
0
100
AcDbBlockBegin
  2
*MODEL_SPACE
 70
   0
 10
0
 20
0
 30
0
  3
*MODEL_SPACE
  1
 
  0
ENDBLK
  5
A05
330
A02
100
AcDbEntity
  8
0
100
AcDbBlockEnd
  0
BLOCK
  5
A06
330
A03
100
AcDbEntity
 67
1
  8
0
100
AcDbBlockBegin
  2
*PAPER_SPACE
 70
   0
 10
0
 20
0
 30
0
  3
*PAPER_SPACE
  1
 
  0
ENDBLK
  5
A07
330
A03
100
AcDbEntity
 67
    1
  8
0
100
AcDbBlockEnd
  0
ENDSEC
  0
SECTION
  2
ENTITIES
  0
LINE
  5
A08
330
A02
100
AcDbEntity
  8
View046
100
AcDbLine
 10
144.772
 20
774.854
 30
0
 11
114.771
 21
744.854
 31
0
  0
LINE
  5
A09
330
A02
100
AcDbEntity
  8
View046
100
AcDbLine
 10
114.771
 20
744.854
 30
0
 11
114.768
 21
199.254
 31
0
  0
LINE
  5
A0A
330
A02
100
AcDbEntity
  8
View046
100
AcDbLine
 10
114.768
 20
199.254
 30
0
 11
144.767
 21
169.254
 31
0
  0
LINE
  5
A0B
330
A02
100
AcDbEntity
  8
View046
100
AcDbLine
 10
144.767
 20
169.254
 30
0
 11
146.841
 21
169.254
 31
0
  0
LINE
  5
A0C
330
A02
100
AcDbEntity
  8
View046
100
AcDbLine
 10
146.841
 20
169.254
 30
0
 11
146.841
 21
166.78
 31
0
  0
LINE
  5
A0D
330
A02
100
AcDbEntity
  8
View046
100
AcDbLine
 10
146.841
 20
166.78
 30
0
 11
144.767
 21
166.781
 31
0
  0
LINE
  5
A0E
330
A02
100
AcDbEntity
  8
View046
100
AcDbLine
 10
144.767
 20
166.781
 30
0
 11
114.767
 21
136.781
 31
0
  0
LINE
  5
A0F
330
A02
100
AcDbEntity
  8
View046
100
AcDbLine
 10
114.767
 20
136.781
 30
0
 11
114.767
 21
90.7807
 31
0
  0
ARC
  5
A10
330
A02
100
AcDbEntity
  8
View046
100
AcDbCircle
 10
119.767
 20
90.7807
 30
0
 40
5
100
AcDbArc
 50
180
 51
-90.0004
  0
LINE
  5
A11
330
A02
100
AcDbEntity
  8
View046
100
AcDbLine
 10
119.767
 20
85.7807
 30
0
 11
271.84
 21
85.7796
 31
0
  0
ARC
  5
A12
330
A02
100
AcDbEntity
  8
View046
100
AcDbCircle
 10
271.84
 20
90.7796
 30
0
 40
5
100
AcDbArc
 50
-90.0004
 51
-0.00040107
  0
LINE
  5
A13
330
A02
100
AcDbEntity
  8
View046
100
AcDbLine
 10
276.84
 20
90.7796
 30
0
 11
276.841
 21
169.053
 31
0
  0
LINE
  5
A14
330
A02
100
AcDbEntity
  8
View046
100
AcDbLine
 10
276.841
 20
169.053
 30
0
 11
303.914
 21
169.053
 31
0
  0
ARC
  5
A15
330
A02
100
AcDbEntity
  8
View046
100
AcDbCircle
 10
303.914
 20
174.053
 30
0
 40
5
100
AcDbArc
 50
-90.0004
 51
-0.00040107
  0
LINE
  5
A16
330
A02
100
AcDbEntity
  8
View046
100
AcDbLine
 10
308.914
 20
174.053
 30
0
 11
308.919
 21
770.053
 31
0
  0
ARC
  5
A17
330
A02
100
AcDbEntity
  8
View046
100
AcDbCircle
 10
303.919
 20
770.053
 30
0
 40
5
100
AcDbArc
 50
-0.00040107
 51
89.9996
  0
LINE
  5
A18
330
A02
100
AcDbEntity
  8
View046
100
AcDbLine
 10
303.919
 20
775.053
 30
0
 11
276.845
 21
775.053
 31
0
  0
LINE
  5
A19
330
A02
100
AcDbEntity
  8
View046
100
AcDbLine
 10
276.845
 20
775.053
 30
0
 11
276.846
 21
853.326
 31
0
  0
ARC
  5
A1A
330
A02
100
AcDbEntity
  8
View046
100
AcDbCircle
 10
271.846
 20
853.327
 30
0
 40
5
100
AcDbArc
 50
-0.00040107
 51
89.9996
  0
LINE
  5
A1B
330
A02
100
AcDbEntity
  8
View046
100
AcDbLine
 10
271.846
 20
858.327
 30
0
 11
119.772
 21
858.328
 31
0
  0
ARC
  5
A1C
330
A02
100
AcDbEntity
  8
View046
100
AcDbCircle
 10
119.772
 20
853.328
 30
0
 40
5
100
AcDbArc
 50
89.9996
 51
180
  0
LINE
  5
A1D
330
A02
100
AcDbEntity
  8
View046
100
AcDbLine
 10
114.772
 20
853.328
 30
0
 11
114.772
 21
807.328
 31
0
  0
LINE
  5
A1E
330
A02
100
AcDbEntity
  8
View046
100
AcDbLine
 10
114.772
 20
807.328
 30
0
 11
144.772
 21
777.327
 31
0
  0
LINE
  5
A1F
330
A02
100
AcDbEntity
  8
View046
100
AcDbLine
 10
144.772
 20
777.327
 30
0
 11
146.845
 21
777.327
 31
0
  0
LINE
  5
A20
330
A02
100
AcDbEntity
  8
View046
100
AcDbLine
 10
146.845
 20
777.327
 30
0
 11
146.845
 21
774.854
 31
0
  0
LINE
  5
A21
330
A02
100
AcDbEntity
  8
View046
100
AcDbLine
 10
146.845
 20
774.854
 30
0
 11
144.772
 21
774.854
 31
0
  0
ELLIPSE
  5
A22
330
A02
100
AcDbEntity
  8
View046
100
AcDbEllipse
 10
211.84
 20
97.78
 30
0
 11
-9
 21
6.3e-05
 31
0
 40
1
 41
0
 42
6.28318
  0
ELLIPSE
  5
A23
330
A02
100
AcDbEntity
  8
View046
100
AcDbEllipse
 10
211.846
 20
846.327
 30
0
 11
-9
 21
6.3e-05
 31
0
 40
1
 41
0
 42
6.28318
  0
CIRCLE
  5
A24
330
A02
100
AcDbEntity
  8
View046
100
AcDbCircle
 10
261.846
 20
848.327
 40
2.6
  0
CIRCLE
  5
A25
330
A02
100
AcDbEntity
  8
View046
100
AcDbCircle
 10
236.846
 20
848.327
 40
2.6
  0
CIRCLE
  5
A26
330
A02
100
AcDbEntity
  8
View046
100
AcDbCircle
 10
261.84
 20
95.7797
 40
2.6
  0
CIRCLE
  5
A27
330
A02
100
AcDbEntity
  8
View046
100
AcDbCircle
 10
236.84
 20
95.7799
 40
2.6
  0
ARC
  5
A28
330
A02
100
AcDbEntity
  8
View046
100
AcDbCircle
 10
340.845
 20
835.126
 30
0
 40
2
100
AcDbArc
 50
-0.00040107
 51
89.9996
  0
LINE
  5
A29
330
A02
100
AcDbEntity
  8
View046
100
AcDbLine
 10
340.845
 20
837.126
 30
0
 11
330.531
 21
837.126
 31
0
  0
ARC
  5
A2A
330
A02
100
AcDbEntity
  8
View046
100
AcDbCircle
 10
330.531
 20
835.126
 30
0
 40
2
100
AcDbArc
 50
89.9996
 51
180
  0
LINE
  5
A2B
330
A02
100
AcDbEntity
  8
View046
100
AcDbLine
 10
328.531
 20
835.126
 30
0
 11
328.531
 21
825.053
 31
0
  0
LINE
  5
A2C
330
A02
100
AcDbEntity
  8
View046
100
AcDbLine
 10
328.531
 20
825.053
 30
0
 11
328.031
 21
825.053
 31
0
  0
ARC
  5
A2D
330
A02
100
AcDbEntity
  8
View046
100
AcDbCircle
 10
328.031
 20
824.553
 30
0
 40
0.5
100
AcDbArc
 50
89.9996
 51
180
  0
LINE
  5
A2E
330
A02
100
AcDbEntity
  8
View046
100
AcDbLine
 10
327.531
 20
824.553
 30
0
 11
327.531
 21
824.053
 31
0
  0
LINE
  5
A2F
330
A02
100
AcDbEntity
  8
View046
100
AcDbLine
 10
326.494
 20
824.053
 30
0
 11
327.531
 21
824.053
 31
0
  0
LINE
  5
A30
330
A02
100
AcDbEntity
  8
View046
100
AcDbLine
 10
326.494
 20
824.053
 30
0
 11
326.494
 21
824.553
 31
0
  0
ARC
  5
A31
330
A02
100
AcDbEntity
  8
View046
100
AcDbCircle
 10
325.994
 20
824.553
 30
0
 40
0.5
100
AcDbArc
 50
-0.00040107
 51
89.9996
  0
LINE
  5
A32
330
A02
100
AcDbEntity
  8
View046
100
AcDbLine
 10
325.994
 20
825.053
 30
0
 11
315.766
 21
825.053
 31
0
  0
ARC
  5
A33
330
A02
100
AcDbEntity
  8
View046
100
AcDbCircle
 10
315.766
 20
823.053
 30
0
 40
2
100
AcDbArc
 50
89.9996
 51
180
  0
LINE
  5
A34
330
A02
100
AcDbEntity
  8
View046
100
AcDbLine
 10
313.766
 20
823.053
 30
0
 11
313.763
 21
329.053
 31
0
  0
ARC
  5
A35
330
A02
100
AcDbEntity
  8
View046
100
AcDbCircle
 10
315.763
 20
329.053
 30
0
 40
2
100
AcDbArc
 50
180
 51
-90.0004
  0
LINE
  5
A36
330
A02
100
AcDbEntity
  8
View046
100
AcDbLine
 10
315.763
 20
327.053
 30
0
 11
325.991
 21
327.053
 31
0
  0
ARC
  5
A37
330
A02
100
AcDbEntity
  8
View046
100
AcDbCircle
 10
325.991
 20
327.553
 30
0
 40
0.5
100
AcDbArc
 50
-90.0004
 51
-0.00040107
  0
LINE
  5
A38
330
A02
100
AcDbEntity
  8
View046
100
AcDbLine
 10
326.491
 20
327.553
 30
0
 11
326.491
 21
328.053
 31
0
  0
LINE
  5
A39
330
A02
100
AcDbEntity
  8
View046
100
AcDbLine
 10
327.527
 20
328.053
 30
0
 11
326.491
 21
328.053
 31
0
  0
LINE
  5
A3A
330
A02
100
AcDbEntity
  8
View046
100
AcDbLine
 10
327.527
 20
328.053
 30
0
 11
327.527
 21
327.553
 31
0
  0
ARC
  5
A3B
330
A02
100
AcDbEntity
  8
View046
100
AcDbCircle
 10
328.027
 20
327.553
 30
0
 40
0.5
100
AcDbArc
 50
180
 51
-90.0004
  0
LINE
  5
A3C
330
A02
100
AcDbEntity
  8
View046
100
AcDbLine
 10
328.027
 20
327.053
 30
0
 11
328.527
 21
327.053
 31
0
  0
LINE
  5
A3D
330
A02
100
AcDbEntity
  8
View046
100
AcDbLine
 10
328.527
 20
327.053
 30
0
 11
328.527
 21
316.979
 31
0
  0
ARC
  5
A3E
330
A02
100
AcDbEntity
  8
View046
100
AcDbCircle
 10
330.527
 20
316.979
 30
0
 40
2
100
AcDbArc
 50
180
 51
-90.0004
  0
LINE
  5
A3F
330
A02
100
AcDbEntity
  8
View046
100
AcDbLine
 10
330.527
 20
314.979
 30
0
 11
340.842
 21
314.979
 31
0
  0
ARC
  5
A40
330
A02
100
AcDbEntity
  8
View046
100
AcDbCircle
 10
340.842
 20
316.979
 30
0
 40
2
100
AcDbArc
 50
-90.0004
 51
-0.00040107
  0
LINE
  5
A41
330
A02
100
AcDbEntity
  8
View046
100
AcDbLine
 10
342.842
 20
316.979
 30
0
 11
342.842
 21
327.053
 31
0
  0
LINE
  5
A42
330
A02
100
AcDbEntity
  8
View046
100
AcDbLine
 10
342.842
 20
327.053
 30
0
 11
389.842
 21
327.052
 31
0
  0
LINE
  5
A43
330
A02
100
AcDbEntity
  8
View046
100
AcDbLine
 10
389.842
 20
327.052
 30
0
 11
389.842
 21
296.979
 31
0
  0
ARC
  5
A44
330
A02
100
AcDbEntity
  8
View046
100
AcDbCircle
 10
391.842
 20
296.979
 30
0
 40
2
100
AcDbArc
 50
180
 51
-90.0004
  0
LINE
  5
A45
330
A02
100
AcDbEntity
  8
View046
100
AcDbLine
 10
391.842
 20
294.979
 30
0
 11
445.842
 21
294.978
 31
0
  0
ARC
  5
A46
330
A02
100
AcDbEntity
  8
View046
100
AcDbCircle
 10
445.842
 20
296.978
 30
0
 40
2
100
AcDbArc
 50
-90.0004
 51
-0.00040107
  0
LINE
  5
A47
330
A02
100
AcDbEntity
  8
View046
100
AcDbLine
 10
447.842
 20
296.978
 30
0
 11
447.842
 21
327.052
 31
0
  0
LINE
  5
A48
330
A02
100
AcDbEntity
  8
View046
100
AcDbLine
 10
449.042
 20
327.052
 30
0
 11
447.842
 21
327.052
 31
0
  0
ARC
  5
A49
330
A02
100
AcDbEntity
  8
View046
100
AcDbCircle
 10
449.042
 20
328.052
 30
0
 40
1
100
AcDbArc
 50
-90.0004
 51
-0.00040107
  0
LINE
  5
A4A
330
A02
100
AcDbEntity
  8
View046
100
AcDbLine
 10
450.044
 20
683.252
 30
0
 11
450.042
 21
328.052
 31
0
  0
ARC
  5
A4B
330
A02
100
AcDbEntity
  8
View046
100
AcDbCircle
 10
449.044
 20
683.252
 30
0
 40
1
100
AcDbArc
 50
-0.00040107
 51
89.9996
  0
LINE
  5
A4C
330
A02
100
AcDbEntity
  8
View046
100
AcDbLine
 10
448.844
 20
684.252
 30
0
 11
449.044
 21
684.252
 31
0
  0
LINE
  5
A4D
330
A02
100
AcDbEntity
  8
View046
100
AcDbLine
 10
448.844
 20
685.052
 30
0
 11
448.844
 21
684.252
 31
0
  0
LINE
  5
A4E
330
A02
100
AcDbEntity
  8
View046
100
AcDbLine
 10
448.844
 20
685.052
 30
0
 11
450.918
 21
685.052
 31
0
  0
LINE
  5
A4F
330
A02
100
AcDbEntity
  8
View046
100
AcDbLine
 10
450.918
 20
685.052
 30
0
 11
450.918
 21
684.652
 31
0
  0
ARC
  5
A50
330
A02
100
AcDbEntity
  8
View046
100
AcDbCircle
 10
451.418
 20
684.652
 30
0
 40
0.5
100
AcDbArc
 50
180
 51
-90.0004
  0
LINE
  5
A51
330
A02
100
AcDbEntity
  8
View046
100
AcDbLine
 10
451.418
 20
684.152
 30
0
 11
465.918
 21
684.152
 31
0
  0
LINE
  5
A52
330
A02
100
AcDbEntity
  8
View046
100
AcDbLine
 10
465.918
 20
684.152
 30
0
 11
465.918
 21
671.152
 31
0
  0
ARC
  5
A53
330
A02
100
AcDbEntity
  8
View046
100
AcDbCircle
 10
467.918
 20
671.152
 30
0
 40
2
100
AcDbArc
 50
180
 51
-90.0004
  0
LINE
  5
A54
330
A02
100
AcDbEntity
  8
View046
100
AcDbLine
 10
467.918
 20
669.152
 30
0
 11
522.918
 21
669.151
 31
0
  0
ARC
  5
A55
330
A02
100
AcDbEntity
  8
View046
100
AcDbCircle
 10
522.918
 20
671.151
 30
0
 40
2
100
AcDbArc
 50
-90.0004
 51
-0.00040107
  0
LINE
  5
A56
330
A02
100
AcDbEntity
  8
View046
100
AcDbLine
 10
524.918
 20
671.151
 30
0
 11
524.918
 21
683.651
 31
0
  0
ARC
  5
A57
330
A02
100
AcDbEntity
  8
View046
100
AcDbCircle
 10
524.418
 20
683.651
 30
0
 40
0.5
100
AcDbArc
 50
-0.00040107
 51
89.9996
  0
LINE
  5
A58
330
A02
100
AcDbEntity
  8
View046
100
AcDbLine
 10
523.118
 20
684.151
 30
0
 11
524.418
 21
684.151
 31
0
  0
LINE
  5
A59
330
A02
100
AcDbEntity
  8
View046
100
AcDbLine
 10
523.118
 20
684.151
 30
0
 11
523.118
 21
685.151
 31
0
  0
LINE
  5
A5A
330
A02
100
AcDbEntity
  8
View046
100
AcDbLine
 10
523.118
 20
685.151
 30
0
 11
525.191
 21
685.151
 31
0
  0
LINE
  5
A5B
330
A02
100
AcDbEntity
  8
View046
100
AcDbLine
 10
525.191
 20
685.151
 30
0
 11
525.191
 21
670.151
 31
0
  0
LINE
  5
A5C
330
A02
100
AcDbEntity
  8
View046
100
AcDbLine
 10
525.191
 20
670.151
 30
0
 11
533.191
 21
670.151
 31
0
  0
ARC
  5
A5D
330
A02
100
AcDbEntity
  8
View046
100
AcDbCircle
 10
533.191
 20
672.151
 30
0
 40
2
100
AcDbArc
 50
-90.0004
 51
-0.00040107
  0
LINE
  5
A5E
330
A02
100
AcDbEntity
  8
View046
100
AcDbLine
 10
535.191
 20
672.151
 30
0
 11
535.192
 21
822.041
 31
0
  0
ARC
  5
A5F
330
A02
100
AcDbEntity
  8
View046
100
AcDbCircle
 10
533.192
 20
822.041
 30
0
 40
2
100
AcDbArc
 50
-0.00040107
 51
89.9996
  0
LINE
  5
A60
330
A02
100
AcDbEntity
  8
View046
100
AcDbLine
 10
533.192
 20
824.041
 30
0
 11
525.192
 21
824.041
 31
0
  0
LINE
  5
A61
330
A02
100
AcDbEntity
  8
View046
100
AcDbLine
 10
525.192
 20
824.041
 30
0
 11
525.192
 21
824.051
 31
0
  0
LINE
  5
A62
330
A02
100
AcDbEntity
  8
View046
100
AcDbLine
 10
525.192
 20
824.051
 30
0
 11
522.119
 21
824.051
 31
0
  0
LINE
  5
A63
330
A02
100
AcDbEntity
  8
View046
100
AcDbLine
 10
522.119
 20
824.551
 30
0
 11
522.119
 21
824.051
 31
0
  0
ARC
  5
A64
330
A02
100
AcDbEntity
  8
View046
100
AcDbCircle
 10
521.619
 20
824.551
 30
0
 40
0.5
100
AcDbArc
 50
-0.00040107
 51
89.9996
  0
LINE
  5
A65
330
A02
100
AcDbEntity
  8
View046
100
AcDbLine
 10
521.619
 20
825.051
 30
0
 11
508.419
 21
825.051
 31
0
  0
ARC
  5
A66
330
A02
100
AcDbEntity
  8
View046
100
AcDbCircle
 10
508.419
 20
824.551
 30
0
 40
0.5
100
AcDbArc
 50
89.9996
 51
180
  0
LINE
  5
A67
330
A02
100
AcDbEntity
  8
View046
100
AcDbLine
 10
507.919
 20
824.451
 30
0
 11
507.919
 21
824.551
 31
0
  0
ARC
  5
A68
330
A02
100
AcDbEntity
  8
View046
100
AcDbCircle
 10
507.519
 20
824.451
 30
0
 40
0.4
100
AcDbArc
 50
180
 51
-0.00040107
  0
LINE
  5
A69
330
A02
100
AcDbEntity
  8
View046
100
AcDbLine
 10
507.119
 20
840.125
 30
0
 11
507.119
 21
824.451
 31
0
  0
ARC
  5
A6A
330
A02
100
AcDbEntity
  8
View046
100
AcDbCircle
 10
505.119
 20
840.125
 30
0
 40
2
100
AcDbArc
 50
-0.00040107
 51
89.9996
  0
LINE
  5
A6B
330
A02
100
AcDbEntity
  8
View046
100
AcDbLine
 10
505.119
 20
842.125
 30
0
 11
483.919
 21
842.125
 31
0
  0
ARC
  5
A6C
330
A02
100
AcDbEntity
  8
View046
100
AcDbCircle
 10
483.919
 20
840.125
 30
0
 40
2
100
AcDbArc
 50
89.9996
 51
180
  0
LINE
  5
A6D
330
A02
100
AcDbEntity
  8
View046
100
AcDbLine
 10
481.919
 20
840.125
 30
0
 11
481.919
 21
824.452
 31
0
  0
ARC
  5
A6E
330
A02
100
AcDbEntity
  8
View046
100
AcDbCircle
 10
481.519
 20
824.452
 30
0
 40
0.4
100
AcDbArc
 50
180
 51
-0.00040107
  0
LINE
  5
A6F
330
A02
100
AcDbEntity
  8
View046
100
AcDbLine
 10
481.119
 20
824.552
 30
0
 11
481.119
 21
824.452
 31
0
  0
ARC
  5
A70
330
A02
100
AcDbEntity
  8
View046
100
AcDbCircle
 10
480.619
 20
824.552
 30
0
 40
0.5
100
AcDbArc
 50
-0.00040107
 51
89.9996
  0
LINE
  5
A71
330
A02
100
AcDbEntity
  8
View046
100
AcDbLine
 10
480.619
 20
825.052
 30
0
 11
465.919
 21
825.052
 31
0
  0
LINE
  5
A72
330
A02
100
AcDbEntity
  8
View046
100
AcDbLine
 10
465.919
 20
825.052
 30
0
 11
465.919
 21
825.552
 31
0
  0
ARC
  5
A73
330
A02
100
AcDbEntity
  8
View046
100
AcDbCircle
 10
465.419
 20
825.552
 30
0
 40
0.5
100
AcDbArc
 50
-0.00040107
 51
89.9996
  0
LINE
  5
A74
330
A02
100
AcDbEntity
  8
View046
100
AcDbLine
 10
465.419
 20
826.052
 30
0
 11
451.419
 21
826.052
 31
0
  0
ARC
  5
A75
330
A02
100
AcDbEntity
  8
View046
100
AcDbCircle
 10
451.419
 20
825.552
 30
0
 40
0.5
100
AcDbArc
 50
89.9996
 51
180
  0
LINE
  5
A76
330
A02
100
AcDbEntity
  8
View046
100
AcDbLine
 10
450.919
 20
825.552
 30
0
 11
450.919
 21
825.052
 31
0
  0
LINE
  5
A77
330
A02
100
AcDbEntity
  8
View046
100
AcDbLine
 10
450.919
 20
825.052
 30
0
 11
447.845
 21
825.052
 31
0
  0
LINE
  5
A78
330
A02
100
AcDbEntity
  8
View046
100
AcDbLine
 10
447.845
 20
825.052
 30
0
 11
447.846
 21
855.125
 31
0
  0
ARC
  5
A79
330
A02
100
AcDbEntity
  8
View046
100
AcDbCircle
 10
445.846
 20
855.125
 30
0
 40
2
100
AcDbArc
 50
-0.00040107
 51
89.9996
  0
LINE
  5
A7A
330
A02
100
AcDbEntity
  8
View046
100
AcDbLine
 10
445.846
 20
857.125
 30
0
 11
391.846
 21
857.126
 31
0
  0
ARC
  5
A7B
330
A02
100
AcDbEntity
  8
View046
100
AcDbCircle
 10
391.846
 20
855.126
 30
0
 40
2
100
AcDbArc
 50
89.9996
 51
180
  0
LINE
  5
A7C
330
A02
100
AcDbEntity
  8
View046
100
AcDbLine
 10
389.846
 20
855.126
 30
0
 11
389.845
 21
825.052
 31
0
  0
LINE
  5
A7D
330
A02
100
AcDbEntity
  8
View046
100
AcDbLine
 10
389.845
 20
825.052
 30
0
 11
342.845
 21
825.053
 31
0
  0
LINE
  5
A7E
330
A02
100
AcDbEntity
  8
View046
100
AcDbLine
 10
342.845
 20
825.053
 30
0
 11
342.845
 21
835.126
 31
0
  0
ELLIPSE
  5
A7F
330
A02
100
AcDbEntity
  8
View046
100
AcDbEllipse
 10
494.119
 20
833.625
 30
0
 11
1.12e-05
 21
1.6
 31
0
 40
1
 41
0
 42
6.28318
  0
ELLIPSE
  5
A80
330
A02
100
AcDbEntity
  8
View046
100
AcDbEllipse
 10
409.846
 20
848.326
 30
0
 11
-1.6
 21
1.12e-05
 31
0
 40
1
 41
0
 42
6.28318
  0
ELLIPSE
  5
A81
330
A02
100
AcDbEntity
  8
View046
100
AcDbEllipse
 10
442.346
 20
848.325
 30
0
 11
-1.6
 21
1.12e-05
 31
0
 40
1
 41
0
 42
6.28318
  0
ELLIPSE
  5
A82
330
A02
100
AcDbEntity
  8
View046
100
AcDbEllipse
 10
336.345
 20
831.826
 30
0
 11
-1.6
 21
1.12e-05
 31
0
 40
1
 41
0
 42
6.28318
  0
CIRCLE
  5
A83
330
A02
100
AcDbEntity
  8
View046
100
AcDbCircle
 10
409.842
 20
303.779
 40
1.6
  0
CIRCLE
  5
A84
330
A02
100
AcDbEntity
  8
View046
100
AcDbCircle
 10
336.342
 20
320.279
 40
1.6
  0
CIRCLE
  5
A85
330
A02
100
AcDbEntity
  8
View046
100
AcDbCircle
 10
442.342
 20
303.778
 40
1.6
  0
LINE
  5
A86
330
A02
100
AcDbEntity
  8
View046
100
AcDbLine
 10
534.841
 20
138.051
 30
0
 11
556.841
 21
138.051
 31
0
  0
LINE
  5
A87
330
A02
100
AcDbEntity
  8
View046
100
AcDbLine
 10
556.841
 20
138.051
 30
0
 11
556.841
 21
139.051
 31
0
  0
LINE
  5
A88
330
A02
100
AcDbEntity
  8
View046
100
AcDbLine
 10
556.841
 20
139.051
 30
0
 11
557.877
 21
139.051
 31
0
  0
LINE
  5
A89
330
A02
100
AcDbEntity
  8
View046
100
AcDbLine
 10
557.877
 20
139.051
 30
0
 11
557.877
 21
138.051
 31
0
  0
LINE
  5
A8A
330
A02
100
AcDbEntity
  8
View046
100
AcDbLine
 10
557.877
 20
138.051
 30
0
 11
611.572
 21
138.051
 31
0
  0
LINE
  5
A8B
330
A02
100
AcDbEntity
  8
View046
100
AcDbLine
 10
611.572
 20
138.051
 30
0
 11
611.572
 21
139.051
 31
0
  0
LINE
  5
A8C
330
A02
100
AcDbEntity
  8
View046
100
AcDbLine
 10
611.572
 20
139.051
 30
0
 11
612.572
 21
139.051
 31
0
  0
LINE
  5
A8D
330
A02
100
AcDbEntity
  8
View046
100
AcDbLine
 10
612.572
 20
139.051
 30
0
 11
612.572
 21
136.977
 31
0
  0
LINE
  5
A8E
330
A02
100
AcDbEntity
  8
View046
100
AcDbLine
 10
612.572
 20
136.977
 30
0
 11
624.828
 21
122.37
 31
0
  0
ARC
  5
A8F
330
A02
100
AcDbEntity
  8
View046
100
AcDbCircle
 10
625.671
 20
123.077
 30
0
 40
1.1
100
AcDbArc
 50
-140
 51
-90.0004
  0
LINE
  5
A90
330
A02
100
AcDbEntity
  8
View046
100
AcDbLine
 10
625.671
 20
121.977
 30
0
 11
627.472
 21
121.977
 31
0
  0
ARC
  5
A91
330
A02
100
AcDbEntity
  8
View046
100
AcDbCircle
 10
627.472
 20
123.077
 30
0
 40
1.1
100
AcDbArc
 50
-90.0004
 51
-40.0004
  0
LINE
  5
A92
330
A02
100
AcDbEntity
  8
View046
100
AcDbLine
 10
628.315
 20
122.37
 30
0
 11
640.572
 21
136.977
 31
0
  0
LINE
  5
A93
330
A02
100
AcDbEntity
  8
View046
100
AcDbLine
 10
640.572
 20
136.977
 30
0
 11
640.572
 21
139.05
 31
0
  0
LINE
  5
A94
330
A02
100
AcDbEntity
  8
View046
100
AcDbLine
 10
640.572
 20
139.05
 30
0
 11
642.608
 21
139.05
 31
0
  0
LINE
  5
A95
330
A02
100
AcDbEntity
  8
View046
100
AcDbLine
 10
642.608
 20
139.05
 30
0
 11
642.608
 21
138.05
 31
0
  0
LINE
  5
A96
330
A02
100
AcDbEntity
  8
View046
100
AcDbLine
 10
642.608
 20
138.05
 30
0
 11
660.508
 21
138.05
 31
0
  0
ARC
  5
A97
330
A02
100
AcDbEntity
  8
View046
100
AcDbCircle
 10
660.508
 20
139.15
 30
0
 40
1.1
100
AcDbArc
 50
-90.0004
 51
-0.00040107
  0
LINE
  5
A98
330
A02
100
AcDbEntity
  8
View046
100
AcDbLine
 10
661.608
 20
139.15
 30
0
 11
661.612
 21
636.95
 31
0
  0
ARC
  5
A99
330
A02
100
AcDbEntity
  8
View046
100
AcDbCircle
 10
660.512
 20
636.95
 30
0
 40
1.1
100
AcDbArc
 50
-0.00040107
 51
89.9996
  0
LINE
  5
A9A
330
A02
100
AcDbEntity
  8
View046
100
AcDbLine
 10
660.512
 20
638.05
 30
0
 11
642.612
 21
638.05
 31
0
  0
LINE
  5
A9B
330
A02
100
AcDbEntity
  8
View046
100
AcDbLine
 10
642.612
 20
638.05
 30
0
 11
642.612
 21
637.05
 31
0
  0
LINE
  5
A9C
330
A02
100
AcDbEntity
  8
View046
100
AcDbLine
 10
642.612
 20
637.05
 30
0
 11
640.575
 21
637.05
 31
0
  0
LINE
  5
A9D
330
A02
100
AcDbEntity
  8
View046
100
AcDbLine
 10
640.575
 20
637.05
 30
0
 11
640.575
 21
639.124
 31
0
  0
LINE
  5
A9E
330
A02
100
AcDbEntity
  8
View046
100
AcDbLine
 10
640.575
 20
639.124
 30
0
 11
628.319
 21
653.731
 31
0
  0
ARC
  5
A9F
330
A02
100
AcDbEntity
  8
View046
100
AcDbCircle
 10
627.476
 20
653.024
 30
0
 40
1.1
100
AcDbArc
 50
39.9996
 51
89.9996
  0
LINE
  5
AA0
330
A02
100
AcDbEntity
  8
View046
100
AcDbLine
 10
627.476
 20
654.124
 30
0
 11
625.675
 21
654.124
 31
0
  0
ARC
  5
AA1
330
A02
100
AcDbEntity
  8
View046
100
AcDbCircle
 10
625.675
 20
653.024
 30
0
 40
1.1
100
AcDbArc
 50
89.9996
 51
140
  0
LINE
  5
AA2
330
A02
100
AcDbEntity
  8
View046
100
AcDbLine
 10
624.832
 20
653.731
 30
0
 11
612.575
 21
639.124
 31
0
  0
LINE
  5
AA3
330
A02
100
AcDbEntity
  8
View046
100
AcDbLine
 10
612.575
 20
639.124
 30
0
 11
612.575
 21
637.051
 31
0
  0
LINE
  5
AA4
330
A02
100
AcDbEntity
  8
View046
100
AcDbLine
 10
612.575
 20
637.051
 30
0
 11
611.575
 21
637.051
 31
0
  0
LINE
  5
AA5
330
A02
100
AcDbEntity
  8
View046
100
AcDbLine
 10
611.575
 20
637.051
 30
0
 11
611.575
 21
638.051
 31
0
  0
LINE
  5
AA6
330
A02
100
AcDbEntity
  8
View046
100
AcDbLine
 10
611.575
 20
638.051
 30
0
 11
557.881
 21
638.051
 31
0
  0
LINE
  5
AA7
330
A02
100
AcDbEntity
  8
View046
100
AcDbLine
 10
557.881
 20
638.051
 30
0
 11
557.881
 21
637.051
 31
0
  0
LINE
  5
AA8
330
A02
100
AcDbEntity
  8
View046
100
AcDbLine
 10
557.881
 20
637.051
 30
0
 11
556.844
 21
637.051
 31
0
  0
LINE
  5
AA9
330
A02
100
AcDbEntity
  8
View046
100
AcDbLine
 10
556.844
 20
637.051
 30
0
 11
556.844
 21
638.051
 31
0
  0
LINE
  5
AAA
330
A02
100
AcDbEntity
  8
View046
100
AcDbLine
 10
556.844
 20
638.051
 30
0
 11
534.844
 21
638.051
 31
0
  0
LINE
  5
AAB
330
A02
100
AcDbEntity
  8
View046
100
AcDbLine
 10
534.844
 20
637.051
 30
0
 11
534.844
 21
638.051
 31
0
  0
LINE
  5
AAC
330
A02
100
AcDbEntity
  8
View046
100
AcDbLine
 10
534.844
 20
637.051
 30
0
 11
533.844
 21
637.051
 31
0
  0
LINE
  5
AAD
330
A02
100
AcDbEntity
  8
View046
100
AcDbLine
 10
533.844
 20
653.025
 30
0
 11
533.844
 21
637.051
 31
0
  0
ARC
  5
AAE
330
A02
100
AcDbEntity
  8
View046
100
AcDbCircle
 10
532.744
 20
653.025
 30
0
 40
1.1
100
AcDbArc
 50
-0.00040107
 51
89.9996
  0
LINE
  5
AAF
330
A02
100
AcDbEntity
  8
View046
100
AcDbLine
 10
476.944
 20
654.125
 30
0
 11
532.744
 21
654.125
 31
0
  0
ARC
  5
AB0
330
A02
100
AcDbEntity
  8
View046
100
AcDbCircle
 10
476.944
 20
653.025
 30
0
 40
1.1
100
AcDbArc
 50
89.9996
 51
180
  0
LINE
  5
AB1
330
A02
100
AcDbEntity
  8
View046
100
AcDbLine
 10
475.844
 20
637.052
 30
0
 11
475.844
 21
653.025
 31
0
  0
LINE
  5
AB2
330
A02
100
AcDbEntity
  8
View046
100
AcDbLine
 10
475.844
 20
637.052
 30
0
 11
474.844
 21
637.052
 31
0
  0
LINE
  5
AB3
330
A02
100
AcDbEntity
  8
View046
100
AcDbLine
 10
474.844
 20
637.052
 30
0
 11
474.843
 21
498.852
 31
0
  0
LINE
  5
AB4
330
A02
100
AcDbEntity
  8
View046
100
AcDbLine
 10
474.843
 20
498.852
 30
0
 11
474.943
 21
498.852
 31
0
  0
LINE
  5
AB5
330
A02
100
AcDbEntity
  8
View046
100
AcDbLine
 10
474.943
 20
498.852
 30
0
 11
474.943
 21
498.052
 31
0
  0
LINE
  5
AB6
330
A02
100
AcDbEntity
  8
View046
100
AcDbLine
 10
474.943
 20
498.052
 30
0
 11
458.87
 21
498.052
 31
0
  0
ARC
  5
AB7
330
A02
100
AcDbEntity
  8
View046
100
AcDbCircle
 10
458.87
 20
496.952
 30
0
 40
1.1
100
AcDbArc
 50
89.9996
 51
180
  0
LINE
  5
AB8
330
A02
100
AcDbEntity
  8
View046
100
AcDbLine
 10
457.767
 20
168.347
 30
0
 11
457.77
 21
496.952
 31
0
  0
ARC
  5
AB9
330
A02
100
AcDbEntity
  8
View046
100
AcDbCircle
 10
458.867
 20
168.347
 30
0
 40
1.1
100
AcDbArc
 50
180
 51
-120
  0
LINE
  5
ABA
330
A02
100
AcDbEntity
  8
View046
100
AcDbLine
 10
472.767
 20
159.052
 30
0
 11
458.317
 21
167.394
 31
0
  0
LINE
  5
ABB
330
A02
100
AcDbEntity
  8
View046
100
AcDbLine
 10
474.941
 20
159.052
 30
0
 11
472.767
 21
159.052
 31
0
  0
LINE
  5
ABC
330
A02
100
AcDbEntity
  8
View046
100
AcDbLine
 10
474.941
 20
159.052
 30
0
 11
474.941
 21
158.252
 31
0
  0
LINE
  5
ABD
330
A02
100
AcDbEntity
  8
View046
100
AcDbLine
 10
474.941
 20
158.252
 30
0
 11
473.941
 21
158.252
 31
0
  0
LINE
  5
ABE
330
A02
100
AcDbEntity
  8
View046
100
AcDbLine
 10
473.941
 20
139.052
 30
0
 11
473.941
 21
158.252
 31
0
  0
LINE
  5
ABF
330
A02
100
AcDbEntity
  8
View046
100
AcDbLine
 10
473.941
 20
139.052
 30
0
 11
475.841
 21
139.052
 31
0
  0
LINE
  5
AC0
330
A02
100
AcDbEntity
  8
View046
100
AcDbLine
 10
475.841
 20
123.078
 30
0
 11
475.841
 21
139.052
 31
0
  0
ARC
  5
AC1
330
A02
100
AcDbEntity
  8
View046
100
AcDbCircle
 10
476.941
 20
123.078
 30
0
 40
1.1
100
AcDbArc
 50
180
 51
-90.0004
  0
LINE
  5
AC2
330
A02
100
AcDbEntity
  8
View046
100
AcDbLine
 10
532.74
 20
121.978
 30
0
 11
476.94
 21
121.978
 31
0
  0
ARC
  5
AC3
330
A02
100
AcDbEntity
  8
View046
100
AcDbCircle
 10
532.741
 20
123.078
 30
0
 40
1.1
100
AcDbArc
 50
-90.0004
 51
-0.00040107
  0
LINE
  5
AC4
330
A02
100
AcDbEntity
  8
View046
100
AcDbLine
 10
533.841
 20
139.051
 30
0
 11
533.841
 21
123.078
 31
0
  0
LINE
  5
AC5
330
A02
100
AcDbEntity
  8
View046
100
AcDbLine
 10
533.841
 20
139.051
 30
0
 11
534.841
 21
139.051
 31
0
  0
LINE
  5
AC6
330
A02
100
AcDbEntity
  8
View046
100
AcDbLine
 10
534.841
 20
138.051
 30
0
 11
534.841
 21
139.051
 31
0
  0
ELLIPSE
  5
AC7
330
A02
100
AcDbEntity
  8
View046
100
AcDbEllipse
 10
626.117
 20
645.134
 30
0
 11
1.13136
 21
-1.13138
 31
0
 40
1
 41
0
 42
6.28318
  0
ELLIPSE
  5
AC8
330
A02
100
AcDbEntity
  8
View046
100
AcDbEllipse
 10
481.344
 20
646.925
 30
0
 11
1.6
 21
-1.12e-05
 31
0
 40
1
 41
0
 42
6.28318
  0
ELLIPSE
  5
AC9
330
A02
100
AcDbEntity
  8
View046
100
AcDbEllipse
 10
513.844
 20
646.925
 30
0
 11
1.6
 21
-1.12e-05
 31
0
 40
1
 41
0
 42
6.28318
  0
CIRCLE
  5
ACA
330
A02
100
AcDbEntity
  8
View046
100
AcDbCircle
 10
466.169
 20
466.052
 40
1.6
  0
CIRCLE
  5
ACB
330
A02
100
AcDbEntity
  8
View046
100
AcDbCircle
 10
466.167
 20
170.052
 40
1.6
  0
CIRCLE
  5
ACC
330
A02
100
AcDbEntity
  8
View046
100
AcDbCircle
 10
626.113
 20
130.967
 40
1.6
  0
CIRCLE
  5
ACD
330
A02
100
AcDbEntity
  8
View046
100
AcDbCircle
 10
481.341
 20
129.178
 40
1.6
  0
CIRCLE
  5
ACE
330
A02
100
AcDbEntity
  8
View046
100
AcDbCircle
 10
513.841
 20
129.178
 40
1.6
  0
CIRCLE
  5
ACF
330
A02
100
AcDbEntity
  8
View046
100
AcDbCircle
 10
466.168
 20
318.052
 40
1.6
  0
ARC
  5
AD0
330
A02
100
AcDbEntity
  8
View046
100
AcDbCircle
 10
447.842
 20
288.639
 30
0
 40
3
100
AcDbArc
 50
-0.000396062
 51
80.4055
  0
LINE
  5
AD1
330
A02
100
AcDbEntity
  8
View046
100
AcDbLine
 10
448.342
 20
291.597
 30
0
 11
448.342
 21
279.582
 31
0
  0
ARC
  5
AD2
330
A02
100
AcDbEntity
  8
View046
100
AcDbCircle
 10
446.342
 20
279.582
 30
0
 40
2
100
AcDbArc
 50
-90.0004
 51
-0.000394354
  0
LINE
  5
AD3
330
A02
100
AcDbEntity
  8
View046
100
AcDbLine
 10
446.342
 20
277.582
 30
0
 11
443.342
 21
277.582
 31
0
  0
ARC
  5
AD4
330
A02
100
AcDbEntity
  8
View046
100
AcDbCircle
 10
443.342
 20
279.582
 30
0
 40
2
100
AcDbArc
 50
180
 51
-90.0004
  0
LINE
  5
AD5
330
A02
100
AcDbEntity
  8
View046
100
AcDbLine
 10
441.342
 20
279.582
 30
0
 11
441.342
 21
291.639
 31
0
  0
LINE
  5
AD6
330
A02
100
AcDbEntity
  8
View046
100
AcDbLine
 10
441.342
 20
291.639
 30
0
 11
366.342
 21
291.64
 31
0
  0
LINE
  5
AD7
330
A02
100
AcDbEntity
  8
View046
100
AcDbLine
 10
366.342
 20
279.582
 30
0
 11
366.342
 21
291.64
 31
0
  0
ARC
  5
AD8
330
A02
100
AcDbEntity
  8
View046
100
AcDbCircle
 10
364.342
 20
279.582
 30
0
 40
2
100
AcDbArc
 50
-90.0004
 51
-0.000394354
  0
LINE
  5
AD9
330
A02
100
AcDbEntity
  8
View046
100
AcDbLine
 10
361.342
 20
277.582
 30
0
 11
364.342
 21
277.582
 31
0
  0
ARC
  5
ADA
330
A02
100
AcDbEntity
  8
View046
100
AcDbCircle
 10
361.342
 20
279.582
 30
0
 40
2
100
AcDbArc
 50
180
 51
-90.0004
  0
LINE
  5
ADB
330
A02
100
AcDbEntity
  8
View046
100
AcDbLine
 10
359.342
 20
291.64
 30
0
 11
359.342
 21
279.582
 31
0
  0
LINE
  5
ADC
330
A02
100
AcDbEntity
  8
View046
100
AcDbLine
 10
359.342
 20
291.64
 30
0
 11
317.842
 21
291.64
 31
0
  0
ARC
  5
ADD
330
A02
100
AcDbEntity
  8
View046
100
AcDbCircle
 10
317.842
 20
288.64
 30
0
 40
3
100
AcDbArc
 50
89.9996
 51
180
  0
LINE
  5
ADE
330
A02
100
AcDbEntity
  8
View046
100
AcDbLine
 10
314.842
 20
288.64
 30
0
 11
314.842
 21
271.253
 31
0
  0
LINE
  5
ADF
330
A02
100
AcDbEntity
  8
View046
100
AcDbLine
 10
314.842
 20
271.253
 30
0
 11
313.642
 21
271.253
 31
0
  0
LINE
  5
AE0
330
A02
100
AcDbEntity
  8
View046
100
AcDbLine
 10
313.642
 20
271.253
 30
0
 11
313.641
 21
240.912
 31
0
  0
ARC
  5
AE1
330
A02
100
AcDbEntity
  8
View046
100
AcDbCircle
 10
314.631
 20
241.053
 30
0
 40
1
100
AcDbArc
 50
-171.891
 51
-90.0004
  0
LINE
  5
AE2
330
A02
100
AcDbEntity
  8
View046
100
AcDbLine
 10
314.631
 20
240.053
 30
0
 11
316.631
 21
240.053
 31
0
  0
ARC
  5
AE3
330
A02
100
AcDbEntity
  8
View046
100
AcDbCircle
 10
316.631
 20
241.053
 30
0
 40
1
100
AcDbArc
 50
-90.0004
 51
-34.8503
  0
ARC
  5
AE4
330
A02
100
AcDbEntity
  8
View046
100
AcDbCircle
 10
322.376
 20
237.053
 30
0
 40
6
100
AcDbArc
 50
-145.15
 51
145.15
  0
ARC
  5
AE5
330
A02
100
AcDbEntity
  8
View046
100
AcDbCircle
 10
316.631
 20
233.053
 30
0
 40
1
100
AcDbArc
 50
34.8495
 51
89.9996
  0
LINE
  5
AE6
330
A02
100
AcDbEntity
  8
View046
100
AcDbLine
 10
314.631
 20
234.053
 30
0
 11
316.631
 21
234.053
 31
0
  0
ARC
  5
AE7
330
A02
100
AcDbEntity
  8
View046
100
AcDbCircle
 10
314.631
 20
233.053
 30
0
 40
1
100
AcDbArc
 50
89.9996
 51
171.89
  0
LINE
  5
AE8
330
A02
100
AcDbEntity
  8
View046
100
AcDbLine
 10
313.641
 20
233.194
 30
0
 11
313.641
 21
218.912
 31
0
  0
ARC
  5
AE9
330
A02
100
AcDbEntity
  8
View046
100
AcDbCircle
 10
314.631
 20
219.053
 30
0
 40
1
100
AcDbArc
 50
-171.891
 51
-90.0004
  0
LINE
  5
AEA
330
A02
100
AcDbEntity
  8
View046
100
AcDbLine
 10
314.631
 20
218.053
 30
0
 11
316.631
 21
218.053
 31
0
  0
ARC
  5
AEB
330
A02
100
AcDbEntity
  8
View046
100
AcDbCircle
 10
316.631
 20
219.053
 30
0
 40
1
100
AcDbArc
 50
-90.0004
 51
-22.6203
  0
ARC
  5
AEC
330
A02
100
AcDbEntity
  8
View046
100
AcDbCircle
 10
328.631
 20
214.053
 30
0
 40
12
100
AcDbArc
 50
-157.381
 51
157.38
  0
ARC
  5
AED
330
A02
100
AcDbEntity
  8
View046
100
AcDbCircle
 10
316.631
 20
209.053
 30
0
 40
1
100
AcDbArc
 50
22.6195
 51
89.9996
  0
LINE
  5
AEE
330
A02
100
AcDbEntity
  8
View046
100
AcDbLine
 10
314.631
 20
210.053
 30
0
 11
316.631
 21
210.053
 31
0
  0
ARC
  5
AEF
330
A02
100
AcDbEntity
  8
View046
100
AcDbCircle
 10
314.631
 20
209.053
 30
0
 40
1
100
AcDbArc
 50
89.9996
 51
171.89
  0
LINE
  5
AF0
330
A02
100
AcDbEntity
  8
View046
100
AcDbLine
 10
313.641
 20
209.194
 30
0
 11
313.64
 21
106.053
 31
0
  0
LINE
  5
AF1
330
A02
100
AcDbEntity
  8
View046
100
AcDbLine
 10
296.253
 20
106.053
 30
0
 11
313.64
 21
106.053
 31
0
  0
ARC
  5
AF2
330
A02
100
AcDbEntity
  8
View046
100
AcDbCircle
 10
296.253
 20
103.053
 30
0
 40
3
100
AcDbArc
 50
89.9996
 51
180
  0
LINE
  5
AF3
330
A02
100
AcDbEntity
  8
View046
100
AcDbLine
 10
293.253
 20
103.053
 30
0
 11
293.253
 21
97.4528
 31
0
  0
ARC
  5
AF4
330
A02
100
AcDbEntity
  8
View046
100
AcDbCircle
 10
296.253
 20
97.4528
 30
0
 40
3
100
AcDbArc
 50
180
 51
-90.0004
  0
LINE
  5
AF5
330
A02
100
AcDbEntity
  8
View046
100
AcDbLine
 10
296.253
 20
94.4528
 30
0
 11
313.64
 21
94.4527
 31
0
  0
LINE
  5
AF6
330
A02
100
AcDbEntity
  8
View046
100
AcDbLine
 10
313.64
 20
94.4527
 30
0
 11
313.64
 21
93.2527
 31
0
  0
LINE
  5
AF7
330
A02
100
AcDbEntity
  8
View046
100
AcDbLine
 10
313.64
 20
93.2527
 30
0
 11
452.04
 21
93.2517
 31
0
  0
LINE
  5
AF8
330
A02
100
AcDbEntity
  8
View046
100
AcDbLine
 10
452.04
 20
93.2517
 30
0
 11
452.04
 21
94.4517
 31
0
  0
LINE
  5
AF9
330
A02
100
AcDbEntity
  8
View046
100
AcDbLine
 10
469.428
 20
94.4516
 30
0
 11
452.04
 21
94.4517
 31
0
  0
ARC
  5
AFA
330
A02
100
AcDbEntity
  8
View046
100
AcDbCircle
 10
469.428
 20
97.4516
 30
0
 40
3
100
AcDbArc
 50
-90.0004
 51
-0.000396062
  0
LINE
  5
AFB
330
A02
100
AcDbEntity
  8
View046
100
AcDbLine
 10
472.428
 20
97.4516
 30
0
 11
472.428
 21
103.052
 31
0
  0
ARC
  5
AFC
330
A02
100
AcDbEntity
  8
View046
100
AcDbCircle
 10
469.428
 20
103.052
 30
0
 40
3
100
AcDbArc
 50
-0.000396062
 51
89.9996
  0
LINE
  5
AFD
330
A02
100
AcDbEntity
  8
View046
100
AcDbLine
 10
469.428
 20
106.052
 30
0
 11
452.04
 21
106.052
 31
0
  0
LINE
  5
AFE
330
A02
100
AcDbEntity
  8
View046
100
AcDbLine
 10
452.04
 20
106.052
 30
0
 11
452.041
 21
233.193
 31
0
  0
ARC
  5
AFF
330
A02
100
AcDbEntity
  8
View046
100
AcDbCircle
 10
451.051
 20
233.052
 30
0
 40
1
100
AcDbArc
 50
8.10922
 51
89.9996
  0
LINE
  5
B00
330
A02
100
AcDbEntity
  8
View046
100
AcDbLine
 10
451.051
 20
234.052
 30
0
 11
449.051
 21
234.052
 31
0
  0
ARC
  5
B01
330
A02
100
AcDbEntity
  8
View046
100
AcDbCircle
 10
449.051
 20
233.052
 30
0
 40
1
100
AcDbArc
 50
89.9996
 51
145.15
  0
ARC
  5
B02
330
A02
100
AcDbEntity
  8
View046
100
AcDbCircle
 10
443.307
 20
237.052
 30
0
 40
6
100
AcDbArc
 50
34.8495
 51
-34.8503
  0
ARC
  5
B03
330
A02
100
AcDbEntity
  8
View046
100
AcDbCircle
 10
449.051
 20
241.052
 30
0
 40
1
100
AcDbArc
 50
-145.15
 51
-90.0004
  0
LINE
  5
B04
330
A02
100
AcDbEntity
  8
View046
100
AcDbLine
 10
451.051
 20
240.052
 30
0
 11
449.051
 21
240.052
 31
0
  0
ARC
  5
B05
330
A02
100
AcDbEntity
  8
View046
100
AcDbCircle
 10
451.051
 20
241.052
 30
0
 40
1
100
AcDbArc
 50
-90.0004
 51
-8.11001
  0
LINE
  5
B06
330
A02
100
AcDbEntity
  8
View046
100
AcDbLine
 10
452.041
 20
240.911
 30
0
 11
452.042
 21
271.252
 31
0
  0
LINE
  5
B07
330
A02
100
AcDbEntity
  8
View046
100
AcDbLine
 10
452.042
 20
271.252
 30
0
 11
450.842
 21
271.252
 31
0
  0
LINE
  5
B08
330
A02
100
AcDbEntity
  8
View046
100
AcDbLine
 10
450.842
 20
288.639
 30
0
 11
450.842
 21
271.252
 31
0
  0
ELLIPSE
  5
B09
330
A02
100
AcDbEntity
  8
View046
100
AcDbEllipse
 10
459.605
 20
100.752
 30
0
 11
1.2
 21
-8.23172e-06
 31
0
 40
1
 41
0
 42
6.28318
  0
CIRCLE
  5
B0A
330
A02
100
AcDbEntity
  8
View046
100
AcDbCircle
 10
306.076
 20
100.753
 40
1.2
  0
CIRCLE
  5
B0B
330
A02
100
AcDbEntity
  8
View046
100
AcDbCircle
 10
422.842
 20
281.332
 40
1.2
  0
CIRCLE
  5
B0C
330
A02
100
AcDbEntity
  8
View046
100
AcDbCircle
 10
322.842
 20
281.333
 40
1.2
  0
LINE
  5
B0D
330
A02
100
AcDbEntity
  8
View046
100
AcDbLine
 10
543.058
 20
851.851
 30
0
 11
712.633
 21
851.85
 31
0
  0
ARC
  5
B0E
330
A02
100
AcDbEntity
  8
View046
100
AcDbCircle
 10
712.633
 20
846.85
 30
0
 40
5
100
AcDbArc
 50
-0.000395948
 51
89.9996
  0
LINE
  5
B0F
330
A02
100
AcDbEntity
  8
View046
100
AcDbLine
 10
717.633
 20
846.85
 30
0
 11
717.632
 21
676.85
 31
0
  0
ARC
  5
B10
330
A02
100
AcDbEntity
  8
View046
100
AcDbCircle
 10
712.632
 20
676.85
 30
0
 40
5
100
AcDbArc
 50
-90.0004
 51
-0.000395948
  0
LINE
  5
B11
330
A02
100
AcDbEntity
  8
View046
100
AcDbLine
 10
712.632
 20
671.85
 30
0
 11
543.057
 21
671.851
 31
0
  0
ARC
  5
B12
330
A02
100
AcDbEntity
  8
View046
100
AcDbCircle
 10
543.057
 20
676.851
 30
0
 40
5
100
AcDbArc
 50
180
 51
-90.0004
  0
LINE
  5
B13
330
A02
100
AcDbEntity
  8
View046
100
AcDbLine
 10
538.057
 20
676.851
 30
0
 11
538.058
 21
846.851
 31
0
  0
ARC
  5
B14
330
A02
100
AcDbEntity
  8
View046
100
AcDbCircle
 10
543.058
 20
846.851
 30
0
 40
5
100
AcDbArc
 50
89.9996
 51
180
  0
LINE
  5
B15
330
A02
100
AcDbEntity
  8
View046
100
AcDbLine
 10
686.845
 20
748.37
 30
0
 11
686.845
 21
752.787
 31
0
  0
ARC
  5
B16
330
A02
100
AcDbEntity
  8
View046
100
AcDbCircle
 10
659.82
 20
746.834
 30
0
 40
27.6726
100
AcDbArc
 50
12.4231
 51
64.4606
  0
ARC
  5
B17
330
A02
100
AcDbEntity
  8
View046
100
AcDbCircle
 10
627.845
 20
779.051
 30
0
 40
44.5
100
AcDbArc
 50
-51.3892
 51
-9.37435
  0
ARC
  5
B18
330
A02
100
AcDbEntity
  8
View046
100
AcDbCircle
 10
629.77
 20
734.387
 30
0
 40
27.6726
100
AcDbArc
 50
-30.094
 51
20.9437
  0
ARC
  5
B19
330
A02
100
AcDbEntity
  8
View046
100
AcDbCircle
 10
654.145
 20
720.26
 30
0
 40
0.5
100
AcDbArc
 50
149.906
 51
-155.179
  0
LINE
  5
B1A
330
A02
100
AcDbEntity
  8
View046
100
AcDbLine
 10
653.691
 20
720.05
 30
0
 11
658.524
 21
720.05
 31
0
  0
ARC
  5
B1B
330
A02
100
AcDbEntity
  8
View046
100
AcDbCircle
 10
627.845
 20
779.051
 30
0
 40
66.5
100
AcDbArc
 50
-62.5261
 51
-27.4747
  0
LINE
  5
B1C
330
A02
100
AcDbEntity
  8
View046
100
AcDbLine
 10
658.525
 20
838.05
 30
0
 11
654.109
 21
838.05
 31
0
  0
ARC
  5
B1D
330
A02
100
AcDbEntity
  8
View046
100
AcDbCircle
 10
660.062
 20
811.026
 30
0
 40
27.6726
100
AcDbArc
 50
102.423
 51
154.461
  0
ARC
  5
B1E
330
A02
100
AcDbEntity
  8
View046
100
AcDbCircle
 10
627.845
 20
779.051
 30
0
 40
44.5
100
AcDbArc
 50
38.6108
 51
80.6256
  0
ARC
  5
B1F
330
A02
100
AcDbEntity
  8
View046
100
AcDbCircle
 10
672.509
 20
780.975
 30
0
 40
27.6726
100
AcDbArc
 50
59.906
 51
110.944
  0
ARC
  5
B20
330
A02
100
AcDbEntity
  8
View046
100
AcDbCircle
 10
686.635
 20
805.35
 30
0
 40
0.5
100
AcDbArc
 50
-120.094
 51
-65.1788
  0
LINE
  5
B21
330
A02
100
AcDbEntity
  8
View046
100
AcDbLine
 10
686.845
 20
804.897
 30
0
 11
686.845
 21
809.73
 31
0
  0
ARC
  5
B22
330
A02
100
AcDbEntity
  8
View046
100
AcDbCircle
 10
627.845
 20
779.051
 30
0
 40
66.5
100
AcDbArc
 50
27.4739
 51
62.5253
  0
LINE
  5
B23
330
A02
100
AcDbEntity
  8
View046
100
AcDbLine
 10
597.165
 20
720.051
 30
0
 11
601.581
 21
720.051
 31
0
  0
ARC
  5
B24
330
A02
100
AcDbEntity
  8
View046
100
AcDbCircle
 10
595.628
 20
747.075
 30
0
 40
27.6726
100
AcDbArc
 50
-77.5769
 51
-25.5394
  0
ARC
  5
B25
330
A02
100
AcDbEntity
  8
View046
100
AcDbCircle
 10
627.845
 20
779.051
 30
0
 40
44.5
100
AcDbArc
 50
-141.389
 51
-99.3744
  0
ARC
  5
B26
330
A02
100
AcDbEntity
  8
View046
100
AcDbCircle
 10
583.181
 20
777.126
 30
0
 40
27.6726
100
AcDbArc
 50
-120.094
 51
-69.0563
  0
ARC
  5
B27
330
A02
100
AcDbEntity
  8
View046
100
AcDbCircle
 10
569.055
 20
752.751
 30
0
 40
0.5
100
AcDbArc
 50
59.906
 51
114.821
  0
LINE
  5
B28
330
A02
100
AcDbEntity
  8
View046
100
AcDbLine
 10
568.845
 20
753.204
 30
0
 11
568.845
 21
748.371
 31
0
  0
ARC
  5
B29
330
A02
100
AcDbEntity
  8
View046
100
AcDbCircle
 10
627.845
 20
779.051
 30
0
 40
66.5
100
AcDbArc
 50
-152.526
 51
-117.475
  0
LINE
  5
B2A
330
A02
100
AcDbEntity
  8
View046
100
AcDbLine
 10
568.845
 20
809.731
 30
0
 11
568.845
 21
805.314
 31
0
  0
ARC
  5
B2B
330
A02
100
AcDbEntity
  8
View046
100
AcDbCircle
 10
595.87
 20
811.268
 30
0
 40
27.6726
100
AcDbArc
 50
-167.577
 51
-115.539
  0
ARC
  5
B2C
330
A02
100
AcDbEntity
  8
View046
100
AcDbCircle
 10
627.845
 20
779.051
 30
0
 40
44.5
100
AcDbArc
 50
128.611
 51
170.626
  0
ARC
  5
B2D
330
A02
100
AcDbEntity
  8
View046
100
AcDbCircle
 10
625.92
 20
823.715
 30
0
 40
27.6726
100
AcDbArc
 50
149.906
 51
-159.056
  0
ARC
  5
B2E
330
A02
100
AcDbEntity
  8
View046
100
AcDbCircle
 10
601.545
 20
837.841
 30
0
 40
0.5
100
AcDbArc
 50
-30.094
 51
24.8212
  0
LINE
  5
B2F
330
A02
100
AcDbEntity
  8
View046
100
AcDbLine
 10
601.999
 20
838.051
 30
0
 11
597.166
 21
838.051
 31
0
  0
ARC
  5
B30
330
A02
100
AcDbEntity
  8
View046
100
AcDbCircle
 10
627.845
 20
779.051
 30
0
 40
66.5
100
AcDbArc
 50
117.474
 51
152.525
  0
LINE
  5
B31
330
A02
100
AcDbEntity
  8
View046
100
AcDbLine
 10
648.748
 20
838.05
 30
0
 11
603.921
 21
838.051
 31
0
  0
ARC
  5
B32
330
A02
100
AcDbEntity
  8
View046
100
AcDbCircle
 10
628.016
 20
824.441
 30
0
 40
27.6726
100
AcDbArc
 50
150.541
 51
-160.539
  0
ARC
  5
B33
330
A02
100
AcDbEntity
  8
View046
100
AcDbCircle
 10
627.845
 20
779.051
 30
0
 40
44.5
100
AcDbArc
 50
83.6108
 51
125.626
  0
ARC
  5
B34
330
A02
100
AcDbEntity
  8
View046
100
AcDbCircle
 10
658.066
 20
811.994
 30
0
 40
27.6726
100
AcDbArc
 50
109.678
 51
155.944
  0
LINE
  5
B35
330
A02
100
AcDbEntity
  8
View046
100
AcDbLine
 10
568.845
 20
799.954
 30
0
 11
568.845
 21
755.127
 31
0
  0
ARC
  5
B36
330
A02
100
AcDbEntity
  8
View046
100
AcDbCircle
 10
582.454
 20
779.222
 30
0
 40
27.6726
100
AcDbArc
 50
-119.459
 51
-70.5394
  0
ARC
  5
B37
330
A02
100
AcDbEntity
  8
View046
100
AcDbCircle
 10
627.845
 20
779.051
 30
0
 40
44.5
100
AcDbArc
 50
173.611
 51
-144.374
  0
ARC
  5
B38
330
A02
100
AcDbEntity
  8
View046
100
AcDbCircle
 10
594.902
 20
809.272
 30
0
 40
27.6726
100
AcDbArc
 50
-160.322
 51
-114.056
  0
LINE
  5
B39
330
A02
100
AcDbEntity
  8
View046
100
AcDbLine
 10
686.845
 20
758.148
 30
0
 11
686.845
 21
802.974
 31
0
  0
ARC
  5
B3A
330
A02
100
AcDbEntity
  8
View046
100
AcDbCircle
 10
673.236
 20
778.88
 30
0
 40
27.6726
100
AcDbArc
 50
60.5409
 51
109.461
  0
ARC
  5
B3B
330
A02
100
AcDbEntity
  8
View046
100
AcDbCircle
 10
627.845
 20
779.051
 30
0
 40
44.5
100
AcDbArc
 50
-6.38918
 51
35.6256
  0
ARC
  5
B3C
330
A02
100
AcDbEntity
  8
View046
100
AcDbCircle
 10
660.788
 20
748.829
 30
0
 40
27.6726
100
AcDbArc
 50
19.6777
 51
65.9437
  0
LINE
  5
B3D
330
A02
100
AcDbEntity
  8
View046
100
AcDbLine
 10
606.942
 20
720.051
 30
0
 11
651.769
 21
720.05
 31
0
  0
ARC
  5
B3E
330
A02
100
AcDbEntity
  8
View046
100
AcDbCircle
 10
627.674
 20
733.66
 30
0
 40
27.6726
100
AcDbArc
 50
-29.4591
 51
19.4606
  0
ARC
  5
B3F
330
A02
100
AcDbEntity
  8
View046
100
AcDbCircle
 10
627.845
 20
779.051
 30
0
 40
44.5
100
AcDbArc
 50
-96.3892
 51
-54.3744
  0
ARC
  5
B40
330
A02
100
AcDbEntity
  8
View046
100
AcDbCircle
 10
597.624
 20
746.107
 30
0
 40
27.6726
100
AcDbArc
 50
-70.3223
 51
-24.0563
  0
ARC
  5
B41
330
A02
100
AcDbEntity
  8
View046
100
AcDbCircle
 10
595.87
 20
811.268
 30
0
 40
27.6726
100
AcDbArc
 50
-111.264
 51
-40.6117
  0
ARC
  5
B42
330
A02
100
AcDbEntity
  8
View046
100
AcDbCircle
 10
614.6
 20
795.207
 30
0
 40
3
100
AcDbArc
 50
-40.6117
 51
68.3416
  0
ARC
  5
B43
330
A02
100
AcDbEntity
  8
View046
100
AcDbCircle
 10
625.92
 20
823.715
 30
0
 40
27.6726
100
AcDbArc
 50
-154.75
 51
-111.658
  0
ARC
  5
B44
330
A02
100
AcDbEntity
  8
View046
100
AcDbCircle
 10
627.845
 20
779.051
 30
0
 40
42.5
100
AcDbArc
 50
129.361
 51
171.3
  0
ARC
  5
B45
330
A02
100
AcDbEntity
  8
View046
100
AcDbCircle
 10
660.062
 20
811.026
 30
0
 40
27.6726
100
AcDbArc
 50
158.736
 51
-130.612
  0
ARC
  5
B46
330
A02
100
AcDbEntity
  8
View046
100
AcDbCircle
 10
644.002
 20
792.296
 30
0
 40
3
100
AcDbArc
 50
-130.612
 51
-21.6584
  0
ARC
  5
B47
330
A02
100
AcDbEntity
  8
View046
100
AcDbCircle
 10
672.509
 20
780.975
 30
0
 40
27.6726
100
AcDbArc
 50
115.25
 51
158.342
  0
ARC
  5
B48
330
A02
100
AcDbEntity
  8
View046
100
AcDbCircle
 10
627.845
 20
779.051
 30
0
 40
42.5
100
AcDbArc
 50
39.3606
 51
81.3003
  0
ARC
  5
B49
330
A02
100
AcDbEntity
  8
View046
100
AcDbCircle
 10
659.82
 20
746.834
 30
0
 40
27.6726
100
AcDbArc
 50
68.7361
 51
139.388
  0
ARC
  5
B4A
330
A02
100
AcDbEntity
  8
View046
100
AcDbCircle
 10
641.09
 20
762.894
 30
0
 40
3
100
AcDbArc
 50
139.388
 51
-111.658
  0
ARC
  5
B4B
330
A02
100
AcDbEntity
  8
View046
100
AcDbCircle
 10
629.77
 20
734.387
 30
0
 40
27.6726
100
AcDbArc
 50
25.2501
 51
68.3416
  0
ARC
  5
B4C
330
A02
100
AcDbEntity
  8
View046
100
AcDbCircle
 10
627.845
 20
779.051
 30
0
 40
42.5
100
AcDbArc
 50
-50.6394
 51
-8.69972
  0
ARC
  5
B4D
330
A02
100
AcDbEntity
  8
View046
100
AcDbCircle
 10
595.628
 20
747.075
 30
0
 40
27.6726
100
AcDbArc
 50
-21.2639
 51
49.3883
  0
ARC
  5
B4E
330
A02
100
AcDbEntity
  8
View046
100
AcDbCircle
 10
611.688
 20
765.805
 30
0
 40
3
100
AcDbArc
 50
49.3883
 51
158.342
  0
ARC
  5
B4F
330
A02
100
AcDbEntity
  8
View046
100
AcDbCircle
 10
583.181
 20
777.126
 30
0
 40
27.6726
100
AcDbArc
 50
-64.7499
 51
-21.6584
  0
ARC
  5
B50
330
A02
100
AcDbEntity
  8
View046
100
AcDbCircle
 10
627.845
 20
779.051
 30
0
 40
42.5
100
AcDbArc
 50
-140.639
 51
-98.6997
  0
ARC
  5
B51
330
A02
100
AcDbEntity
  8
View046
100
AcDbCircle
 10
627.674
 20
733.66
 30
0
 40
27.6726
100
AcDbArc
 50
23.7361
 51
94.3883
  0
ARC
  5
B52
330
A02
100
AcDbEntity
  8
View046
100
AcDbCircle
 10
625.786
 20
758.26
 30
0
 40
3
100
AcDbArc
 50
94.3883
 51
-156.658
  0
ARC
  5
B53
330
A02
100
AcDbEntity
  8
View046
100
AcDbCircle
 10
597.624
 20
746.107
 30
0
 40
27.6726
100
AcDbArc
 50
-19.7499
 51
23.3416
  0
ARC
  5
B54
330
A02
100
AcDbEntity
  8
View046
100
AcDbCircle
 10
627.845
 20
779.051
 30
0
 40
42.5
100
AcDbArc
 50
-95.6394
 51
-53.6997
  0
ARC
  5
B55
330
A02
100
AcDbEntity
  8
View046
100
AcDbCircle
 10
582.454
 20
779.222
 30
0
 40
27.6726
100
AcDbArc
 50
-66.2639
 51
4.38825
  0
ARC
  5
B56
330
A02
100
AcDbEntity
  8
View046
100
AcDbCircle
 10
607.055
 20
781.109
 30
0
 40
3
100
AcDbArc
 50
4.38825
 51
113.342
  0
ARC
  5
B57
330
A02
100
AcDbEntity
  8
View046
100
AcDbCircle
 10
594.902
 20
809.272
 30
0
 40
27.6726
100
AcDbArc
 50
-109.75
 51
-66.6584
  0
ARC
  5
B58
330
A02
100
AcDbEntity
  8
View046
100
AcDbCircle
 10
627.845
 20
779.051
 30
0
 40
42.5
100
AcDbArc
 50
174.361
 51
-143.7
  0
ARC
  5
B59
330
A02
100
AcDbEntity
  8
View046
100
AcDbCircle
 10
628.016
 20
824.441
 30
0
 40
27.6726
100
AcDbArc
 50
-156.264
 51
-85.6117
  0
ARC
  5
B5A
330
A02
100
AcDbEntity
  8
View046
100
AcDbCircle
 10
629.904
 20
799.841
 30
0
 40
3
100
AcDbArc
 50
-85.6117
 51
23.3416
  0
ARC
  5
B5B
330
A02
100
AcDbEntity
  8
View046
100
AcDbCircle
 10
658.066
 20
811.994
 30
0
 40
27.6726
100
AcDbArc
 50
160.25
 51
-156.658
  0
ARC
  5
B5C
330
A02
100
AcDbEntity
  8
View046
100
AcDbCircle
 10
627.845
 20
779.051
 30
0
 40
42.5
100
AcDbArc
 50
84.3606
 51
126.3
  0
ARC
  5
B5D
330
A02
100
AcDbEntity
  8
View046
100
AcDbCircle
 10
673.236
 20
778.88
 30
0
 40
27.6726
100
AcDbArc
 50
113.736
 51
-175.612
  0
ARC
  5
B5E
330
A02
100
AcDbEntity
  8
View046
100
AcDbCircle
 10
648.636
 20
776.992
 30
0
 40
3
100
AcDbArc
 50
-175.612
 51
-66.6584
  0
ARC
  5
B5F
330
A02
100
AcDbEntity
  8
View046
100
AcDbCircle
 10
660.788
 20
748.829
 30
0
 40
27.6726
100
AcDbArc
 50
70.2501
 51
113.342
  0
ARC
  5
B60
330
A02
100
AcDbEntity
  8
View046
100
AcDbCircle
 10
627.845
 20
779.051
 30
0
 40
42.5
100
AcDbArc
 50
-5.63935
 51
36.3003
  0
LINE
  5
B61
330
A02
100
AcDbEntity
  8
View046
100
AcDbLine
 10
663.844
 20
681.05
 30
0
 11
663.845
 21
702.05
 31
0
  0
ARC
  5
B62
330
A02
100
AcDbEntity
  8
View046
100
AcDbCircle
 10
664.845
 20
702.05
 30
0
 40
1
100
AcDbArc
 50
89.9996
 51
180
  0
LINE
  5
B63
330
A02
100
AcDbEntity
  8
View046
100
AcDbLine
 10
664.845
 20
703.05
 30
0
 11
692.845
 21
703.05
 31
0
  0
ARC
  5
B64
330
A02
100
AcDbEntity
  8
View046
100
AcDbCircle
 10
692.845
 20
702.05
 30
0
 40
1
100
AcDbArc
 50
-0.000402778
 51
89.9996
  0
LINE
  5
B65
330
A02
100
AcDbEntity
  8
View046
100
AcDbLine
 10
693.845
 20
702.05
 30
0
 11
693.844
 21
681.05
 31
0
  0
ARC
  5
B66
330
A02
100
AcDbEntity
  8
View046
100
AcDbCircle
 10
692.844
 20
681.05
 30
0
 40
1
100
AcDbArc
 50
-90.0004
 51
-0.000402778
  0
LINE
  5
B67
330
A02
100
AcDbEntity
  8
View046
100
AcDbLine
 10
692.844
 20
680.05
 30
0
 11
664.844
 21
680.05
 31
0
  0
ARC
  5
B68
330
A02
100
AcDbEntity
  8
View046
100
AcDbCircle
 10
664.844
 20
681.05
 30
0
 40
1
100
AcDbArc
 50
180
 51
-90.0004
  0
SPLINE
  5
B69
330
A02
100
AcDbEntity
  8
View046
100
AcDbSpline
210
0
220
0
230
1
 70
8
 71
3
 72
14
 73
10
 74
0
 40
0
 40
0
 40
0
 40
0
 40
0.392991
 40
0.392991
 40
0.392991
 40
0.674998
 40
0.674998
 40
0.674998
 40
1
 40
1
 40
1
 40
1
 10
659.645
 20
699.65
 30
0
 10
659.646
 20
700.268
 30
0
 10
659.449
 20
700.884
 30
0
 10
659.091
 20
701.387
 30
0
 10
658.835
 20
701.748
 30
0
 10
658.497
 20
702.052
 30
0
 10
658.11
 20
702.268
 30
0
 10
657.665
 20
702.518
 30
0
 10
657.155
 20
702.651
 30
0
 10
656.645
 20
702.65
 30
0
  0
LINE
  5
B6A
330
A02
100
AcDbEntity
  8
View046
100
AcDbLine
 10
656.645
 20
702.65
 30
0
 11
634.645
 21
702.651
 31
0
  0
SPLINE
  5
B6B
330
A02
100
AcDbEntity
  8
View046
100
AcDbSpline
210
0
220
0
230
1
 70
8
 71
3
 72
14
 73
10
 74
0
 40
0
 40
0
 40
0
 40
0
 40
0.323009
 40
0.323009
 40
0.323009
 40
0.662004
 40
0.662004
 40
0.662004
 40
1
 40
1
 40
1
 40
1
 10
634.645
 20
702.651
 30
0
 10
634.137
 20
702.651
 30
0
 10
633.63
 20
702.52
 30
0
 10
633.187
 20
702.273
 30
0
 10
632.721
 20
702.014
 30
0
 10
632.327
 20
701.629
 30
0
 10
632.058
 20
701.17
 30
0
 10
631.788
 20
700.712
 30
0
 10
631.644
 20
700.182
 30
0
 10
631.645
 20
699.651
 30
0
  0
LINE
  5
B6C
330
A02
100
AcDbEntity
  8
View046
100
AcDbLine
 10
631.645
 20
699.651
 30
0
 11
631.644
 21
684.651
 31
0
  0
SPLINE
  5
B6D
330
A02
100
AcDbEntity
  8
View046
100
AcDbSpline
210
0
220
0
230
1
 70
8
 71
3
 72
11
 73
7
 74
0
 40
0
 40
0
 40
0
 40
0
 40
0.527995
 40
0.527995
 40
0.527995
 40
1
 40
1
 40
1
 40
1
 10
631.644
 20
684.651
 30
0
 10
631.64
 20
683.82
 30
0
 10
632.003
 20
682.996
 30
0
 10
632.618
 20
682.438
 30
0
 10
633.164
 20
681.935
 30
0
 10
633.902
 20
681.648
 30
0
 10
634.644
 20
681.651
 30
0
  0
LINE
  5
B6E
330
A02
100
AcDbEntity
  8
View046
100
AcDbLine
 10
634.644
 20
681.651
 30
0
 11
656.644
 21
681.65
 31
0
  0
SPLINE
  5
B6F
330
A02
100
AcDbEntity
  8
View046
100
AcDbSpline
210
0
220
0
230
1
 70
8
 71
3
 72
11
 73
7
 74
0
 40
0
 40
0
 40
0
 40
0
 40
0.506027
 40
0.506027
 40
0.506027
 40
1
 40
1
 40
1
 40
1
 10
656.644
 20
681.65
 30
0
 10
657.44
 20
681.647
 30
0
 10
658.23
 20
681.979
 30
0
 10
658.786
 20
682.549
 30
0
 10
659.332
 20
683.102
 30
0
 10
659.647
 20
683.873
 30
0
 10
659.644
 20
684.65
 30
0
  0
LINE
  5
B70
330
A02
100
AcDbEntity
  8
View046
100
AcDbLine
 10
659.644
 20
684.65
 30
0
 11
659.645
 21
699.65
 31
0
  0
SPLINE
  5
B71
330
A02
100
AcDbEntity
  8
View046
100
AcDbSpline
210
0
220
0
230
1
 70
9
 71
3
 72
53
 73
49
 74
0
 40
0
 40
0
 40
0
 40
0
 40
0.0580006
 40
0.0580006
 40
0.0580006
 40
0.116001
 40
0.116001
 40
0.116001
 40
0.174002
 40
0.174002
 40
0.174002
 40
0.230002
 40
0.230002
 40
0.230002
 40
0.288003
 40
0.288003
 40
0.288003
 40
0.373004
 40
0.373004
 40
0.373004
 40
0.431004
 40
0.431004
 40
0.431004
 40
0.489005
 40
0.489005
 40
0.489005
 40
0.547005
 40
0.547005
 40
0.547005
 40
0.604006
 40
0.604006
 40
0.604006
 40
0.662006
 40
0.662006
 40
0.662006
 40
0.744007
 40
0.744007
 40
0.744007
 40
0.802008
 40
0.802008
 40
0.802008
 40
0.882009
 40
0.882009
 40
0.882009
 40
0.901009
 40
0.901009
 40
0.901009
 40
1
 40
1
 40
1
 40
1
 10
621.095
 20
700.144
 30
0
 10
619.99
 20
700.782
 30
0
 10
618.768
 20
701.216
 30
0
 10
617.509
 20
701.418
 30
0
 10
616.249
 20
701.621
 30
0
 10
614.953
 20
701.591
 30
0
 10
613.704
 20
701.33
 30
0
 10
612.456
 20
701.071
 30
0
 10
611.255
 20
700.581
 30
0
 10
610.181
 20
699.892
 30
0
 10
609.144
 20
699.229
 30
0
 10
608.225
 20
698.38
 30
0
 10
607.481
 20
697.399
 30
0
 10
606.709
 20
696.383
 30
0
 10
606.125
 20
695.226
 30
0
 10
605.768
 20
694.001
 30
0
 10
605.24
 20
692.207
 30
0
 10
605.205
 20
690.272
 30
0
 10
605.669
 20
688.461
 30
0
 10
605.983
 20
687.224
 30
0
 10
606.525
 20
686.047
 30
0
 10
607.26
 20
685.004
 30
0
 10
607.994
 20
683.961
 30
0
 10
608.921
 20
683.054
 30
0
 10
609.979
 20
682.342
 30
0
 10
611.037
 20
681.629
 30
0
 10
612.226
 20
681.111
 30
0
 10
613.468
 20
680.823
 30
0
 10
614.689
 20
680.539
 30
0
 10
615.961
 20
680.476
 30
0
 10
617.204
 20
680.639
 30
0
 10
618.469
 20
680.804
 30
0
 10
619.703
 20
681.202
 30
0
 10
620.826
 20
681.807
 30
0
 10
622.414
 20
682.661
 30
0
 10
623.775
 20
683.933
 30
0
 10
624.733
 20
685.462
 30
0
 10
625.413
 20
686.541
 30
0
 10
625.893
 20
687.746
 30
0
 10
626.142
 20
688.997
 30
0
 10
626.488
 20
690.722
 30
0
 10
626.389
 20
692.534
 30
0
 10
625.857
 20
694.211
 30
0
 10
625.731
 20
694.61
 30
0
 10
625.582
 20
695
 30
0
 10
625.41
 20
695.382
 30
0
 10
624.515
 20
697.368
 30
0
 10
622.983
 20
699.059
 30
0
 10
621.095
 20
700.144
 30
0
  0
SPLINE
  5
B72
330
A02
100
AcDbEntity
  8
View046
100
AcDbSpline
210
0
220
0
230
1
 70
9
 71
3
 72
53
 73
49
 74
0
 40
0
 40
0
 40
0
 40
0
 40
0.0580006
 40
0.0580006
 40
0.0580006
 40
0.116001
 40
0.116001
 40
0.116001
 40
0.173002
 40
0.173002
 40
0.173002
 40
0.231002
 40
0.231002
 40
0.231002
 40
0.289003
 40
0.289003
 40
0.289003
 40
0.345004
 40
0.345004
 40
0.345004
 40
0.403004
 40
0.403004
 40
0.403004
 40
0.487005
 40
0.487005
 40
0.487005
 40
0.543006
 40
0.543006
 40
0.543006
 40
0.601006
 40
0.601006
 40
0.601006
 40
0.659007
 40
0.659007
 40
0.659007
 40
0.743008
 40
0.743008
 40
0.743008
 40
0.824009
 40
0.824009
 40
0.824009
 40
0.882009
 40
0.882009
 40
0.882009
 40
0.89901
 40
0.89901
 40
0.89901
 40
1
 40
1
 40
1
 40
1
 10
562.344
 20
691.051
 30
0
 10
562.344
 20
690.018
 30
0
 10
562.534
 20
688.986
 30
0
 10
562.903
 20
688.022
 30
0
 10
563.27
 20
687.057
 30
0
 10
563.816
 20
686.16
 30
0
 10
564.504
 20
685.39
 30
0
 10
565.179
 20
684.633
 30
0
 10
565.992
 20
683.998
 30
0
 10
566.891
 20
683.527
 30
0
 10
567.804
 20
683.046
 30
0
 10
568.807
 20
682.734
 30
0
 10
569.832
 20
682.611
 30
0
 10
570.857
 20
682.488
 30
0
 10
571.905
 20
682.554
 30
0
 10
572.906
 20
682.805
 30
0
 10
573.874
 20
683.046
 30
0
 10
574.798
 20
683.46
 30
0
 10
575.622
 20
684.021
 30
0
 10
576.476
 20
684.601
 30
0
 10
577.223
 20
685.338
 30
0
 10
577.814
 20
686.185
 30
0
 10
578.672
 20
687.411
 30
0
 10
579.196
 20
688.866
 30
0
 10
579.316
 20
690.357
 30
0
 10
579.398
 20
691.351
 30
0
 10
579.303
 20
692.359
 30
0
 10
579.036
 20
693.32
 30
0
 10
578.761
 20
694.315
 30
0
 10
578.302
 20
695.259
 30
0
 10
577.69
 20
696.09
 30
0
 10
577.078
 20
696.922
 30
0
 10
576.313
 20
697.641
 30
0
 10
575.444
 20
698.199
 30
0
 10
574.187
 20
699.01
 30
0
 10
572.713
 20
699.479
 30
0
 10
571.218
 20
699.543
 30
0
 10
569.777
 20
699.608
 30
0
 10
568.322
 20
699.297
 30
0
 10
567.033
 20
698.649
 30
0
 10
566.11
 20
698.186
 30
0
 10
565.273
 20
697.553
 30
0
 10
564.576
 20
696.791
 30
0
 10
564.371
 20
696.568
 30
0
 10
564.179
 20
696.334
 30
0
 10
563.999
 20
696.09
 30
0
 10
562.93
 20
694.644
 30
0
 10
562.341
 20
692.85
 30
0
 10
562.344
 20
691.051
 30
0
  0
SPLINE
  5
B73
330
A02
100
AcDbEntity
  8
View046
100
AcDbSpline
210
0
220
0
230
1
 70
9
 71
3
 72
53
 73
49
 74
0
 40
0
 40
0
 40
0
 40
0
 40
0.0580006
 40
0.0580006
 40
0.0580006
 40
0.116001
 40
0.116001
 40
0.116001
 40
0.174002
 40
0.174002
 40
0.174002
 40
0.232002
 40
0.232002
 40
0.232002
 40
0.290003
 40
0.290003
 40
0.290003
 40
0.348004
 40
0.348004
 40
0.348004
 40
0.406004
 40
0.406004
 40
0.406004
 40
0.493005
 40
0.493005
 40
0.493005
 40
0.551006
 40
0.551006
 40
0.551006
 40
0.609007
 40
0.609007
 40
0.609007
 40
0.667007
 40
0.667007
 40
0.667007
 40
0.754008
 40
0.754008
 40
0.754008
 40
0.812009
 40
0.812009
 40
0.812009
 40
0.870009
 40
0.870009
 40
0.870009
 40
0.89901
 40
0.89901
 40
0.89901
 40
1
 40
1
 40
1
 40
1
 10
583.344
 20
691.051
 30
0
 10
583.344
 20
690.018
 30
0
 10
583.534
 20
688.986
 30
0
 10
583.903
 20
688.021
 30
0
 10
584.27
 20
687.056
 30
0
 10
584.816
 20
686.16
 30
0
 10
585.504
 20
685.39
 30
0
 10
586.191
 20
684.619
 30
0
 10
587.021
 20
683.976
 30
0
 10
587.938
 20
683.502
 30
0
 10
588.855
 20
683.027
 30
0
 10
589.859
 20
682.721
 30
0
 10
590.885
 20
682.605
 30
0
 10
591.911
 20
682.488
 30
0
 10
592.958
 20
682.561
 30
0
 10
593.958
 20
682.818
 30
0
 10
594.959
 20
683.074
 30
0
 10
595.911
 20
683.515
 30
0
 10
596.754
 20
684.112
 30
0
 10
597.597
 20
684.708
 30
0
 10
598.33
 20
685.459
 30
0
 10
598.904
 20
686.317
 30
0
 10
599.769
 20
687.603
 30
0
 10
600.27
 20
689.129
 30
0
 10
600.336
 20
690.677
 30
0
 10
600.382
 20
691.709
 30
0
 10
600.237
 20
692.748
 30
0
 10
599.912
 20
693.728
 30
0
 10
599.587
 20
694.708
 30
0
 10
599.081
 20
695.628
 30
0
 10
598.428
 20
696.428
 30
0
 10
597.775
 20
697.228
 30
0
 10
596.975
 20
697.907
 30
0
 10
596.079
 20
698.421
 30
0
 10
594.737
 20
699.195
 30
0
 10
593.18
 20
699.589
 30
0
 10
591.631
 20
699.548
 30
0
 10
590.599
 20
699.523
 30
0
 10
589.571
 20
699.307
 30
0
 10
588.616
 20
698.914
 30
0
 10
587.661
 20
698.522
 30
0
 10
586.778
 20
697.954
 30
0
 10
586.026
 20
697.247
 30
0
 10
585.649
 20
696.893
 30
0
 10
585.306
 20
696.507
 30
0
 10
584.999
 20
696.09
 30
0
 10
583.93
 20
694.644
 30
0
 10
583.341
 20
692.85
 30
0
 10
583.344
 20
691.051
 30
0
  0
CIRCLE
  5
B74
330
A02
100
AcDbEntity
  8
View046
100
AcDbCircle
 10
575.345
 20
726.551
 40
2.5
  0
CIRCLE
  5
B75
330
A02
100
AcDbEntity
  8
View046
100
AcDbCircle
 10
575.345
 20
831.551
 40
2.5
  0
CIRCLE
  5
B76
330
A02
100
AcDbEntity
  8
View046
100
AcDbCircle
 10
680.345
 20
726.55
 40
2.5
  0
CIRCLE
  5
B77
330
A02
100
AcDbEntity
  8
View046
100
AcDbCircle
 10
680.345
 20
831.55
 40
2.5
  0
CIRCLE
  5
B78
330
A02
100
AcDbEntity
  8
View046
100
AcDbCircle
 10
592.696
 20
847.801
 40
2.1
  0
CIRCLE
  5
B79
330
A02
100
AcDbEntity
  8
View046
100
AcDbCircle
 10
662.995
 20
710.3
 40
2.1
  0
CIRCLE
  5
B7A
330
A02
100
AcDbEntity
  8
View046
100
AcDbCircle
 10
592.695
 20
710.301
 40
2.1
  0
CIRCLE
  5
B7B
330
A02
100
AcDbEntity
  8
View046
100
AcDbCircle
 10
662.996
 20
847.8
 40
2.1
  0
CIRCLE
  5
B7C
330
A02
100
AcDbEntity
  8
View046
100
AcDbCircle
 10
627.846
 20
848.151
 40
1.6
  0
CIRCLE
  5
B7D
330
A02
100
AcDbEntity
  8
View046
100
AcDbCircle
 10
627.844
 20
675.551
 40
1.6
  0
ELLIPSE
  5
B7E
330
A02
100
AcDbEntity
  8
View046
100
AcDbEllipse
 10
543.458
 20
844.351
 30
0
 11
-1.2
 21
8.23172e-06
 31
0
 40
1
 41
0
 42
6.28318
  0
ELLIPSE
  5
B7F
330
A02
100
AcDbEntity
  8
View046
100
AcDbEllipse
 10
543.457
 20
761.851
 30
0
 11
-1.2
 21
8.31586e-06
 31
0
 40
1
 41
0
 42
6.28318
  0
ELLIPSE
  5
B80
330
A02
100
AcDbEntity
  8
View046
100
AcDbEllipse
 10
543.457
 20
679.351
 30
0
 11
-1.2
 21
8.29483e-06
 31
0
 40
1
 41
0
 42
6.28318
  0
CIRCLE
  5
B81
330
A02
100
AcDbEntity
  8
View046
100
AcDbCircle
 10
712.233
 20
844.35
 40
1.2
  0
CIRCLE
  5
B82
330
A02
100
AcDbEntity
  8
View046
100
AcDbCircle
 10
712.233
 20
761.85
 40
1.2
  0
CIRCLE
  5
B83
330
A02
100
AcDbEntity
  8
View046
100
AcDbCircle
 10
712.232
 20
679.35
 40
1.2
  0
ARC
  5
B84
330
A02
100
AcDbEntity
  8
View046
100
AcDbCircle
 10
726.046
 20
851.95
 30
0
 40
5
100
AcDbArc
 50
89.9996
 51
180
  0
LINE
  5
B85
330
A02
100
AcDbEntity
  8
View046
100
AcDbLine
 10
726.046
 20
856.95
 30
0
 11
736.046
 21
856.95
 31
0
  0
ARC
  5
B86
330
A02
100
AcDbEntity
  8
View046
100
AcDbCircle
 10
736.046
 20
851.95
 30
0
 40
5
100
AcDbArc
 50
-0.00040107
 51
89.9996
  0
LINE
  5
B87
330
A02
100
AcDbEntity
  8
View046
100
AcDbLine
 10
741.046
 20
851.95
 30
0
 11
741.045
 21
827.55
 31
0
  0
LINE
  5
B88
330
A02
100
AcDbEntity
  8
View046
100
AcDbLine
 10
741.045
 20
827.55
 30
0
 11
739.045
 21
827.55
 31
0
  0
LINE
  5
B89
330
A02
100
AcDbEntity
  8
View046
100
AcDbLine
 10
739.045
 20
827.55
 30
0
 11
739.045
 21
819.55
 31
0
  0
LINE
  5
B8A
330
A02
100
AcDbEntity
  8
View046
100
AcDbLine
 10
739.045
 20
819.55
 30
0
 11
873.045
 21
819.549
 31
0
  0
LINE
  5
B8B
330
A02
100
AcDbEntity
  8
View046
100
AcDbLine
 10
873.045
 20
827.549
 30
0
 11
873.045
 21
819.549
 31
0
  0
LINE
  5
B8C
330
A02
100
AcDbEntity
  8
View046
100
AcDbLine
 10
871.045
 20
827.549
 30
0
 11
873.045
 21
827.549
 31
0
  0
LINE
  5
B8D
330
A02
100
AcDbEntity
  8
View046
100
AcDbLine
 10
871.046
 20
851.949
 30
0
 11
871.045
 21
827.549
 31
0
  0
ARC
  5
B8E
330
A02
100
AcDbEntity
  8
View046
100
AcDbCircle
 10
876.046
 20
851.949
 30
0
 40
5
100
AcDbArc
 50
89.9996
 51
180
  0
LINE
  5
B8F
330
A02
100
AcDbEntity
  8
View046
100
AcDbLine
 10
886.046
 20
856.949
 30
0
 11
876.046
 21
856.949
 31
0
  0
ARC
  5
B90
330
A02
100
AcDbEntity
  8
View046
100
AcDbCircle
 10
886.046
 20
851.949
 30
0
 40
5
100
AcDbArc
 50
-0.00040107
 51
89.9996
  0
LINE
  5
B91
330
A02
100
AcDbEntity
  8
View046
100
AcDbLine
 10
891.046
 20
851.949
 30
0
 11
891.045
 21
827.549
 31
0
  0
LINE
  5
B92
330
A02
100
AcDbEntity
  8
View046
100
AcDbLine
 10
891.045
 20
827.549
 30
0
 11
889.045
 21
827.549
 31
0
  0
LINE
  5
B93
330
A02
100
AcDbEntity
  8
View046
100
AcDbLine
 10
889.045
 20
827.549
 30
0
 11
889.045
 21
819.549
 31
0
  0
LINE
  5
B94
330
A02
100
AcDbEntity
  8
View046
100
AcDbLine
 10
889.045
 20
819.549
 30
0
 11
891.045
 21
819.549
 31
0
  0
LINE
  5
B95
330
A02
100
AcDbEntity
  8
View046
100
AcDbLine
 10
891.045
 20
712.549
 30
0
 11
891.045
 21
819.549
 31
0
  0
LINE
  5
B96
330
A02
100
AcDbEntity
  8
View046
100
AcDbLine
 10
889.045
 20
712.549
 30
0
 11
891.045
 21
712.549
 31
0
  0
LINE
  5
B97
330
A02
100
AcDbEntity
  8
View046
100
AcDbLine
 10
889.045
 20
704.549
 30
0
 11
889.045
 21
712.549
 31
0
  0
LINE
  5
B98
330
A02
100
AcDbEntity
  8
View046
100
AcDbLine
 10
891.045
 20
704.549
 30
0
 11
889.045
 21
704.549
 31
0
  0
LINE
  5
B99
330
A02
100
AcDbEntity
  8
View046
100
AcDbLine
 10
891.044
 20
680.149
 30
0
 11
891.045
 21
704.549
 31
0
  0
ARC
  5
B9A
330
A02
100
AcDbEntity
  8
View046
100
AcDbCircle
 10
886.044
 20
680.149
 30
0
 40
5
100
AcDbArc
 50
-90.0004
 51
-0.00040107
  0
LINE
  5
B9B
330
A02
100
AcDbEntity
  8
View046
100
AcDbLine
 10
886.044
 20
675.149
 30
0
 11
876.044
 21
675.149
 31
0
  0
ARC
  5
B9C
330
A02
100
AcDbEntity
  8
View046
100
AcDbCircle
 10
876.044
 20
680.149
 30
0
 40
5
100
AcDbArc
 50
180
 51
-90.0004
  0
LINE
  5
B9D
330
A02
100
AcDbEntity
  8
View046
100
AcDbLine
 10
871.044
 20
680.149
 30
0
 11
871.045
 21
704.549
 31
0
  0
LINE
  5
B9E
330
A02
100
AcDbEntity
  8
View046
100
AcDbLine
 10
871.045
 20
704.549
 30
0
 11
873.045
 21
704.549
 31
0
  0
LINE
  5
B9F
330
A02
100
AcDbEntity
  8
View046
100
AcDbLine
 10
873.045
 20
704.549
 30
0
 11
873.045
 21
714.549
 31
0
  0
LINE
  5
BA0
330
A02
100
AcDbEntity
  8
View046
100
AcDbLine
 10
739.045
 20
714.55
 30
0
 11
873.045
 21
714.549
 31
0
  0
LINE
  5
BA1
330
A02
100
AcDbEntity
  8
View046
100
AcDbLine
 10
739.045
 20
704.55
 30
0
 11
739.045
 21
714.55
 31
0
  0
LINE
  5
BA2
330
A02
100
AcDbEntity
  8
View046
100
AcDbLine
 10
741.045
 20
704.55
 30
0
 11
739.045
 21
704.55
 31
0
  0
LINE
  5
BA3
330
A02
100
AcDbEntity
  8
View046
100
AcDbLine
 10
741.044
 20
680.15
 30
0
 11
741.045
 21
704.55
 31
0
  0
ARC
  5
BA4
330
A02
100
AcDbEntity
  8
View046
100
AcDbCircle
 10
736.044
 20
680.15
 30
0
 40
5
100
AcDbArc
 50
-90.0004
 51
-0.00040107
  0
LINE
  5
BA5
330
A02
100
AcDbEntity
  8
View046
100
AcDbLine
 10
726.044
 20
675.15
 30
0
 11
736.044
 21
675.15
 31
0
  0
ARC
  5
BA6
330
A02
100
AcDbEntity
  8
View046
100
AcDbCircle
 10
726.044
 20
680.15
 30
0
 40
5
100
AcDbArc
 50
180
 51
-90.0004
  0
LINE
  5
BA7
330
A02
100
AcDbEntity
  8
View046
100
AcDbLine
 10
721.044
 20
680.15
 30
0
 11
721.045
 21
704.55
 31
0
  0
LINE
  5
BA8
330
A02
100
AcDbEntity
  8
View046
100
AcDbLine
 10
721.045
 20
704.55
 30
0
 11
723.045
 21
704.55
 31
0
  0
LINE
  5
BA9
330
A02
100
AcDbEntity
  8
View046
100
AcDbLine
 10
723.045
 20
704.55
 30
0
 11
723.045
 21
712.55
 31
0
  0
LINE
  5
BAA
330
A02
100
AcDbEntity
  8
View046
100
AcDbLine
 10
723.045
 20
712.55
 30
0
 11
721.045
 21
712.55
 31
0
  0
LINE
  5
BAB
330
A02
100
AcDbEntity
  8
View046
100
AcDbLine
 10
721.045
 20
712.55
 30
0
 11
721.045
 21
819.55
 31
0
  0
LINE
  5
BAC
330
A02
100
AcDbEntity
  8
View046
100
AcDbLine
 10
723.045
 20
819.55
 30
0
 11
721.045
 21
819.55
 31
0
  0
LINE
  5
BAD
330
A02
100
AcDbEntity
  8
View046
100
AcDbLine
 10
723.045
 20
827.55
 30
0
 11
723.045
 21
819.55
 31
0
  0
LINE
  5
BAE
330
A02
100
AcDbEntity
  8
View046
100
AcDbLine
 10
721.045
 20
827.55
 30
0
 11
723.045
 21
827.55
 31
0
  0
LINE
  5
BAF
330
A02
100
AcDbEntity
  8
View046
100
AcDbLine
 10
721.046
 20
851.95
 30
0
 11
721.045
 21
827.55
 31
0
  0
CIRCLE
  5
BB0
330
A02
100
AcDbEntity
  8
View046
100
AcDbCircle
 10
881.046
 20
851.949
 40
2.1
  0
ARC
  5
BB1
330
A02
100
AcDbEntity
  8
View046
100
AcDbCircle
 10
744.045
 20
794.05
 30
0
 40
5
100
AcDbArc
 50
89.9996
 51
180
  0
LINE
  5
BB2
330
A02
100
AcDbEntity
  8
View046
100
AcDbLine
 10
744.045
 20
799.05
 30
0
 11
868.045
 21
799.049
 31
0
  0
ARC
  5
BB3
330
A02
100
AcDbEntity
  8
View046
100
AcDbCircle
 10
868.045
 20
794.049
 30
0
 40
5
100
AcDbArc
 50
-0.00040107
 51
89.9996
  0
LINE
  5
BB4
330
A02
100
AcDbEntity
  8
View046
100
AcDbLine
 10
873.045
 20
794.049
 30
0
 11
873.045
 21
740.049
 31
0
  0
ARC
  5
BB5
330
A02
100
AcDbEntity
  8
View046
100
AcDbCircle
 10
868.045
 20
740.049
 30
0
 40
5
100
AcDbArc
 50
-90.0004
 51
-0.00040107
  0
LINE
  5
BB6
330
A02
100
AcDbEntity
  8
View046
100
AcDbLine
 10
744.045
 20
735.05
 30
0
 11
868.045
 21
735.049
 31
0
  0
ARC
  5
BB7
330
A02
100
AcDbEntity
  8
View046
100
AcDbCircle
 10
744.045
 20
740.05
 30
0
 40
5
100
AcDbArc
 50
180
 51
-90.0004
  0
LINE
  5
BB8
330
A02
100
AcDbEntity
  8
View046
100
AcDbLine
 10
739.045
 20
794.05
 30
0
 11
739.045
 21
740.05
 31
0
  0
CIRCLE
  5
BB9
330
A02
100
AcDbEntity
  8
View046
100
AcDbCircle
 10
803.345
 20
726.049
 40
2.6
  0
CIRCLE
  5
BBA
330
A02
100
AcDbEntity
  8
View046
100
AcDbCircle
 10
867.345
 20
726.049
 40
2.6
  0
CIRCLE
  5
BBB
330
A02
100
AcDbEntity
  8
View046
100
AcDbCircle
 10
803.345
 20
806.049
 40
2.6
  0
CIRCLE
  5
BBC
330
A02
100
AcDbEntity
  8
View046
100
AcDbCircle
 10
867.345
 20
806.049
 40
2.6
  0
CIRCLE
  5
BBD
330
A02
100
AcDbEntity
  8
View046
100
AcDbCircle
 10
881.044
 20
680.149
 40
2.1
  0
CIRCLE
  5
BBE
330
A02
100
AcDbEntity
  8
View046
100
AcDbCircle
 10
731.046
 20
851.95
 40
2.1
  0
CIRCLE
  5
BBF
330
A02
100
AcDbEntity
  8
View046
100
AcDbCircle
 10
731.044
 20
680.15
 40
2.1
  0
LINE
  5
BC0
330
A02
100
AcDbEntity
  8
View046
100
AcDbLine
 10
915.846
 20
847.878
 30
0
 11
897.458
 21
847.879
 31
0
  0
ARC
  5
BC1
330
A02
100
AcDbEntity
  8
View046
100
AcDbCircle
 10
897.458
 20
843.879
 30
0
 40
4
100
AcDbArc
 50
89.9996
 51
180
  0
LINE
  5
BC2
330
A02
100
AcDbEntity
  8
View046
100
AcDbLine
 10
893.458
 20
843.879
 30
0
 11
893.456
 21
557.913
 31
0
  0
LINE
  5
BC3
330
A02
100
AcDbEntity
  8
View046
100
AcDbLine
 10
893.456
 20
557.913
 30
0
 11
911.456
 21
547.521
 31
0
  0
LINE
  5
BC4
330
A02
100
AcDbEntity
  8
View046
100
AcDbLine
 10
911.456
 20
547.521
 30
0
 11
913.843
 21
547.521
 31
0
  0
LINE
  5
BC5
330
A02
100
AcDbEntity
  8
View046
100
AcDbLine
 10
913.843
 20
547.521
 30
0
 11
913.843
 21
545.529
 31
0
  0
LINE
  5
BC6
330
A02
100
AcDbEntity
  8
View046
100
AcDbLine
 10
913.843
 20
545.529
 30
0
 11
911.456
 21
545.529
 31
0
  0
LINE
  5
BC7
330
A02
100
AcDbEntity
  8
View046
100
AcDbLine
 10
911.456
 20
545.529
 30
0
 11
893.456
 21
535.137
 31
0
  0
LINE
  5
BC8
330
A02
100
AcDbEntity
  8
View046
100
AcDbLine
 10
893.456
 20
535.137
 30
0
 11
893.455
 21
436.668
 31
0
  0
LINE
  5
BC9
330
A02
100
AcDbEntity
  8
View046
100
AcDbLine
 10
893.455
 20
436.668
 30
0
 11
911.455
 21
431.844
 31
0
  0
LINE
  5
BCA
330
A02
100
AcDbEntity
  8
View046
100
AcDbLine
 10
911.455
 20
431.844
 30
0
 11
913.843
 21
431.844
 31
0
  0
LINE
  5
BCB
330
A02
100
AcDbEntity
  8
View046
100
AcDbLine
 10
913.843
 20
431.844
 30
0
 11
913.843
 21
430.649
 31
0
  0
LINE
  5
BCC
330
A02
100
AcDbEntity
  8
View046
100
AcDbLine
 10
913.843
 20
430.649
 30
0
 11
911.455
 21
430.649
 31
0
  0
LINE
  5
BCD
330
A02
100
AcDbEntity
  8
View046
100
AcDbLine
 10
911.455
 20
430.649
 30
0
 11
893.455
 21
425.826
 31
0
  0
LINE
  5
BCE
330
A02
100
AcDbEntity
  8
View046
100
AcDbLine
 10
893.455
 20
425.826
 30
0
 11
893.455
 21
370.249
 31
0
  0
LINE
  5
BCF
330
A02
100
AcDbEntity
  8
View046
100
AcDbLine
 10
893.455
 20
370.249
 30
0
 11
911.454
 21
352.249
 31
0
  0
LINE
  5
BD0
330
A02
100
AcDbEntity
  8
View046
100
AcDbLine
 10
911.454
 20
352.249
 30
0
 11
913.842
 21
352.249
 31
0
  0
LINE
  5
BD1
330
A02
100
AcDbEntity
  8
View046
100
AcDbLine
 10
913.842
 20
352.249
 30
0
 11
913.842
 21
349.461
 31
0
  0
LINE
  5
BD2
330
A02
100
AcDbEntity
  8
View046
100
AcDbLine
 10
913.842
 20
349.461
 30
0
 11
911.454
 21
349.461
 31
0
  0
LINE
  5
BD3
330
A02
100
AcDbEntity
  8
View046
100
AcDbLine
 10
911.454
 20
349.461
 30
0
 11
893.454
 21
331.461
 31
0
  0
LINE
  5
BD4
330
A02
100
AcDbEntity
  8
View046
100
AcDbLine
 10
893.454
 20
331.461
 30
0
 11
893.452
 21
-3.9389
 31
0
  0
ARC
  5
BD5
330
A02
100
AcDbEntity
  8
View046
100
AcDbCircle
 10
897.452
 20
-3.93892
 30
0
 40
4
100
AcDbArc
 50
180
 51
-90.0004
  0
LINE
  5
BD6
330
A02
100
AcDbEntity
  8
View046
100
AcDbLine
 10
897.452
 20
-7.93892
 30
0
 11
915.84
 21
-7.93905
 31
0
  0
LINE
  5
BD7
330
A02
100
AcDbEntity
  8
View046
100
AcDbLine
 10
915.84
 20
-6.93905
 30
0
 11
915.84
 21
-7.93905
 31
0
  0
LINE
  5
BD8
330
A02
100
AcDbEntity
  8
View046
100
AcDbLine
 10
916.64
 20
-6.93906
 30
0
 11
915.84
 21
-6.93905
 31
0
  0
LINE
  5
BD9
330
A02
100
AcDbEntity
  8
View046
100
AcDbLine
 10
916.64
 20
-13.3267
 30
0
 11
916.64
 21
-6.93906
 31
0
  0
ARC
  5
BDA
330
A02
100
AcDbEntity
  8
View046
100
AcDbCircle
 10
920.64
 20
-13.3267
 30
0
 40
4
100
AcDbArc
 50
180
 51
-90.0004
  0
LINE
  5
BDB
330
A02
100
AcDbEntity
  8
View046
100
AcDbLine
 10
920.639
 20
-17.3267
 30
0
 11
923.485
 21
-17.3267
 31
0
  0
SPLINE
  5
BDC
330
A02
100
AcDbEntity
  8
View046
100
AcDbSpline
210
0
220
0
230
1
 70
8
 71
3
 72
8
 73
4
 74
0
 40
0
 40
0
 40
0
 40
0
 40
1
 40
1
 40
1
 40
1
 10
923.485
 20
-17.3267
 30
0
 10
925.656
 20
-16.6608
 30
0
 10
928.023
 20
-16.6608
 30
0
 10
930.194
 20
-17.3268
 30
0
  0
LINE
  5
BDD
330
A02
100
AcDbEntity
  8
View046
100
AcDbLine
 10
930.194
 20
-17.3268
 30
0
 11
944.485
 21
-17.3269
 31
0
  0
SPLINE
  5
BDE
330
A02
100
AcDbEntity
  8
View046
100
AcDbSpline
210
0
220
0
230
1
 70
8
 71
3
 72
8
 73
4
 74
0
 40
0
 40
0
 40
0
 40
0
 40
1
 40
1
 40
1
 40
1
 10
944.485
 20
-17.3269
 30
0
 10
946.656
 20
-16.6609
 30
0
 10
949.023
 20
-16.6609
 30
0
 10
951.194
 20
-17.3269
 30
0
  0
LINE
  5
BDF
330
A02
100
AcDbEntity
  8
View046
100
AcDbLine
 10
951.194
 20
-17.3269
 30
0
 11
962.392
 21
-17.327
 31
0
  0
SPLINE
  5
BE0
330
A02
100
AcDbEntity
  8
View046
100
AcDbSpline
210
0
220
0
230
1
 70
8
 71
3
 72
17
 73
13
 74
0
 40
0
 40
0
 40
0
 40
0
 40
0.249263
 40
0.249263
 40
0.249263
 40
0.498525
 40
0.498525
 40
0.498525
 40
0.749263
 40
0.749263
 40
0.749263
 40
1
 40
1
 40
1
 40
1
 10
962.392
 20
-17.327
 30
0
 10
963.689
 20
-16.2125
 30
0
 10
965.185
 20
-15.3304
 30
0
 10
966.788
 20
-14.7354
 30
0
 10
968.39
 20
-14.1391
 30
0
 10
970.099
 20
-13.83
 30
0
 10
971.809
 20
-13.8271
 30
0
 10
973.529
 20
-13.8228
 30
0
 10
975.25
 20
-14.1285
 30
0
 10
976.863
 20
-14.7249
 30
0
 10
978.476
 20
-15.3201
 30
0
 10
979.982
 20
-16.206
 30
0
 10
981.287
 20
-17.3271
 30
0
  0
LINE
  5
BE1
330
A02
100
AcDbEntity
  8
View046
100
AcDbLine
 10
981.287
 20
-17.3271
 30
0
 11
1047.04
 21
-17.3276
 31
0
  0
ARC
  5
BE2
330
A02
100
AcDbEntity
  8
View046
100
AcDbCircle
 10
1047.04
 20
-13.3276
 30
0
 40
4
100
AcDbArc
 50
-90.0004
 51
-0.00040107
  0
LINE
  5
BE3
330
A02
100
AcDbEntity
  8
View046
100
AcDbLine
 10
1051.04
 20
-13.3276
 30
0
 11
1051.04
 21
-6.94
 31
0
  0
LINE
  5
BE4
330
A02
100
AcDbEntity
  8
View046
100
AcDbLine
 10
1051.84
 20
-6.94
 30
0
 11
1051.04
 21
-6.94
 31
0
  0
LINE
  5
BE5
330
A02
100
AcDbEntity
  8
View046
100
AcDbLine
 10
1051.84
 20
-7.94
 30
0
 11
1051.84
 21
-6.94
 31
0
  0
LINE
  5
BE6
330
A02
100
AcDbEntity
  8
View046
100
AcDbLine
 10
1051.84
 20
-7.94
 30
0
 11
1070.23
 21
-7.94013
 31
0
  0
ARC
  5
BE7
330
A02
100
AcDbEntity
  8
View046
100
AcDbCircle
 10
1070.23
 20
-3.94013
 30
0
 40
4
100
AcDbArc
 50
-90.0004
 51
-0.00040107
  0
LINE
  5
BE8
330
A02
100
AcDbEntity
  8
View046
100
AcDbLine
 10
1074.23
 20
331.46
 30
0
 11
1074.23
 21
-3.94016
 31
0
  0
LINE
  5
BE9
330
A02
100
AcDbEntity
  8
View046
100
AcDbLine
 10
1056.23
 20
349.46
 30
0
 11
1074.23
 21
331.46
 31
0
  0
LINE
  5
BEA
330
A02
100
AcDbEntity
  8
View046
100
AcDbLine
 10
1053.84
 20
349.46
 30
0
 11
1056.23
 21
349.46
 31
0
  0
LINE
  5
BEB
330
A02
100
AcDbEntity
  8
View046
100
AcDbLine
 10
1053.84
 20
352.248
 30
0
 11
1053.84
 21
349.46
 31
0
  0
LINE
  5
BEC
330
A02
100
AcDbEntity
  8
View046
100
AcDbLine
 10
1056.23
 20
352.248
 30
0
 11
1053.84
 21
352.248
 31
0
  0
LINE
  5
BED
330
A02
100
AcDbEntity
  8
View046
100
AcDbLine
 10
1074.23
 20
370.247
 30
0
 11
1056.23
 21
352.248
 31
0
  0
LINE
  5
BEE
330
A02
100
AcDbEntity
  8
View046
100
AcDbLine
 10
1074.23
 20
425.824
 30
0
 11
1074.23
 21
370.247
 31
0
  0
LINE
  5
BEF
330
A02
100
AcDbEntity
  8
View046
100
AcDbLine
 10
1056.23
 20
430.648
 30
0
 11
1074.23
 21
425.824
 31
0
  0
LINE
  5
BF0
330
A02
100
AcDbEntity
  8
View046
100
AcDbLine
 10
1053.84
 20
430.648
 30
0
 11
1056.23
 21
430.648
 31
0
  0
LINE
  5
BF1
330
A02
100
AcDbEntity
  8
View046
100
AcDbLine
 10
1053.84
 20
431.843
 30
0
 11
1053.84
 21
430.648
 31
0
  0
LINE
  5
BF2
330
A02
100
AcDbEntity
  8
View046
100
AcDbLine
 10
1056.23
 20
431.843
 30
0
 11
1053.84
 21
431.843
 31
0
  0
LINE
  5
BF3
330
A02
100
AcDbEntity
  8
View046
100
AcDbLine
 10
1074.23
 20
436.666
 30
0
 11
1056.23
 21
431.843
 31
0
  0
LINE
  5
BF4
330
A02
100
AcDbEntity
  8
View046
100
AcDbLine
 10
1074.23
 20
535.135
 30
0
 11
1074.23
 21
436.666
 31
0
  0
LINE
  5
BF5
330
A02
100
AcDbEntity
  8
View046
100
AcDbLine
 10
1056.23
 20
545.528
 30
0
 11
1074.23
 21
535.135
 31
0
  0
LINE
  5
BF6
330
A02
100
AcDbEntity
  8
View046
100
AcDbLine
 10
1053.84
 20
545.528
 30
0
 11
1056.23
 21
545.528
 31
0
  0
LINE
  5
BF7
330
A02
100
AcDbEntity
  8
View046
100
AcDbLine
 10
1053.84
 20
547.52
 30
0
 11
1053.84
 21
545.528
 31
0
  0
LINE
  5
BF8
330
A02
100
AcDbEntity
  8
View046
100
AcDbLine
 10
1056.23
 20
547.52
 30
0
 11
1053.84
 21
547.52
 31
0
  0
LINE
  5
BF9
330
A02
100
AcDbEntity
  8
View046
100
AcDbLine
 10
1074.23
 20
557.912
 30
0
 11
1056.23
 21
547.52
 31
0
  0
LINE
  5
BFA
330
A02
100
AcDbEntity
  8
View046
100
AcDbLine
 10
1074.23
 20
843.877
 30
0
 11
1074.23
 21
557.912
 31
0
  0
ARC
  5
BFB
330
A02
100
AcDbEntity
  8
View046
100
AcDbCircle
 10
1070.23
 20
843.877
 30
0
 40
4
100
AcDbArc
 50
-0.00040107
 51
89.9996
  0
LINE
  5
BFC
330
A02
100
AcDbEntity
  8
View046
100
AcDbLine
 10
1051.85
 20
847.877
 30
0
 11
1070.23
 21
847.877
 31
0
  0
LINE
  5
BFD
330
A02
100
AcDbEntity
  8
View046
100
AcDbLine
 10
1051.85
 20
847.877
 30
0
 11
1051.85
 21
846.877
 31
0
  0
LINE
  5
BFE
330
A02
100
AcDbEntity
  8
View046
100
AcDbLine
 10
1051.85
 20
846.877
 30
0
 11
1051.05
 21
846.877
 31
0
  0
LINE
  5
BFF
330
A02
100
AcDbEntity
  8
View046
100
AcDbLine
 10
1051.05
 20
846.877
 30
0
 11
1051.05
 21
853.265
 31
0
  0
ARC
  5
C00
330
A02
100
AcDbEntity
  8
View046
100
AcDbCircle
 10
1047.05
 20
853.265
 30
0
 40
4
100
AcDbArc
 50
-0.00040107
 51
89.9996
  0
LINE
  5
C01
330
A02
100
AcDbEntity
  8
View046
100
AcDbLine
 10
920.646
 20
857.266
 30
0
 11
1047.05
 21
857.265
 31
0
  0
ARC
  5
C02
330
A02
100
AcDbEntity
  8
View046
100
AcDbCircle
 10
920.646
 20
853.266
 30
0
 40
4
100
AcDbArc
 50
89.9996
 51
180
  0
LINE
  5
C03
330
A02
100
AcDbEntity
  8
View046
100
AcDbLine
 10
916.646
 20
846.878
 30
0
 11
916.646
 21
853.266
 31
0
  0
LINE
  5
C04
330
A02
100
AcDbEntity
  8
View046
100
AcDbLine
 10
916.646
 20
846.878
 30
0
 11
915.846
 21
846.878
 31
0
  0
LINE
  5
C05
330
A02
100
AcDbEntity
  8
View046
100
AcDbLine
 10
915.846
 20
846.878
 30
0
 11
915.846
 21
847.878
 31
0
  0
ARC
  5
C06
330
A02
100
AcDbEntity
  8
View046
100
AcDbCircle
 10
941.343
 20
515.586
 30
0
 40
1
100
AcDbArc
 50
89.9996
 51
180
  0
LINE
  5
C07
330
A02
100
AcDbEntity
  8
View046
100
AcDbLine
 10
940.343
 20
460.586
 30
0
 11
940.343
 21
515.586
 31
0
  0
ARC
  5
C08
330
A02
100
AcDbEntity
  8
View046
100
AcDbCircle
 10
941.343
 20
460.586
 30
0
 40
1
100
AcDbArc
 50
180
 51
-90.0004
  0
LINE
  5
C09
330
A02
100
AcDbEntity
  8
View046
100
AcDbLine
 10
1026.34
 20
459.586
 30
0
 11
941.343
 21
459.586
 31
0
  0
ARC
  5
C0A
330
A02
100
AcDbEntity
  8
View046
100
AcDbCircle
 10
1026.34
 20
460.586
 30
0
 40
1
100
AcDbArc
 50
-90.0004
 51
-0.00040107
  0
LINE
  5
C0B
330
A02
100
AcDbEntity
  8
View046
100
AcDbLine
 10
1027.34
 20
515.586
 30
0
 11
1027.34
 21
460.586
 31
0
  0
ARC
  5
C0C
330
A02
100
AcDbEntity
  8
View046
100
AcDbCircle
 10
1026.34
 20
515.586
 30
0
 40
1
100
AcDbArc
 50
-0.00040107
 51
89.9996
  0
LINE
  5
C0D
330
A02
100
AcDbEntity
  8
View046
100
AcDbLine
 10
941.343
 20
516.586
 30
0
 11
1026.34
 21
516.586
 31
0
  0
SPLINE
  5
C0E
330
A02
100
AcDbEntity
  8
View046
100
AcDbSpline
210
0
220
0
230
1
 70
9
 71
3
 72
53
 73
49
 74
0
 40
0
 40
0
 40
0
 40
0
 40
0.0580006
 40
0.0580006
 40
0.0580006
 40
0.116001
 40
0.116001
 40
0.116001
 40
0.174002
 40
0.174002
 40
0.174002
 40
0.232002
 40
0.232002
 40
0.232002
 40
0.290003
 40
0.290003
 40
0.290003
 40
0.348004
 40
0.348004
 40
0.348004
 40
0.406004
 40
0.406004
 40
0.406004
 40
0.493005
 40
0.493005
 40
0.493005
 40
0.551006
 40
0.551006
 40
0.551006
 40
0.609006
 40
0.609006
 40
0.609006
 40
0.667007
 40
0.667007
 40
0.667007
 40
0.754008
 40
0.754008
 40
0.754008
 40
0.812009
 40
0.812009
 40
0.812009
 40
0.870009
 40
0.870009
 40
0.870009
 40
0.899009
 40
0.899009
 40
0.899009
 40
1
 40
1
 40
1
 40
1
 10
934.843
 20
419.048
 30
0
 10
933.628
 20
419.049
 30
0
 10
932.413
 20
418.825
 30
0
 10
931.278
 20
418.392
 30
0
 10
930.143
 20
417.959
 30
0
 10
929.088
 20
417.317
 30
0
 10
928.182
 20
416.508
 30
0
 10
927.276
 20
415.699
 30
0
 10
926.519
 20
414.723
 30
0
 10
925.961
 20
413.644
 30
0
 10
925.402
 20
412.566
 30
0
 10
925.043
 20
411.384
 30
0
 10
924.906
 20
410.177
 30
0
 10
924.769
 20
408.97
 30
0
 10
924.854
 20
407.738
 30
0
 10
925.157
 20
406.562
 30
0
 10
925.458
 20
405.385
 30
0
 10
925.977
 20
404.264
 30
0
 10
926.679
 20
403.273
 30
0
 10
927.38
 20
402.281
 30
0
 10
928.264
 20
401.419
 30
0
 10
929.274
 20
400.743
 30
0
 10
930.786
 20
399.725
 30
0
 10
932.582
 20
399.136
 30
0
 10
934.403
 20
399.058
 30
0
 10
935.616
 20
399.004
 30
0
 10
936.839
 20
399.174
 30
0
 10
937.992
 20
399.557
 30
0
 10
939.145
 20
399.94
 30
0
 10
940.228
 20
400.534
 30
0
 10
941.168
 20
401.303
 30
0
 10
942.109
 20
402.071
 30
0
 10
942.908
 20
403.013
 30
0
 10
943.513
 20
404.067
 30
0
 10
944.423
 20
405.646
 30
0
 10
944.888
 20
407.478
 30
0
 10
944.839
 20
409.3
 30
0
 10
944.809
 20
410.514
 30
0
 10
944.555
 20
411.723
 30
0
 10
944.093
 20
412.846
 30
0
 10
943.632
 20
413.97
 30
0
 10
942.964
 20
415.009
 30
0
 10
942.132
 20
415.894
 30
0
 10
941.715
 20
416.338
 30
0
 10
941.262
 20
416.74
 30
0
 10
940.771
 20
417.101
 30
0
 10
939.069
 20
418.36
 30
0
 10
936.959
 20
419.053
 30
0
 10
934.843
 20
419.048
 30
0
  0
SPLINE
  5
C0F
330
A02
100
AcDbEntity
  8
View046
100
AcDbSpline
210
0
220
0
230
1
 70
9
 71
3
 72
53
 73
49
 74
0
 40
0
 40
0
 40
0
 40
0
 40
0.0560011
 40
0.0560011
 40
0.0560011
 40
0.114002
 40
0.114002
 40
0.114002
 40
0.172003
 40
0.172003
 40
0.172003
 40
0.230004
 40
0.230004
 40
0.230004
 40
0.313006
 40
0.313006
 40
0.313006
 40
0.371007
 40
0.371007
 40
0.371007
 40
0.429008
 40
0.429008
 40
0.429008
 40
0.487009
 40
0.487009
 40
0.487009
 40
0.570011
 40
0.570011
 40
0.570011
 40
0.628012
 40
0.628012
 40
0.628012
 40
0.686013
 40
0.686013
 40
0.686013
 40
0.744014
 40
0.744014
 40
0.744014
 40
0.800015
 40
0.800015
 40
0.800015
 40
0.858016
 40
0.858016
 40
0.858016
 40
0.887017
 40
0.887017
 40
0.887017
 40
1
 40
1
 40
1
 40
1
 10
964.843
 20
418.048
 30
0
 10
963.904
 20
418.049
 30
0
 10
962.966
 20
417.882
 30
0
 10
962.085
 20
417.558
 30
0
 10
961.173
 20
417.224
 30
0
 10
960.323
 20
416.721
 30
0
 10
959.59
 20
416.082
 30
0
 10
958.857
 20
415.444
 30
0
 10
958.241
 20
414.672
 30
0
 10
957.784
 20
413.814
 30
0
 10
957.326
 20
412.957
 30
0
 10
957.027
 20
412.015
 30
0
 10
956.906
 20
411.051
 30
0
 10
956.73
 20
409.671
 30
0
 10
956.923
 20
408.246
 30
0
 10
957.461
 20
406.964
 30
0
 10
957.835
 20
406.067
 30
0
 10
958.375
 20
405.239
 30
0
 10
959.045
 20
404.535
 30
0
 10
959.715
 20
403.831
 30
0
 10
960.514
 20
403.25
 30
0
 10
961.391
 20
402.831
 30
0
 10
962.267
 20
402.411
 30
0
 10
963.221
 20
402.154
 30
0
 10
964.19
 20
402.075
 30
0
 10
965.576
 20
401.96
 30
0
 10
966.991
 20
402.216
 30
0
 10
968.249
 20
402.81
 30
0
 10
969.128
 20
403.223
 30
0
 10
969.931
 20
403.799
 30
0
 10
970.605
 20
404.499
 30
0
 10
971.279
 20
405.199
 30
0
 10
971.824
 20
406.023
 30
0
 10
972.204
 20
406.917
 30
0
 10
972.585
 20
407.811
 30
0
 10
972.801
 20
408.775
 30
0
 10
972.837
 20
409.747
 30
0
 10
972.873
 20
410.684
 30
0
 10
972.741
 20
411.628
 30
0
 10
972.451
 20
412.52
 30
0
 10
972.151
 20
413.445
 30
0
 10
971.681
 20
414.313
 30
0
 10
971.07
 20
415.07
 30
0
 10
970.764
 20
415.449
 30
0
 10
970.427
 20
415.797
 30
0
 10
970.057
 20
416.115
 30
0
 10
968.624
 20
417.355
 30
0
 10
966.738
 20
418.054
 30
0
 10
964.843
 20
418.048
 30
0
  0
SPLINE
  5
C10
330
A02
100
AcDbEntity
  8
View046
100
AcDbSpline
210
0
220
0
230
1
 70
9
 71
3
 72
53
 73
49
 74
0
 40
0
 40
0
 40
0
 40
0
 40
0.0560009
 40
0.0560009
 40
0.0560009
 40
0.114002
 40
0.114002
 40
0.114002
 40
0.172003
 40
0.172003
 40
0.172003
 40
0.230004
 40
0.230004
 40
0.230004
 40
0.288005
 40
0.288005
 40
0.288005
 40
0.346006
 40
0.346006
 40
0.346006
 40
0.404006
 40
0.404006
 40
0.404006
 40
0.487008
 40
0.487008
 40
0.487008
 40
0.572009
 40
0.572009
 40
0.572009
 40
0.62901
 40
0.62901
 40
0.62901
 40
0.687011
 40
0.687011
 40
0.687011
 40
0.745012
 40
0.745012
 40
0.745012
 40
0.803013
 40
0.803013
 40
0.803013
 40
0.861014
 40
0.861014
 40
0.861014
 40
0.890014
 40
0.890014
 40
0.890014
 40
1
 40
1
 40
1
 40
1
 10
1008.84
 20
418.048
 30
0
 10
1007.9
 20
418.048
 30
0
 10
1006.97
 20
417.882
 30
0
 10
1006.09
 20
417.558
 30
0
 10
1005.17
 20
417.223
 30
0
 10
1004.32
 20
416.72
 30
0
 10
1003.59
 20
416.082
 30
0
 10
1002.86
 20
415.444
 30
0
 10
1002.24
 20
414.671
 30
0
 10
1001.78
 20
413.814
 30
0
 10
1001.33
 20
412.956
 30
0
 10
1001.03
 20
412.015
 30
0
 10
1000.91
 20
411.051
 30
0
 10
1000.78
 20
410.086
 30
0
 10
1000.84
 20
409.1
 30
0
 10
1001.07
 20
408.156
 30
0
 10
1001.3
 20
407.212
 30
0
 10
1001.7
 20
406.31
 30
0
 10
1002.25
 20
405.51
 30
0
 10
1002.81
 20
404.709
 30
0
 10
1003.5
 20
404.011
 30
0
 10
1004.3
 20
403.46
 30
0
 10
1005.45
 20
402.669
 30
0
 10
1006.8
 20
402.186
 30
0
 10
1008.19
 20
402.075
 30
0
 10
1009.61
 20
401.956
 30
0
 10
1011.06
 20
402.228
 30
0
 10
1012.34
 20
402.853
 30
0
 10
1013.2
 20
403.27
 30
0
 10
1013.98
 20
403.843
 30
0
 10
1014.64
 20
404.535
 30
0
 10
1015.31
 20
405.239
 30
0
 10
1015.85
 20
406.066
 30
0
 10
1016.22
 20
406.963
 30
0
 10
1016.6
 20
407.86
 30
0
 10
1016.81
 20
408.825
 30
0
 10
1016.84
 20
409.797
 30
0
 10
1016.87
 20
410.768
 30
0
 10
1016.72
 20
411.745
 30
0
 10
1016.4
 20
412.663
 30
0
 10
1016.09
 20
413.582
 30
0
 10
1015.6
 20
414.441
 30
0
 10
1014.97
 20
415.186
 30
0
 10
1014.66
 20
415.559
 30
0
 10
1014.32
 20
415.901
 30
0
 10
1013.94
 20
416.212
 30
0
 10
1012.52
 20
417.392
 30
0
 10
1010.69
 20
418.053
 30
0
 10
1008.84
 20
418.048
 30
0
  0
SPLINE
  5
C11
330
A02
100
AcDbEntity
  8
View046
100
AcDbSpline
210
0
220
0
230
1
 70
9
 71
3
 72
53
 73
49
 74
0
 40
0
 40
0
 40
0
 40
0
 40
0.057001
 40
0.057001
 40
0.057001
 40
0.115002
 40
0.115002
 40
0.115002
 40
0.173003
 40
0.173003
 40
0.173003
 40
0.230004
 40
0.230004
 40
0.230004
 40
0.288005
 40
0.288005
 40
0.288005
 40
0.346006
 40
0.346006
 40
0.346006
 40
0.404007
 40
0.404007
 40
0.404007
 40
0.487009
 40
0.487009
 40
0.487009
 40
0.57201
 40
0.57201
 40
0.57201
 40
0.629011
 40
0.629011
 40
0.629011
 40
0.686012
 40
0.686012
 40
0.686012
 40
0.744013
 40
0.744013
 40
0.744013
 40
0.801014
 40
0.801014
 40
0.801014
 40
0.859015
 40
0.859015
 40
0.859015
 40
0.888016
 40
0.888016
 40
0.888016
 40
1
 40
1
 40
1
 40
1
 10
986.843
 20
418.048
 30
0
 10
985.887
 20
418.048
 30
0
 10
984.933
 20
417.876
 30
0
 10
984.038
 20
417.54
 30
0
 10
983.128
 20
417.2
 30
0
 10
982.281
 20
416.692
 30
0
 10
981.552
 20
416.049
 30
0
 10
980.823
 20
415.407
 30
0
 10
980.212
 20
414.63
 30
0
 10
979.761
 20
413.769
 30
0
 10
979.316
 20
412.924
 30
0
 10
979.025
 20
411.998
 30
0
 10
978.906
 20
411.051
 30
0
 10
978.783
 20
410.087
 30
0
 10
978.839
 20
409.1
 30
0
 10
979.069
 20
408.156
 30
0
 10
979.299
 20
407.212
 30
0
 10
979.703
 20
406.31
 30
0
 10
980.254
 20
405.51
 30
0
 10
980.805
 20
404.709
 30
0
 10
981.504
 20
404.011
 30
0
 10
982.304
 20
403.46
 30
0
 10
983.449
 20
402.669
 30
0
 10
984.803
 20
402.187
 30
0
 10
986.19
 20
402.075
 30
0
 10
987.609
 20
401.957
 30
0
 10
989.059
 20
402.228
 30
0
 10
990.339
 20
402.853
 30
0
 10
991.199
 20
403.27
 30
0
 10
991.982
 20
403.843
 30
0
 10
992.64
 20
404.535
 30
0
 10
993.298
 20
405.227
 30
0
 10
993.831
 20
406.038
 30
0
 10
994.204
 20
406.917
 30
0
 10
994.585
 20
407.811
 30
0
 10
994.801
 20
408.775
 30
0
 10
994.837
 20
409.746
 30
0
 10
994.873
 20
410.701
 30
0
 10
994.736
 20
411.662
 30
0
 10
994.435
 20
412.568
 30
0
 10
994.13
 20
413.49
 30
0
 10
993.654
 20
414.356
 30
0
 10
993.039
 20
415.109
 30
0
 10
992.73
 20
415.486
 30
0
 10
992.39
 20
415.832
 30
0
 10
992.019
 20
416.148
 30
0
 10
990.59
 20
417.367
 30
0
 10
988.721
 20
418.054
 30
0
 10
986.843
 20
418.048
 30
0
  0
SPLINE
  5
C12
330
A02
100
AcDbEntity
  8
View046
100
AcDbSpline
210
0
220
0
230
1
 70
8
 71
3
 72
11
 73
7
 74
0
 40
0
 40
0
 40
0
 40
0
 40
0.505
 40
0.505
 40
0.505
 40
1
 40
1
 40
1
 40
1
 10
947.842
 20
371.248
 30
0
 10
947.71
 20
371.249
 30
0
 10
947.578
 20
371.194
 30
0
 10
947.486
 20
371.099
 30
0
 10
947.395
 20
371.007
 30
0
 10
947.342
 20
370.878
 30
0
 10
947.342
 20
370.748
 30
0
  0
LINE
  5
C13
330
A02
100
AcDbEntity
  8
View046
100
AcDbLine
 10
947.342
 20
370.748
 30
0
 11
947.342
 21
360.548
 31
0
  0
SPLINE
  5
C14
330
A02
100
AcDbEntity
  8
View046
100
AcDbSpline
210
0
220
0
230
1
 70
8
 71
3
 72
11
 73
7
 74
0
 40
0
 40
0
 40
0
 40
0
 40
0.505
 40
0.505
 40
0.505
 40
1
 40
1
 40
1
 40
1
 10
947.342
 20
360.548
 30
0
 10
947.342
 20
360.416
 30
0
 10
947.397
 20
360.285
 30
0
 10
947.491
 20
360.192
 30
0
 10
947.583
 20
360.101
 30
0
 10
947.712
 20
360.048
 30
0
 10
947.842
 20
360.048
 30
0
  0
LINE
  5
C15
330
A02
100
AcDbEntity
  8
View046
100
AcDbLine
 10
947.842
 20
360.048
 30
0
 11
959.442
 21
360.048
 31
0
  0
SPLINE
  5
C16
330
A02
100
AcDbEntity
  8
View046
100
AcDbSpline
210
0
220
0
230
1
 70
8
 71
3
 72
11
 73
7
 74
0
 40
0
 40
0
 40
0
 40
0
 40
0.504
 40
0.504
 40
0.504
 40
1
 40
1
 40
1
 40
1
 10
959.442
 20
360.048
 30
0
 10
959.574
 20
360.048
 30
0
 10
959.705
 20
360.103
 30
0
 10
959.798
 20
360.197
 30
0
 10
959.89
 20
360.289
 30
0
 10
959.943
 20
360.418
 30
0
 10
959.942
 20
360.548
 30
0
  0
LINE
  5
C17
330
A02
100
AcDbEntity
  8
View046
100
AcDbLine
 10
959.942
 20
360.548
 30
0
 11
959.942
 21
370.748
 31
0
  0
SPLINE
  5
C18
330
A02
100
AcDbEntity
  8
View046
100
AcDbSpline
210
0
220
0
230
1
 70
8
 71
3
 72
11
 73
7
 74
0
 40
0
 40
0
 40
0
 40
0
 40
0.513
 40
0.513
 40
0.513
 40
1
 40
1
 40
1
 40
1
 10
959.942
 20
370.748
 30
0
 10
959.943
 20
370.883
 30
0
 10
959.886
 20
371.016
 30
0
 10
959.788
 20
371.109
 30
0
 10
959.697
 20
371.198
 30
0
 10
959.57
 20
371.249
 30
0
 10
959.442
 20
371.248
 30
0
  0
LINE
  5
C19
330
A02
100
AcDbEntity
  8
View046
100
AcDbLine
 10
959.442
 20
371.248
 30
0
 11
947.842
 21
371.248
 31
0
  0
SPLINE
  5
C1A
330
A02
100
AcDbEntity
  8
View046
100
AcDbSpline
210
0
220
0
230
1
 70
8
 71
3
 72
11
 73
7
 74
0
 40
0
 40
0
 40
0
 40
0
 40
0.509
 40
0.509
 40
0.509
 40
1
 40
1
 40
1
 40
1
 10
933.342
 20
371.248
 30
0
 10
933.209
 20
371.249
 30
0
 10
933.076
 20
371.193
 30
0
 10
932.984
 20
371.097
 30
0
 10
932.894
 20
371.005
 30
0
 10
932.842
 20
370.877
 30
0
 10
932.842
 20
370.748
 30
0
  0
LINE
  5
C1B
330
A02
100
AcDbEntity
  8
View046
100
AcDbLine
 10
932.842
 20
370.748
 30
0
 11
932.842
 21
360.548
 31
0
  0
SPLINE
  5
C1C
330
A02
100
AcDbEntity
  8
View046
100
AcDbSpline
210
0
220
0
230
1
 70
8
 71
3
 72
11
 73
7
 74
0
 40
0
 40
0
 40
0
 40
0
 40
0.505
 40
0.505
 40
0.505
 40
1
 40
1
 40
1
 40
1
 10
932.842
 20
360.548
 30
0
 10
932.842
 20
360.416
 30
0
 10
932.897
 20
360.285
 30
0
 10
932.991
 20
360.192
 30
0
 10
933.083
 20
360.101
 30
0
 10
933.212
 20
360.048
 30
0
 10
933.342
 20
360.048
 30
0
  0
LINE
  5
C1D
330
A02
100
AcDbEntity
  8
View046
100
AcDbLine
 10
933.342
 20
360.048
 30
0
 11
941.742
 21
360.048
 31
0
  0
SPLINE
  5
C1E
330
A02
100
AcDbEntity
  8
View046
100
AcDbSpline
210
0
220
0
230
1
 70
8
 71
3
 72
11
 73
7
 74
0
 40
0
 40
0
 40
0
 40
0
 40
0.508
 40
0.508
 40
0.508
 40
1
 40
1
 40
1
 40
1
 10
941.742
 20
360.048
 30
0
 10
941.875
 20
360.048
 30
0
 10
942.008
 20
360.104
 30
0
 10
942.1
 20
360.199
 30
0
 10
942.191
 20
360.291
 30
0
 10
942.243
 20
360.419
 30
0
 10
942.242
 20
360.548
 30
0
  0
LINE
  5
C1F
330
A02
100
AcDbEntity
  8
View046
100
AcDbLine
 10
942.242
 20
360.548
 30
0
 11
942.242
 21
370.748
 31
0
  0
SPLINE
  5
C20
330
A02
100
AcDbEntity
  8
View046
100
AcDbSpline
210
0
220
0
230
1
 70
8
 71
3
 72
11
 73
7
 74
0
 40
0
 40
0
 40
0
 40
0
 40
0.501
 40
0.501
 40
0.501
 40
1
 40
1
 40
1
 40
1
 10
942.242
 20
370.748
 30
0
 10
942.243
 20
370.88
 30
0
 10
942.189
 20
371.01
 30
0
 10
942.095
 20
371.102
 30
0
 10
942.003
 20
371.195
 30
0
 10
941.873
 20
371.249
 30
0
 10
941.742
 20
371.248
 30
0
  0
LINE
  5
C21
330
A02
100
AcDbEntity
  8
View046
100
AcDbLine
 10
941.742
 20
371.248
 30
0
 11
933.342
 21
371.248
 31
0
  0
SPLINE
  5
C22
330
A02
100
AcDbEntity
  8
View046
100
AcDbSpline
210
0
220
0
230
1
 70
8
 71
3
 72
8
 73
4
 74
0
 40
0
 40
0
 40
0
 40
0
 40
1
 40
1
 40
1
 40
1
 10
972.842
 20
362.148
 30
0
 10
972.682
 20
362.152
 30
0
 10
972.538
 20
362.008
 30
0
 10
972.542
 20
361.848
 30
0
  0
LINE
  5
C23
330
A02
100
AcDbEntity
  8
View046
100
AcDbLine
 10
972.542
 20
361.848
 30
0
 11
972.542
 21
361.148
 31
0
  0
SPLINE
  5
C24
330
A02
100
AcDbEntity
  8
View046
100
AcDbSpline
210
0
220
0
230
1
 70
8
 71
3
 72
8
 73
4
 74
0
 40
0
 40
0
 40
0
 40
0
 40
1
 40
1
 40
1
 40
1
 10
972.542
 20
361.148
 30
0
 10
972.538
 20
360.988
 30
0
 10
972.682
 20
360.844
 30
0
 10
972.842
 20
360.848
 30
0
  0
LINE
  5
C25
330
A02
100
AcDbEntity
  8
View046
100
AcDbLine
 10
972.842
 20
360.848
 30
0
 11
984.842
 21
360.848
 31
0
  0
SPLINE
  5
C26
330
A02
100
AcDbEntity
  8
View046
100
AcDbSpline
210
0
220
0
230
1
 70
8
 71
3
 72
8
 73
4
 74
0
 40
0
 40
0
 40
0
 40
0
 40
1
 40
1
 40
1
 40
1
 10
984.842
 20
360.848
 30
0
 10
985.002
 20
360.844
 30
0
 10
985.146
 20
360.988
 30
0
 10
985.142
 20
361.148
 30
0
  0
LINE
  5
C27
330
A02
100
AcDbEntity
  8
View046
100
AcDbLine
 10
985.142
 20
361.148
 30
0
 11
985.142
 21
361.848
 31
0
  0
SPLINE
  5
C28
330
A02
100
AcDbEntity
  8
View046
100
AcDbSpline
210
0
220
0
230
1
 70
8
 71
3
 72
8
 73
4
 74
0
 40
0
 40
0
 40
0
 40
0
 40
1
 40
1
 40
1
 40
1
 10
985.142
 20
361.848
 30
0
 10
985.146
 20
362.008
 30
0
 10
985.002
 20
362.152
 30
0
 10
984.842
 20
362.148
 30
0
  0
LINE
  5
C29
330
A02
100
AcDbEntity
  8
View046
100
AcDbLine
 10
984.842
 20
362.148
 30
0
 11
972.842
 21
362.148
 31
0
  0
SPLINE
  5
C2A
330
A02
100
AcDbEntity
  8
View046
100
AcDbSpline
210
0
220
0
230
1
 70
9
 71
3
 72
38
 73
34
 74
0
 40
0
 40
0
 40
0
 40
0
 40
0.0580009
 40
0.0580009
 40
0.0580009
 40
0.140002
 40
0.140002
 40
0.140002
 40
0.256004
 40
0.256004
 40
0.256004
 40
0.372006
 40
0.372006
 40
0.372006
 40
0.487007
 40
0.487007
 40
0.487007
 40
0.573009
 40
0.573009
 40
0.573009
 40
0.63101
 40
0.63101
 40
0.63101
 40
0.747011
 40
0.747011
 40
0.747011
 40
0.861013
 40
0.861013
 40
0.861013
 40
0.890013
 40
0.890013
 40
0.890013
 40
1
 40
1
 40
1
 40
1
 10
1039.84
 20
366.798
 30
0
 10
1039.39
 20
366.798
 30
0
 10
1038.93
 20
366.714
 30
0
 10
1038.51
 20
366.551
 30
0
 10
1037.9
 20
366.323
 30
0
 10
1037.36
 20
365.935
 30
0
 10
1036.95
 20
365.438
 30
0
 10
1036.37
 20
364.737
 30
0
 10
1036.06
 20
363.818
 30
0
 10
1036.09
 20
362.906
 30
0
 10
1036.13
 20
361.995
 30
0
 10
1036.51
 20
361.101
 30
0
 10
1037.14
 20
360.447
 30
0
 10
1037.77
 20
359.793
 30
0
 10
1038.63
 20
359.381
 30
0
 10
1039.54
 20
359.31
 30
0
 10
1040.21
 20
359.254
 30
0
 10
1040.9
 20
359.385
 30
0
 10
1041.5
 20
359.685
 30
0
 10
1041.91
 20
359.887
 30
0
 10
1042.28
 20
360.164
 30
0
 10
1042.59
 20
360.498
 30
0
 10
1043.21
 20
361.165
 30
0
 10
1043.58
 20
362.065
 30
0
 10
1043.59
 20
362.977
 30
0
 10
1043.61
 20
363.873
 30
0
 10
1043.29
 20
364.771
 30
0
 10
1042.72
 20
365.456
 30
0
 10
1042.57
 20
365.631
 30
0
 10
1042.41
 20
365.791
 30
0
 10
1042.23
 20
365.937
 30
0
 10
1041.57
 20
366.49
 30
0
 10
1040.71
 20
366.8
 30
0
 10
1039.84
 20
366.798
 30
0
  0
SPLINE
  5
C2B
330
A02
100
AcDbEntity
  8
View046
100
AcDbSpline
210
0
220
0
230
1
 70
9
 71
3
 72
35
 73
31
 74
0
 40
0
 40
0
 40
0
 40
0
 40
0.135001
 40
0.135001
 40
0.135001
 40
0.250003
 40
0.250003
 40
0.250003
 40
0.366004
 40
0.366004
 40
0.366004
 40
0.424005
 40
0.424005
 40
0.424005
 40
0.503006
 40
0.503006
 40
0.503006
 40
0.617007
 40
0.617007
 40
0.617007
 40
0.675007
 40
0.675007
 40
0.675007
 40
0.759008
 40
0.759008
 40
0.759008
 40
0.87301
 40
0.87301
 40
0.87301
 40
1
 40
1
 40
1
 40
1
 10
1039.84
 20
386.798
 30
0
 10
1038.78
 20
386.803
 30
0
 10
1037.73
 20
386.328
 30
0
 10
1037.03
 20
385.528
 30
0
 10
1036.43
 20
384.851
 30
0
 10
1036.09
 20
383.952
 30
0
 10
1036.09
 20
383.048
 30
0
 10
1036.09
 20
382.136
 30
0
 10
1036.44
 20
381.228
 30
0
 10
1037.05
 20
380.55
 30
0
 10
1037.35
 20
380.21
 30
0
 10
1037.71
 20
379.926
 30
0
 10
1038.12
 20
379.717
 30
0
 10
1038.67
 20
379.431
 30
0
 10
1039.29
 20
379.286
 30
0
 10
1039.91
 20
379.298
 30
0
 10
1040.81
 20
379.312
 30
0
 10
1041.69
 20
379.663
 30
0
 10
1042.36
 20
380.266
 30
0
 10
1042.7
 20
380.572
 30
0
 10
1042.98
 20
380.939
 30
0
 10
1043.18
 20
381.345
 30
0
 10
1043.48
 20
381.933
 30
0
 10
1043.62
 20
382.601
 30
0
 10
1043.59
 20
383.26
 30
0
 10
1043.54
 20
384.155
 30
0
 10
1043.15
 20
385.026
 30
0
 10
1042.53
 20
385.666
 30
0
 10
1041.83
 20
386.384
 30
0
 10
1040.84
 20
386.802
 30
0
 10
1039.84
 20
386.798
 30
0
  0
SPLINE
  5
C2C
330
A02
100
AcDbEntity
  8
View046
100
AcDbSpline
210
0
220
0
230
1
 70
9
 71
3
 72
32
 73
28
 74
0
 40
0
 40
0
 40
0
 40
0
 40
0.135002
 40
0.135002
 40
0.135002
 40
0.250003
 40
0.250003
 40
0.250003
 40
0.366004
 40
0.366004
 40
0.366004
 40
0.499006
 40
0.499006
 40
0.499006
 40
0.558006
 40
0.558006
 40
0.558006
 40
0.641007
 40
0.641007
 40
0.641007
 40
0.757008
 40
0.757008
 40
0.757008
 40
0.87301
 40
0.87301
 40
0.87301
 40
1
 40
1
 40
1
 40
1
 10
1039.84
 20
406.798
 30
0
 10
1038.78
 20
406.803
 30
0
 10
1037.73
 20
406.328
 30
0
 10
1037.03
 20
405.528
 30
0
 10
1036.43
 20
404.851
 30
0
 10
1036.09
 20
403.952
 30
0
 10
1036.09
 20
403.048
 30
0
 10
1036.09
 20
402.136
 30
0
 10
1036.44
 20
401.228
 30
0
 10
1037.05
 20
400.55
 30
0
 10
1037.74
 20
399.766
 30
0
 10
1038.77
 20
399.299
 30
0
 10
1039.82
 20
399.298
 30
0
 10
1040.28
 20
399.295
 30
0
 10
1040.75
 20
399.379
 30
0
 10
1041.18
 20
399.544
 30
0
 10
1041.79
 20
399.776
 30
0
 10
1042.33
 20
400.17
 30
0
 10
1042.75
 20
400.676
 30
0
 10
1043.33
 20
401.38
 30
0
 10
1043.63
 20
402.302
 30
0
 10
1043.59
 20
403.213
 30
0
 10
1043.55
 20
404.124
 30
0
 10
1043.17
 20
405.015
 30
0
 10
1042.53
 20
405.666
 30
0
 10
1041.83
 20
406.384
 30
0
 10
1040.84
 20
406.802
 30
0
 10
1039.84
 20
406.798
 30
0
  0
SPLINE
  5
C2D
330
A02
100
AcDbEntity
  8
View046
100
AcDbSpline
210
0
220
0
230
1
 70
9
 71
3
 72
35
 73
31
 74
0
 40
0
 40
0
 40
0
 40
0
 40
0.116001
 40
0.116001
 40
0.116001
 40
0.202002
 40
0.202002
 40
0.202002
 40
0.260003
 40
0.260003
 40
0.260003
 40
0.376004
 40
0.376004
 40
0.376004
 40
0.492006
 40
0.492006
 40
0.492006
 40
0.608007
 40
0.608007
 40
0.608007
 40
0.666008
 40
0.666008
 40
0.666008
 40
0.753009
 40
0.753009
 40
0.753009
 40
0.86701
 40
0.86701
 40
0.86701
 40
1
 40
1
 40
1
 40
1
 10
1036.59
 20
421.548
 30
0
 10
1036.59
 20
420.757
 30
0
 10
1036.89
 20
419.971
 30
0
 10
1037.42
 20
419.383
 30
0
 10
1037.81
 20
418.946
 30
0
 10
1038.32
 20
418.618
 30
0
 10
1038.88
 20
418.444
 30
0
 10
1039.25
 20
418.327
 30
0
 10
1039.65
 20
418.279
 30
0
 10
1040.05
 20
418.304
 30
0
 10
1040.84
 20
418.351
 30
0
 10
1041.6
 20
418.7
 30
0
 10
1042.16
 20
419.264
 30
0
 10
1042.71
 20
419.825
 30
0
 10
1043.05
 20
420.595
 30
0
 10
1043.09
 20
421.384
 30
0
 10
1043.13
 20
422.174
 30
0
 10
1042.87
 20
422.974
 30
0
 10
1042.37
 20
423.588
 30
0
 10
1042.12
 20
423.895
 30
0
 10
1041.82
 20
424.157
 30
0
 10
1041.48
 20
424.355
 30
0
 10
1040.97
 20
424.655
 30
0
 10
1040.37
 20
424.809
 30
0
 10
1039.78
 20
424.797
 30
0
 10
1039
 20
424.785
 30
0
 10
1038.24
 20
424.481
 30
0
 10
1037.66
 20
423.958
 30
0
 10
1036.99
 20
423.353
 30
0
 10
1036.59
 20
422.455
 30
0
 10
1036.59
 20
421.548
 30
0
  0
CIRCLE
  5
C2E
330
A02
100
AcDbEntity
  8
View046
100
AcDbCircle
 10
1019
 20
853.115
 40
2.1
  0
CIRCLE
  5
C2F
330
A02
100
AcDbEntity
  8
View046
100
AcDbCircle
 10
948.696
 20
853.116
 40
2.1
  0
ELLIPSE
  5
C30
330
A02
100
AcDbEntity
  8
View046
100
AcDbEllipse
 10
1015.34
 20
90.8602
 30
0
 11
-1.99179
 21
0.181086
 31
0
 40
1
 41
0
 42
6.28318
  0
ELLIPSE
  5
C31
330
A02
100
AcDbEntity
  8
View046
100
AcDbEllipse
 10
1015.34
 20
240.86
 30
0
 11
-1.99179
 21
0.181086
 31
0
 40
1
 41
0
 42
6.28318
  0
ELLIPSE
  5
C32
330
A02
100
AcDbEntity
  8
View046
100
AcDbEllipse
 10
965.341
 20
240.861
 30
0
 11
-1.99179
 21
0.181086
 31
0
 40
1
 41
0
 42
6.28318
  0
ELLIPSE
  5
C33
330
A02
100
AcDbEntity
  8
View046
100
AcDbEllipse
 10
965.34
 20
90.8606
 30
0
 11
-1.99179
 21
0.181086
 31
0
 40
1
 41
0
 42
6.28318
  0
ELLIPSE
  5
C34
330
A02
100
AcDbEntity
  8
View046
100
AcDbEllipse
 10
904.995
 20
484.119
 30
0
 11
-1.38564
 21
0.80001
 31
0
 40
1
 41
0
 42
6.28318
  0
ELLIPSE
  5
C35
330
A02
100
AcDbEntity
  8
View046
100
AcDbEllipse
 10
904.995
 20
527.184
 30
0
 11
-1.38564
 21
0.80001
 31
0
 40
1
 41
0
 42
6.28318
  0
ELLIPSE
  5
C36
330
A02
100
AcDbEntity
  8
View046
100
AcDbEllipse
 10
904.994
 20
441.054
 30
0
 11
-1.38564
 21
0.80001
 31
0
 40
1
 41
0
 42
6.28318
  0
ELLIPSE
  5
C37
330
A02
100
AcDbEntity
  8
View046
100
AcDbEllipse
 10
905.156
 20
559.144
 30
0
 11
1.12e-05
 21
1.6
 31
0
 40
1
 41
0
 42
6.28318
  0
ELLIPSE
  5
C38
330
A02
100
AcDbEntity
  8
View046
100
AcDbEllipse
 10
905.157
 20
696.611
 30
0
 11
1.12e-05
 21
1.6
 31
0
 40
1
 41
0
 42
6.28318
  0
ELLIPSE
  5
C39
330
A02
100
AcDbEntity
  8
View046
100
AcDbEllipse
 10
905.158
 20
834.078
 30
0
 11
1.12e-05
 21
1.6
 31
0
 40
1
 41
0
 42
6.28318
  0
ELLIPSE
  5
C3A
330
A02
100
AcDbEntity
  8
View046
100
AcDbEllipse
 10
905.156
 20
579.144
 30
0
 11
1.12e-05
 21
1.6
 31
0
 40
1
 41
0
 42
6.28318
  0
ELLIPSE
  5
C3B
330
A02
100
AcDbEntity
  8
View046
100
AcDbEllipse
 10
905.154
 20
328.361
 30
0
 11
-1.12e-05
 21
-1.6
 31
0
 40
1
 41
0
 42
6.28318
  0
ELLIPSE
  5
C3C
330
A02
100
AcDbEntity
  8
View046
100
AcDbEllipse
 10
905.155
 20
393.594
 30
0
 11
-1.6
 21
1.12e-05
 31
0
 40
1
 41
0
 42
6.28318
  0
ELLIPSE
  5
C3D
330
A02
100
AcDbEntity
  8
View046
100
AcDbEllipse
 10
905.152
 20
5.86102
 30
0
 11
-1.12e-05
 21
-1.6
 31
0
 40
1
 41
0
 42
6.28318
  0
ELLIPSE
  5
C3E
330
A02
100
AcDbEntity
  8
View046
100
AcDbEllipse
 10
905.153
 20
167.111
 30
0
 11
-1.12e-05
 21
-1.6
 31
0
 40
1
 41
0
 42
6.28318
  0
CIRCLE
  5
C3F
330
A02
100
AcDbEntity
  8
View046
100
AcDbCircle
 10
933.84
 20
10.8608
 40
1.6
  0
CIRCLE
  5
C40
330
A02
100
AcDbEntity
  8
View046
100
AcDbCircle
 10
1033.84
 20
10.8601
 40
1.6
  0
CIRCLE
  5
C41
330
A02
100
AcDbEntity
  8
View046
100
AcDbCircle
 10
1062.53
 20
696.61
 40
1.6
  0
CIRCLE
  5
C42
330
A02
100
AcDbEntity
  8
View046
100
AcDbCircle
 10
1062.53
 20
834.077
 40
1.6
  0
CIRCLE
  5
C43
330
A02
100
AcDbEntity
  8
View046
100
AcDbCircle
 10
1062.53
 20
5.85992
 40
1.6
  0
CIRCLE
  5
C44
330
A02
100
AcDbEntity
  8
View046
100
AcDbCircle
 10
1033.84
 20
330.86
 40
1.6
  0
CIRCLE
  5
C45
330
A02
100
AcDbEntity
  8
View046
100
AcDbCircle
 10
933.842
 20
330.861
 40
1.6
  0
CIRCLE
  5
C46
330
A02
100
AcDbEntity
  8
View046
100
AcDbCircle
 10
1062.53
 20
393.593
 40
1.6
  0
CIRCLE
  5
C47
330
A02
100
AcDbEntity
  8
View046
100
AcDbCircle
 10
1062.53
 20
328.36
 40
1.6
  0
CIRCLE
  5
C48
330
A02
100
AcDbEntity
  8
View046
100
AcDbCircle
 10
943.842
 20
283.311
 40
1.6
  0
CIRCLE
  5
C49
330
A02
100
AcDbEntity
  8
View046
100
AcDbCircle
 10
1043.84
 20
283.311
 40
1.6
  0
CIRCLE
  5
C4A
330
A02
100
AcDbEntity
  8
View046
100
AcDbCircle
 10
1062.69
 20
441.053
 40
1.6
  0
CIRCLE
  5
C4B
330
A02
100
AcDbEntity
  8
View046
100
AcDbCircle
 10
1062.53
 20
579.143
 40
1.6
  0
CIRCLE
  5
C4C
330
A02
100
AcDbEntity
  8
View046
100
AcDbCircle
 10
1062.53
 20
167.11
 40
1.6
  0
CIRCLE
  5
C4D
330
A02
100
AcDbEntity
  8
View046
100
AcDbCircle
 10
1062.53
 20
559.143
 40
1.6
  0
CIRCLE
  5
C4E
330
A02
100
AcDbEntity
  8
View046
100
AcDbCircle
 10
1062.69
 20
484.118
 40
1.6
  0
CIRCLE
  5
C4F
330
A02
100
AcDbEntity
  8
View046
100
AcDbCircle
 10
1062.69
 20
527.183
 40
1.6
  0
CIRCLE
  5
C50
330
A02
100
AcDbEntity
  8
View046
100
AcDbCircle
 10
921.842
 20
344.861
 40
1.5
  0
CIRCLE
  5
C51
330
A02
100
AcDbEntity
  8
View046
100
AcDbCircle
 10
898.495
 20
516.587
 40
1.5
  0
CIRCLE
  5
C52
330
A02
100
AcDbEntity
  8
View046
100
AcDbCircle
 10
921.842
 20
282.861
 40
1.5
  0
CIRCLE
  5
C53
330
A02
100
AcDbEntity
  8
View046
100
AcDbCircle
 10
898.494
 20
459.587
 40
1.5
  0
CIRCLE
  5
C54
330
A02
100
AcDbEntity
  8
View046
100
AcDbCircle
 10
1003.84
 20
282.86
 40
1.5
  0
CIRCLE
  5
C55
330
A02
100
AcDbEntity
  8
View046
100
AcDbCircle
 10
1003.84
 20
344.86
 40
1.5
  0
CIRCLE
  5
C56
330
A02
100
AcDbEntity
  8
View046
100
AcDbCircle
 10
1069.19
 20
459.586
 40
1.5
  0
CIRCLE
  5
C57
330
A02
100
AcDbEntity
  8
View046
100
AcDbCircle
 10
1069.19
 20
516.586
 40
1.5
  0
LINE
  5
C58
330
A02
100
AcDbEntity
  8
View046
100
AcDbLine
 10
1041.34
 20
411.617
 30
0
 11
1041.34
 21
409.917
 31
0
  0
SPLINE
  5
C59
330
A02
100
AcDbEntity
  8
View046
100
AcDbSpline
210
0
220
0
230
1
 70
8
 71
2
 72
6
 73
3
 74
0
 40
0
 40
0
 40
0
 40
1
 40
1
 40
1
 10
1041.34
 20
409.917
 30
0
 10
1040.6
 20
410.079
 30
0
 10
1039.84
 20
410.079
 30
0
  0
SPLINE
  5
C5A
330
A02
100
AcDbEntity
  8
View046
100
AcDbSpline
210
0
220
0
230
1
 70
8
 71
2
 72
6
 73
3
 74
0
 40
0
 40
0
 40
0
 40
1
 40
1
 40
1
 10
1039.84
 20
410.079
 30
0
 10
1039.08
 20
410.079
 30
0
 10
1038.34
 20
409.917
 30
0
  0
LINE
  5
C5B
330
A02
100
AcDbEntity
  8
View046
100
AcDbLine
 10
1038.34
 20
411.617
 30
0
 11
1038.34
 21
409.917
 31
0
  0
SPLINE
  5
C5C
330
A02
100
AcDbEntity
  8
View046
100
AcDbSpline
210
0
220
0
230
1
 70
8
 71
2
 72
6
 73
3
 74
0
 40
0
 40
0
 40
0
 40
1
 40
1
 40
1
 10
1039.84
 20
411.748
 30
0
 10
1039.09
 20
411.748
 30
0
 10
1038.34
 20
411.617
 30
0
  0
SPLINE
  5
C5D
330
A02
100
AcDbEntity
  8
View046
100
AcDbSpline
210
0
220
0
230
1
 70
8
 71
2
 72
6
 73
3
 74
0
 40
0
 40
0
 40
0
 40
1
 40
1
 40
1
 10
1041.34
 20
411.617
 30
0
 10
1040.6
 20
411.748
 30
0
 10
1039.84
 20
411.748
 30
0
  0
LINE
  5
C5E
330
A02
100
AcDbEntity
  8
View046
100
AcDbLine
 10
1041.34
 20
391.617
 30
0
 11
1041.34
 21
389.917
 31
0
  0
SPLINE
  5
C5F
330
A02
100
AcDbEntity
  8
View046
100
AcDbSpline
210
0
220
0
230
1
 70
8
 71
2
 72
6
 73
3
 74
0
 40
0
 40
0
 40
0
 40
1
 40
1
 40
1
 10
1041.34
 20
389.917
 30
0
 10
1040.6
 20
390.079
 30
0
 10
1039.84
 20
390.079
 30
0
  0
SPLINE
  5
C60
330
A02
100
AcDbEntity
  8
View046
100
AcDbSpline
210
0
220
0
230
1
 70
8
 71
2
 72
6
 73
3
 74
0
 40
0
 40
0
 40
0
 40
1
 40
1
 40
1
 10
1039.84
 20
390.079
 30
0
 10
1039.08
 20
390.079
 30
0
 10
1038.34
 20
389.917
 30
0
  0
LINE
  5
C61
330
A02
100
AcDbEntity
  8
View046
100
AcDbLine
 10
1038.34
 20
391.617
 30
0
 11
1038.34
 21
389.917
 31
0
  0
SPLINE
  5
C62
330
A02
100
AcDbEntity
  8
View046
100
AcDbSpline
210
0
220
0
230
1
 70
8
 71
2
 72
6
 73
3
 74
0
 40
0
 40
0
 40
0
 40
1
 40
1
 40
1
 10
1039.84
 20
391.748
 30
0
 10
1039.09
 20
391.748
 30
0
 10
1038.34
 20
391.617
 30
0
  0
SPLINE
  5
C63
330
A02
100
AcDbEntity
  8
View046
100
AcDbSpline
210
0
220
0
230
1
 70
8
 71
2
 72
6
 73
3
 74
0
 40
0
 40
0
 40
0
 40
1
 40
1
 40
1
 10
1041.34
 20
391.617
 30
0
 10
1040.6
 20
391.748
 30
0
 10
1039.84
 20
391.748
 30
0
  0
LINE
  5
C64
330
A02
100
AcDbEntity
  8
View046
100
AcDbLine
 10
1041.34
 20
371.617
 30
0
 11
1041.34
 21
369.917
 31
0
  0
SPLINE
  5
C65
330
A02
100
AcDbEntity
  8
View046
100
AcDbSpline
210
0
220
0
230
1
 70
8
 71
2
 72
6
 73
3
 74
0
 40
0
 40
0
 40
0
 40
1
 40
1
 40
1
 10
1041.34
 20
369.917
 30
0
 10
1040.6
 20
370.079
 30
0
 10
1039.84
 20
370.079
 30
0
  0
SPLINE
  5
C66
330
A02
100
AcDbEntity
  8
View046
100
AcDbSpline
210
0
220
0
230
1
 70
8
 71
2
 72
6
 73
3
 74
0
 40
0
 40
0
 40
0
 40
1
 40
1
 40
1
 10
1039.84
 20
370.079
 30
0
 10
1039.08
 20
370.079
 30
0
 10
1038.34
 20
369.917
 30
0
  0
LINE
  5
C67
330
A02
100
AcDbEntity
  8
View046
100
AcDbLine
 10
1038.34
 20
371.617
 30
0
 11
1038.34
 21
369.917
 31
0
  0
SPLINE
  5
C68
330
A02
100
AcDbEntity
  8
View046
100
AcDbSpline
210
0
220
0
230
1
 70
8
 71
2
 72
6
 73
3
 74
0
 40
0
 40
0
 40
0
 40
1
 40
1
 40
1
 10
1039.84
 20
371.748
 30
0
 10
1039.09
 20
371.748
 30
0
 10
1038.34
 20
371.617
 30
0
  0
SPLINE
  5
C69
330
A02
100
AcDbEntity
  8
View046
100
AcDbSpline
210
0
220
0
230
1
 70
8
 71
2
 72
6
 73
3
 74
0
 40
0
 40
0
 40
0
 40
1
 40
1
 40
1
 10
1041.34
 20
371.617
 30
0
 10
1040.6
 20
371.748
 30
0
 10
1039.84
 20
371.748
 30
0
  0
CIRCLE
  5
C6A
330
A02
100
AcDbEntity
  8
View046
100
AcDbCircle
 10
983.84
 20
-12.8271
 40
1.2
  0
CIRCLE
  5
C6B
330
A02
100
AcDbEntity
  8
View046
100
AcDbCircle
 10
983.846
 20
852.766
 40
1.2
  0
LINE
  5
C6C
330
A02
100
AcDbEntity
  8
View046
100
AcDbLine
 10
691.242
 20
349.25
 30
0
 11
691.244
 21
625.222
 31
0
  0
ARC
  5
C6D
330
A02
100
AcDbEntity
  8
View046
100
AcDbCircle
 10
693.244
 20
625.222
 30
0
 40
2
100
AcDbArc
 50
89.9996
 51
180
  0
LINE
  5
C6E
330
A02
100
AcDbEntity
  8
View046
100
AcDbLine
 10
701.63
 20
627.222
 30
0
 11
693.244
 21
627.222
 31
0
  0
ARC
  5
C6F
330
A02
100
AcDbEntity
  8
View046
100
AcDbCircle
 10
701.63
 20
629.222
 30
0
 40
2
100
AcDbArc
 50
-90.0004
 51
-0.00040107
  0
LINE
  5
C70
330
A02
100
AcDbEntity
  8
View046
100
AcDbLine
 10
703.63
 20
652.804
 30
0
 11
703.63
 21
629.222
 31
0
  0
ARC
  5
C71
330
A02
100
AcDbEntity
  8
View046
100
AcDbCircle
 10
705.63
 20
652.804
 30
0
 40
2
100
AcDbArc
 50
120
 51
180
  0
LINE
  5
C72
330
A02
100
AcDbEntity
  8
View046
100
AcDbLine
 10
704.63
 20
654.536
 30
0
 11
710.647
 21
658.01
 31
0
  0
ARC
  5
C73
330
A02
100
AcDbEntity
  8
View046
100
AcDbCircle
 10
711.348
 20
654.072
 30
0
 40
4
100
AcDbArc
 50
29.9996
 51
100.083
  0
LINE
  5
C74
330
A02
100
AcDbEntity
  8
View046
100
AcDbLine
 10
720.662
 20
645.939
 30
0
 11
714.812
 21
656.072
 31
0
  0
ARC
  5
C75
330
A02
100
AcDbEntity
  8
View046
100
AcDbCircle
 10
722.394
 20
646.939
 30
0
 40
2
100
AcDbArc
 50
-150
 51
-60.0004
  0
LINE
  5
C76
330
A02
100
AcDbEntity
  8
View046
100
AcDbLine
 10
727.031
 20
647.307
 30
0
 11
723.394
 21
645.207
 31
0
  0
ARC
  5
C77
330
A02
100
AcDbEntity
  8
View046
100
AcDbCircle
 10
726.031
 20
649.039
 30
0
 40
2
100
AcDbArc
 50
-60.0004
 51
-0.00040107
  0
LINE
  5
C78
330
A02
100
AcDbEntity
  8
View046
100
AcDbLine
 10
728.031
 20
664.859
 30
0
 11
728.031
 21
649.039
 31
0
  0
ARC
  5
C79
330
A02
100
AcDbEntity
  8
View046
100
AcDbCircle
 10
734.031
 20
664.859
 30
0
 40
6
100
AcDbArc
 50
136.234
 51
180
  0
LINE
  5
C7A
330
A02
100
AcDbEntity
  8
View046
100
AcDbLine
 10
729.698
 20
669.009
 30
0
 11
760.011
 21
686.51
 31
0
  0
ARC
  5
C7B
330
A02
100
AcDbEntity
  8
View046
100
AcDbCircle
 10
760.711
 20
682.572
 30
0
 40
4
100
AcDbArc
 50
29.9996
 51
100.083
  0
LINE
  5
C7C
330
A02
100
AcDbEntity
  8
View046
100
AcDbLine
 10
770.025
 20
674.439
 30
0
 11
764.175
 21
684.572
 31
0
  0
ARC
  5
C7D
330
A02
100
AcDbEntity
  8
View046
100
AcDbCircle
 10
771.757
 20
675.439
 30
0
 40
2
100
AcDbArc
 50
-150
 51
-60.0004
  0
LINE
  5
C7E
330
A02
100
AcDbEntity
  8
View046
100
AcDbLine
 10
776.395
 20
675.807
 30
0
 11
772.757
 21
673.707
 31
0
  0
ARC
  5
C7F
330
A02
100
AcDbEntity
  8
View046
100
AcDbCircle
 10
775.395
 20
677.539
 30
0
 40
2
100
AcDbArc
 50
-60.0004
 51
-0.00040107
  0
LINE
  5
C80
330
A02
100
AcDbEntity
  8
View046
100
AcDbLine
 10
777.395
 20
693.358
 30
0
 11
777.395
 21
677.539
 31
0
  0
ARC
  5
C81
330
A02
100
AcDbEntity
  8
View046
100
AcDbCircle
 10
783.395
 20
693.358
 30
0
 40
6
100
AcDbArc
 50
136.234
 51
180
  0
LINE
  5
C82
330
A02
100
AcDbEntity
  8
View046
100
AcDbLine
 10
779.062
 20
697.509
 30
0
 11
789.348
 21
703.448
 31
0
  0
ARC
  5
C83
330
A02
100
AcDbEntity
  8
View046
100
AcDbCircle
 10
790.848
 20
700.849
 30
0
 40
3
100
AcDbArc
 50
89.9996
 51
120
  0
LINE
  5
C84
330
A02
100
AcDbEntity
  8
View046
100
AcDbLine
 10
790.848
 20
703.849
 30
0
 11
865.845
 21
703.849
 31
0
  0
ARC
  5
C85
330
A02
100
AcDbEntity
  8
View046
100
AcDbCircle
 10
865.845
 20
700.849
 30
0
 40
3
100
AcDbArc
 50
-0.00040107
 51
89.9996
  0
LINE
  5
C86
330
A02
100
AcDbEntity
  8
View046
100
AcDbLine
 10
868.845
 20
700.849
 30
0
 11
868.842
 21
349.249
 31
0
  0
ARC
  5
C87
330
A02
100
AcDbEntity
  8
View046
100
AcDbCircle
 10
865.842
 20
349.249
 30
0
 40
3
100
AcDbArc
 50
-90.0004
 51
-0.00040107
  0
LINE
  5
C88
330
A02
100
AcDbEntity
  8
View046
100
AcDbLine
 10
865.842
 20
346.249
 30
0
 11
694.242
 21
346.25
 31
0
  0
ARC
  5
C89
330
A02
100
AcDbEntity
  8
View046
100
AcDbCircle
 10
694.242
 20
349.25
 30
0
 40
3
100
AcDbArc
 50
180
 51
-90.0004
  0
CIRCLE
  5
C8A
330
A02
100
AcDbEntity
  8
View046
100
AcDbCircle
 10
862.542
 20
360.049
 40
1.6
  0
CIRCLE
  5
C8B
330
A02
100
AcDbEntity
  8
View046
100
AcDbCircle
 10
862.543
 20
521.299
 40
1.2
  0
CIRCLE
  5
C8C
330
A02
100
AcDbEntity
  8
View046
100
AcDbCircle
 10
780.042
 20
360.05
 40
1.2
  0
CIRCLE
  5
C8D
330
A02
100
AcDbEntity
  8
View046
100
AcDbCircle
 10
697.542
 20
360.05
 40
1.6
  0
CIRCLE
  5
C8E
330
A02
100
AcDbEntity
  8
View046
100
AcDbCircle
 10
697.543
 20
497.518
 40
1.2
  0
CIRCLE
  5
C8F
330
A02
100
AcDbEntity
  8
View046
100
AcDbCircle
 10
862.544
 20
682.549
 40
1.2
  0
CIRCLE
  5
C90
330
A02
100
AcDbEntity
  8
View046
100
AcDbCircle
 10
827.299
 20
697.549
 40
1.2
  0
CIRCLE
  5
C91
330
A02
100
AcDbEntity
  8
View046
100
AcDbCircle
 10
785.126
 20
693.549
 40
1.2
  0
CIRCLE
  5
C92
330
A02
100
AcDbEntity
  8
View046
100
AcDbCircle
 10
747.83
 20
672.017
 40
1.2
  0
CIRCLE
  5
C93
330
A02
100
AcDbEntity
  8
View046
100
AcDbCircle
 10
697.544
 20
614.985
 40
1.2
  0
CIRCLE
  5
C94
330
A02
100
AcDbEntity
  8
View046
100
AcDbCircle
 10
710.535
 20
650.485
 40
1.2
  0
LINE
  5
C95
330
A02
100
AcDbEntity
  8
View046
100
AcDbLine
 10
868.44
 20
-11.7512
 30
0
 11
868.441
 21
264.221
 31
0
  0
ARC
  5
C96
330
A02
100
AcDbEntity
  8
View046
100
AcDbCircle
 10
866.441
 20
264.221
 30
0
 40
2
100
AcDbArc
 50
-0.00040107
 51
89.9996
  0
LINE
  5
C97
330
A02
100
AcDbEntity
  8
View046
100
AcDbLine
 10
858.056
 20
266.221
 30
0
 11
866.441
 21
266.221
 31
0
  0
ARC
  5
C98
330
A02
100
AcDbEntity
  8
View046
100
AcDbCircle
 10
858.056
 20
268.221
 30
0
 40
2
100
AcDbArc
 50
180
 51
-90.0004
  0
LINE
  5
C99
330
A02
100
AcDbEntity
  8
View046
100
AcDbLine
 10
856.056
 20
291.803
 30
0
 11
856.056
 21
268.221
 31
0
  0
ARC
  5
C9A
330
A02
100
AcDbEntity
  8
View046
100
AcDbCircle
 10
854.056
 20
291.803
 30
0
 40
2
100
AcDbArc
 50
-0.00040107
 51
59.9996
  0
LINE
  5
C9B
330
A02
100
AcDbEntity
  8
View046
100
AcDbLine
 10
855.056
 20
293.535
 30
0
 11
849.039
 21
297.009
 31
0
  0
ARC
  5
C9C
330
A02
100
AcDbEntity
  8
View046
100
AcDbCircle
 10
848.338
 20
293.071
 30
0
 40
4
100
AcDbArc
 50
79.9157
 51
150
  0
LINE
  5
C9D
330
A02
100
AcDbEntity
  8
View046
100
AcDbLine
 10
839.024
 20
284.939
 30
0
 11
844.874
 21
295.071
 31
0
  0
ARC
  5
C9E
330
A02
100
AcDbEntity
  8
View046
100
AcDbCircle
 10
837.292
 20
285.939
 30
0
 40
2
100
AcDbArc
 50
-120
 51
-30.0004
  0
LINE
  5
C9F
330
A02
100
AcDbEntity
  8
View046
100
AcDbLine
 10
832.655
 20
286.307
 30
0
 11
836.292
 21
284.206
 31
0
  0
ARC
  5
CA0
330
A02
100
AcDbEntity
  8
View046
100
AcDbCircle
 10
833.655
 20
288.039
 30
0
 40
2
100
AcDbArc
 50
180
 51
-120
  0
LINE
  5
CA1
330
A02
100
AcDbEntity
  8
View046
100
AcDbLine
 10
831.655
 20
303.858
 30
0
 11
831.655
 21
288.039
 31
0
  0
ARC
  5
CA2
330
A02
100
AcDbEntity
  8
View046
100
AcDbCircle
 10
825.655
 20
303.858
 30
0
 40
6
100
AcDbArc
 50
-0.00040107
 51
43.7657
  0
LINE
  5
CA3
330
A02
100
AcDbEntity
  8
View046
100
AcDbLine
 10
829.988
 20
308.008
 30
0
 11
799.675
 21
325.509
 31
0
  0
ARC
  5
CA4
330
A02
100
AcDbEntity
  8
View046
100
AcDbCircle
 10
798.975
 20
321.571
 30
0
 40
4
100
AcDbArc
 50
79.9157
 51
150
  0
LINE
  5
CA5
330
A02
100
AcDbEntity
  8
View046
100
AcDbLine
 10
789.661
 20
313.439
 30
0
 11
795.511
 21
323.571
 31
0
  0
ARC
  5
CA6
330
A02
100
AcDbEntity
  8
View046
100
AcDbCircle
 10
787.929
 20
314.439
 30
0
 40
2
100
AcDbArc
 50
-120
 51
-30.0004
  0
LINE
  5
CA7
330
A02
100
AcDbEntity
  8
View046
100
AcDbLine
 10
783.291
 20
314.807
 30
0
 11
786.929
 21
312.707
 31
0
  0
ARC
  5
CA8
330
A02
100
AcDbEntity
  8
View046
100
AcDbCircle
 10
784.291
 20
316.539
 30
0
 40
2
100
AcDbArc
 50
180
 51
-120
  0
LINE
  5
CA9
330
A02
100
AcDbEntity
  8
View046
100
AcDbLine
 10
782.292
 20
332.358
 30
0
 11
782.291
 21
316.539
 31
0
  0
ARC
  5
CAA
330
A02
100
AcDbEntity
  8
View046
100
AcDbCircle
 10
776.292
 20
332.358
 30
0
 40
6
100
AcDbArc
 50
-0.00040107
 51
43.7657
  0
LINE
  5
CAB
330
A02
100
AcDbEntity
  8
View046
100
AcDbLine
 10
780.625
 20
336.509
 30
0
 11
770.338
 21
342.448
 31
0
  0
ARC
  5
CAC
330
A02
100
AcDbEntity
  8
View046
100
AcDbCircle
 10
768.838
 20
339.85
 30
0
 40
3
100
AcDbArc
 50
59.9996
 51
89.9996
  0
LINE
  5
CAD
330
A02
100
AcDbEntity
  8
View046
100
AcDbLine
 10
768.838
 20
342.85
 30
0
 11
693.842
 21
342.85
 31
0
  0
ARC
  5
CAE
330
A02
100
AcDbEntity
  8
View046
100
AcDbCircle
 10
693.842
 20
339.85
 30
0
 40
3
100
AcDbArc
 50
89.9996
 51
180
  0
LINE
  5
CAF
330
A02
100
AcDbEntity
  8
View046
100
AcDbLine
 10
690.842
 20
339.85
 30
0
 11
690.84
 21
-11.7499
 31
0
  0
ARC
  5
CB0
330
A02
100
AcDbEntity
  8
View046
100
AcDbCircle
 10
693.84
 20
-11.7499
 30
0
 40
3
100
AcDbArc
 50
180
 51
-90.0004
  0
LINE
  5
CB1
330
A02
100
AcDbEntity
  8
View046
100
AcDbLine
 10
693.839
 20
-14.7499
 30
0
 11
865.439
 21
-14.7512
 31
0
  0
ARC
  5
CB2
330
A02
100
AcDbEntity
  8
View046
100
AcDbCircle
 10
865.44
 20
-11.7512
 30
0
 40
3
100
AcDbArc
 50
-90.0004
 51
-0.00040107
  0
ELLIPSE
  5
CB3
330
A02
100
AcDbEntity
  8
View046
100
AcDbEllipse
 10
697.14
 20
-0.949972
 30
0
 11
1.12e-05
 21
1.6
 31
0
 40
1
 41
0
 42
6.28318
  0
ARC
  5
CB4
330
A02
100
AcDbEntity
  8
View046
100
AcDbCircle
 10
710.489
 20
1.42535
 30
0
 40
2
100
AcDbArc
 50
-165
 51
-75.0004
  0
LINE
  5
CB5
330
A02
100
AcDbEntity
  8
View046
100
AcDbLine
 10
711.007
 20
-0.506504
 30
0
 11
765.099
 21
13.987
 31
0
  0
ARC
  5
CB6
330
A02
100
AcDbEntity
  8
View046
100
AcDbCircle
 10
764.581
 20
15.9188
 30
0
 40
2
100
AcDbArc
 50
-75.0004
 51
14.9996
  0
LINE
  5
CB7
330
A02
100
AcDbEntity
  8
View046
100
AcDbLine
 10
766.513
 20
16.4365
 30
0
 11
764.313
 21
24.6468
 31
0
  0
ARC
  5
CB8
330
A02
100
AcDbEntity
  8
View046
100
AcDbCircle
 10
762.381
 20
24.1292
 30
0
 40
2
100
AcDbArc
 50
14.9996
 51
105
  0
LINE
  5
CB9
330
A02
100
AcDbEntity
  8
View046
100
AcDbLine
 10
707.772
 20
11.5676
 30
0
 11
761.863
 21
26.0611
 31
0
  0
ARC
  5
CBA
330
A02
100
AcDbEntity
  8
View046
100
AcDbCircle
 10
708.289
 20
9.63574
 30
0
 40
2
100
AcDbArc
 50
105
 51
-165
  0
LINE
  5
CBB
330
A02
100
AcDbEntity
  8
View046
100
AcDbLine
 10
708.557
 20
0.907727
 30
0
 11
706.357
 21
9.11811
 31
0
  0
ARC
  5
CBC
330
A02
100
AcDbEntity
  8
View046
100
AcDbCircle
 10
710.489
 20
16.4254
 30
0
 40
2
100
AcDbArc
 50
-165
 51
-75.0004
  0
LINE
  5
CBD
330
A02
100
AcDbEntity
  8
View046
100
AcDbLine
 10
711.007
 20
14.4935
 30
0
 11
765.099
 21
28.987
 31
0
  0
ARC
  5
CBE
330
A02
100
AcDbEntity
  8
View046
100
AcDbCircle
 10
764.581
 20
30.9188
 30
0
 40
2
100
AcDbArc
 50
-75.0004
 51
14.9996
  0
LINE
  5
CBF
330
A02
100
AcDbEntity
  8
View046
100
AcDbLine
 10
766.513
 20
31.4365
 30
0
 11
764.313
 21
39.6468
 31
0
  0
ARC
  5
CC0
330
A02
100
AcDbEntity
  8
View046
100
AcDbCircle
 10
762.381
 20
39.1292
 30
0
 40
2
100
AcDbArc
 50
14.9996
 51
105
  0
LINE
  5
CC1
330
A02
100
AcDbEntity
  8
View046
100
AcDbLine
 10
707.772
 20
26.5676
 30
0
 11
761.864
 21
41.0611
 31
0
  0
ARC
  5
CC2
330
A02
100
AcDbEntity
  8
View046
100
AcDbCircle
 10
708.289
 20
24.6357
 30
0
 40
2
100
AcDbArc
 50
105
 51
-165
  0
LINE
  5
CC3
330
A02
100
AcDbEntity
  8
View046
100
AcDbLine
 10
708.557
 20
15.9077
 30
0
 11
706.357
 21
24.1181
 31
0
  0
ARC
  5
CC4
330
A02
100
AcDbEntity
  8
View046
100
AcDbCircle
 10
710.489
 20
31.4254
 30
0
 40
2
100
AcDbArc
 50
-165
 51
-75.0004
  0
LINE
  5
CC5
330
A02
100
AcDbEntity
  8
View046
100
AcDbLine
 10
711.007
 20
29.4935
 30
0
 11
765.099
 21
43.987
 31
0
  0
ARC
  5
CC6
330
A02
100
AcDbEntity
  8
View046
100
AcDbCircle
 10
764.581
 20
45.9188
 30
0
 40
2
100
AcDbArc
 50
-75.0004
 51
14.9996
  0
LINE
  5
CC7
330
A02
100
AcDbEntity
  8
View046
100
AcDbLine
 10
766.513
 20
46.4365
 30
0
 11
764.313
 21
54.6468
 31
0
  0
ARC
  5
CC8
330
A02
100
AcDbEntity
  8
View046
100
AcDbCircle
 10
762.381
 20
54.1292
 30
0
 40
2
100
AcDbArc
 50
14.9996
 51
105
  0
LINE
  5
CC9
330
A02
100
AcDbEntity
  8
View046
100
AcDbLine
 10
707.772
 20
41.5676
 30
0
 11
761.864
 21
56.0611
 31
0
  0
ARC
  5
CCA
330
A02
100
AcDbEntity
  8
View046
100
AcDbCircle
 10
708.289
 20
39.6357
 30
0
 40
2
100
AcDbArc
 50
105
 51
-165
  0
LINE
  5
CCB
330
A02
100
AcDbEntity
  8
View046
100
AcDbLine
 10
708.557
 20
30.9077
 30
0
 11
706.358
 21
39.1181
 31
0
  0
ARC
  5
CCC
330
A02
100
AcDbEntity
  8
View046
100
AcDbCircle
 10
710.489
 20
46.4254
 30
0
 40
2
100
AcDbArc
 50
-165
 51
-75.0004
  0
LINE
  5
CCD
330
A02
100
AcDbEntity
  8
View046
100
AcDbLine
 10
711.007
 20
44.4935
 30
0
 11
765.099
 21
58.987
 31
0
  0
ARC
  5
CCE
330
A02
100
AcDbEntity
  8
View046
100
AcDbCircle
 10
764.581
 20
60.9188
 30
0
 40
2
100
AcDbArc
 50
-75.0004
 51
14.9996
  0
LINE
  5
CCF
330
A02
100
AcDbEntity
  8
View046
100
AcDbLine
 10
766.513
 20
61.4365
 30
0
 11
764.313
 21
69.6468
 31
0
  0
ARC
  5
CD0
330
A02
100
AcDbEntity
  8
View046
100
AcDbCircle
 10
762.381
 20
69.1292
 30
0
 40
2
100
AcDbArc
 50
14.9996
 51
105
  0
LINE
  5
CD1
330
A02
100
AcDbEntity
  8
View046
100
AcDbLine
 10
707.772
 20
56.5676
 30
0
 11
761.864
 21
71.0611
 31
0
  0
ARC
  5
CD2
330
A02
100
AcDbEntity
  8
View046
100
AcDbCircle
 10
708.289
 20
54.6357
 30
0
 40
2
100
AcDbArc
 50
105
 51
-165
  0
LINE
  5
CD3
330
A02
100
AcDbEntity
  8
View046
100
AcDbLine
 10
708.558
 20
45.9077
 30
0
 11
706.358
 21
54.1181
 31
0
  0
ARC
  5
CD4
330
A02
100
AcDbEntity
  8
View046
100
AcDbCircle
 10
710.489
 20
61.4254
 30
0
 40
2
100
AcDbArc
 50
-165
 51
-75.0004
  0
LINE
  5
CD5
330
A02
100
AcDbEntity
  8
View046
100
AcDbLine
 10
711.007
 20
59.4935
 30
0
 11
765.099
 21
73.987
 31
0
  0
ARC
  5
CD6
330
A02
100
AcDbEntity
  8
View046
100
AcDbCircle
 10
764.581
 20
75.9188
 30
0
 40
2
100
AcDbArc
 50
-75.0004
 51
14.9996
  0
LINE
  5
CD7
330
A02
100
AcDbEntity
  8
View046
100
AcDbLine
 10
766.513
 20
76.4365
 30
0
 11
764.313
 21
84.6468
 31
0
  0
ARC
  5
CD8
330
A02
100
AcDbEntity
  8
View046
100
AcDbCircle
 10
762.382
 20
84.1292
 30
0
 40
2
100
AcDbArc
 50
14.9996
 51
105
  0
LINE
  5
CD9
330
A02
100
AcDbEntity
  8
View046
100
AcDbLine
 10
707.772
 20
71.5676
 30
0
 11
761.864
 21
86.0611
 31
0
  0
ARC
  5
CDA
330
A02
100
AcDbEntity
  8
View046
100
AcDbCircle
 10
708.29
 20
69.6357
 30
0
 40
2
100
AcDbArc
 50
105
 51
-165
  0
LINE
  5
CDB
330
A02
100
AcDbEntity
  8
View046
100
AcDbLine
 10
708.558
 20
60.9077
 30
0
 11
706.358
 21
69.1181
 31
0
  0
ELLIPSE
  5
CDC
330
A02
100
AcDbEntity
  8
View046
100
AcDbEllipse
 10
779.64
 20
-0.95055
 30
0
 11
8.4e-06
 21
1.2
 31
0
 40
1
 41
0
 42
6.28318
  0
CIRCLE
  5
CDD
330
A02
100
AcDbEntity
  8
View046
100
AcDbCircle
 10
773.84
 20
16.0495
 40
1.2
  0
ARC
  5
CDE
330
A02
100
AcDbEntity
  8
View046
100
AcDbCircle
 10
710.49
 20
76.4254
 30
0
 40
2
100
AcDbArc
 50
-165
 51
-75.0004
  0
LINE
  5
CDF
330
A02
100
AcDbEntity
  8
View046
100
AcDbLine
 10
711.007
 20
74.4935
 30
0
 11
765.099
 21
88.987
 31
0
  0
ARC
  5
CE0
330
A02
100
AcDbEntity
  8
View046
100
AcDbCircle
 10
764.582
 20
90.9188
 30
0
 40
2
100
AcDbArc
 50
-75.0004
 51
14.9996
  0
LINE
  5
CE1
330
A02
100
AcDbEntity
  8
View046
100
AcDbLine
 10
766.513
 20
91.4365
 30
0
 11
764.313
 21
99.6468
 31
0
  0
ARC
  5
CE2
330
A02
100
AcDbEntity
  8
View046
100
AcDbCircle
 10
762.382
 20
99.1292
 30
0
 40
2
100
AcDbArc
 50
14.9996
 51
105
  0
LINE
  5
CE3
330
A02
100
AcDbEntity
  8
View046
100
AcDbLine
 10
707.772
 20
86.5676
 30
0
 11
761.864
 21
101.061
 31
0
  0
ARC
  5
CE4
330
A02
100
AcDbEntity
  8
View046
100
AcDbCircle
 10
708.29
 20
84.6357
 30
0
 40
2
100
AcDbArc
 50
105
 51
-165
  0
LINE
  5
CE5
330
A02
100
AcDbEntity
  8
View046
100
AcDbLine
 10
708.558
 20
75.9077
 30
0
 11
706.358
 21
84.1181
 31
0
  0
ARC
  5
CE6
330
A02
100
AcDbEntity
  8
View046
100
AcDbCircle
 10
710.49
 20
91.4254
 30
0
 40
2
100
AcDbArc
 50
-165
 51
-75.0004
  0
LINE
  5
CE7
330
A02
100
AcDbEntity
  8
View046
100
AcDbLine
 10
711.007
 20
89.4935
 30
0
 11
765.099
 21
103.987
 31
0
  0
ARC
  5
CE8
330
A02
100
AcDbEntity
  8
View046
100
AcDbCircle
 10
764.582
 20
105.919
 30
0
 40
2
100
AcDbArc
 50
-75.0004
 51
14.9996
  0
LINE
  5
CE9
330
A02
100
AcDbEntity
  8
View046
100
AcDbLine
 10
766.513
 20
106.436
 30
0
 11
764.314
 21
114.647
 31
0
  0
ARC
  5
CEA
330
A02
100
AcDbEntity
  8
View046
100
AcDbCircle
 10
762.382
 20
114.129
 30
0
 40
2
100
AcDbArc
 50
14.9996
 51
105
  0
LINE
  5
CEB
330
A02
100
AcDbEntity
  8
View046
100
AcDbLine
 10
707.772
 20
101.568
 30
0
 11
761.864
 21
116.061
 31
0
  0
ARC
  5
CEC
330
A02
100
AcDbEntity
  8
View046
100
AcDbCircle
 10
708.29
 20
99.6357
 30
0
 40
2
100
AcDbArc
 50
105
 51
-165
  0
LINE
  5
CED
330
A02
100
AcDbEntity
  8
View046
100
AcDbLine
 10
708.558
 20
90.9077
 30
0
 11
706.358
 21
99.1181
 31
0
  0
ARC
  5
CEE
330
A02
100
AcDbEntity
  8
View046
100
AcDbCircle
 10
710.49
 20
106.425
 30
0
 40
2
100
AcDbArc
 50
-165
 51
-75.0004
  0
LINE
  5
CEF
330
A02
100
AcDbEntity
  8
View046
100
AcDbLine
 10
711.007
 20
104.493
 30
0
 11
765.099
 21
118.987
 31
0
  0
ARC
  5
CF0
330
A02
100
AcDbEntity
  8
View046
100
AcDbCircle
 10
764.582
 20
120.919
 30
0
 40
2
100
AcDbArc
 50
-75.0004
 51
14.9996
  0
LINE
  5
CF1
330
A02
100
AcDbEntity
  8
View046
100
AcDbLine
 10
766.514
 20
121.436
 30
0
 11
764.314
 21
129.647
 31
0
  0
ARC
  5
CF2
330
A02
100
AcDbEntity
  8
View046
100
AcDbCircle
 10
762.382
 20
129.129
 30
0
 40
2
100
AcDbArc
 50
14.9996
 51
105
  0
LINE
  5
CF3
330
A02
100
AcDbEntity
  8
View046
100
AcDbLine
 10
707.772
 20
116.568
 30
0
 11
761.864
 21
131.061
 31
0
  0
ARC
  5
CF4
330
A02
100
AcDbEntity
  8
View046
100
AcDbCircle
 10
708.29
 20
114.636
 30
0
 40
2
100
AcDbArc
 50
105
 51
-165
  0
LINE
  5
CF5
330
A02
100
AcDbEntity
  8
View046
100
AcDbLine
 10
708.558
 20
105.908
 30
0
 11
706.358
 21
114.118
 31
0
  0
ELLIPSE
  5
CF6
330
A02
100
AcDbEntity
  8
View046
100
AcDbEllipse
 10
697.141
 20
160.3
 30
0
 11
8.4e-06
 21
1.2
 31
0
 40
1
 41
0
 42
6.28318
  0
ARC
  5
CF7
330
A02
100
AcDbEntity
  8
View046
100
AcDbCircle
 10
710.49
 20
121.425
 30
0
 40
2
100
AcDbArc
 50
-165
 51
-75.0004
  0
LINE
  5
CF8
330
A02
100
AcDbEntity
  8
View046
100
AcDbLine
 10
711.008
 20
119.493
 30
0
 11
765.099
 21
133.987
 31
0
  0
ARC
  5
CF9
330
A02
100
AcDbEntity
  8
View046
100
AcDbCircle
 10
764.582
 20
135.919
 30
0
 40
2
100
AcDbArc
 50
-75.0004
 51
14.9996
  0
LINE
  5
CFA
330
A02
100
AcDbEntity
  8
View046
100
AcDbLine
 10
766.514
 20
136.436
 30
0
 11
764.314
 21
144.647
 31
0
  0
ARC
  5
CFB
330
A02
100
AcDbEntity
  8
View046
100
AcDbCircle
 10
762.382
 20
144.129
 30
0
 40
2
100
AcDbArc
 50
14.9996
 51
105
  0
LINE
  5
CFC
330
A02
100
AcDbEntity
  8
View046
100
AcDbLine
 10
707.772
 20
131.568
 30
0
 11
761.864
 21
146.061
 31
0
  0
ARC
  5
CFD
330
A02
100
AcDbEntity
  8
View046
100
AcDbCircle
 10
708.29
 20
129.636
 30
0
 40
2
100
AcDbArc
 50
105
 51
-165
  0
LINE
  5
CFE
330
A02
100
AcDbEntity
  8
View046
100
AcDbLine
 10
708.558
 20
120.908
 30
0
 11
706.358
 21
129.118
 31
0
  0
ARC
  5
CFF
330
A02
100
AcDbEntity
  8
View046
100
AcDbCircle
 10
710.49
 20
136.425
 30
0
 40
2
100
AcDbArc
 50
-165
 51
-75.0004
  0
LINE
  5
D00
330
A02
100
AcDbEntity
  8
View046
100
AcDbLine
 10
711.008
 20
134.493
 30
0
 11
765.1
 21
148.987
 31
0
  0
ARC
  5
D01
330
A02
100
AcDbEntity
  8
View046
100
AcDbCircle
 10
764.582
 20
150.919
 30
0
 40
2
100
AcDbArc
 50
-75.0004
 51
14.9996
  0
LINE
  5
D02
330
A02
100
AcDbEntity
  8
View046
100
AcDbLine
 10
766.514
 20
151.436
 30
0
 11
764.314
 21
159.647
 31
0
  0
ARC
  5
D03
330
A02
100
AcDbEntity
  8
View046
100
AcDbCircle
 10
762.382
 20
159.129
 30
0
 40
2
100
AcDbArc
 50
14.9996
 51
105
  0
LINE
  5
D04
330
A02
100
AcDbEntity
  8
View046
100
AcDbLine
 10
707.772
 20
146.568
 30
0
 11
761.864
 21
161.061
 31
0
  0
ARC
  5
D05
330
A02
100
AcDbEntity
  8
View046
100
AcDbCircle
 10
708.29
 20
144.636
 30
0
 40
2
100
AcDbArc
 50
105
 51
-165
  0
LINE
  5
D06
330
A02
100
AcDbEntity
  8
View046
100
AcDbLine
 10
708.558
 20
135.908
 30
0
 11
706.358
 21
144.118
 31
0
  0
ARC
  5
D07
330
A02
100
AcDbEntity
  8
View046
100
AcDbCircle
 10
710.49
 20
151.425
 30
0
 40
2
100
AcDbArc
 50
-165
 51
-75.0004
  0
LINE
  5
D08
330
A02
100
AcDbEntity
  8
View046
100
AcDbLine
 10
711.008
 20
149.493
 30
0
 11
765.1
 21
163.987
 31
0
  0
ARC
  5
D09
330
A02
100
AcDbEntity
  8
View046
100
AcDbCircle
 10
764.582
 20
165.919
 30
0
 40
2
100
AcDbArc
 50
-75.0004
 51
14.9996
  0
LINE
  5
D0A
330
A02
100
AcDbEntity
  8
View046
100
AcDbLine
 10
766.514
 20
166.436
 30
0
 11
764.314
 21
174.647
 31
0
  0
ARC
  5
D0B
330
A02
100
AcDbEntity
  8
View046
100
AcDbCircle
 10
762.382
 20
174.129
 30
0
 40
2
100
AcDbArc
 50
14.9996
 51
105
  0
LINE
  5
D0C
330
A02
100
AcDbEntity
  8
View046
100
AcDbLine
 10
707.773
 20
161.568
 30
0
 11
761.865
 21
176.061
 31
0
  0
ARC
  5
D0D
330
A02
100
AcDbEntity
  8
View046
100
AcDbCircle
 10
708.29
 20
159.636
 30
0
 40
2
100
AcDbArc
 50
105
 51
-165
  0
LINE
  5
D0E
330
A02
100
AcDbEntity
  8
View046
100
AcDbLine
 10
708.558
 20
150.908
 30
0
 11
706.358
 21
159.118
 31
0
  0
CIRCLE
  5
D0F
330
A02
100
AcDbEntity
  8
View046
100
AcDbCircle
 10
773.841
 20
164.049
 40
1.2
  0
ELLIPSE
  5
D10
330
A02
100
AcDbEntity
  8
View046
100
AcDbEllipse
 10
862.14
 20
-0.951127
 30
0
 11
1.12e-05
 21
1.6
 31
0
 40
1
 41
0
 42
6.28318
  0
ELLIPSE
  5
D11
330
A02
100
AcDbEntity
  8
View046
100
AcDbEllipse
 10
862.141
 20
136.516
 30
0
 11
8.4e-06
 21
1.2
 31
0
 40
1
 41
0
 42
6.28318
  0
ARC
  5
D12
330
A02
100
AcDbEntity
  8
View046
100
AcDbCircle
 10
710.49
 20
166.425
 30
0
 40
2
100
AcDbArc
 50
-165
 51
-75.0004
  0
LINE
  5
D13
330
A02
100
AcDbEntity
  8
View046
100
AcDbLine
 10
711.008
 20
164.493
 30
0
 11
765.1
 21
178.987
 31
0
  0
ARC
  5
D14
330
A02
100
AcDbEntity
  8
View046
100
AcDbCircle
 10
764.582
 20
180.919
 30
0
 40
2
100
AcDbArc
 50
-75.0004
 51
14.9996
  0
LINE
  5
D15
330
A02
100
AcDbEntity
  8
View046
100
AcDbLine
 10
766.514
 20
181.436
 30
0
 11
764.314
 21
189.647
 31
0
  0
ARC
  5
D16
330
A02
100
AcDbEntity
  8
View046
100
AcDbCircle
 10
762.382
 20
189.129
 30
0
 40
2
100
AcDbArc
 50
14.9996
 51
105
  0
LINE
  5
D17
330
A02
100
AcDbEntity
  8
View046
100
AcDbLine
 10
707.773
 20
176.568
 30
0
 11
761.865
 21
191.061
 31
0
  0
ARC
  5
D18
330
A02
100
AcDbEntity
  8
View046
100
AcDbCircle
 10
708.29
 20
174.636
 30
0
 40
2
100
AcDbArc
 50
105
 51
-165
  0
LINE
  5
D19
330
A02
100
AcDbEntity
  8
View046
100
AcDbLine
 10
708.558
 20
165.908
 30
0
 11
706.358
 21
174.118
 31
0
  0
ARC
  5
D1A
330
A02
100
AcDbEntity
  8
View046
100
AcDbCircle
 10
710.49
 20
181.425
 30
0
 40
2
100
AcDbArc
 50
-165
 51
-75.0004
  0
LINE
  5
D1B
330
A02
100
AcDbEntity
  8
View046
100
AcDbLine
 10
711.008
 20
179.493
 30
0
 11
765.1
 21
193.987
 31
0
  0
ARC
  5
D1C
330
A02
100
AcDbEntity
  8
View046
100
AcDbCircle
 10
764.582
 20
195.919
 30
0
 40
2
100
AcDbArc
 50
-75.0004
 51
14.9996
  0
LINE
  5
D1D
330
A02
100
AcDbEntity
  8
View046
100
AcDbLine
 10
766.514
 20
196.436
 30
0
 11
764.314
 21
204.647
 31
0
  0
ARC
  5
D1E
330
A02
100
AcDbEntity
  8
View046
100
AcDbCircle
 10
762.382
 20
204.129
 30
0
 40
2
100
AcDbArc
 50
14.9996
 51
105
  0
LINE
  5
D1F
330
A02
100
AcDbEntity
  8
View046
100
AcDbLine
 10
707.773
 20
191.568
 30
0
 11
761.865
 21
206.061
 31
0
  0
ARC
  5
D20
330
A02
100
AcDbEntity
  8
View046
100
AcDbCircle
 10
708.29
 20
189.636
 30
0
 40
2
100
AcDbArc
 50
105
 51
-165
  0
LINE
  5
D21
330
A02
100
AcDbEntity
  8
View046
100
AcDbLine
 10
708.558
 20
180.908
 30
0
 11
706.359
 21
189.118
 31
0
  0
ARC
  5
D22
330
A02
100
AcDbEntity
  8
View046
100
AcDbCircle
 10
710.49
 20
196.425
 30
0
 40
2
100
AcDbArc
 50
-165
 51
-75.0004
  0
LINE
  5
D23
330
A02
100
AcDbEntity
  8
View046
100
AcDbLine
 10
711.008
 20
194.493
 30
0
 11
765.1
 21
208.987
 31
0
  0
ARC
  5
D24
330
A02
100
AcDbEntity
  8
View046
100
AcDbCircle
 10
764.582
 20
210.919
 30
0
 40
2
100
AcDbArc
 50
-75.0004
 51
14.9996
  0
LINE
  5
D25
330
A02
100
AcDbEntity
  8
View046
100
AcDbLine
 10
766.514
 20
211.436
 30
0
 11
764.314
 21
219.647
 31
0
  0
ARC
  5
D26
330
A02
100
AcDbEntity
  8
View046
100
AcDbCircle
 10
762.382
 20
219.129
 30
0
 40
2
100
AcDbArc
 50
14.9996
 51
105
  0
LINE
  5
D27
330
A02
100
AcDbEntity
  8
View046
100
AcDbLine
 10
707.773
 20
206.568
 30
0
 11
761.865
 21
221.061
 31
0
  0
ARC
  5
D28
330
A02
100
AcDbEntity
  8
View046
100
AcDbCircle
 10
708.291
 20
204.636
 30
0
 40
2
100
AcDbArc
 50
105
 51
-165
  0
LINE
  5
D29
330
A02
100
AcDbEntity
  8
View046
100
AcDbLine
 10
708.559
 20
195.908
 30
0
 11
706.359
 21
204.118
 31
0
  0
ARC
  5
D2A
330
A02
100
AcDbEntity
  8
View046
100
AcDbCircle
 10
710.491
 20
211.425
 30
0
 40
2
100
AcDbArc
 50
-165
 51
-75.0004
  0
LINE
  5
D2B
330
A02
100
AcDbEntity
  8
View046
100
AcDbLine
 10
711.008
 20
209.493
 30
0
 11
765.1
 21
223.987
 31
0
  0
ARC
  5
D2C
330
A02
100
AcDbEntity
  8
View046
100
AcDbCircle
 10
764.582
 20
225.919
 30
0
 40
2
100
AcDbArc
 50
-75.0004
 51
14.9996
  0
LINE
  5
D2D
330
A02
100
AcDbEntity
  8
View046
100
AcDbLine
 10
766.514
 20
226.436
 30
0
 11
764.314
 21
234.647
 31
0
  0
ARC
  5
D2E
330
A02
100
AcDbEntity
  8
View046
100
AcDbCircle
 10
762.383
 20
234.129
 30
0
 40
2
100
AcDbArc
 50
14.9996
 51
105
  0
LINE
  5
D2F
330
A02
100
AcDbEntity
  8
View046
100
AcDbLine
 10
707.773
 20
221.568
 30
0
 11
761.865
 21
236.061
 31
0
  0
ARC
  5
D30
330
A02
100
AcDbEntity
  8
View046
100
AcDbCircle
 10
708.291
 20
219.636
 30
0
 40
2
100
AcDbArc
 50
105
 51
-165
  0
LINE
  5
D31
330
A02
100
AcDbEntity
  8
View046
100
AcDbLine
 10
708.559
 20
210.908
 30
0
 11
706.359
 21
219.118
 31
0
  0
ARC
  5
D32
330
A02
100
AcDbEntity
  8
View046
100
AcDbCircle
 10
710.491
 20
226.425
 30
0
 40
2
100
AcDbArc
 50
-165
 51
-75.0004
  0
LINE
  5
D33
330
A02
100
AcDbEntity
  8
View046
100
AcDbLine
 10
711.008
 20
224.493
 30
0
 11
765.1
 21
238.987
 31
0
  0
ARC
  5
D34
330
A02
100
AcDbEntity
  8
View046
100
AcDbCircle
 10
764.583
 20
240.919
 30
0
 40
2
100
AcDbArc
 50
-75.0004
 51
14.9996
  0
LINE
  5
D35
330
A02
100
AcDbEntity
  8
View046
100
AcDbLine
 10
766.514
 20
241.436
 30
0
 11
764.315
 21
249.647
 31
0
  0
ARC
  5
D36
330
A02
100
AcDbEntity
  8
View046
100
AcDbCircle
 10
762.383
 20
249.129
 30
0
 40
2
100
AcDbArc
 50
14.9996
 51
105
  0
LINE
  5
D37
330
A02
100
AcDbEntity
  8
View046
100
AcDbLine
 10
707.773
 20
236.568
 30
0
 11
761.865
 21
251.061
 31
0
  0
ARC
  5
D38
330
A02
100
AcDbEntity
  8
View046
100
AcDbCircle
 10
708.291
 20
234.636
 30
0
 40
2
100
AcDbArc
 50
105
 51
-165
  0
LINE
  5
D39
330
A02
100
AcDbEntity
  8
View046
100
AcDbLine
 10
708.559
 20
225.908
 30
0
 11
706.359
 21
234.118
 31
0
  0
ARC
  5
D3A
330
A02
100
AcDbEntity
  8
View046
100
AcDbCircle
 10
710.491
 20
241.425
 30
0
 40
2
100
AcDbArc
 50
-165
 51
-75.0004
  0
LINE
  5
D3B
330
A02
100
AcDbEntity
  8
View046
100
AcDbLine
 10
711.008
 20
239.493
 30
0
 11
765.1
 21
253.987
 31
0
  0
ARC
  5
D3C
330
A02
100
AcDbEntity
  8
View046
100
AcDbCircle
 10
764.583
 20
255.919
 30
0
 40
2
100
AcDbArc
 50
-75.0004
 51
14.9996
  0
LINE
  5
D3D
330
A02
100
AcDbEntity
  8
View046
100
AcDbLine
 10
766.515
 20
256.436
 30
0
 11
764.315
 21
264.647
 31
0
  0
ARC
  5
D3E
330
A02
100
AcDbEntity
  8
View046
100
AcDbCircle
 10
762.383
 20
264.129
 30
0
 40
2
100
AcDbArc
 50
14.9996
 51
105
  0
LINE
  5
D3F
330
A02
100
AcDbEntity
  8
View046
100
AcDbLine
 10
707.773
 20
251.568
 30
0
 11
761.865
 21
266.061
 31
0
  0
ARC
  5
D40
330
A02
100
AcDbEntity
  8
View046
100
AcDbCircle
 10
708.291
 20
249.636
 30
0
 40
2
100
AcDbArc
 50
105
 51
-165
  0
LINE
  5
D41
330
A02
100
AcDbEntity
  8
View046
100
AcDbLine
 10
708.559
 20
240.908
 30
0
 11
706.359
 21
249.118
 31
0
  0
ELLIPSE
  5
D42
330
A02
100
AcDbEntity
  8
View046
100
AcDbEllipse
 10
697.142
 20
321.55
 30
0
 11
8.4e-06
 21
1.2
 31
0
 40
1
 41
0
 42
6.28318
  0
ELLIPSE
  5
D43
330
A02
100
AcDbEntity
  8
View046
100
AcDbEllipse
 10
732.387
 20
336.55
 30
0
 11
8.4e-06
 21
1.2
 31
0
 40
1
 41
0
 42
6.28318
  0
CIRCLE
  5
D44
330
A02
100
AcDbEntity
  8
View046
100
AcDbCircle
 10
773.842
 20
312.049
 40
1.2
  0
ELLIPSE
  5
D45
330
A02
100
AcDbEntity
  8
View046
100
AcDbEllipse
 10
774.561
 20
332.549
 30
0
 11
8.4e-06
 21
1.2
 31
0
 40
1
 41
0
 42
6.28318
  0
ELLIPSE
  5
D46
330
A02
100
AcDbEntity
  8
View046
100
AcDbEllipse
 10
811.856
 20
311.017
 30
0
 11
8.4e-06
 21
1.2
 31
0
 40
1
 41
0
 42
6.28318
  0
ELLIPSE
  5
D47
330
A02
100
AcDbEntity
  8
View046
100
AcDbEllipse
 10
862.141
 20
253.984
 30
0
 11
8.4e-06
 21
1.2
 31
0
 40
1
 41
0
 42
6.28318
  0
ELLIPSE
  5
D48
330
A02
100
AcDbEntity
  8
View046
100
AcDbEllipse
 10
849.151
 20
289.484
 30
0
 11
8.4e-06
 21
1.2
 31
0
 40
1
 41
0
 42
6.28318
  0
ENDSEC
  0
SECTION
  2
OBJECTS
  0
DICTIONARY
  5
F000
330
0
100
AcDbDictionary
  3
ACAD_GROUP
350
F001
  0
DICTIONARY
  5
F001
330
F000
100
AcDbDictionary
  0
ENDSEC
  0
EOF