999
FreeCAD v0.21 33694 (Git)
  0
SECTION
  2
HEADER
  9
$ACADVER
  1
AC1014
  9
$ACADMAINTVER
 70
     9
  9
$DWGCODEPAGE
  3
ANSI_1252
  9
$TEXTSTYLE
  7
STANDARD
  9
$DIMSTYLE
  2
STANDARD
  9
$DIMTXSTY
  7
STANDARD
  9
$CMLSTYLE
  2
STANDARD
  9
$LUNITS
 70
2
  9
$INSUNITS
 70
4
  9
$PEXTMAX
 10
50
 20
50
 30
50
  9
$PEXTMIN
 10
0
 20
0
 30
0
  9
$HANDSEED
  5
FFFF
  0
ENDSEC
  0
SECTION
  2
CLASSES
  0
CLASS
  1
ACDBDICTIONARYWDFLT
  2
AcDbDictionaryWithDefault
  3
ObjectDBX Classes
 90
        0
280
     0
281
     0
  0
CLASS
  1
XRECORD
  2
AcDbXrecord
  3
ObjectDBX Classes
 90
        0
280
     0
281
     0
  0
CLASS
  1
LWPOLYLINE
  2
AcDbPolyline
  3
ObjectDBX Classes
 90
        0
280
     0
281
     1
  0
ENDSEC
  0
SECTION
  2
TABLES
  0
TABLE
  2
VPORT
  5
20
330
0
100
AcDbSymbolTable
 70
     1
  0
VPORT
  5
21
330
20
100
AcDbSymbolTableRecord
100
AcDbViewportTableRecord
  2
*ACTIVE
 70
     0
  0
ENDTAB
  0
TABLE
  2
LTYPE
  5
22
330
0
100
AcDbSymbolTable
 70
     1
  0
LTYPE
  5
23
330
21
100
AcDbSymbolTableRecord
100
AcDbLinetypeTableRecord
  2
BYBLOCK
 70
     0
  3

 72
    65
 73
     0
 40
0.0
  0
LTYPE
  5
24
330
21
100
AcDbSymbolTableRecord
100
AcDbLinetypeTableRecord
  2
BYLAYER
 70
     0
  3

 72
    65
 73
     0
 40
0.0
  0
LTYPE
  5
25
330
21
100
AcDbSymbolTableRecord
100
AcDbLinetypeTableRecord
  2
CONTINUOUS
 70
     0
  3
Solid line
 72
    65
 73
     0
 40
0.0
  0
ENDTAB
  0
TABLE
  2
LAYER
  5
B44
330
0
100
AcDbSymbolTable
 70
2
  0
LAYER
  5
B45
330
B44
100
AcDbSymbolTableRecord
100
AcDbLayerTableRecord
  2
0
 70
   0
 62
   7
  6
CONTINUOUS
  0
LAYER
  5
B46
330
B44
100
AcDbSymbolTableRecord
100
AcDbLayerTableRecord
  2
View
 70
    0
 62
    7
  6
CONTINUOUS
  0
ENDTAB
  0
TABLE
  2
STYLE
  5
70
330
0
100
AcDbSymbolTable
 70
     2
  0
STYLE
  5
71
330
70
100
AcDbSymbolTableRecord
100
AcDbTextStyleTableRecord
  2
STANDARD
 70
     0
 40
0.0
 41
1.0
 50
0.0
 71
     0
 42
2.5
  3
arial.ttf
  4

  0
STYLE
  5
72
330
70
100
AcDbSymbolTableRecord
100
AcDbTextStyleTableRecord
  2
ANNOTATIVE
 70
     0
 40
0.0
 41
1.0
 50
0.0
 71
     0
 42
2.5
  3
arial.ttf
  4

  0
ENDTAB
  0
TABLE
  2
VIEW
  5
73
330
0
100
AcDbSymbolTable
 70
     0
  0
ENDTAB
  0
TABLE
  2
UCS
  5
74
330
0
100
AcDbSymbolTable
 70
     0
  0
ENDTAB
  0
TABLE
  2
APPID
  5
75
330
0
100
AcDbSymbolTable
 70
     2
  0
APPID
  5
76
330
75
100
AcDbSymbolTableRecord
100
AcDbRegAppTableRecord
  2
ACAD
 70
     0
  0
APPID
  5
77
330
75
100
AcDbSymbolTableRecord
100
AcDbRegAppTableRecord
  2
ACADANNOTATIVE
 70
     0
  0
ENDTAB
  0
TABLE
  2
DIMSTYLE
  5
78
330
0
100
AcDbSymbolTable
 70
     2
  0
DIMSTYLE
105
79
330
78
100
AcDbSymbolTableRecord
100
AcDbDimStyleTableRecord
  2
STANDARD
 70
     0
  3

  4

  5

  6

  7

 40
0.0
 41
2.5
 42
0.625
 43
3.75
 44
1.25
 45
0.0
 46
0.0
 47
0.0
 48
0.0
140
2.5
141
2.5
142
0.0
143
0.03937007874016
144
1.0
145
0.0
146
1.0
147
0.625
 71
     0
 72
     0
 73
     0
 74
     0
 75
     0
 76
     0
 77
     1
 78
     8
170
     0
171
     3
172
     1
173
     0
174
     0
175
     0
176
     0
177
     0
178
     0
270
     2
271
     2
272
     2
273
     2
274
     3
340
71
275
     0
280
     0
281
     0
282
     0
283
     0
284
     8
285
     0
286
     0
287
     3
288
     0
  0
ENDTAB
  0
TABLE
  2
BLOCK_RECORD
  5
A01
330
0
100
AcDbSymbolTable
  70
5
  0
BLOCK_RECORD
  5
A02
330
A01
100
AcDbSymbolTableRecord
100
AcDbBlockTableRecord
  2
*MODEL_SPACE
  0
BLOCK_RECORD
  5
A03
330
A01
100
AcDbSymbolTableRecord
100
AcDbBlockTableRecord
  2
*PAPER_SPACE
  0
ENDTAB
  0
ENDSEC
  0
SECTION
  2
BLOCKS
  0
BLOCK
  5
A04
330
A02
100
AcDbEntity
  8
0
100
AcDbBlockBegin
  2
*MODEL_SPACE
 70
   0
 10
0
 20
0
 30
0
  3
*MODEL_SPACE
  1
 
  0
ENDBLK
  5
A05
330
A02
100
AcDbEntity
  8
0
100
AcDbBlockEnd
  0
BLOCK
  5
A06
330
A03
100
AcDbEntity
 67
1
  8
0
100
AcDbBlockBegin
  2
*PAPER_SPACE
 70
   0
 10
0
 20
0
 30
0
  3
*PAPER_SPACE
  1
 
  0
ENDBLK
  5
A07
330
A03
100
AcDbEntity
 67
    1
  8
0
100
AcDbBlockEnd
  0
ENDSEC
  0
SECTION
  2
ENTITIES
  0
ARC
  5
A08
330
A02
100
AcDbEntity
  8
View
100
AcDbCircle
 10
107.318
 20
46.9996
 30
0
 40
2
100
AcDbArc
 50
-179.999
 51
-89.9995
  0
LINE
  5
A09
330
A02
100
AcDbEntity
  8
View
100
AcDbLine
 10
105.318
 20
52.9996
 30
0
 11
105.318
 21
46.9996
 31
0
  0
ARC
  5
A0A
330
A02
100
AcDbEntity
  8
View
100
AcDbCircle
 10
107.318
 20
52.9996
 30
0
 40
2
100
AcDbArc
 50
90.0005
 51
-179.999
  0
LINE
  5
A0B
330
A02
100
AcDbEntity
  8
View
100
AcDbLine
 10
138.318
 20
54.9999
 30
0
 11
107.318
 21
54.9996
 31
0
  0
ARC
  5
A0C
330
A02
100
AcDbEntity
  8
View
100
AcDbCircle
 10
138.318
 20
52.9999
 30
0
 40
2
100
AcDbArc
 50
0.000515662
 51
90.0005
  0
LINE
  5
A0D
330
A02
100
AcDbEntity
  8
View
100
AcDbLine
 10
140.318
 20
46.9999
 30
0
 11
140.318
 21
52.9999
 31
0
  0
ARC
  5
A0E
330
A02
100
AcDbEntity
  8
View
100
AcDbCircle
 10
138.318
 20
46.9999
 30
0
 40
2
100
AcDbArc
 50
-89.9995
 51
0.000515662
  0
LINE
  5
A0F
330
A02
100
AcDbEntity
  8
View
100
AcDbLine
 10
107.318
 20
44.9996
 30
0
 11
138.318
 21
44.9999
 31
0
  0
CIRCLE
  5
A10
330
A02
100
AcDbEntity
  8
View
100
AcDbCircle
 10
132.818
 20
49.9999
 40
2.2
  0
CIRCLE
  5
A11
330
A02
100
AcDbEntity
  8
View
100
AcDbCircle
 10
112.818
 20
49.9997
 40
2.2
  0
ARC
  5
A12
330
A02
100
AcDbEntity
  8
View
100
AcDbCircle
 10
107.318
 20
57.9996
 30
0
 40
2
100
AcDbArc
 50
-179.999
 51
-89.9995
  0
LINE
  5
A13
330
A02
100
AcDbEntity
  8
View
100
AcDbLine
 10
105.317
 20
63.9996
 30
0
 11
105.318
 21
57.9996
 31
0
  0
ARC
  5
A14
330
A02
100
AcDbEntity
  8
View
100
AcDbCircle
 10
107.317
 20
63.9996
 30
0
 40
2
100
AcDbArc
 50
90.0005
 51
-179.999
  0
LINE
  5
A15
330
A02
100
AcDbEntity
  8
View
100
AcDbLine
 10
138.317
 20
65.9999
 30
0
 11
107.317
 21
65.9996
 31
0
  0
ARC
  5
A16
330
A02
100
AcDbEntity
  8
View
100
AcDbCircle
 10
138.317
 20
63.9999
 30
0
 40
2
100
AcDbArc
 50
0.000515662
 51
90.0005
  0
LINE
  5
A17
330
A02
100
AcDbEntity
  8
View
100
AcDbLine
 10
140.318
 20
57.9999
 30
0
 11
140.317
 21
63.9999
 31
0
  0
ARC
  5
A18
330
A02
100
AcDbEntity
  8
View
100
AcDbCircle
 10
138.318
 20
57.9999
 30
0
 40
2
100
AcDbArc
 50
-89.9995
 51
0.000515662
  0
LINE
  5
A19
330
A02
100
AcDbEntity
  8
View
100
AcDbLine
 10
107.318
 20
55.9996
 30
0
 11
138.318
 21
55.9999
 31
0
  0
CIRCLE
  5
A1A
330
A02
100
AcDbEntity
  8
View
100
AcDbCircle
 10
132.817
 20
60.9999
 40
2.2
  0
CIRCLE
  5
A1B
330
A02
100
AcDbEntity
  8
View
100
AcDbCircle
 10
112.817
 20
60.9997
 40
2.2
  0
ARC
  5
A1C
330
A02
100
AcDbEntity
  8
View
100
AcDbCircle
 10
107.317
 20
68.9996
 30
0
 40
2
100
AcDbArc
 50
-179.999
 51
-89.9995
  0
LINE
  5
A1D
330
A02
100
AcDbEntity
  8
View
100
AcDbLine
 10
105.317
 20
74.9996
 30
0
 11
105.317
 21
68.9996
 31
0
  0
ARC
  5
A1E
330
A02
100
AcDbEntity
  8
View
100
AcDbCircle
 10
107.317
 20
74.9996
 30
0
 40
2
100
AcDbArc
 50
90.0005
 51
-179.999
  0
LINE
  5
A1F
330
A02
100
AcDbEntity
  8
View
100
AcDbLine
 10
138.317
 20
76.9999
 30
0
 11
107.317
 21
76.9996
 31
0
  0
ARC
  5
A20
330
A02
100
AcDbEntity
  8
View
100
AcDbCircle
 10
138.317
 20
74.9999
 30
0
 40
2
100
AcDbArc
 50
0.000515662
 51
90.0005
  0
LINE
  5
A21
330
A02
100
AcDbEntity
  8
View
100
AcDbLine
 10
140.317
 20
68.9999
 30
0
 11
140.317
 21
74.9999
 31
0
  0
ARC
  5
A22
330
A02
100
AcDbEntity
  8
View
100
AcDbCircle
 10
138.317
 20
68.9999
 30
0
 40
2
100
AcDbArc
 50
-89.9995
 51
0.000515662
  0
LINE
  5
A23
330
A02
100
AcDbEntity
  8
View
100
AcDbLine
 10
107.317
 20
66.9996
 30
0
 11
138.317
 21
66.9999
 31
0
  0
CIRCLE
  5
A24
330
A02
100
AcDbEntity
  8
View
100
AcDbCircle
 10
132.817
 20
71.9999
 40
2.2
  0
CIRCLE
  5
A25
330
A02
100
AcDbEntity
  8
View
100
AcDbCircle
 10
112.817
 20
71.9997
 40
2.2
  0
ARC
  5
A26
330
A02
100
AcDbEntity
  8
View
100
AcDbCircle
 10
107.317
 20
79.9996
 30
0
 40
2
100
AcDbArc
 50
-179.999
 51
-89.9995
  0
LINE
  5
A27
330
A02
100
AcDbEntity
  8
View
100
AcDbLine
 10
105.317
 20
85.9996
 30
0
 11
105.317
 21
79.9996
 31
0
  0
ARC
  5
A28
330
A02
100
AcDbEntity
  8
View
100
AcDbCircle
 10
107.317
 20
85.9996
 30
0
 40
2
100
AcDbArc
 50
90.0005
 51
-179.999
  0
LINE
  5
A29
330
A02
100
AcDbEntity
  8
View
100
AcDbLine
 10
138.317
 20
87.9999
 30
0
 11
107.317
 21
87.9996
 31
0
  0
ARC
  5
A2A
330
A02
100
AcDbEntity
  8
View
100
AcDbCircle
 10
138.317
 20
85.9999
 30
0
 40
2
100
AcDbArc
 50
0.000515662
 51
90.0005
  0
LINE
  5
A2B
330
A02
100
AcDbEntity
  8
View
100
AcDbLine
 10
140.317
 20
79.9999
 30
0
 11
140.317
 21
85.9999
 31
0
  0
ARC
  5
A2C
330
A02
100
AcDbEntity
  8
View
100
AcDbCircle
 10
138.317
 20
79.9999
 30
0
 40
2
100
AcDbArc
 50
-89.9995
 51
0.000515662
  0
LINE
  5
A2D
330
A02
100
AcDbEntity
  8
View
100
AcDbLine
 10
107.317
 20
77.9996
 30
0
 11
138.317
 21
77.9999
 31
0
  0
CIRCLE
  5
A2E
330
A02
100
AcDbEntity
  8
View
100
AcDbCircle
 10
132.817
 20
82.9999
 40
2.2
  0
CIRCLE
  5
A2F
330
A02
100
AcDbEntity
  8
View
100
AcDbCircle
 10
112.817
 20
82.9997
 40
2.2
  0
ARC
  5
A30
330
A02
100
AcDbEntity
  8
View
100
AcDbCircle
 10
107.317
 20
90.9996
 30
0
 40
2
100
AcDbArc
 50
-179.999
 51
-89.9995
  0
LINE
  5
A31
330
A02
100
AcDbEntity
  8
View
100
AcDbLine
 10
105.317
 20
96.9996
 30
0
 11
105.317
 21
90.9996
 31
0
  0
ARC
  5
A32
330
A02
100
AcDbEntity
  8
View
100
AcDbCircle
 10
107.317
 20
96.9996
 30
0
 40
2
100
AcDbArc
 50
90.0005
 51
-179.999
  0
LINE
  5
A33
330
A02
100
AcDbEntity
  8
View
100
AcDbLine
 10
138.317
 20
98.9999
 30
0
 11
107.317
 21
98.9996
 31
0
  0
ARC
  5
A34
330
A02
100
AcDbEntity
  8
View
100
AcDbCircle
 10
138.317
 20
96.9999
 30
0
 40
2
100
AcDbArc
 50
0.000515662
 51
90.0005
  0
LINE
  5
A35
330
A02
100
AcDbEntity
  8
View
100
AcDbLine
 10
140.317
 20
90.9999
 30
0
 11
140.317
 21
96.9999
 31
0
  0
ARC
  5
A36
330
A02
100
AcDbEntity
  8
View
100
AcDbCircle
 10
138.317
 20
90.9999
 30
0
 40
2
100
AcDbArc
 50
-89.9995
 51
0.000515662
  0
LINE
  5
A37
330
A02
100
AcDbEntity
  8
View
100
AcDbLine
 10
107.317
 20
88.9996
 30
0
 11
138.317
 21
88.9999
 31
0
  0
CIRCLE
  5
A38
330
A02
100
AcDbEntity
  8
View
100
AcDbCircle
 10
132.817
 20
93.9999
 40
2.2
  0
CIRCLE
  5
A39
330
A02
100
AcDbEntity
  8
View
100
AcDbCircle
 10
112.817
 20
93.9997
 40
2.2
  0
ARC
  5
A3A
330
A02
100
AcDbEntity
  8
View
100
AcDbCircle
 10
107.317
 20
102
 30
0
 40
2
100
AcDbArc
 50
-179.999
 51
-89.9995
  0
LINE
  5
A3B
330
A02
100
AcDbEntity
  8
View
100
AcDbLine
 10
105.317
 20
108
 30
0
 11
105.317
 21
102
 31
0
  0
ARC
  5
A3C
330
A02
100
AcDbEntity
  8
View
100
AcDbCircle
 10
107.317
 20
108
 30
0
 40
2
100
AcDbArc
 50
90.0005
 51
-179.999
  0
LINE
  5
A3D
330
A02
100
AcDbEntity
  8
View
100
AcDbLine
 10
138.317
 20
110
 30
0
 11
107.317
 21
110
 31
0
  0
ARC
  5
A3E
330
A02
100
AcDbEntity
  8
View
100
AcDbCircle
 10
138.317
 20
108
 30
0
 40
2
100
AcDbArc
 50
0.000515662
 51
90.0005
  0
LINE
  5
A3F
330
A02
100
AcDbEntity
  8
View
100
AcDbLine
 10
140.317
 20
102
 30
0
 11
140.317
 21
108
 31
0
  0
ARC
  5
A40
330
A02
100
AcDbEntity
  8
View
100
AcDbCircle
 10
138.317
 20
102
 30
0
 40
2
100
AcDbArc
 50
-89.9995
 51
0.000515662
  0
LINE
  5
A41
330
A02
100
AcDbEntity
  8
View
100
AcDbLine
 10
107.317
 20
99.9996
 30
0
 11
138.317
 21
99.9999
 31
0
  0
CIRCLE
  5
A42
330
A02
100
AcDbEntity
  8
View
100
AcDbCircle
 10
132.817
 20
105
 40
2.2
  0
CIRCLE
  5
A43
330
A02
100
AcDbEntity
  8
View
100
AcDbCircle
 10
112.817
 20
105
 40
2.2
  0
ARC
  5
A44
330
A02
100
AcDbEntity
  8
View
100
AcDbCircle
 10
107.317
 20
113
 30
0
 40
2
100
AcDbArc
 50
-179.999
 51
-89.9995
  0
LINE
  5
A45
330
A02
100
AcDbEntity
  8
View
100
AcDbLine
 10
105.317
 20
119
 30
0
 11
105.317
 21
113
 31
0
  0
ARC
  5
A46
330
A02
100
AcDbEntity
  8
View
100
AcDbCircle
 10
107.317
 20
119
 30
0
 40
2
100
AcDbArc
 50
90.0005
 51
-179.999
  0
LINE
  5
A47
330
A02
100
AcDbEntity
  8
View
100
AcDbLine
 10
138.317
 20
121
 30
0
 11
107.317
 21
121
 31
0
  0
ARC
  5
A48
330
A02
100
AcDbEntity
  8
View
100
AcDbCircle
 10
138.317
 20
119
 30
0
 40
2
100
AcDbArc
 50
0.000515662
 51
90.0005
  0
LINE
  5
A49
330
A02
100
AcDbEntity
  8
View
100
AcDbLine
 10
140.317
 20
113
 30
0
 11
140.317
 21
119
 31
0
  0
ARC
  5
A4A
330
A02
100
AcDbEntity
  8
View
100
AcDbCircle
 10
138.317
 20
113
 30
0
 40
2
100
AcDbArc
 50
-89.9995
 51
0.000515662
  0
LINE
  5
A4B
330
A02
100
AcDbEntity
  8
View
100
AcDbLine
 10
107.317
 20
111
 30
0
 11
138.317
 21
111
 31
0
  0
CIRCLE
  5
A4C
330
A02
100
AcDbEntity
  8
View
100
AcDbCircle
 10
132.817
 20
116
 40
2.2
  0
CIRCLE
  5
A4D
330
A02
100
AcDbEntity
  8
View
100
AcDbCircle
 10
112.817
 20
116
 40
2.2
  0
ARC
  5
A4E
330
A02
100
AcDbEntity
  8
View
100
AcDbCircle
 10
107.317
 20
124
 30
0
 40
2
100
AcDbArc
 50
-179.999
 51
-89.9995
  0
LINE
  5
A4F
330
A02
100
AcDbEntity
  8
View
100
AcDbLine
 10
105.317
 20
130
 30
0
 11
105.317
 21
124
 31
0
  0
ARC
  5
A50
330
A02
100
AcDbEntity
  8
View
100
AcDbCircle
 10
107.317
 20
130
 30
0
 40
2
100
AcDbArc
 50
90.0005
 51
-179.999
  0
LINE
  5
A51
330
A02
100
AcDbEntity
  8
View
100
AcDbLine
 10
138.317
 20
132
 30
0
 11
107.317
 21
132
 31
0
  0
ARC
  5
A52
330
A02
100
AcDbEntity
  8
View
100
AcDbCircle
 10
138.317
 20
130
 30
0
 40
2
100
AcDbArc
 50
0.000515662
 51
90.0005
  0
LINE
  5
A53
330
A02
100
AcDbEntity
  8
View
100
AcDbLine
 10
140.317
 20
124
 30
0
 11
140.317
 21
130
 31
0
  0
ARC
  5
A54
330
A02
100
AcDbEntity
  8
View
100
AcDbCircle
 10
138.317
 20
124
 30
0
 40
2
100
AcDbArc
 50
-89.9995
 51
0.000515662
  0
LINE
  5
A55
330
A02
100
AcDbEntity
  8
View
100
AcDbLine
 10
107.317
 20
122
 30
0
 11
138.317
 21
122
 31
0
  0
CIRCLE
  5
A56
330
A02
100
AcDbEntity
  8
View
100
AcDbCircle
 10
132.817
 20
127
 40
2.2
  0
CIRCLE
  5
A57
330
A02
100
AcDbEntity
  8
View
100
AcDbCircle
 10
112.817
 20
127
 40
2.2
  0
ARC
  5
A58
330
A02
100
AcDbEntity
  8
View
100
AcDbCircle
 10
107.317
 20
135
 30
0
 40
2
100
AcDbArc
 50
-179.999
 51
-89.9995
  0
LINE
  5
A59
330
A02
100
AcDbEntity
  8
View
100
AcDbLine
 10
105.317
 20
141
 30
0
 11
105.317
 21
135
 31
0
  0
ARC
  5
A5A
330
A02
100
AcDbEntity
  8
View
100
AcDbCircle
 10
107.317
 20
141
 30
0
 40
2
100
AcDbArc
 50
90.0005
 51
-179.999
  0
LINE
  5
A5B
330
A02
100
AcDbEntity
  8
View
100
AcDbLine
 10
138.317
 20
143
 30
0
 11
107.317
 21
143
 31
0
  0
ARC
  5
A5C
330
A02
100
AcDbEntity
  8
View
100
AcDbCircle
 10
138.317
 20
141
 30
0
 40
2
100
AcDbArc
 50
0.000515662
 51
90.0005
  0
LINE
  5
A5D
330
A02
100
AcDbEntity
  8
View
100
AcDbLine
 10
140.317
 20
135
 30
0
 11
140.317
 21
141
 31
0
  0
ARC
  5
A5E
330
A02
100
AcDbEntity
  8
View
100
AcDbCircle
 10
138.317
 20
135
 30
0
 40
2
100
AcDbArc
 50
-89.9995
 51
0.000515662
  0
LINE
  5
A5F
330
A02
100
AcDbEntity
  8
View
100
AcDbLine
 10
107.317
 20
133
 30
0
 11
138.317
 21
133
 31
0
  0
CIRCLE
  5
A60
330
A02
100
AcDbEntity
  8
View
100
AcDbCircle
 10
132.817
 20
138
 40
2.2
  0
CIRCLE
  5
A61
330
A02
100
AcDbEntity
  8
View
100
AcDbCircle
 10
112.817
 20
138
 40
2.2
  0
ARC
  5
A62
330
A02
100
AcDbEntity
  8
View
100
AcDbCircle
 10
107.317
 20
146
 30
0
 40
2
100
AcDbArc
 50
-179.999
 51
-89.9995
  0
LINE
  5
A63
330
A02
100
AcDbEntity
  8
View
100
AcDbLine
 10
105.317
 20
152
 30
0
 11
105.317
 21
146
 31
0
  0
ARC
  5
A64
330
A02
100
AcDbEntity
  8
View
100
AcDbCircle
 10
107.317
 20
152
 30
0
 40
2
100
AcDbArc
 50
90.0005
 51
-179.999
  0
LINE
  5
A65
330
A02
100
AcDbEntity
  8
View
100
AcDbLine
 10
138.317
 20
154
 30
0
 11
107.317
 21
154
 31
0
  0
ARC
  5
A66
330
A02
100
AcDbEntity
  8
View
100
AcDbCircle
 10
138.317
 20
152
 30
0
 40
2
100
AcDbArc
 50
0.000515662
 51
90.0005
  0
LINE
  5
A67
330
A02
100
AcDbEntity
  8
View
100
AcDbLine
 10
140.317
 20
146
 30
0
 11
140.317
 21
152
 31
0
  0
ARC
  5
A68
330
A02
100
AcDbEntity
  8
View
100
AcDbCircle
 10
138.317
 20
146
 30
0
 40
2
100
AcDbArc
 50
-89.9995
 51
0.000515662
  0
LINE
  5
A69
330
A02
100
AcDbEntity
  8
View
100
AcDbLine
 10
107.317
 20
144
 30
0
 11
138.317
 21
144
 31
0
  0
CIRCLE
  5
A6A
330
A02
100
AcDbEntity
  8
View
100
AcDbCircle
 10
132.817
 20
149
 40
2.2
  0
CIRCLE
  5
A6B
330
A02
100
AcDbEntity
  8
View
100
AcDbCircle
 10
112.817
 20
149
 40
2.2
  0
ARC
  5
A6C
330
A02
100
AcDbEntity
  8
View
100
AcDbCircle
 10
107.317
 20
157
 30
0
 40
2
100
AcDbArc
 50
-179.999
 51
-89.9995
  0
LINE
  5
A6D
330
A02
100
AcDbEntity
  8
View
100
AcDbLine
 10
105.317
 20
163
 30
0
 11
105.317
 21
157
 31
0
  0
ARC
  5
A6E
330
A02
100
AcDbEntity
  8
View
100
AcDbCircle
 10
107.317
 20
163
 30
0
 40
2
100
AcDbArc
 50
90.0005
 51
-179.999
  0
LINE
  5
A6F
330
A02
100
AcDbEntity
  8
View
100
AcDbLine
 10
138.317
 20
165
 30
0
 11
107.317
 21
165
 31
0
  0
ARC
  5
A70
330
A02
100
AcDbEntity
  8
View
100
AcDbCircle
 10
138.317
 20
163
 30
0
 40
2
100
AcDbArc
 50
0.000515662
 51
90.0005
  0
LINE
  5
A71
330
A02
100
AcDbEntity
  8
View
100
AcDbLine
 10
140.317
 20
157
 30
0
 11
140.317
 21
163
 31
0
  0
ARC
  5
A72
330
A02
100
AcDbEntity
  8
View
100
AcDbCircle
 10
138.317
 20
157
 30
0
 40
2
100
AcDbArc
 50
-89.9995
 51
0.000515662
  0
LINE
  5
A73
330
A02
100
AcDbEntity
  8
View
100
AcDbLine
 10
107.317
 20
155
 30
0
 11
138.317
 21
155
 31
0
  0
CIRCLE
  5
A74
330
A02
100
AcDbEntity
  8
View
100
AcDbCircle
 10
132.817
 20
160
 40
2.2
  0
CIRCLE
  5
A75
330
A02
100
AcDbEntity
  8
View
100
AcDbCircle
 10
112.817
 20
160
 40
2.2
  0
LINE
  5
A76
330
A02
100
AcDbEntity
  8
View
100
AcDbLine
 10
147.268
 20
47.3
 30
0
 11
147.268
 21
47.2
 31
0
  0
ARC
  5
A77
330
A02
100
AcDbEntity
  8
View
100
AcDbCircle
 10
147.068
 20
47.2
 30
0
 40
0.2
100
AcDbArc
 50
-89.9995
 51
0.000515662
  0
LINE
  5
A78
330
A02
100
AcDbEntity
  8
View
100
AcDbLine
 10
147.068
 20
47
 30
0
 11
142.768
 21
46.9999
 31
0
  0
ARC
  5
A79
330
A02
100
AcDbEntity
  8
View
100
AcDbCircle
 10
142.768
 20
47.4999
 30
0
 40
0.5
100
AcDbArc
 50
-179.999
 51
-89.9995
  0
LINE
  5
A7A
330
A02
100
AcDbEntity
  8
View
100
AcDbLine
 10
142.268
 20
52.4999
 30
0
 11
142.268
 21
47.4999
 31
0
  0
ARC
  5
A7B
330
A02
100
AcDbEntity
  8
View
100
AcDbCircle
 10
142.768
 20
52.4999
 30
0
 40
0.5
100
AcDbArc
 50
90.0005
 51
-179.999
  0
LINE
  5
A7C
330
A02
100
AcDbEntity
  8
View
100
AcDbLine
 10
147.068
 20
53
 30
0
 11
142.768
 21
52.9999
 31
0
  0
ARC
  5
A7D
330
A02
100
AcDbEntity
  8
View
100
AcDbCircle
 10
147.068
 20
52.8
 30
0
 40
0.2
100
AcDbArc
 50
0.000515662
 51
90.0005
  0
LINE
  5
A7E
330
A02
100
AcDbEntity
  8
View
100
AcDbLine
 10
147.268
 20
52.7
 30
0
 11
147.268
 21
52.8
 31
0
  0
ARC
  5
A7F
330
A02
100
AcDbEntity
  8
View
100
AcDbCircle
 10
147.468
 20
52.7
 30
0
 40
0.2
100
AcDbArc
 50
-179.999
 51
-89.9995
  0
LINE
  5
A80
330
A02
100
AcDbEntity
  8
View
100
AcDbLine
 10
181.768
 20
52.5003
 30
0
 11
147.468
 21
52.5
 31
0
  0
ARC
  5
A81
330
A02
100
AcDbEntity
  8
View
100
AcDbCircle
 10
181.768
 20
52.0003
 30
0
 40
0.5
100
AcDbArc
 50
0.000515662
 51
90.0005
  0
LINE
  5
A82
330
A02
100
AcDbEntity
  8
View
100
AcDbLine
 10
182.268
 20
48.0003
 30
0
 11
182.268
 21
52.0003
 31
0
  0
ARC
  5
A83
330
A02
100
AcDbEntity
  8
View
100
AcDbCircle
 10
181.768
 20
48.0003
 30
0
 40
0.5
100
AcDbArc
 50
-89.9995
 51
0.000515662
  0
LINE
  5
A84
330
A02
100
AcDbEntity
  8
View
100
AcDbLine
 10
147.468
 20
47.5
 30
0
 11
181.768
 21
47.5003
 31
0
  0
ARC
  5
A85
330
A02
100
AcDbEntity
  8
View
100
AcDbCircle
 10
147.468
 20
47.3
 30
0
 40
0.2
100
AcDbArc
 50
90.0005
 51
-179.999
  0
CIRCLE
  5
A86
330
A02
100
AcDbEntity
  8
View
100
AcDbCircle
 10
176.018
 20
50.0002
 40
1.3
  0
CIRCLE
  5
A87
330
A02
100
AcDbEntity
  8
View
100
AcDbCircle
 10
171.018
 20
50.0002
 40
1.3
  0
CIRCLE
  5
A88
330
A02
100
AcDbEntity
  8
View
100
AcDbCircle
 10
166.018
 20
50.0002
 40
1.3
  0
CIRCLE
  5
A89
330
A02
100
AcDbEntity
  8
View
100
AcDbCircle
 10
161.018
 20
50.0001
 40
1.3
  0
LINE
  5
A8A
330
A02
100
AcDbEntity
  8
View
100
AcDbLine
 10
147.268
 20
54.8
 30
0
 11
147.268
 21
54.7
 31
0
  0
ARC
  5
A8B
330
A02
100
AcDbEntity
  8
View
100
AcDbCircle
 10
147.068
 20
54.7
 30
0
 40
0.2
100
AcDbArc
 50
-89.9995
 51
0.000515662
  0
LINE
  5
A8C
330
A02
100
AcDbEntity
  8
View
100
AcDbLine
 10
147.068
 20
54.5
 30
0
 11
142.768
 21
54.4999
 31
0
  0
ARC
  5
A8D
330
A02
100
AcDbEntity
  8
View
100
AcDbCircle
 10
142.768
 20
54.9999
 30
0
 40
0.5
100
AcDbArc
 50
-179.999
 51
-89.9995
  0
LINE
  5
A8E
330
A02
100
AcDbEntity
  8
View
100
AcDbLine
 10
142.268
 20
59.9999
 30
0
 11
142.268
 21
54.9999
 31
0
  0
ARC
  5
A8F
330
A02
100
AcDbEntity
  8
View
100
AcDbCircle
 10
142.768
 20
59.9999
 30
0
 40
0.5
100
AcDbArc
 50
90.0005
 51
-179.999
  0
LINE
  5
A90
330
A02
100
AcDbEntity
  8
View
100
AcDbLine
 10
147.068
 20
60.5
 30
0
 11
142.768
 21
60.4999
 31
0
  0
ARC
  5
A91
330
A02
100
AcDbEntity
  8
View
100
AcDbCircle
 10
147.068
 20
60.3
 30
0
 40
0.2
100
AcDbArc
 50
0.000515662
 51
90.0005
  0
LINE
  5
A92
330
A02
100
AcDbEntity
  8
View
100
AcDbLine
 10
147.268
 20
60.2
 30
0
 11
147.268
 21
60.3
 31
0
  0
ARC
  5
A93
330
A02
100
AcDbEntity
  8
View
100
AcDbCircle
 10
147.468
 20
60.2
 30
0
 40
0.2
100
AcDbArc
 50
-179.999
 51
-89.9995
  0
LINE
  5
A94
330
A02
100
AcDbEntity
  8
View
100
AcDbLine
 10
181.768
 20
60.0003
 30
0
 11
147.468
 21
60
 31
0
  0
ARC
  5
A95
330
A02
100
AcDbEntity
  8
View
100
AcDbCircle
 10
181.768
 20
59.5003
 30
0
 40
0.5
100
AcDbArc
 50
0.000515662
 51
90.0005
  0
LINE
  5
A96
330
A02
100
AcDbEntity
  8
View
100
AcDbLine
 10
182.268
 20
55.5003
 30
0
 11
182.268
 21
59.5003
 31
0
  0
ARC
  5
A97
330
A02
100
AcDbEntity
  8
View
100
AcDbCircle
 10
181.768
 20
55.5003
 30
0
 40
0.5
100
AcDbArc
 50
-89.9995
 51
0.000515662
  0
LINE
  5
A98
330
A02
100
AcDbEntity
  8
View
100
AcDbLine
 10
147.468
 20
55
 30
0
 11
181.768
 21
55.0003
 31
0
  0
ARC
  5
A99
330
A02
100
AcDbEntity
  8
View
100
AcDbCircle
 10
147.468
 20
54.8
 30
0
 40
0.2
100
AcDbArc
 50
90.0005
 51
-179.999
  0
CIRCLE
  5
A9A
330
A02
100
AcDbEntity
  8
View
100
AcDbCircle
 10
176.018
 20
57.5002
 40
1.3
  0
CIRCLE
  5
A9B
330
A02
100
AcDbEntity
  8
View
100
AcDbCircle
 10
171.018
 20
57.5002
 40
1.3
  0
CIRCLE
  5
A9C
330
A02
100
AcDbEntity
  8
View
100
AcDbCircle
 10
166.018
 20
57.5002
 40
1.3
  0
CIRCLE
  5
A9D
330
A02
100
AcDbEntity
  8
View
100
AcDbCircle
 10
161.018
 20
57.5001
 40
1.3
  0
LINE
  5
A9E
330
A02
100
AcDbEntity
  8
View
100
AcDbLine
 10
147.267
 20
62.3
 30
0
 11
147.267
 21
62.2
 31
0
  0
ARC
  5
A9F
330
A02
100
AcDbEntity
  8
View
100
AcDbCircle
 10
147.067
 20
62.2
 30
0
 40
0.2
100
AcDbArc
 50
-89.9995
 51
0.000515662
  0
LINE
  5
AA0
330
A02
100
AcDbEntity
  8
View
100
AcDbLine
 10
147.067
 20
62
 30
0
 11
142.767
 21
61.9999
 31
0
  0
ARC
  5
AA1
330
A02
100
AcDbEntity
  8
View
100
AcDbCircle
 10
142.767
 20
62.4999
 30
0
 40
0.5
100
AcDbArc
 50
-179.999
 51
-89.9995
  0
LINE
  5
AA2
330
A02
100
AcDbEntity
  8
View
100
AcDbLine
 10
142.267
 20
67.4999
 30
0
 11
142.267
 21
62.4999
 31
0
  0
ARC
  5
AA3
330
A02
100
AcDbEntity
  8
View
100
AcDbCircle
 10
142.767
 20
67.4999
 30
0
 40
0.5
100
AcDbArc
 50
90.0005
 51
-179.999
  0
LINE
  5
AA4
330
A02
100
AcDbEntity
  8
View
100
AcDbLine
 10
147.067
 20
68
 30
0
 11
142.767
 21
67.9999
 31
0
  0
ARC
  5
AA5
330
A02
100
AcDbEntity
  8
View
100
AcDbCircle
 10
147.067
 20
67.8
 30
0
 40
0.2
100
AcDbArc
 50
0.000515662
 51
90.0005
  0
LINE
  5
AA6
330
A02
100
AcDbEntity
  8
View
100
AcDbLine
 10
147.267
 20
67.7
 30
0
 11
147.267
 21
67.8
 31
0
  0
ARC
  5
AA7
330
A02
100
AcDbEntity
  8
View
100
AcDbCircle
 10
147.467
 20
67.7
 30
0
 40
0.2
100
AcDbArc
 50
-179.999
 51
-89.9995
  0
LINE
  5
AA8
330
A02
100
AcDbEntity
  8
View
100
AcDbLine
 10
181.767
 20
67.5003
 30
0
 11
147.467
 21
67.5
 31
0
  0
ARC
  5
AA9
330
A02
100
AcDbEntity
  8
View
100
AcDbCircle
 10
181.767
 20
67.0003
 30
0
 40
0.5
100
AcDbArc
 50
0.000515662
 51
90.0005
  0
LINE
  5
AAA
330
A02
100
AcDbEntity
  8
View
100
AcDbLine
 10
182.267
 20
63.0003
 30
0
 11
182.267
 21
67.0003
 31
0
  0
ARC
  5
AAB
330
A02
100
AcDbEntity
  8
View
100
AcDbCircle
 10
181.767
 20
63.0003
 30
0
 40
0.5
100
AcDbArc
 50
-89.9995
 51
0.000515662
  0
LINE
  5
AAC
330
A02
100
AcDbEntity
  8
View
100
AcDbLine
 10
147.467
 20
62.5
 30
0
 11
181.767
 21
62.5003
 31
0
  0
ARC
  5
AAD
330
A02
100
AcDbEntity
  8
View
100
AcDbCircle
 10
147.467
 20
62.3
 30
0
 40
0.2
100
AcDbArc
 50
90.0005
 51
-179.999
  0
CIRCLE
  5
AAE
330
A02
100
AcDbEntity
  8
View
100
AcDbCircle
 10
176.017
 20
65.0002
 40
1.3
  0
CIRCLE
  5
AAF
330
A02
100
AcDbEntity
  8
View
100
AcDbCircle
 10
171.017
 20
65.0002
 40
1.3
  0
CIRCLE
  5
AB0
330
A02
100
AcDbEntity
  8
View
100
AcDbCircle
 10
166.017
 20
65.0002
 40
1.3
  0
CIRCLE
  5
AB1
330
A02
100
AcDbEntity
  8
View
100
AcDbCircle
 10
161.017
 20
65.0001
 40
1.3
  0
LINE
  5
AB2
330
A02
100
AcDbEntity
  8
View
100
AcDbLine
 10
147.267
 20
69.8
 30
0
 11
147.267
 21
69.7
 31
0
  0
ARC
  5
AB3
330
A02
100
AcDbEntity
  8
View
100
AcDbCircle
 10
147.067
 20
69.7
 30
0
 40
0.2
100
AcDbArc
 50
-89.9995
 51
0.000515662
  0
LINE
  5
AB4
330
A02
100
AcDbEntity
  8
View
100
AcDbLine
 10
147.067
 20
69.5
 30
0
 11
142.767
 21
69.4999
 31
0
  0
ARC
  5
AB5
330
A02
100
AcDbEntity
  8
View
100
AcDbCircle
 10
142.767
 20
69.9999
 30
0
 40
0.5
100
AcDbArc
 50
-179.999
 51
-89.9995
  0
LINE
  5
AB6
330
A02
100
AcDbEntity
  8
View
100
AcDbLine
 10
142.267
 20
74.9999
 30
0
 11
142.267
 21
69.9999
 31
0
  0
ARC
  5
AB7
330
A02
100
AcDbEntity
  8
View
100
AcDbCircle
 10
142.767
 20
74.9999
 30
0
 40
0.5
100
AcDbArc
 50
90.0005
 51
-179.999
  0
LINE
  5
AB8
330
A02
100
AcDbEntity
  8
View
100
AcDbLine
 10
147.067
 20
75.5
 30
0
 11
142.767
 21
75.4999
 31
0
  0
ARC
  5
AB9
330
A02
100
AcDbEntity
  8
View
100
AcDbCircle
 10
147.067
 20
75.3
 30
0
 40
0.2
100
AcDbArc
 50
0.000515662
 51
90.0005
  0
LINE
  5
ABA
330
A02
100
AcDbEntity
  8
View
100
AcDbLine
 10
147.267
 20
75.2
 30
0
 11
147.267
 21
75.3
 31
0
  0
ARC
  5
ABB
330
A02
100
AcDbEntity
  8
View
100
AcDbCircle
 10
147.467
 20
75.2
 30
0
 40
0.2
100
AcDbArc
 50
-179.999
 51
-89.9995
  0
LINE
  5
ABC
330
A02
100
AcDbEntity
  8
View
100
AcDbLine
 10
181.767
 20
75.0003
 30
0
 11
147.467
 21
75
 31
0
  0
ARC
  5
ABD
330
A02
100
AcDbEntity
  8
View
100
AcDbCircle
 10
181.767
 20
74.5003
 30
0
 40
0.5
100
AcDbArc
 50
0.000515662
 51
90.0005
  0
LINE
  5
ABE
330
A02
100
AcDbEntity
  8
View
100
AcDbLine
 10
182.267
 20
70.5003
 30
0
 11
182.267
 21
74.5003
 31
0
  0
ARC
  5
ABF
330
A02
100
AcDbEntity
  8
View
100
AcDbCircle
 10
181.767
 20
70.5003
 30
0
 40
0.5
100
AcDbArc
 50
-89.9995
 51
0.000515662
  0
LINE
  5
AC0
330
A02
100
AcDbEntity
  8
View
100
AcDbLine
 10
147.467
 20
70
 30
0
 11
181.767
 21
70.0003
 31
0
  0
ARC
  5
AC1
330
A02
100
AcDbEntity
  8
View
100
AcDbCircle
 10
147.467
 20
69.8
 30
0
 40
0.2
100
AcDbArc
 50
90.0005
 51
-179.999
  0
CIRCLE
  5
AC2
330
A02
100
AcDbEntity
  8
View
100
AcDbCircle
 10
176.017
 20
72.5002
 40
1.3
  0
CIRCLE
  5
AC3
330
A02
100
AcDbEntity
  8
View
100
AcDbCircle
 10
171.017
 20
72.5002
 40
1.3
  0
CIRCLE
  5
AC4
330
A02
100
AcDbEntity
  8
View
100
AcDbCircle
 10
166.017
 20
72.5002
 40
1.3
  0
CIRCLE
  5
AC5
330
A02
100
AcDbEntity
  8
View
100
AcDbCircle
 10
161.017
 20
72.5001
 40
1.3
  0
LINE
  5
AC6
330
A02
100
AcDbEntity
  8
View
100
AcDbLine
 10
147.267
 20
77.3
 30
0
 11
147.267
 21
77.2
 31
0
  0
ARC
  5
AC7
330
A02
100
AcDbEntity
  8
View
100
AcDbCircle
 10
147.067
 20
77.2
 30
0
 40
0.2
100
AcDbArc
 50
-89.9995
 51
0.000515662
  0
LINE
  5
AC8
330
A02
100
AcDbEntity
  8
View
100
AcDbLine
 10
147.067
 20
77
 30
0
 11
142.767
 21
76.9999
 31
0
  0
ARC
  5
AC9
330
A02
100
AcDbEntity
  8
View
100
AcDbCircle
 10
142.767
 20
77.4999
 30
0
 40
0.5
100
AcDbArc
 50
-179.999
 51
-89.9995
  0
LINE
  5
ACA
330
A02
100
AcDbEntity
  8
View
100
AcDbLine
 10
142.267
 20
82.4999
 30
0
 11
142.267
 21
77.4999
 31
0
  0
ARC
  5
ACB
330
A02
100
AcDbEntity
  8
View
100
AcDbCircle
 10
142.767
 20
82.4999
 30
0
 40
0.5
100
AcDbArc
 50
90.0005
 51
-179.999
  0
LINE
  5
ACC
330
A02
100
AcDbEntity
  8
View
100
AcDbLine
 10
147.067
 20
83
 30
0
 11
142.767
 21
82.9999
 31
0
  0
ARC
  5
ACD
330
A02
100
AcDbEntity
  8
View
100
AcDbCircle
 10
147.067
 20
82.8
 30
0
 40
0.2
100
AcDbArc
 50
0.000515662
 51
90.0005
  0
LINE
  5
ACE
330
A02
100
AcDbEntity
  8
View
100
AcDbLine
 10
147.267
 20
82.7
 30
0
 11
147.267
 21
82.8
 31
0
  0
ARC
  5
ACF
330
A02
100
AcDbEntity
  8
View
100
AcDbCircle
 10
147.467
 20
82.7
 30
0
 40
0.2
100
AcDbArc
 50
-179.999
 51
-89.9995
  0
LINE
  5
AD0
330
A02
100
AcDbEntity
  8
View
100
AcDbLine
 10
181.767
 20
82.5003
 30
0
 11
147.467
 21
82.5
 31
0
  0
ARC
  5
AD1
330
A02
100
AcDbEntity
  8
View
100
AcDbCircle
 10
181.767
 20
82.0003
 30
0
 40
0.5
100
AcDbArc
 50
0.000515662
 51
90.0005
  0
LINE
  5
AD2
330
A02
100
AcDbEntity
  8
View
100
AcDbLine
 10
182.267
 20
78.0003
 30
0
 11
182.267
 21
82.0003
 31
0
  0
ARC
  5
AD3
330
A02
100
AcDbEntity
  8
View
100
AcDbCircle
 10
181.767
 20
78.0003
 30
0
 40
0.5
100
AcDbArc
 50
-89.9995
 51
0.000515662
  0
LINE
  5
AD4
330
A02
100
AcDbEntity
  8
View
100
AcDbLine
 10
147.467
 20
77.5
 30
0
 11
181.767
 21
77.5003
 31
0
  0
ARC
  5
AD5
330
A02
100
AcDbEntity
  8
View
100
AcDbCircle
 10
147.467
 20
77.3
 30
0
 40
0.2
100
AcDbArc
 50
90.0005
 51
-179.999
  0
CIRCLE
  5
AD6
330
A02
100
AcDbEntity
  8
View
100
AcDbCircle
 10
176.017
 20
80.0002
 40
1.3
  0
CIRCLE
  5
AD7
330
A02
100
AcDbEntity
  8
View
100
AcDbCircle
 10
171.017
 20
80.0002
 40
1.3
  0
CIRCLE
  5
AD8
330
A02
100
AcDbEntity
  8
View
100
AcDbCircle
 10
166.017
 20
80.0002
 40
1.3
  0
CIRCLE
  5
AD9
330
A02
100
AcDbEntity
  8
View
100
AcDbCircle
 10
161.017
 20
80.0001
 40
1.3
  0
LINE
  5
ADA
330
A02
100
AcDbEntity
  8
View
100
AcDbLine
 10
147.267
 20
84.8
 30
0
 11
147.267
 21
84.7
 31
0
  0
ARC
  5
ADB
330
A02
100
AcDbEntity
  8
View
100
AcDbCircle
 10
147.067
 20
84.7
 30
0
 40
0.2
100
AcDbArc
 50
-89.9995
 51
0.000515662
  0
LINE
  5
ADC
330
A02
100
AcDbEntity
  8
View
100
AcDbLine
 10
147.067
 20
84.5
 30
0
 11
142.767
 21
84.4999
 31
0
  0
ARC
  5
ADD
330
A02
100
AcDbEntity
  8
View
100
AcDbCircle
 10
142.767
 20
84.9999
 30
0
 40
0.5
100
AcDbArc
 50
-179.999
 51
-89.9995
  0
LINE
  5
ADE
330
A02
100
AcDbEntity
  8
View
100
AcDbLine
 10
142.267
 20
89.9999
 30
0
 11
142.267
 21
84.9999
 31
0
  0
ARC
  5
ADF
330
A02
100
AcDbEntity
  8
View
100
AcDbCircle
 10
142.767
 20
89.9999
 30
0
 40
0.5
100
AcDbArc
 50
90.0005
 51
-179.999
  0
LINE
  5
AE0
330
A02
100
AcDbEntity
  8
View
100
AcDbLine
 10
147.067
 20
90.5
 30
0
 11
142.767
 21
90.4999
 31
0
  0
ARC
  5
AE1
330
A02
100
AcDbEntity
  8
View
100
AcDbCircle
 10
147.067
 20
90.3
 30
0
 40
0.2
100
AcDbArc
 50
0.000515662
 51
90.0005
  0
LINE
  5
AE2
330
A02
100
AcDbEntity
  8
View
100
AcDbLine
 10
147.267
 20
90.2
 30
0
 11
147.267
 21
90.3
 31
0
  0
ARC
  5
AE3
330
A02
100
AcDbEntity
  8
View
100
AcDbCircle
 10
147.467
 20
90.2
 30
0
 40
0.2
100
AcDbArc
 50
-179.999
 51
-89.9995
  0
LINE
  5
AE4
330
A02
100
AcDbEntity
  8
View
100
AcDbLine
 10
181.767
 20
90.0003
 30
0
 11
147.467
 21
90
 31
0
  0
ARC
  5
AE5
330
A02
100
AcDbEntity
  8
View
100
AcDbCircle
 10
181.767
 20
89.5003
 30
0
 40
0.5
100
AcDbArc
 50
0.000515662
 51
90.0005
  0
LINE
  5
AE6
330
A02
100
AcDbEntity
  8
View
100
AcDbLine
 10
182.267
 20
85.5003
 30
0
 11
182.267
 21
89.5003
 31
0
  0
ARC
  5
AE7
330
A02
100
AcDbEntity
  8
View
100
AcDbCircle
 10
181.767
 20
85.5003
 30
0
 40
0.5
100
AcDbArc
 50
-89.9995
 51
0.000515662
  0
LINE
  5
AE8
330
A02
100
AcDbEntity
  8
View
100
AcDbLine
 10
147.467
 20
85
 30
0
 11
181.767
 21
85.0003
 31
0
  0
ARC
  5
AE9
330
A02
100
AcDbEntity
  8
View
100
AcDbCircle
 10
147.467
 20
84.8
 30
0
 40
0.2
100
AcDbArc
 50
90.0005
 51
-179.999
  0
CIRCLE
  5
AEA
330
A02
100
AcDbEntity
  8
View
100
AcDbCircle
 10
176.017
 20
87.5002
 40
1.3
  0
CIRCLE
  5
AEB
330
A02
100
AcDbEntity
  8
View
100
AcDbCircle
 10
171.017
 20
87.5002
 40
1.3
  0
CIRCLE
  5
AEC
330
A02
100
AcDbEntity
  8
View
100
AcDbCircle
 10
166.017
 20
87.5002
 40
1.3
  0
CIRCLE
  5
AED
330
A02
100
AcDbEntity
  8
View
100
AcDbCircle
 10
161.017
 20
87.5001
 40
1.3
  0
LINE
  5
AEE
330
A02
100
AcDbEntity
  8
View
100
AcDbLine
 10
147.267
 20
92.3
 30
0
 11
147.267
 21
92.2
 31
0
  0
ARC
  5
AEF
330
A02
100
AcDbEntity
  8
View
100
AcDbCircle
 10
147.067
 20
92.2
 30
0
 40
0.2
100
AcDbArc
 50
-89.9995
 51
0.000515662
  0
LINE
  5
AF0
330
A02
100
AcDbEntity
  8
View
100
AcDbLine
 10
147.067
 20
92
 30
0
 11
142.767
 21
91.9999
 31
0
  0
ARC
  5
AF1
330
A02
100
AcDbEntity
  8
View
100
AcDbCircle
 10
142.767
 20
92.4999
 30
0
 40
0.5
100
AcDbArc
 50
-179.999
 51
-89.9995
  0
LINE
  5
AF2
330
A02
100
AcDbEntity
  8
View
100
AcDbLine
 10
142.267
 20
97.4999
 30
0
 11
142.267
 21
92.4999
 31
0
  0
ARC
  5
AF3
330
A02
100
AcDbEntity
  8
View
100
AcDbCircle
 10
142.767
 20
97.4999
 30
0
 40
0.5
100
AcDbArc
 50
90.0005
 51
-179.999
  0
LINE
  5
AF4
330
A02
100
AcDbEntity
  8
View
100
AcDbLine
 10
147.067
 20
98
 30
0
 11
142.767
 21
97.9999
 31
0
  0
ARC
  5
AF5
330
A02
100
AcDbEntity
  8
View
100
AcDbCircle
 10
147.067
 20
97.8
 30
0
 40
0.2
100
AcDbArc
 50
0.000515662
 51
90.0005
  0
LINE
  5
AF6
330
A02
100
AcDbEntity
  8
View
100
AcDbLine
 10
147.267
 20
97.7
 30
0
 11
147.267
 21
97.8
 31
0
  0
ARC
  5
AF7
330
A02
100
AcDbEntity
  8
View
100
AcDbCircle
 10
147.467
 20
97.7
 30
0
 40
0.2
100
AcDbArc
 50
-179.999
 51
-89.9995
  0
LINE
  5
AF8
330
A02
100
AcDbEntity
  8
View
100
AcDbLine
 10
181.767
 20
97.5003
 30
0
 11
147.467
 21
97.5
 31
0
  0
ARC
  5
AF9
330
A02
100
AcDbEntity
  8
View
100
AcDbCircle
 10
181.767
 20
97.0003
 30
0
 40
0.5
100
AcDbArc
 50
0.000515662
 51
90.0005
  0
LINE
  5
AFA
330
A02
100
AcDbEntity
  8
View
100
AcDbLine
 10
182.267
 20
93.0003
 30
0
 11
182.267
 21
97.0003
 31
0
  0
ARC
  5
AFB
330
A02
100
AcDbEntity
  8
View
100
AcDbCircle
 10
181.767
 20
93.0003
 30
0
 40
0.5
100
AcDbArc
 50
-89.9995
 51
0.000515662
  0
LINE
  5
AFC
330
A02
100
AcDbEntity
  8
View
100
AcDbLine
 10
147.467
 20
92.5
 30
0
 11
181.767
 21
92.5003
 31
0
  0
ARC
  5
AFD
330
A02
100
AcDbEntity
  8
View
100
AcDbCircle
 10
147.467
 20
92.3
 30
0
 40
0.2
100
AcDbArc
 50
90.0005
 51
-179.999
  0
CIRCLE
  5
AFE
330
A02
100
AcDbEntity
  8
View
100
AcDbCircle
 10
176.017
 20
95.0002
 40
1.3
  0
CIRCLE
  5
AFF
330
A02
100
AcDbEntity
  8
View
100
AcDbCircle
 10
171.017
 20
95.0002
 40
1.3
  0
CIRCLE
  5
B00
330
A02
100
AcDbEntity
  8
View
100
AcDbCircle
 10
166.017
 20
95.0002
 40
1.3
  0
CIRCLE
  5
B01
330
A02
100
AcDbEntity
  8
View
100
AcDbCircle
 10
161.017
 20
95.0001
 40
1.3
  0
ARC
  5
B02
330
A02
100
AcDbEntity
  8
View
100
AcDbCircle
 10
143.817
 20
102
 30
0
 40
2
100
AcDbArc
 50
-179.999
 51
-89.9995
  0
LINE
  5
B03
330
A02
100
AcDbEntity
  8
View
100
AcDbLine
 10
141.817
 20
108
 30
0
 11
141.817
 21
102
 31
0
  0
ARC
  5
B04
330
A02
100
AcDbEntity
  8
View
100
AcDbCircle
 10
143.817
 20
108
 30
0
 40
2
100
AcDbArc
 50
90.0005
 51
-179.999
  0
LINE
  5
B05
330
A02
100
AcDbEntity
  8
View
100
AcDbLine
 10
189.817
 20
110
 30
0
 11
143.817
 21
110
 31
0
  0
ARC
  5
B06
330
A02
100
AcDbEntity
  8
View
100
AcDbCircle
 10
189.817
 20
108
 30
0
 40
2
100
AcDbArc
 50
0.000515662
 51
90.0005
  0
LINE
  5
B07
330
A02
100
AcDbEntity
  8
View
100
AcDbLine
 10
191.817
 20
102
 30
0
 11
191.817
 21
108
 31
0
  0
ARC
  5
B08
330
A02
100
AcDbEntity
  8
View
100
AcDbCircle
 10
189.817
 20
102
 30
0
 40
2
100
AcDbArc
 50
-89.9995
 51
0.000515662
  0
LINE
  5
B09
330
A02
100
AcDbEntity
  8
View
100
AcDbLine
 10
143.817
 20
100
 30
0
 11
189.817
 21
100
 31
0
  0
CIRCLE
  5
B0A
330
A02
100
AcDbEntity
  8
View
100
AcDbCircle
 10
166.817
 20
105
 40
2.2
  0
CIRCLE
  5
B0B
330
A02
100
AcDbEntity
  8
View
100
AcDbCircle
 10
186.817
 20
105
 40
2.2
  0
CIRCLE
  5
B0C
330
A02
100
AcDbEntity
  8
View
100
AcDbCircle
 10
146.817
 20
105
 40
2.2
  0
ARC
  5
B0D
330
A02
100
AcDbEntity
  8
View
100
AcDbCircle
 10
143.817
 20
113
 30
0
 40
2
100
AcDbArc
 50
-179.999
 51
-89.9995
  0
LINE
  5
B0E
330
A02
100
AcDbEntity
  8
View
100
AcDbLine
 10
141.817
 20
119
 30
0
 11
141.817
 21
113
 31
0
  0
ARC
  5
B0F
330
A02
100
AcDbEntity
  8
View
100
AcDbCircle
 10
143.817
 20
119
 30
0
 40
2
100
AcDbArc
 50
90.0005
 51
-179.999
  0
LINE
  5
B10
330
A02
100
AcDbEntity
  8
View
100
AcDbLine
 10
189.817
 20
121
 30
0
 11
143.817
 21
121
 31
0
  0
ARC
  5
B11
330
A02
100
AcDbEntity
  8
View
100
AcDbCircle
 10
189.817
 20
119
 30
0
 40
2
100
AcDbArc
 50
0.000515662
 51
90.0005
  0
LINE
  5
B12
330
A02
100
AcDbEntity
  8
View
100
AcDbLine
 10
191.817
 20
113
 30
0
 11
191.817
 21
119
 31
0
  0
ARC
  5
B13
330
A02
100
AcDbEntity
  8
View
100
AcDbCircle
 10
189.817
 20
113
 30
0
 40
2
100
AcDbArc
 50
-89.9995
 51
0.000515662
  0
LINE
  5
B14
330
A02
100
AcDbEntity
  8
View
100
AcDbLine
 10
143.817
 20
111
 30
0
 11
189.817
 21
111
 31
0
  0
CIRCLE
  5
B15
330
A02
100
AcDbEntity
  8
View
100
AcDbCircle
 10
166.817
 20
116
 40
2.2
  0
CIRCLE
  5
B16
330
A02
100
AcDbEntity
  8
View
100
AcDbCircle
 10
186.817
 20
116
 40
2.2
  0
CIRCLE
  5
B17
330
A02
100
AcDbEntity
  8
View
100
AcDbCircle
 10
146.817
 20
116
 40
2.2
  0
ARC
  5
B18
330
A02
100
AcDbEntity
  8
View
100
AcDbCircle
 10
143.817
 20
124
 30
0
 40
2
100
AcDbArc
 50
-179.999
 51
-89.9995
  0
LINE
  5
B19
330
A02
100
AcDbEntity
  8
View
100
AcDbLine
 10
141.817
 20
130
 30
0
 11
141.817
 21
124
 31
0
  0
ARC
  5
B1A
330
A02
100
AcDbEntity
  8
View
100
AcDbCircle
 10
143.817
 20
130
 30
0
 40
2
100
AcDbArc
 50
90.0005
 51
-179.999
  0
LINE
  5
B1B
330
A02
100
AcDbEntity
  8
View
100
AcDbLine
 10
189.817
 20
132
 30
0
 11
143.817
 21
132
 31
0
  0
ARC
  5
B1C
330
A02
100
AcDbEntity
  8
View
100
AcDbCircle
 10
189.817
 20
130
 30
0
 40
2
100
AcDbArc
 50
0.000515662
 51
90.0005
  0
LINE
  5
B1D
330
A02
100
AcDbEntity
  8
View
100
AcDbLine
 10
191.817
 20
124
 30
0
 11
191.817
 21
130
 31
0
  0
ARC
  5
B1E
330
A02
100
AcDbEntity
  8
View
100
AcDbCircle
 10
189.817
 20
124
 30
0
 40
2
100
AcDbArc
 50
-89.9995
 51
0.000515662
  0
LINE
  5
B1F
330
A02
100
AcDbEntity
  8
View
100
AcDbLine
 10
143.817
 20
122
 30
0
 11
189.817
 21
122
 31
0
  0
CIRCLE
  5
B20
330
A02
100
AcDbEntity
  8
View
100
AcDbCircle
 10
166.817
 20
127
 40
2.2
  0
CIRCLE
  5
B21
330
A02
100
AcDbEntity
  8
View
100
AcDbCircle
 10
186.817
 20
127
 40
2.2
  0
CIRCLE
  5
B22
330
A02
100
AcDbEntity
  8
View
100
AcDbCircle
 10
146.817
 20
127
 40
2.2
  0
ARC
  5
B23
330
A02
100
AcDbEntity
  8
View
100
AcDbCircle
 10
143.817
 20
135
 30
0
 40
2
100
AcDbArc
 50
-179.999
 51
-89.9995
  0
LINE
  5
B24
330
A02
100
AcDbEntity
  8
View
100
AcDbLine
 10
141.817
 20
141
 30
0
 11
141.817
 21
135
 31
0
  0
ARC
  5
B25
330
A02
100
AcDbEntity
  8
View
100
AcDbCircle
 10
143.817
 20
141
 30
0
 40
2
100
AcDbArc
 50
90.0005
 51
-179.999
  0
LINE
  5
B26
330
A02
100
AcDbEntity
  8
View
100
AcDbLine
 10
189.817
 20
143
 30
0
 11
143.817
 21
143
 31
0
  0
ARC
  5
B27
330
A02
100
AcDbEntity
  8
View
100
AcDbCircle
 10
189.817
 20
141
 30
0
 40
2
100
AcDbArc
 50
0.000515662
 51
90.0005
  0
LINE
  5
B28
330
A02
100
AcDbEntity
  8
View
100
AcDbLine
 10
191.817
 20
135
 30
0
 11
191.817
 21
141
 31
0
  0
ARC
  5
B29
330
A02
100
AcDbEntity
  8
View
100
AcDbCircle
 10
189.817
 20
135
 30
0
 40
2
100
AcDbArc
 50
-89.9995
 51
0.000515662
  0
LINE
  5
B2A
330
A02
100
AcDbEntity
  8
View
100
AcDbLine
 10
143.817
 20
133
 30
0
 11
189.817
 21
133
 31
0
  0
CIRCLE
  5
B2B
330
A02
100
AcDbEntity
  8
View
100
AcDbCircle
 10
166.817
 20
138
 40
2.2
  0
CIRCLE
  5
B2C
330
A02
100
AcDbEntity
  8
View
100
AcDbCircle
 10
186.817
 20
138
 40
2.2
  0
CIRCLE
  5
B2D
330
A02
100
AcDbEntity
  8
View
100
AcDbCircle
 10
146.817
 20
138
 40
2.2
  0
ARC
  5
B2E
330
A02
100
AcDbEntity
  8
View
100
AcDbCircle
 10
143.817
 20
146
 30
0
 40
2
100
AcDbArc
 50
-179.999
 51
-89.9995
  0
LINE
  5
B2F
330
A02
100
AcDbEntity
  8
View
100
AcDbLine
 10
141.817
 20
152
 30
0
 11
141.817
 21
146
 31
0
  0
ARC
  5
B30
330
A02
100
AcDbEntity
  8
View
100
AcDbCircle
 10
143.817
 20
152
 30
0
 40
2
100
AcDbArc
 50
90.0005
 51
-179.999
  0
LINE
  5
B31
330
A02
100
AcDbEntity
  8
View
100
AcDbLine
 10
189.817
 20
154
 30
0
 11
143.817
 21
154
 31
0
  0
ARC
  5
B32
330
A02
100
AcDbEntity
  8
View
100
AcDbCircle
 10
189.817
 20
152
 30
0
 40
2
100
AcDbArc
 50
0.000515662
 51
90.0005
  0
LINE
  5
B33
330
A02
100
AcDbEntity
  8
View
100
AcDbLine
 10
191.817
 20
146
 30
0
 11
191.817
 21
152
 31
0
  0
ARC
  5
B34
330
A02
100
AcDbEntity
  8
View
100
AcDbCircle
 10
189.817
 20
146
 30
0
 40
2
100
AcDbArc
 50
-89.9995
 51
0.000515662
  0
LINE
  5
B35
330
A02
100
AcDbEntity
  8
View
100
AcDbLine
 10
143.817
 20
144
 30
0
 11
189.817
 21
144
 31
0
  0
CIRCLE
  5
B36
330
A02
100
AcDbEntity
  8
View
100
AcDbCircle
 10
166.817
 20
149
 40
2.2
  0
CIRCLE
  5
B37
330
A02
100
AcDbEntity
  8
View
100
AcDbCircle
 10
186.817
 20
149
 40
2.2
  0
CIRCLE
  5
B38
330
A02
100
AcDbEntity
  8
View
100
AcDbCircle
 10
146.817
 20
149
 40
2.2
  0
ARC
  5
B39
330
A02
100
AcDbEntity
  8
View
100
AcDbCircle
 10
143.817
 20
157
 30
0
 40
2
100
AcDbArc
 50
-179.999
 51
-89.9995
  0
LINE
  5
B3A
330
A02
100
AcDbEntity
  8
View
100
AcDbLine
 10
141.817
 20
163
 30
0
 11
141.817
 21
157
 31
0
  0
ARC
  5
B3B
330
A02
100
AcDbEntity
  8
View
100
AcDbCircle
 10
143.817
 20
163
 30
0
 40
2
100
AcDbArc
 50
90.0005
 51
-179.999
  0
LINE
  5
B3C
330
A02
100
AcDbEntity
  8
View
100
AcDbLine
 10
189.817
 20
165
 30
0
 11
143.817
 21
165
 31
0
  0
ARC
  5
B3D
330
A02
100
AcDbEntity
  8
View
100
AcDbCircle
 10
189.817
 20
163
 30
0
 40
2
100
AcDbArc
 50
0.000515662
 51
90.0005
  0
LINE
  5
B3E
330
A02
100
AcDbEntity
  8
View
100
AcDbLine
 10
191.817
 20
157
 30
0
 11
191.817
 21
163
 31
0
  0
ARC
  5
B3F
330
A02
100
AcDbEntity
  8
View
100
AcDbCircle
 10
189.817
 20
157
 30
0
 40
2
100
AcDbArc
 50
-89.9995
 51
0.000515662
  0
LINE
  5
B40
330
A02
100
AcDbEntity
  8
View
100
AcDbLine
 10
143.817
 20
155
 30
0
 11
189.817
 21
155
 31
0
  0
CIRCLE
  5
B41
330
A02
100
AcDbEntity
  8
View
100
AcDbCircle
 10
166.817
 20
160
 40
2.2
  0
CIRCLE
  5
B42
330
A02
100
AcDbEntity
  8
View
100
AcDbCircle
 10
186.817
 20
160
 40
2.2
  0
CIRCLE
  5
B43
330
A02
100
AcDbEntity
  8
View
100
AcDbCircle
 10
146.817
 20
160
 40
2.2
  0
ENDSEC
  0
SECTION
  2
OBJECTS
  0
DICTIONARY
  5
F000
330
0
100
AcDbDictionary
  3
ACAD_GROUP
350
F001
  0
DICTIONARY
  5
F001
330
F000
100
AcDbDictionary
  0
ENDSEC
  0
EOF