%TF.GenerationSoftware,KiCad,Pcbnew,7.0.11-7.0.11~ubuntu22.04.1*%
%TF.CreationDate,2024-03-11T04:50:30+03:00*%
%TF.ProjectId,MSConn,4d53436f-6e6e-42e6-9b69-6361645f7063,rev?*%
%TF.SameCoordinates,PX5f5e100PY5f5e100*%
%TF.FileFunction,AssemblyDrawing,Bot*%
%FSLAX46Y46*%
G04 Gerber Fmt 4.6, Leading zero omitted, Abs format (unit mm)*
G04 Created by KiCad (PCBNEW 7.0.11-7.0.11~ubuntu22.04.1) date 2024-03-11 04:50:30*
%MOMM*%
%LPD*%
G01*
G04 APERTURE LIST*
%ADD10C,0.150000*%
%ADD11C,0.100000*%
G04 APERTURE END LIST*
D10*
X32162319Y50827024D02*
X32876604Y50827024D01*
X32876604Y50827024D02*
X33019461Y50874643D01*
X33019461Y50874643D02*
X33114700Y50969881D01*
X33114700Y50969881D02*
X33162319Y51112738D01*
X33162319Y51112738D02*
X33162319Y51207976D01*
X33162319Y49827024D02*
X33162319Y50398452D01*
X33162319Y50112738D02*
X32162319Y50112738D01*
X32162319Y50112738D02*
X32305176Y50207976D01*
X32305176Y50207976D02*
X32400414Y50303214D01*
X32400414Y50303214D02*
X32448033Y50398452D01*
X32162319Y49493690D02*
X32162319Y48874643D01*
X32162319Y48874643D02*
X32543271Y49207976D01*
X32543271Y49207976D02*
X32543271Y49065119D01*
X32543271Y49065119D02*
X32590890Y48969881D01*
X32590890Y48969881D02*
X32638509Y48922262D01*
X32638509Y48922262D02*
X32733747Y48874643D01*
X32733747Y48874643D02*
X32971842Y48874643D01*
X32971842Y48874643D02*
X33067080Y48922262D01*
X33067080Y48922262D02*
X33114700Y48969881D01*
X33114700Y48969881D02*
X33162319Y49065119D01*
X33162319Y49065119D02*
X33162319Y49350833D01*
X33162319Y49350833D02*
X33114700Y49446071D01*
X33114700Y49446071D02*
X33067080Y49493690D01*
X40617972Y66490874D02*
X41332257Y66490874D01*
X41332257Y66490874D02*
X41475114Y66538493D01*
X41475114Y66538493D02*
X41570353Y66633731D01*
X41570353Y66633731D02*
X41617972Y66776588D01*
X41617972Y66776588D02*
X41617972Y66871826D01*
X41617972Y65490874D02*
X41617972Y66062302D01*
X41617972Y65776588D02*
X40617972Y65776588D01*
X40617972Y65776588D02*
X40760829Y65871826D01*
X40760829Y65871826D02*
X40856067Y65967064D01*
X40856067Y65967064D02*
X40903686Y66062302D01*
X40617972Y64871826D02*
X40617972Y64776588D01*
X40617972Y64776588D02*
X40665591Y64681350D01*
X40665591Y64681350D02*
X40713210Y64633731D01*
X40713210Y64633731D02*
X40808448Y64586112D01*
X40808448Y64586112D02*
X40998924Y64538493D01*
X40998924Y64538493D02*
X41237019Y64538493D01*
X41237019Y64538493D02*
X41427495Y64586112D01*
X41427495Y64586112D02*
X41522733Y64633731D01*
X41522733Y64633731D02*
X41570353Y64681350D01*
X41570353Y64681350D02*
X41617972Y64776588D01*
X41617972Y64776588D02*
X41617972Y64871826D01*
X41617972Y64871826D02*
X41570353Y64967064D01*
X41570353Y64967064D02*
X41522733Y65014683D01*
X41522733Y65014683D02*
X41427495Y65062302D01*
X41427495Y65062302D02*
X41237019Y65109921D01*
X41237019Y65109921D02*
X40998924Y65109921D01*
X40998924Y65109921D02*
X40808448Y65062302D01*
X40808448Y65062302D02*
X40713210Y65014683D01*
X40713210Y65014683D02*
X40665591Y64967064D01*
X40665591Y64967064D02*
X40617972Y64871826D01*
X34654819Y34540874D02*
X35369104Y34540874D01*
X35369104Y34540874D02*
X35511961Y34588493D01*
X35511961Y34588493D02*
X35607200Y34683731D01*
X35607200Y34683731D02*
X35654819Y34826588D01*
X35654819Y34826588D02*
X35654819Y34921826D01*
X35654819Y33540874D02*
X35654819Y34112302D01*
X35654819Y33826588D02*
X34654819Y33826588D01*
X34654819Y33826588D02*
X34797676Y33921826D01*
X34797676Y33921826D02*
X34892914Y34017064D01*
X34892914Y34017064D02*
X34940533Y34112302D01*
X34654819Y32636112D02*
X34654819Y33112302D01*
X34654819Y33112302D02*
X35131009Y33159921D01*
X35131009Y33159921D02*
X35083390Y33112302D01*
X35083390Y33112302D02*
X35035771Y33017064D01*
X35035771Y33017064D02*
X35035771Y32778969D01*
X35035771Y32778969D02*
X35083390Y32683731D01*
X35083390Y32683731D02*
X35131009Y32636112D01*
X35131009Y32636112D02*
X35226247Y32588493D01*
X35226247Y32588493D02*
X35464342Y32588493D01*
X35464342Y32588493D02*
X35559580Y32636112D01*
X35559580Y32636112D02*
X35607200Y32683731D01*
X35607200Y32683731D02*
X35654819Y32778969D01*
X35654819Y32778969D02*
X35654819Y33017064D01*
X35654819Y33017064D02*
X35607200Y33112302D01*
X35607200Y33112302D02*
X35559580Y33159921D01*
X34654819Y56340874D02*
X35369104Y56340874D01*
X35369104Y56340874D02*
X35511961Y56388493D01*
X35511961Y56388493D02*
X35607200Y56483731D01*
X35607200Y56483731D02*
X35654819Y56626588D01*
X35654819Y56626588D02*
X35654819Y56721826D01*
X35654819Y55340874D02*
X35654819Y55912302D01*
X35654819Y55626588D02*
X34654819Y55626588D01*
X34654819Y55626588D02*
X34797676Y55721826D01*
X34797676Y55721826D02*
X34892914Y55817064D01*
X34892914Y55817064D02*
X34940533Y55912302D01*
X34750057Y54959921D02*
X34702438Y54912302D01*
X34702438Y54912302D02*
X34654819Y54817064D01*
X34654819Y54817064D02*
X34654819Y54578969D01*
X34654819Y54578969D02*
X34702438Y54483731D01*
X34702438Y54483731D02*
X34750057Y54436112D01*
X34750057Y54436112D02*
X34845295Y54388493D01*
X34845295Y54388493D02*
X34940533Y54388493D01*
X34940533Y54388493D02*
X35083390Y54436112D01*
X35083390Y54436112D02*
X35654819Y55007540D01*
X35654819Y55007540D02*
X35654819Y54388493D01*
X34629819Y45440874D02*
X35344104Y45440874D01*
X35344104Y45440874D02*
X35486961Y45488493D01*
X35486961Y45488493D02*
X35582200Y45583731D01*
X35582200Y45583731D02*
X35629819Y45726588D01*
X35629819Y45726588D02*
X35629819Y45821826D01*
X35629819Y44440874D02*
X35629819Y45012302D01*
X35629819Y44726588D02*
X34629819Y44726588D01*
X34629819Y44726588D02*
X34772676Y44821826D01*
X34772676Y44821826D02*
X34867914Y44917064D01*
X34867914Y44917064D02*
X34915533Y45012302D01*
X34963152Y43583731D02*
X35629819Y43583731D01*
X34582200Y43821826D02*
X35296485Y44059921D01*
X35296485Y44059921D02*
X35296485Y43440874D01*
X23854819Y73009524D02*
X24569104Y73009524D01*
X24569104Y73009524D02*
X24711961Y73057143D01*
X24711961Y73057143D02*
X24807200Y73152381D01*
X24807200Y73152381D02*
X24854819Y73295238D01*
X24854819Y73295238D02*
X24854819Y73390476D01*
X24854819Y72009524D02*
X24854819Y72580952D01*
X24854819Y72295238D02*
X23854819Y72295238D01*
X23854819Y72295238D02*
X23997676Y72390476D01*
X23997676Y72390476D02*
X24092914Y72485714D01*
X24092914Y72485714D02*
X24140533Y72580952D01*
X24854819Y71057143D02*
X24854819Y71628571D01*
X24854819Y71342857D02*
X23854819Y71342857D01*
X23854819Y71342857D02*
X23997676Y71438095D01*
X23997676Y71438095D02*
X24092914Y71533333D01*
X24092914Y71533333D02*
X24140533Y71628571D01*
D11*
%TO.C,J13*%
X32657500Y43567500D02*
X33907500Y43567500D01*
X33907500Y43567500D02*
X33907500Y45567500D01*
X26157500Y44067500D02*
X26157500Y55967500D01*
X33407500Y44067500D02*
X26157500Y44067500D01*
X26157500Y55967500D02*
X33407500Y55967500D01*
X33407500Y55967500D02*
X33407500Y44067500D01*
%TO.C,J10*%
X41113153Y60981350D02*
X42363153Y60981350D01*
X42363153Y60981350D02*
X42363153Y62981350D01*
X34613153Y61481350D02*
X34613153Y69881350D01*
X41863153Y61481350D02*
X34613153Y61481350D01*
X34613153Y69881350D02*
X41863153Y69881350D01*
X41863153Y69881350D02*
X41863153Y61481350D01*
%TO.C,J15*%
X34500000Y28781350D02*
X34500000Y38681350D01*
X40250000Y28781350D02*
X34500000Y28781350D01*
X40250000Y30606350D02*
X39250000Y31231350D01*
X39250000Y31231350D02*
X40250000Y31856350D01*
X34500000Y38681350D02*
X40250000Y38681350D01*
X40250000Y38681350D02*
X40250000Y28781350D01*
%TO.C,J12*%
X34500000Y50581350D02*
X34500000Y60481350D01*
X40250000Y50581350D02*
X34500000Y50581350D01*
X40250000Y52406350D02*
X39250000Y53031350D01*
X39250000Y53031350D02*
X40250000Y53656350D01*
X34500000Y60481350D02*
X40250000Y60481350D01*
X40250000Y60481350D02*
X40250000Y50581350D01*
%TO.C,J14*%
X34475000Y39681350D02*
X34475000Y49581350D01*
X40225000Y39681350D02*
X34475000Y39681350D01*
X40225000Y41506350D02*
X39225000Y42131350D01*
X39225000Y42131350D02*
X40225000Y42756350D01*
X34475000Y49581350D02*
X40225000Y49581350D01*
X40225000Y49581350D02*
X40225000Y39681350D01*
%TO.C,J11*%
X17813153Y59481350D02*
X17813153Y76881350D01*
X23563153Y59481350D02*
X17813153Y59481350D01*
X23563153Y61306350D02*
X22563153Y61931350D01*
X22563153Y61931350D02*
X23563153Y62556350D01*
X17813153Y76881350D02*
X23563153Y76881350D01*
X23563153Y76881350D02*
X23563153Y59481350D01*
%TD*%
M02*
