%TF.GenerationSoftware,KiCad,Pcbnew,7.0.11-7.0.11~ubuntu22.04.1*%
%TF.CreationDate,2024-03-11T04:50:29+03:00*%
%TF.ProjectId,MSConn,4d53436f-6e6e-42e6-9b69-6361645f7063,rev?*%
%TF.SameCoordinates,PX5f5e100PY5f5e100*%
%TF.FileFunction,Soldermask,Top*%
%TF.FilePolarity,Negative*%
%FSLAX46Y46*%
G04 Gerber Fmt 4.6, Leading zero omitted, Abs format (unit mm)*
G04 Created by KiCad (PCBNEW 7.0.11-7.0.11~ubuntu22.04.1) date 2024-03-11 04:50:29*
%MOMM*%
%LPD*%
G01*
G04 APERTURE LIST*
G04 Aperture macros list*
%AMRoundRect*
0 Rectangle with rounded corners*
0 $1 Rounding radius*
0 $2 $3 $4 $5 $6 $7 $8 $9 X,Y pos of 4 corners*
0 Add a 4 corners polygon primitive as box body*
4,1,4,$2,$3,$4,$5,$6,$7,$8,$9,$2,$3,0*
0 Add four circle primitives for the rounded corners*
1,1,$1+$1,$2,$3*
1,1,$1+$1,$4,$5*
1,1,$1+$1,$6,$7*
1,1,$1+$1,$8,$9*
0 Add four rect primitives between the rounded corners*
20,1,$1+$1,$2,$3,$4,$5,0*
20,1,$1+$1,$4,$5,$6,$7,0*
20,1,$1+$1,$6,$7,$8,$9,0*
20,1,$1+$1,$8,$9,$2,$3,0*%
G04 Aperture macros list end*
%ADD10RoundRect,0.200000X-0.275000X0.200000X-0.275000X-0.200000X0.275000X-0.200000X0.275000X0.200000X0*%
%ADD11RoundRect,0.200000X0.275000X-0.200000X0.275000X0.200000X-0.275000X0.200000X-0.275000X-0.200000X0*%
%ADD12R,3.000000X3.000000*%
%ADD13C,3.000000*%
%ADD14C,4.000000*%
%ADD15RoundRect,0.150000X-0.350000X-0.150000X0.350000X-0.150000X0.350000X0.150000X-0.350000X0.150000X0*%
%ADD16RoundRect,0.250000X0.250000X0.250000X-0.250000X0.250000X-0.250000X-0.250000X0.250000X-0.250000X0*%
%ADD17RoundRect,0.200000X0.200000X0.275000X-0.200000X0.275000X-0.200000X-0.275000X0.200000X-0.275000X0*%
%ADD18RoundRect,0.150000X-0.150000X0.350000X-0.150000X-0.350000X0.150000X-0.350000X0.150000X0.350000X0*%
%ADD19R,1.600000X1.600000*%
%ADD20C,1.600000*%
%ADD21R,1.300000X1.200000*%
%ADD22C,2.000000*%
%ADD23RoundRect,0.250000X0.300000X-0.300000X0.300000X0.300000X-0.300000X0.300000X-0.300000X-0.300000X0*%
%ADD24RoundRect,0.250000X-0.725000X0.600000X-0.725000X-0.600000X0.725000X-0.600000X0.725000X0.600000X0*%
%ADD25O,1.950000X1.700000*%
%ADD26RoundRect,0.249999X1.550001X-0.790001X1.550001X0.790001X-1.550001X0.790001X-1.550001X-0.790001X0*%
%ADD27O,3.600000X2.080000*%
%ADD28RoundRect,0.150000X0.350000X0.150000X-0.350000X0.150000X-0.350000X-0.150000X0.350000X-0.150000X0*%
%ADD29RoundRect,0.225000X-0.225000X-0.250000X0.225000X-0.250000X0.225000X0.250000X-0.225000X0.250000X0*%
%ADD30RoundRect,0.250000X-0.300000X-0.300000X0.300000X-0.300000X0.300000X0.300000X-0.300000X0.300000X0*%
%ADD31RoundRect,0.137500X0.137500X-0.525000X0.137500X0.525000X-0.137500X0.525000X-0.137500X-0.525000X0*%
%ADD32C,2.400000*%
%ADD33O,2.400000X2.400000*%
%ADD34O,1.600000X1.600000*%
%ADD35RoundRect,0.225000X-0.250000X0.225000X-0.250000X-0.225000X0.250000X-0.225000X0.250000X0.225000X0*%
%ADD36RoundRect,0.250000X1.500000X-1.000000X1.500000X1.000000X-1.500000X1.000000X-1.500000X-1.000000X0*%
%ADD37RoundRect,0.250000X0.750000X-0.600000X0.750000X0.600000X-0.750000X0.600000X-0.750000X-0.600000X0*%
%ADD38O,2.000000X1.700000*%
%ADD39RoundRect,0.250000X-0.300000X0.300000X-0.300000X-0.300000X0.300000X-0.300000X0.300000X0.300000X0*%
%ADD40RoundRect,0.250000X1.550000X-0.650000X1.550000X0.650000X-1.550000X0.650000X-1.550000X-0.650000X0*%
%ADD41O,3.600000X1.800000*%
%ADD42R,2.030000X1.730000*%
%ADD43O,2.030000X1.730000*%
%ADD44RoundRect,0.250000X0.300000X-1.500000X0.300000X1.500000X-0.300000X1.500000X-0.300000X-1.500000X0*%
%ADD45RoundRect,0.186172X5.213828X-3.313828X5.213828X3.313828X-5.213828X3.313828X-5.213828X-3.313828X0*%
%ADD46RoundRect,0.250000X-0.850000X-0.350000X0.850000X-0.350000X0.850000X0.350000X-0.850000X0.350000X0*%
%ADD47RoundRect,0.249997X-2.950003X-2.650003X2.950003X-2.650003X2.950003X2.650003X-2.950003X2.650003X0*%
%ADD48RoundRect,0.250000X0.725000X-0.600000X0.725000X0.600000X-0.725000X0.600000X-0.725000X-0.600000X0*%
G04 APERTURE END LIST*
D10*
%TO.C,R2*%
X18200000Y76725000D03*
X18200000Y75075000D03*
%TD*%
D11*
%TO.C,R7*%
X11200000Y67050000D03*
X11200000Y68700000D03*
%TD*%
D12*
%TO.C,RV1*%
X2500000Y54731350D03*
D13*
X2500000Y49651350D03*
X2500000Y44571350D03*
%TD*%
D14*
%TO.C,H1*%
X47000000Y87000000D03*
%TD*%
D15*
%TO.C,Q2*%
X14762500Y74550000D03*
X14762500Y72650000D03*
X17037500Y73600000D03*
%TD*%
D16*
%TO.C,D2*%
X33150000Y59831350D03*
X30650000Y59831350D03*
%TD*%
D17*
%TO.C,R8*%
X8300000Y67800000D03*
X6650000Y67800000D03*
%TD*%
%TO.C,R19*%
X34500000Y33500000D03*
X32850000Y33500000D03*
%TD*%
D18*
%TO.C,Q8*%
X15950000Y62375000D03*
X14050000Y62375000D03*
X15000000Y60100000D03*
%TD*%
D19*
%TO.C,C10*%
X21500000Y27947349D03*
D20*
X21500000Y31447349D03*
%TD*%
D18*
%TO.C,Q10*%
X31350000Y33237500D03*
X29450000Y33237500D03*
X30400000Y30962500D03*
%TD*%
D17*
%TO.C,R14*%
X34600000Y46800000D03*
X32950000Y46800000D03*
%TD*%
D21*
%TO.C,D7*%
X25500000Y14700000D03*
X25500000Y17240000D03*
X19350000Y17240000D03*
X19350000Y14700000D03*
%TD*%
D22*
%TO.C,C11*%
X28500000Y16500000D03*
X38500000Y16500000D03*
%TD*%
D17*
%TO.C,R18*%
X34287500Y37900000D03*
X32637500Y37900000D03*
%TD*%
D23*
%TO.C,D1*%
X18200000Y60100000D03*
X18200000Y62900000D03*
%TD*%
D24*
%TO.C,J4*%
X38763153Y85731350D03*
D25*
X38763153Y83231350D03*
X38763153Y80731350D03*
%TD*%
D15*
%TO.C,Q6*%
X6725000Y71250000D03*
X6725000Y69350000D03*
X9000000Y70300000D03*
%TD*%
D17*
%TO.C,R20*%
X34525000Y31700000D03*
X32875000Y31700000D03*
%TD*%
D26*
%TO.C,J9*%
X43100000Y17320000D03*
D27*
X43100000Y22400000D03*
%TD*%
D28*
%TO.C,Q1*%
X13100000Y74700000D03*
X13100000Y76600000D03*
X10825000Y75650000D03*
%TD*%
D11*
%TO.C,R22*%
X12500000Y27550000D03*
X12500000Y29200000D03*
%TD*%
D17*
%TO.C,R11*%
X15900000Y63837500D03*
X14250000Y63837500D03*
%TD*%
D11*
%TO.C,R4*%
X37200000Y70975000D03*
X37200000Y72625000D03*
%TD*%
D17*
%TO.C,R5*%
X16400000Y71200000D03*
X14750000Y71200000D03*
%TD*%
D10*
%TO.C,R16*%
X10600000Y45350000D03*
X10600000Y43700000D03*
%TD*%
D28*
%TO.C,Q4*%
X13100000Y70800000D03*
X13100000Y72700000D03*
X10825000Y71750000D03*
%TD*%
D17*
%TO.C,R3*%
X8225000Y73700000D03*
X6575000Y73700000D03*
%TD*%
%TO.C,R13*%
X32325000Y57900000D03*
X30675000Y57900000D03*
%TD*%
D29*
%TO.C,C1*%
X17550000Y65600000D03*
X19100000Y65600000D03*
%TD*%
D30*
%TO.C,D5*%
X31900000Y36000000D03*
X34700000Y36000000D03*
%TD*%
D24*
%TO.C,J2*%
X24963153Y85731350D03*
D25*
X24963153Y83231350D03*
X24963153Y80731350D03*
%TD*%
D30*
%TO.C,D4*%
X31900000Y44500000D03*
X34700000Y44500000D03*
%TD*%
D14*
%TO.C,H3*%
X47000000Y3000000D03*
%TD*%
D31*
%TO.C,U1*%
X14450000Y44643850D03*
X15400000Y44643850D03*
X16350000Y44643850D03*
X16350000Y46918850D03*
X15400000Y46918850D03*
X14450000Y46918850D03*
%TD*%
D24*
%TO.C,J3*%
X31863153Y85731350D03*
D25*
X31863153Y83231350D03*
X31863153Y80731350D03*
%TD*%
D32*
%TO.C,R27*%
X41300000Y2500000D03*
D33*
X26060000Y2500000D03*
%TD*%
D19*
%TO.C,U3*%
X32400000Y28520000D03*
D34*
X29860000Y28520000D03*
X27320000Y28520000D03*
X27320000Y20900000D03*
X29860000Y20900000D03*
X32400000Y20900000D03*
%TD*%
D35*
%TO.C,C4*%
X12613153Y48431350D03*
X12613153Y46881350D03*
%TD*%
D19*
%TO.C,C7*%
X21500000Y40000000D03*
D20*
X21500000Y36500000D03*
%TD*%
D12*
%TO.C,RV2*%
X2500000Y34731350D03*
D13*
X2500000Y29651350D03*
X2500000Y24571350D03*
%TD*%
D35*
%TO.C,C8*%
X10586847Y32250000D03*
X10586847Y30700000D03*
%TD*%
D36*
%TO.C,L1*%
X13000000Y51200000D03*
X13000000Y57200000D03*
%TD*%
D19*
%TO.C,C3*%
X21500000Y57184001D03*
D20*
X21500000Y53684001D03*
%TD*%
D37*
%TO.C,J7*%
X44100000Y42100000D03*
D38*
X44100000Y44600000D03*
%TD*%
D39*
%TO.C,D3*%
X26800000Y58500000D03*
X26800000Y55700000D03*
%TD*%
D36*
%TO.C,L2*%
X12986847Y34800000D03*
X12986847Y40800000D03*
%TD*%
D17*
%TO.C,R9*%
X8300000Y66200000D03*
X6650000Y66200000D03*
%TD*%
%TO.C,R17*%
X34525000Y41900000D03*
X32875000Y41900000D03*
%TD*%
D40*
%TO.C,J6*%
X45100000Y50900000D03*
D41*
X45100000Y54400000D03*
%TD*%
D40*
%TO.C,J5*%
X45100000Y63700000D03*
D41*
X45100000Y67200000D03*
X45100000Y70700000D03*
X45100000Y74200000D03*
X45100000Y77700000D03*
%TD*%
D42*
%TO.C,J8*%
X43800000Y31600000D03*
D43*
X43800000Y34140000D03*
X43800000Y36680000D03*
%TD*%
D44*
%TO.C,Q5*%
X26220000Y63050000D03*
D45*
X28760000Y73950000D03*
D44*
X31300000Y63050000D03*
%TD*%
D24*
%TO.C,J1*%
X18063153Y85731350D03*
D25*
X18063153Y83231350D03*
X18063153Y80731350D03*
%TD*%
D12*
%TO.C,RV3*%
X2500000Y14731350D03*
D13*
X2500000Y9651350D03*
X2500000Y4571350D03*
%TD*%
D14*
%TO.C,H2*%
X3000000Y62000000D03*
%TD*%
D35*
%TO.C,C9*%
X12500000Y32250000D03*
X12500000Y30700000D03*
%TD*%
D32*
%TO.C,R25*%
X19960000Y11200000D03*
D33*
X35200000Y11200000D03*
%TD*%
D32*
%TO.C,R26*%
X19960000Y7100000D03*
D33*
X35200000Y7100000D03*
%TD*%
D35*
%TO.C,C5*%
X10600000Y48375000D03*
X10600000Y46825000D03*
%TD*%
D17*
%TO.C,R6*%
X16400000Y69500000D03*
X14750000Y69500000D03*
%TD*%
%TO.C,R10*%
X15886847Y65506150D03*
X14236847Y65506150D03*
%TD*%
D19*
%TO.C,C6*%
X21500000Y45131350D03*
D20*
X21500000Y48631350D03*
%TD*%
D19*
%TO.C,C2*%
X9500000Y61117620D03*
D20*
X9500000Y63617620D03*
%TD*%
D19*
%TO.C,D6*%
X22500000Y19900000D03*
D34*
X14880000Y19900000D03*
%TD*%
D28*
%TO.C,Q7*%
X4962500Y67400000D03*
X4962500Y69300000D03*
X2687500Y68350000D03*
%TD*%
D32*
%TO.C,R23*%
X10700000Y16840000D03*
D33*
X10700000Y1600000D03*
%TD*%
D10*
%TO.C,R21*%
X10586847Y29200000D03*
X10586847Y27550000D03*
%TD*%
D28*
%TO.C,Q3*%
X4962500Y71450000D03*
X4962500Y73350000D03*
X2687500Y72400000D03*
%TD*%
D11*
%TO.C,R12*%
X29000000Y58275000D03*
X29000000Y59925000D03*
%TD*%
D18*
%TO.C,Q9*%
X31400000Y42000000D03*
X29500000Y42000000D03*
X30450000Y39725000D03*
%TD*%
D46*
%TO.C,Q11*%
X38700000Y12000000D03*
D47*
X45000000Y9720000D03*
D46*
X38700000Y7440000D03*
%TD*%
D32*
%TO.C,R24*%
X15700000Y16840000D03*
D33*
X15700000Y1600000D03*
%TD*%
D31*
%TO.C,U2*%
X14436847Y28937500D03*
X15386847Y28937500D03*
X16336847Y28937500D03*
X16336847Y31212500D03*
X15386847Y31212500D03*
X14436847Y31212500D03*
%TD*%
D11*
%TO.C,R15*%
X12613153Y43756350D03*
X12613153Y45406350D03*
%TD*%
D17*
%TO.C,R1*%
X16400000Y76100000D03*
X14750000Y76100000D03*
%TD*%
D40*
%TO.C,J13*%
X29157500Y46517500D03*
D41*
X29157500Y50017500D03*
X29157500Y53517500D03*
%TD*%
D40*
%TO.C,J10*%
X37613153Y63931350D03*
D41*
X37613153Y67431350D03*
%TD*%
D48*
%TO.C,J15*%
X37900000Y31231350D03*
D25*
X37900000Y33731350D03*
X37900000Y36231350D03*
%TD*%
D48*
%TO.C,J12*%
X37900000Y53031350D03*
D25*
X37900000Y55531350D03*
X37900000Y58031350D03*
%TD*%
D48*
%TO.C,J14*%
X37875000Y42131350D03*
D25*
X37875000Y44631350D03*
X37875000Y47131350D03*
%TD*%
D48*
%TO.C,J11*%
X21213153Y61931350D03*
D25*
X21213153Y64431350D03*
X21213153Y66931350D03*
X21213153Y69431350D03*
X21213153Y71931350D03*
X21213153Y74431350D03*
%TD*%
M02*
