M48
; DRILL file {KiCad 7.0.11-7.0.11~ubuntu22.04.1} date Mon 11 Mar 2024 04:50:18 AM +03
; FORMAT={-:-/ absolute / inch / decimal}
; #@! TF.CreationDate,2024-03-11T04:50:18+03:00
; #@! TF.GenerationSoftware,Kicad,Pcbnew,7.0.11-7.0.11~ubuntu22.04.1
; #@! TF.FileFunction,Plated,1,2,PTH
FMAT,2
INCH
; #@! TA.AperFunction,Plated,PTH,ViaDrill
T1C0.0236
; #@! TA.AperFunction,Plated,PTH,ComponentDrill
T2C0.0315
; #@! TA.AperFunction,Plated,PTH,ComponentDrill
T3C0.0374
; #@! TA.AperFunction,Plated,PTH,ViaDrill
T4C0.0394
; #@! TA.AperFunction,Plated,PTH,ComponentDrill
T5C0.0394
; #@! TA.AperFunction,Plated,PTH,ComponentDrill
T6C0.0402
; #@! TA.AperFunction,Plated,PTH,ComponentDrill
T7C0.0472
; #@! TA.AperFunction,Plated,PTH,ComponentDrill
T8C0.0551
; #@! TA.AperFunction,Plated,PTH,ComponentDrill
T9C0.1260
%
G90
G05
T1
X0.3312Y2.9601
X0.3356Y2.8363
X0.3728Y2.7082
X0.4639Y2.8644
X0.4688Y1.6972
X0.4937Y2.5881
X0.5157Y2.5046
X0.5315Y3.0512
X0.5315Y1.0551
X0.6024Y1.6929
X0.6076Y1.0909
X0.6594Y1.8832
X0.6885Y1.2288
X0.6929Y2.6339
X0.7008Y2.7338
X0.7317Y2.8355
X0.9567Y2.6378
X1.0787Y1.4646
X1.1535Y3.0276
X1.1929Y3.0276
X1.2323Y3.0276
X1.6614Y3.1063
X1.6614Y3.0669
X1.6614Y3.0276
T2
X0.374Y2.5046
X0.374Y2.4062
X0.5858Y0.7835
X0.8465Y2.2513
X0.8465Y2.1135
X0.8465Y1.9146
X0.8465Y1.7768
X0.8465Y1.5748
X0.8465Y1.437
X0.8465Y1.2381
X0.8465Y1.1003
X0.8858Y0.7835
X1.0756Y1.1228
X1.0756Y0.8228
X1.1756Y1.1228
X1.1756Y0.8228
X1.2756Y1.1228
X1.2756Y0.8228
T3
X0.7111Y3.3752
X0.7111Y3.2768
X0.7111Y3.1784
X0.8352Y2.9304
X0.8352Y2.8319
X0.8352Y2.7335
X0.8352Y2.6351
X0.8352Y2.5367
X0.8352Y2.4382
X0.9828Y3.3752
X0.9828Y3.2768
X0.9828Y3.1784
X1.2545Y3.3752
X1.2545Y3.2768
X1.2545Y3.1784
X1.4911Y1.8556
X1.4911Y1.7571
X1.4911Y1.6587
X1.4921Y2.2847
X1.4921Y2.1863
X1.4921Y2.0878
X1.4921Y1.4264
X1.4921Y1.328
X1.4921Y1.2296
X1.5261Y3.3752
X1.5261Y3.2768
X1.5261Y3.1784
T4
X0.2126Y1.7559
X0.2126Y0.9685
X0.2165Y2.1496
X0.2264Y1.3641
T5
X1.122Y0.6496
X1.5157Y0.6496
X1.7362Y1.7559
X1.7362Y1.6575
T6
X1.7244Y1.4441
X1.7244Y1.3441
X1.7244Y1.2441
T7
X0.0984Y2.1548
X0.0984Y1.9548
X0.0984Y1.7548
X0.0984Y1.3674
X0.0984Y1.1674
X0.0984Y0.9674
X0.0984Y0.58
X0.0984Y0.38
X0.0984Y0.18
X0.4213Y0.663
X0.4213Y0.063
X0.6181Y0.663
X0.6181Y0.063
X0.7858Y0.4409
X0.7858Y0.2795
X1.026Y0.0984
X1.1479Y2.107
X1.1479Y1.9692
X1.1479Y1.8314
X1.3858Y0.4409
X1.3858Y0.2795
X1.4808Y2.6548
X1.4808Y2.517
X1.626Y0.0984
X1.7756Y3.0591
X1.7756Y2.9213
X1.7756Y2.7835
X1.7756Y2.6457
X1.7756Y2.5079
X1.7756Y2.1417
X1.7756Y2.0039
T8
X1.6969Y0.8819
X1.6969Y0.6819
T9
X0.1181Y2.4409
X1.8504Y3.4252
X1.8504Y0.1181
M30
