%TF.GenerationSoftware,KiCad,Pcbnew,7.0.11-7.0.11~ubuntu22.04.1*%
%TF.CreationDate,2024-03-11T04:50:14+03:00*%
%TF.ProjectId,MSConn,4d53436f-6e6e-42e6-9b69-6361645f7063,rev?*%
%TF.SameCoordinates,PX5f5e100PY5f5e100*%
%TF.FileFunction,Drillmap*%
%TF.FilePolarity,Positive*%
%FSLAX45Y45*%
G04 Gerber Fmt 4.5, Leading zero omitted, Abs format (unit mm)*
G04 Created by KiCad (PCBNEW 7.0.11-7.0.11~ubuntu22.04.1) date 2024-03-11 04:50:14*
%MOMM*%
%LPD*%
G01*
G04 APERTURE LIST*
%ADD10C,0.100000*%
%ADD11C,0.160000*%
%ADD12C,0.200000*%
G04 APERTURE END LIST*
D10*
X3900000Y2970000D02*
X4610000Y2970000D01*
D11*
X5000000Y0D02*
X0Y0D01*
D10*
X2085000Y2310000D02*
X3460000Y2310000D01*
D11*
X1700000Y9000000D02*
X5000000Y9000000D01*
X0Y7300000D02*
X0Y0D01*
D10*
X286845Y1951109D02*
X788891Y2453155D01*
X3460000Y2310000D02*
G75*
G03*
X3460000Y2610000I0J150000D01*
G01*
D11*
X5000000Y9000000D02*
X5000000Y0D01*
D10*
X4610000Y2670000D02*
G75*
G03*
X4610000Y2970000I0J150000D01*
G01*
X2085000Y2610000D02*
X3460000Y2610000D01*
D11*
X1700000Y9000000D02*
X0Y7300000D01*
D10*
X1001023Y2241023D02*
G75*
G03*
X788891Y2453155I-106066J106066D01*
G01*
X3900000Y2970000D02*
G75*
G03*
X3900000Y2670000I0J-150000D01*
G01*
X286845Y1951109D02*
G75*
G03*
X498977Y1738977I106066J-106066D01*
G01*
X2085000Y2610000D02*
G75*
G03*
X2085000Y2310000I0J-150000D01*
G01*
X3900000Y2670000D02*
X4610000Y2670000D01*
X498977Y1738977D02*
X1001023Y2241023D01*
D12*
X252777Y-319484D02*
X252777Y-119484D01*
X252777Y-119484D02*
X300396Y-119484D01*
X300396Y-119484D02*
X328967Y-129008D01*
X328967Y-129008D02*
X348015Y-148055D01*
X348015Y-148055D02*
X357539Y-167103D01*
X357539Y-167103D02*
X367062Y-205198D01*
X367062Y-205198D02*
X367062Y-233769D01*
X367062Y-233769D02*
X357539Y-271865D01*
X357539Y-271865D02*
X348015Y-290912D01*
X348015Y-290912D02*
X328967Y-309960D01*
X328967Y-309960D02*
X300396Y-319484D01*
X300396Y-319484D02*
X252777Y-319484D01*
X452777Y-319484D02*
X452777Y-186150D01*
X452777Y-224246D02*
X462301Y-205198D01*
X462301Y-205198D02*
X471824Y-195674D01*
X471824Y-195674D02*
X490872Y-186150D01*
X490872Y-186150D02*
X509920Y-186150D01*
X576586Y-319484D02*
X576586Y-186150D01*
X576586Y-119484D02*
X567063Y-129008D01*
X567063Y-129008D02*
X576586Y-138531D01*
X576586Y-138531D02*
X586110Y-129008D01*
X586110Y-129008D02*
X576586Y-119484D01*
X576586Y-119484D02*
X576586Y-138531D01*
X700396Y-319484D02*
X681348Y-309960D01*
X681348Y-309960D02*
X671824Y-290912D01*
X671824Y-290912D02*
X671824Y-119484D01*
X805158Y-319484D02*
X786110Y-309960D01*
X786110Y-309960D02*
X776586Y-290912D01*
X776586Y-290912D02*
X776586Y-119484D01*
X1033729Y-319484D02*
X1033729Y-119484D01*
X1033729Y-119484D02*
X1100396Y-262341D01*
X1100396Y-262341D02*
X1167063Y-119484D01*
X1167063Y-119484D02*
X1167063Y-319484D01*
X1348015Y-319484D02*
X1348015Y-214722D01*
X1348015Y-214722D02*
X1338491Y-195674D01*
X1338491Y-195674D02*
X1319444Y-186150D01*
X1319444Y-186150D02*
X1281348Y-186150D01*
X1281348Y-186150D02*
X1262301Y-195674D01*
X1348015Y-309960D02*
X1328967Y-319484D01*
X1328967Y-319484D02*
X1281348Y-319484D01*
X1281348Y-319484D02*
X1262301Y-309960D01*
X1262301Y-309960D02*
X1252777Y-290912D01*
X1252777Y-290912D02*
X1252777Y-271865D01*
X1252777Y-271865D02*
X1262301Y-252817D01*
X1262301Y-252817D02*
X1281348Y-243293D01*
X1281348Y-243293D02*
X1328967Y-243293D01*
X1328967Y-243293D02*
X1348015Y-233769D01*
X1443253Y-186150D02*
X1443253Y-386150D01*
X1443253Y-195674D02*
X1462301Y-186150D01*
X1462301Y-186150D02*
X1500396Y-186150D01*
X1500396Y-186150D02*
X1519443Y-195674D01*
X1519443Y-195674D02*
X1528967Y-205198D01*
X1528967Y-205198D02*
X1538491Y-224246D01*
X1538491Y-224246D02*
X1538491Y-281389D01*
X1538491Y-281389D02*
X1528967Y-300436D01*
X1528967Y-300436D02*
X1519443Y-309960D01*
X1519443Y-309960D02*
X1500396Y-319484D01*
X1500396Y-319484D02*
X1462301Y-319484D01*
X1462301Y-319484D02*
X1443253Y-309960D01*
X1624205Y-300436D02*
X1633729Y-309960D01*
X1633729Y-309960D02*
X1624205Y-319484D01*
X1624205Y-319484D02*
X1614682Y-309960D01*
X1614682Y-309960D02*
X1624205Y-300436D01*
X1624205Y-300436D02*
X1624205Y-319484D01*
X1624205Y-195674D02*
X1633729Y-205198D01*
X1633729Y-205198D02*
X1624205Y-214722D01*
X1624205Y-214722D02*
X1614682Y-205198D01*
X1614682Y-205198D02*
X1624205Y-195674D01*
X1624205Y-195674D02*
X1624205Y-214722D01*
M02*
