%TF.GenerationSoftware,KiCad,Pcbnew,7.0.11-7.0.11~ubuntu22.04.1*%
%TF.CreationDate,2024-03-11T04:50:29+03:00*%
%TF.ProjectId,MSConn,4d53436f-6e6e-42e6-9b69-6361645f7063,rev?*%
%TF.SameCoordinates,PX5f5e100PY5f5e100*%
%TF.FileFunction,Paste,Top*%
%TF.FilePolarity,Positive*%
%FSLAX46Y46*%
G04 Gerber Fmt 4.6, Leading zero omitted, Abs format (unit mm)*
G04 Created by KiCad (PCBNEW 7.0.11-7.0.11~ubuntu22.04.1) date 2024-03-11 04:50:29*
%MOMM*%
%LPD*%
G01*
G04 APERTURE LIST*
G04 Aperture macros list*
%AMRoundRect*
0 Rectangle with rounded corners*
0 $1 Rounding radius*
0 $2 $3 $4 $5 $6 $7 $8 $9 X,Y pos of 4 corners*
0 Add a 4 corners polygon primitive as box body*
4,1,4,$2,$3,$4,$5,$6,$7,$8,$9,$2,$3,0*
0 Add four circle primitives for the rounded corners*
1,1,$1+$1,$2,$3*
1,1,$1+$1,$4,$5*
1,1,$1+$1,$6,$7*
1,1,$1+$1,$8,$9*
0 Add four rect primitives between the rounded corners*
20,1,$1+$1,$2,$3,$4,$5,0*
20,1,$1+$1,$4,$5,$6,$7,0*
20,1,$1+$1,$6,$7,$8,$9,0*
20,1,$1+$1,$8,$9,$2,$3,0*%
G04 Aperture macros list end*
%ADD10RoundRect,0.200000X-0.275000X0.200000X-0.275000X-0.200000X0.275000X-0.200000X0.275000X0.200000X0*%
%ADD11RoundRect,0.200000X0.275000X-0.200000X0.275000X0.200000X-0.275000X0.200000X-0.275000X-0.200000X0*%
%ADD12RoundRect,0.150000X-0.350000X-0.150000X0.350000X-0.150000X0.350000X0.150000X-0.350000X0.150000X0*%
%ADD13RoundRect,0.250000X0.250000X0.250000X-0.250000X0.250000X-0.250000X-0.250000X0.250000X-0.250000X0*%
%ADD14RoundRect,0.200000X0.200000X0.275000X-0.200000X0.275000X-0.200000X-0.275000X0.200000X-0.275000X0*%
%ADD15RoundRect,0.150000X-0.150000X0.350000X-0.150000X-0.350000X0.150000X-0.350000X0.150000X0.350000X0*%
%ADD16R,1.300000X1.200000*%
%ADD17RoundRect,0.250000X0.300000X-0.300000X0.300000X0.300000X-0.300000X0.300000X-0.300000X-0.300000X0*%
%ADD18RoundRect,0.150000X0.350000X0.150000X-0.350000X0.150000X-0.350000X-0.150000X0.350000X-0.150000X0*%
%ADD19RoundRect,0.225000X-0.225000X-0.250000X0.225000X-0.250000X0.225000X0.250000X-0.225000X0.250000X0*%
%ADD20RoundRect,0.250000X-0.300000X-0.300000X0.300000X-0.300000X0.300000X0.300000X-0.300000X0.300000X0*%
%ADD21RoundRect,0.137500X0.137500X-0.525000X0.137500X0.525000X-0.137500X0.525000X-0.137500X-0.525000X0*%
%ADD22RoundRect,0.225000X-0.250000X0.225000X-0.250000X-0.225000X0.250000X-0.225000X0.250000X0.225000X0*%
%ADD23RoundRect,0.250000X1.500000X-1.000000X1.500000X1.000000X-1.500000X1.000000X-1.500000X-1.000000X0*%
%ADD24RoundRect,0.250000X-0.300000X0.300000X-0.300000X-0.300000X0.300000X-0.300000X0.300000X0.300000X0*%
%ADD25RoundRect,0.250000X0.300000X-1.500000X0.300000X1.500000X-0.300000X1.500000X-0.300000X-1.500000X0*%
%ADD26RoundRect,0.109890X2.515110X-0.890110X2.515110X0.890110X-2.515110X0.890110X-2.515110X-0.890110X0*%
%ADD27RoundRect,0.250000X2.375000X-2.025000X2.375000X2.025000X-2.375000X2.025000X-2.375000X-2.025000X0*%
%ADD28RoundRect,0.250000X-0.850000X-0.350000X0.850000X-0.350000X0.850000X0.350000X-0.850000X0.350000X0*%
%ADD29RoundRect,0.250000X-1.275000X-1.125000X1.275000X-1.125000X1.275000X1.125000X-1.275000X1.125000X0*%
G04 APERTURE END LIST*
D10*
%TO.C,R2*%
X18200000Y76725000D03*
X18200000Y75075000D03*
%TD*%
D11*
%TO.C,R7*%
X11200000Y67050000D03*
X11200000Y68700000D03*
%TD*%
D12*
%TO.C,Q2*%
X14762500Y74550000D03*
X14762500Y72650000D03*
X17037500Y73600000D03*
%TD*%
D13*
%TO.C,D2*%
X33150000Y59831350D03*
X30650000Y59831350D03*
%TD*%
D14*
%TO.C,R8*%
X8300000Y67800000D03*
X6650000Y67800000D03*
%TD*%
%TO.C,R19*%
X34500000Y33500000D03*
X32850000Y33500000D03*
%TD*%
D15*
%TO.C,Q8*%
X15950000Y62375000D03*
X14050000Y62375000D03*
X15000000Y60100000D03*
%TD*%
%TO.C,Q10*%
X31350000Y33237500D03*
X29450000Y33237500D03*
X30400000Y30962500D03*
%TD*%
D14*
%TO.C,R14*%
X34600000Y46800000D03*
X32950000Y46800000D03*
%TD*%
D16*
%TO.C,D7*%
X25500000Y14700000D03*
X25500000Y17240000D03*
X19350000Y17240000D03*
X19350000Y14700000D03*
%TD*%
D14*
%TO.C,R18*%
X34287500Y37900000D03*
X32637500Y37900000D03*
%TD*%
D17*
%TO.C,D1*%
X18200000Y60100000D03*
X18200000Y62900000D03*
%TD*%
D12*
%TO.C,Q6*%
X6725000Y71250000D03*
X6725000Y69350000D03*
X9000000Y70300000D03*
%TD*%
D14*
%TO.C,R20*%
X34525000Y31700000D03*
X32875000Y31700000D03*
%TD*%
D18*
%TO.C,Q1*%
X13100000Y74700000D03*
X13100000Y76600000D03*
X10825000Y75650000D03*
%TD*%
D11*
%TO.C,R22*%
X12500000Y27550000D03*
X12500000Y29200000D03*
%TD*%
D14*
%TO.C,R11*%
X15900000Y63837500D03*
X14250000Y63837500D03*
%TD*%
D11*
%TO.C,R4*%
X37200000Y70975000D03*
X37200000Y72625000D03*
%TD*%
D14*
%TO.C,R5*%
X16400000Y71200000D03*
X14750000Y71200000D03*
%TD*%
D10*
%TO.C,R16*%
X10600000Y45350000D03*
X10600000Y43700000D03*
%TD*%
D18*
%TO.C,Q4*%
X13100000Y70800000D03*
X13100000Y72700000D03*
X10825000Y71750000D03*
%TD*%
D14*
%TO.C,R3*%
X8225000Y73700000D03*
X6575000Y73700000D03*
%TD*%
%TO.C,R13*%
X32325000Y57900000D03*
X30675000Y57900000D03*
%TD*%
D19*
%TO.C,C1*%
X17550000Y65600000D03*
X19100000Y65600000D03*
%TD*%
D20*
%TO.C,D5*%
X31900000Y36000000D03*
X34700000Y36000000D03*
%TD*%
%TO.C,D4*%
X31900000Y44500000D03*
X34700000Y44500000D03*
%TD*%
D21*
%TO.C,U1*%
X14450000Y44643850D03*
X15400000Y44643850D03*
X16350000Y44643850D03*
X16350000Y46918850D03*
X15400000Y46918850D03*
X14450000Y46918850D03*
%TD*%
D22*
%TO.C,C4*%
X12613153Y48431350D03*
X12613153Y46881350D03*
%TD*%
%TO.C,C8*%
X10586847Y32250000D03*
X10586847Y30700000D03*
%TD*%
D23*
%TO.C,L1*%
X13000000Y51200000D03*
X13000000Y57200000D03*
%TD*%
D24*
%TO.C,D3*%
X26800000Y58500000D03*
X26800000Y55700000D03*
%TD*%
D23*
%TO.C,L2*%
X12986847Y34800000D03*
X12986847Y40800000D03*
%TD*%
D14*
%TO.C,R9*%
X8300000Y66200000D03*
X6650000Y66200000D03*
%TD*%
%TO.C,R17*%
X34525000Y41900000D03*
X32875000Y41900000D03*
%TD*%
D25*
%TO.C,Q5*%
X26220000Y63050000D03*
D26*
X25985000Y71250000D03*
X31535000Y71250000D03*
D27*
X25985000Y75175000D03*
X31535000Y75175000D03*
D25*
X31300000Y63050000D03*
%TD*%
D22*
%TO.C,C9*%
X12500000Y32250000D03*
X12500000Y30700000D03*
%TD*%
%TO.C,C5*%
X10600000Y48375000D03*
X10600000Y46825000D03*
%TD*%
D14*
%TO.C,R6*%
X16400000Y69500000D03*
X14750000Y69500000D03*
%TD*%
%TO.C,R10*%
X15886847Y65506150D03*
X14236847Y65506150D03*
%TD*%
D18*
%TO.C,Q7*%
X4962500Y67400000D03*
X4962500Y69300000D03*
X2687500Y68350000D03*
%TD*%
D10*
%TO.C,R21*%
X10586847Y29200000D03*
X10586847Y27550000D03*
%TD*%
D18*
%TO.C,Q3*%
X4962500Y71450000D03*
X4962500Y73350000D03*
X2687500Y72400000D03*
%TD*%
D11*
%TO.C,R12*%
X29000000Y58275000D03*
X29000000Y59925000D03*
%TD*%
D15*
%TO.C,Q9*%
X31400000Y42000000D03*
X29500000Y42000000D03*
X30450000Y39725000D03*
%TD*%
D28*
%TO.C,Q11*%
X38700000Y12000000D03*
D29*
X43325000Y11245000D03*
X43325000Y8195000D03*
X46675000Y11245000D03*
X46675000Y8195000D03*
D28*
X38700000Y7440000D03*
%TD*%
D21*
%TO.C,U2*%
X14436847Y28937500D03*
X15386847Y28937500D03*
X16336847Y28937500D03*
X16336847Y31212500D03*
X15386847Y31212500D03*
X14436847Y31212500D03*
%TD*%
D11*
%TO.C,R15*%
X12613153Y43756350D03*
X12613153Y45406350D03*
%TD*%
D14*
%TO.C,R1*%
X16400000Y76100000D03*
X14750000Y76100000D03*
%TD*%
M02*
