%TF.GenerationSoftware,KiCad,Pcbnew,7.0.11-7.0.11~ubuntu22.04.1*%
%TF.CreationDate,2024-03-11T04:50:14+03:00*%
%TF.ProjectId,MSConn,4d53436f-6e6e-42e6-9b69-6361645f7063,rev?*%
%TF.SameCoordinates,PX5f5e100PY5f5e100*%
%TF.FileFunction,Drillmap*%
%TF.FilePolarity,Positive*%
%FSLAX45Y45*%
G04 Gerber Fmt 4.5, Leading zero omitted, Abs format (unit mm)*
G04 Created by KiCad (PCBNEW 7.0.11-7.0.11~ubuntu22.04.1) date 2024-03-11 04:50:14*
%MOMM*%
%LPD*%
G01*
G04 APERTURE LIST*
%ADD10C,0.100000*%
%ADD11C,0.160000*%
%ADD12C,0.200000*%
%ADD13C,0.102000*%
%ADD14C,0.120000*%
%ADD15C,0.140000*%
%ADD16C,0.320000*%
G04 APERTURE END LIST*
D10*
X3900000Y2970000D02*
X4610000Y2970000D01*
D11*
X5000000Y0D02*
X0Y0D01*
D10*
X2085000Y2310000D02*
X3460000Y2310000D01*
D11*
X1700000Y9000000D02*
X5000000Y9000000D01*
X0Y7300000D02*
X0Y0D01*
D10*
X286845Y1951109D02*
X788891Y2453155D01*
X3460000Y2310000D02*
G75*
G03*
X3460000Y2610000I0J150000D01*
G01*
D11*
X5000000Y9000000D02*
X5000000Y0D01*
D10*
X4610000Y2670000D02*
G75*
G03*
X4610000Y2970000I0J150000D01*
G01*
X2085000Y2610000D02*
X3460000Y2610000D01*
D11*
X1700000Y9000000D02*
X0Y7300000D01*
D10*
X1001023Y2241023D02*
G75*
G03*
X788891Y2453155I-106066J106066D01*
G01*
X3900000Y2970000D02*
G75*
G03*
X3900000Y2670000I0J-150000D01*
G01*
X286845Y1951109D02*
G75*
G03*
X498977Y1738977I106066J-106066D01*
G01*
X2085000Y2610000D02*
G75*
G03*
X2085000Y2310000I0J-150000D01*
G01*
X3900000Y2670000D02*
X4610000Y2670000D01*
X498977Y1738977D02*
X1001023Y2241023D01*
D12*
D10*
X811316Y7548681D02*
X871316Y7488681D01*
X871316Y7548681D02*
X811316Y7488681D01*
X822500Y7234320D02*
X882500Y7174320D01*
X882500Y7234320D02*
X822500Y7174320D01*
X917035Y6908883D02*
X977035Y6848883D01*
X977035Y6908883D02*
X917035Y6848883D01*
X1148238Y7305603D02*
X1208238Y7245603D01*
X1208238Y7305603D02*
X1148238Y7245603D01*
X1160687Y4340804D02*
X1220687Y4280804D01*
X1220687Y4340804D02*
X1160687Y4280804D01*
X1224069Y6603863D02*
X1284069Y6543863D01*
X1284069Y6603863D02*
X1224069Y6543863D01*
X1280000Y6391762D02*
X1340000Y6331762D01*
X1340000Y6391762D02*
X1280000Y6331762D01*
X1320000Y7780000D02*
X1380000Y7720000D01*
X1380000Y7780000D02*
X1320000Y7720000D01*
X1320000Y2709999D02*
X1380000Y2649999D01*
X1380000Y2709999D02*
X1320000Y2649999D01*
X1500000Y4330000D02*
X1560000Y4270000D01*
X1560000Y4330000D02*
X1500000Y4270000D01*
X1513281Y2800957D02*
X1573281Y2740957D01*
X1573281Y2800957D02*
X1513281Y2740957D01*
X1645000Y4813443D02*
X1705000Y4753443D01*
X1705000Y4813443D02*
X1645000Y4753443D01*
X1718685Y3151250D02*
X1778685Y3091250D01*
X1778685Y3151250D02*
X1718685Y3091250D01*
X1730000Y6720000D02*
X1790000Y6660000D01*
X1790000Y6720000D02*
X1730000Y6660000D01*
X1750000Y6973863D02*
X1810000Y6913863D01*
X1810000Y6973863D02*
X1750000Y6913863D01*
X1828422Y7232247D02*
X1888422Y7172247D01*
X1888422Y7232247D02*
X1828422Y7172247D01*
X2400000Y6730000D02*
X2460000Y6670000D01*
X2460000Y6730000D02*
X2400000Y6670000D01*
X2710000Y3750000D02*
X2770000Y3690000D01*
X2770000Y3750000D02*
X2710000Y3690000D01*
X2900000Y7720000D02*
X2960000Y7660000D01*
X2960000Y7720000D02*
X2900000Y7660000D01*
X3000000Y7720000D02*
X3060000Y7660000D01*
X3060000Y7720000D02*
X3000000Y7660000D01*
X3100000Y7720000D02*
X3160000Y7660000D01*
X3160000Y7720000D02*
X3100000Y7660000D01*
X4190000Y7920000D02*
X4250000Y7860000D01*
X4250000Y7920000D02*
X4190000Y7860000D01*
X4190000Y7820000D02*
X4250000Y7760000D01*
X4250000Y7820000D02*
X4190000Y7760000D01*
X4190000Y7720000D02*
X4250000Y7660000D01*
X4250000Y7720000D02*
X4190000Y7660000D01*
X990000Y6361762D02*
G75*
G03*
X910000Y6361762I-40000J0D01*
G01*
X910000Y6361762D02*
G75*
G03*
X990000Y6361762I40000J0D01*
G01*
X990000Y6111762D02*
G75*
G03*
X910000Y6111762I-40000J0D01*
G01*
X910000Y6111762D02*
G75*
G03*
X990000Y6111762I40000J0D01*
G01*
X1528000Y1990000D02*
G75*
G03*
X1448000Y1990000I-40000J0D01*
G01*
X1448000Y1990000D02*
G75*
G03*
X1528000Y1990000I40000J0D01*
G01*
X2190000Y5718400D02*
G75*
G03*
X2110000Y5718400I-40000J0D01*
G01*
X2110000Y5718400D02*
G75*
G03*
X2190000Y5718400I40000J0D01*
G01*
X2190000Y5368400D02*
G75*
G03*
X2110000Y5368400I-40000J0D01*
G01*
X2110000Y5368400D02*
G75*
G03*
X2190000Y5368400I40000J0D01*
G01*
X2190000Y4863135D02*
G75*
G03*
X2110000Y4863135I-40000J0D01*
G01*
X2110000Y4863135D02*
G75*
G03*
X2190000Y4863135I40000J0D01*
G01*
X2190000Y4513135D02*
G75*
G03*
X2110000Y4513135I-40000J0D01*
G01*
X2110000Y4513135D02*
G75*
G03*
X2190000Y4513135I40000J0D01*
G01*
X2190000Y4000000D02*
G75*
G03*
X2110000Y4000000I-40000J0D01*
G01*
X2110000Y4000000D02*
G75*
G03*
X2190000Y4000000I40000J0D01*
G01*
X2190000Y3650000D02*
G75*
G03*
X2110000Y3650000I-40000J0D01*
G01*
X2110000Y3650000D02*
G75*
G03*
X2190000Y3650000I40000J0D01*
G01*
X2190000Y3144735D02*
G75*
G03*
X2110000Y3144735I-40000J0D01*
G01*
X2110000Y3144735D02*
G75*
G03*
X2190000Y3144735I40000J0D01*
G01*
X2190000Y2794735D02*
G75*
G03*
X2110000Y2794735I-40000J0D01*
G01*
X2110000Y2794735D02*
G75*
G03*
X2190000Y2794735I40000J0D01*
G01*
X2290000Y1990000D02*
G75*
G03*
X2210000Y1990000I-40000J0D01*
G01*
X2210000Y1990000D02*
G75*
G03*
X2290000Y1990000I40000J0D01*
G01*
X2772000Y2852000D02*
G75*
G03*
X2692000Y2852000I-40000J0D01*
G01*
X2692000Y2852000D02*
G75*
G03*
X2772000Y2852000I40000J0D01*
G01*
X2772000Y2090000D02*
G75*
G03*
X2692000Y2090000I-40000J0D01*
G01*
X2692000Y2090000D02*
G75*
G03*
X2772000Y2090000I40000J0D01*
G01*
X3026000Y2852000D02*
G75*
G03*
X2946000Y2852000I-40000J0D01*
G01*
X2946000Y2852000D02*
G75*
G03*
X3026000Y2852000I40000J0D01*
G01*
X3026000Y2090000D02*
G75*
G03*
X2946000Y2090000I-40000J0D01*
G01*
X2946000Y2090000D02*
G75*
G03*
X3026000Y2090000I40000J0D01*
G01*
X3280000Y2852000D02*
G75*
G03*
X3200000Y2852000I-40000J0D01*
G01*
X3200000Y2852000D02*
G75*
G03*
X3280000Y2852000I40000J0D01*
G01*
X3280000Y2090000D02*
G75*
G03*
X3200000Y2090000I-40000J0D01*
G01*
X3200000Y2090000D02*
G75*
G03*
X3280000Y2090000I40000J0D01*
G01*
X1806315Y8620635D02*
X1806315Y8525635D01*
X1758815Y8573135D02*
X1853815Y8573135D01*
X1806315Y8370635D02*
X1806315Y8275635D01*
X1758815Y8323135D02*
X1853815Y8323135D01*
X1806315Y8120635D02*
X1806315Y8025635D01*
X1758815Y8073135D02*
X1853815Y8073135D01*
X2121315Y7490635D02*
X2121315Y7395635D01*
X2073815Y7443135D02*
X2168815Y7443135D01*
X2121315Y7240635D02*
X2121315Y7145635D01*
X2073815Y7193135D02*
X2168815Y7193135D01*
X2121315Y6990635D02*
X2121315Y6895635D01*
X2073815Y6943135D02*
X2168815Y6943135D01*
X2121315Y6740635D02*
X2121315Y6645635D01*
X2073815Y6693135D02*
X2168815Y6693135D01*
X2121315Y6490635D02*
X2121315Y6395635D01*
X2073815Y6443135D02*
X2168815Y6443135D01*
X2121315Y6240635D02*
X2121315Y6145635D01*
X2073815Y6193135D02*
X2168815Y6193135D01*
X2496315Y8620635D02*
X2496315Y8525635D01*
X2448815Y8573135D02*
X2543815Y8573135D01*
X2496315Y8370635D02*
X2496315Y8275635D01*
X2448815Y8323135D02*
X2543815Y8323135D01*
X2496315Y8120635D02*
X2496315Y8025635D01*
X2448815Y8073135D02*
X2543815Y8073135D01*
X3186315Y8620635D02*
X3186315Y8525635D01*
X3138815Y8573135D02*
X3233815Y8573135D01*
X3186315Y8370635D02*
X3186315Y8275635D01*
X3138815Y8323135D02*
X3233815Y8323135D01*
X3186315Y8120635D02*
X3186315Y8025635D01*
X3138815Y8073135D02*
X3233815Y8073135D01*
X3787500Y4760635D02*
X3787500Y4665635D01*
X3740000Y4713135D02*
X3835000Y4713135D01*
X3787500Y4510635D02*
X3787500Y4415635D01*
X3740000Y4463135D02*
X3835000Y4463135D01*
X3787500Y4260635D02*
X3787500Y4165635D01*
X3740000Y4213135D02*
X3835000Y4213135D01*
X3790000Y5850635D02*
X3790000Y5755635D01*
X3742500Y5803135D02*
X3837500Y5803135D01*
X3790000Y5600635D02*
X3790000Y5505635D01*
X3742500Y5553135D02*
X3837500Y5553135D01*
X3790000Y5350635D02*
X3790000Y5255635D01*
X3742500Y5303135D02*
X3837500Y5303135D01*
X3790000Y3670635D02*
X3790000Y3575635D01*
X3742500Y3623135D02*
X3837500Y3623135D01*
X3790000Y3420635D02*
X3790000Y3325635D01*
X3742500Y3373135D02*
X3837500Y3373135D01*
X3790000Y3170635D02*
X3790000Y3075635D01*
X3742500Y3123135D02*
X3837500Y3123135D01*
X3876315Y8620635D02*
X3876315Y8525635D01*
X3828815Y8573135D02*
X3923815Y8573135D01*
X3876315Y8370635D02*
X3876315Y8275635D01*
X3828815Y8323135D02*
X3923815Y8323135D01*
X3876315Y8120635D02*
X3876315Y8025635D01*
X3828815Y8073135D02*
X3923815Y8073135D01*
X575356Y4424644D02*
X575356Y4495355D01*
X504644Y4495355D01*
X504644Y4424644D01*
X575356Y4424644D01*
X575356Y2424644D02*
X575356Y2495356D01*
X504644Y2495356D01*
X504644Y2424644D01*
X575356Y2424644D01*
X585356Y5424644D02*
X585356Y5495356D01*
X514644Y5495356D01*
X514644Y5424644D01*
X585356Y5424644D01*
X610491Y3429509D02*
X610491Y3500221D01*
X539779Y3500221D01*
X539779Y3429509D01*
X610491Y3429509D01*
X2850000Y1600000D02*
X2900000Y1650000D01*
X2850000Y1700000D01*
X2800000Y1650000D01*
X2850000Y1600000D01*
X3850000Y1600000D02*
X3900000Y1650000D01*
X3850000Y1700000D01*
X3800000Y1650000D01*
X3850000Y1600000D01*
X4410000Y4410000D02*
X4460000Y4460000D01*
X4410000Y4510000D01*
X4360000Y4460000D01*
X4410000Y4410000D01*
X4410000Y4160000D02*
X4460000Y4210000D01*
X4410000Y4260000D01*
X4360000Y4210000D01*
X4410000Y4160000D01*
D13*
X4329000Y3719000D02*
X4431000Y3617000D01*
X4431000Y3719000D02*
X4329000Y3617000D01*
X4431000Y3668000D02*
G75*
G03*
X4329000Y3668000I-51000J0D01*
G01*
X4329000Y3668000D02*
G75*
G03*
X4431000Y3668000I51000J0D01*
G01*
X4329000Y3465000D02*
X4431000Y3363000D01*
X4431000Y3465000D02*
X4329000Y3363000D01*
X4431000Y3414000D02*
G75*
G03*
X4329000Y3414000I-51000J0D01*
G01*
X4329000Y3414000D02*
G75*
G03*
X4431000Y3414000I51000J0D01*
G01*
X4329000Y3211000D02*
X4431000Y3109000D01*
X4431000Y3211000D02*
X4329000Y3109000D01*
X4431000Y3160000D02*
G75*
G03*
X4329000Y3160000I-51000J0D01*
G01*
X4329000Y3160000D02*
G75*
G03*
X4431000Y3160000I51000J0D01*
G01*
D14*
X190000Y5533135D02*
X310000Y5413135D01*
X310000Y5533135D02*
X190000Y5413135D01*
X250000Y5533135D02*
X250000Y5413135D01*
X190000Y5473135D02*
X310000Y5473135D01*
X190000Y5025135D02*
X310000Y4905135D01*
X310000Y5025135D02*
X190000Y4905135D01*
X250000Y5025135D02*
X250000Y4905135D01*
X190000Y4965135D02*
X310000Y4965135D01*
X190000Y4517135D02*
X310000Y4397135D01*
X310000Y4517135D02*
X190000Y4397135D01*
X250000Y4517135D02*
X250000Y4397135D01*
X190000Y4457135D02*
X310000Y4457135D01*
X190000Y3533135D02*
X310000Y3413135D01*
X310000Y3533135D02*
X190000Y3413135D01*
X250000Y3533135D02*
X250000Y3413135D01*
X190000Y3473135D02*
X310000Y3473135D01*
X190000Y3025135D02*
X310000Y2905135D01*
X310000Y3025135D02*
X190000Y2905135D01*
X250000Y3025135D02*
X250000Y2905135D01*
X190000Y2965135D02*
X310000Y2965135D01*
X190000Y2517135D02*
X310000Y2397135D01*
X310000Y2517135D02*
X190000Y2397135D01*
X250000Y2517135D02*
X250000Y2397135D01*
X190000Y2457135D02*
X310000Y2457135D01*
X190000Y1533135D02*
X310000Y1413135D01*
X310000Y1533135D02*
X190000Y1413135D01*
X250000Y1533135D02*
X250000Y1413135D01*
X190000Y1473135D02*
X310000Y1473135D01*
X190000Y1025135D02*
X310000Y905135D01*
X310000Y1025135D02*
X190000Y905135D01*
X250000Y1025135D02*
X250000Y905135D01*
X190000Y965135D02*
X310000Y965135D01*
X190000Y517135D02*
X310000Y397135D01*
X310000Y517135D02*
X190000Y397135D01*
X250000Y517135D02*
X250000Y397135D01*
X190000Y457135D02*
X310000Y457135D01*
X1010000Y1744000D02*
X1130000Y1624000D01*
X1130000Y1744000D02*
X1010000Y1624000D01*
X1070000Y1744000D02*
X1070000Y1624000D01*
X1010000Y1684000D02*
X1130000Y1684000D01*
X1010000Y220000D02*
X1130000Y100000D01*
X1130000Y220000D02*
X1010000Y100000D01*
X1070000Y220000D02*
X1070000Y100000D01*
X1010000Y160000D02*
X1130000Y160000D01*
X1510000Y1744000D02*
X1630000Y1624000D01*
X1630000Y1744000D02*
X1510000Y1624000D01*
X1570000Y1744000D02*
X1570000Y1624000D01*
X1510000Y1684000D02*
X1630000Y1684000D01*
X1510000Y220000D02*
X1630000Y100000D01*
X1630000Y220000D02*
X1510000Y100000D01*
X1570000Y220000D02*
X1570000Y100000D01*
X1510000Y160000D02*
X1630000Y160000D01*
X1936000Y1180000D02*
X2056000Y1060000D01*
X2056000Y1180000D02*
X1936000Y1060000D01*
X1996000Y1180000D02*
X1996000Y1060000D01*
X1936000Y1120000D02*
X2056000Y1120000D01*
X1936000Y770000D02*
X2056000Y650000D01*
X2056000Y770000D02*
X1936000Y650000D01*
X1996000Y770000D02*
X1996000Y650000D01*
X1936000Y710000D02*
X2056000Y710000D01*
X2546000Y310000D02*
X2666000Y190000D01*
X2666000Y310000D02*
X2546000Y190000D01*
X2606000Y310000D02*
X2606000Y190000D01*
X2546000Y250000D02*
X2666000Y250000D01*
X2855750Y5411750D02*
X2975750Y5291750D01*
X2975750Y5411750D02*
X2855750Y5291750D01*
X2915750Y5411750D02*
X2915750Y5291750D01*
X2855750Y5351750D02*
X2975750Y5351750D01*
X2855750Y5061750D02*
X2975750Y4941750D01*
X2975750Y5061750D02*
X2855750Y4941750D01*
X2915750Y5061750D02*
X2915750Y4941750D01*
X2855750Y5001750D02*
X2975750Y5001750D01*
X2855750Y4711750D02*
X2975750Y4591750D01*
X2975750Y4711750D02*
X2855750Y4591750D01*
X2915750Y4711750D02*
X2915750Y4591750D01*
X2855750Y4651750D02*
X2975750Y4651750D01*
X3460000Y1180000D02*
X3580000Y1060000D01*
X3580000Y1180000D02*
X3460000Y1060000D01*
X3520000Y1180000D02*
X3520000Y1060000D01*
X3460000Y1120000D02*
X3580000Y1120000D01*
X3460000Y770000D02*
X3580000Y650000D01*
X3580000Y770000D02*
X3460000Y650000D01*
X3520000Y770000D02*
X3520000Y650000D01*
X3460000Y710000D02*
X3580000Y710000D01*
X3701315Y6803135D02*
X3821315Y6683135D01*
X3821315Y6803135D02*
X3701315Y6683135D01*
X3761315Y6803135D02*
X3761315Y6683135D01*
X3701315Y6743135D02*
X3821315Y6743135D01*
X3701315Y6453135D02*
X3821315Y6333135D01*
X3821315Y6453135D02*
X3701315Y6333135D01*
X3761315Y6453135D02*
X3761315Y6333135D01*
X3701315Y6393135D02*
X3821315Y6393135D01*
X4070000Y310000D02*
X4190000Y190000D01*
X4190000Y310000D02*
X4070000Y190000D01*
X4130000Y310000D02*
X4130000Y190000D01*
X4070000Y250000D02*
X4190000Y250000D01*
X4450000Y7830000D02*
X4570000Y7710000D01*
X4570000Y7830000D02*
X4450000Y7710000D01*
X4510000Y7830000D02*
X4510000Y7710000D01*
X4450000Y7770000D02*
X4570000Y7770000D01*
X4450000Y7480000D02*
X4570000Y7360000D01*
X4570000Y7480000D02*
X4450000Y7360000D01*
X4510000Y7480000D02*
X4510000Y7360000D01*
X4450000Y7420000D02*
X4570000Y7420000D01*
X4450000Y7130000D02*
X4570000Y7010000D01*
X4570000Y7130000D02*
X4450000Y7010000D01*
X4510000Y7130000D02*
X4510000Y7010000D01*
X4450000Y7070000D02*
X4570000Y7070000D01*
X4450000Y6780000D02*
X4570000Y6660000D01*
X4570000Y6780000D02*
X4450000Y6660000D01*
X4510000Y6780000D02*
X4510000Y6660000D01*
X4450000Y6720000D02*
X4570000Y6720000D01*
X4450000Y6430000D02*
X4570000Y6310000D01*
X4570000Y6430000D02*
X4450000Y6310000D01*
X4510000Y6430000D02*
X4510000Y6310000D01*
X4450000Y6370000D02*
X4570000Y6370000D01*
X4450000Y5500000D02*
X4570000Y5380000D01*
X4570000Y5500000D02*
X4450000Y5380000D01*
X4510000Y5500000D02*
X4510000Y5380000D01*
X4450000Y5440000D02*
X4570000Y5440000D01*
X4450000Y5150000D02*
X4570000Y5030000D01*
X4570000Y5150000D02*
X4450000Y5030000D01*
X4510000Y5150000D02*
X4510000Y5030000D01*
X4450000Y5090000D02*
X4570000Y5090000D01*
D15*
X4240000Y2310000D02*
X4380000Y2170000D01*
X4380000Y2310000D02*
X4240000Y2170000D01*
X4359498Y2190502D02*
X4359498Y2289498D01*
X4260502Y2289498D01*
X4260502Y2190502D01*
X4359498Y2190502D01*
X4240000Y1802000D02*
X4380000Y1662000D01*
X4380000Y1802000D02*
X4240000Y1662000D01*
X4359498Y1682502D02*
X4359498Y1781498D01*
X4260502Y1781498D01*
X4260502Y1682502D01*
X4359498Y1682502D01*
D16*
X140000Y6360000D02*
X460000Y6040000D01*
X460000Y6360000D02*
X140000Y6040000D01*
X300000Y6040000D02*
X460000Y6200000D01*
X300000Y6360000D01*
X140000Y6200000D01*
X300000Y6040000D01*
X4540000Y8860000D02*
X4860000Y8540000D01*
X4860000Y8860000D02*
X4540000Y8540000D01*
X4700000Y8540000D02*
X4860000Y8700000D01*
X4700000Y8860000D01*
X4540000Y8700000D01*
X4700000Y8540000D01*
X4540000Y460000D02*
X4860000Y140000D01*
X4860000Y460000D02*
X4540000Y140000D01*
X4700000Y140000D02*
X4860000Y300000D01*
X4700000Y460000D01*
X4540000Y300000D01*
X4700000Y140000D01*
D12*
X252777Y-319484D02*
X252777Y-119484D01*
X252777Y-119484D02*
X300396Y-119484D01*
X300396Y-119484D02*
X328967Y-129008D01*
X328967Y-129008D02*
X348015Y-148055D01*
X348015Y-148055D02*
X357539Y-167103D01*
X357539Y-167103D02*
X367062Y-205198D01*
X367062Y-205198D02*
X367062Y-233769D01*
X367062Y-233769D02*
X357539Y-271865D01*
X357539Y-271865D02*
X348015Y-290912D01*
X348015Y-290912D02*
X328967Y-309960D01*
X328967Y-309960D02*
X300396Y-319484D01*
X300396Y-319484D02*
X252777Y-319484D01*
X452777Y-319484D02*
X452777Y-186150D01*
X452777Y-224246D02*
X462301Y-205198D01*
X462301Y-205198D02*
X471824Y-195674D01*
X471824Y-195674D02*
X490872Y-186150D01*
X490872Y-186150D02*
X509920Y-186150D01*
X576586Y-319484D02*
X576586Y-186150D01*
X576586Y-119484D02*
X567063Y-129008D01*
X567063Y-129008D02*
X576586Y-138531D01*
X576586Y-138531D02*
X586110Y-129008D01*
X586110Y-129008D02*
X576586Y-119484D01*
X576586Y-119484D02*
X576586Y-138531D01*
X700396Y-319484D02*
X681348Y-309960D01*
X681348Y-309960D02*
X671824Y-290912D01*
X671824Y-290912D02*
X671824Y-119484D01*
X805158Y-319484D02*
X786110Y-309960D01*
X786110Y-309960D02*
X776586Y-290912D01*
X776586Y-290912D02*
X776586Y-119484D01*
X1033729Y-319484D02*
X1033729Y-119484D01*
X1033729Y-119484D02*
X1100396Y-262341D01*
X1100396Y-262341D02*
X1167063Y-119484D01*
X1167063Y-119484D02*
X1167063Y-319484D01*
X1348015Y-319484D02*
X1348015Y-214722D01*
X1348015Y-214722D02*
X1338491Y-195674D01*
X1338491Y-195674D02*
X1319444Y-186150D01*
X1319444Y-186150D02*
X1281348Y-186150D01*
X1281348Y-186150D02*
X1262301Y-195674D01*
X1348015Y-309960D02*
X1328967Y-319484D01*
X1328967Y-319484D02*
X1281348Y-319484D01*
X1281348Y-319484D02*
X1262301Y-309960D01*
X1262301Y-309960D02*
X1252777Y-290912D01*
X1252777Y-290912D02*
X1252777Y-271865D01*
X1252777Y-271865D02*
X1262301Y-252817D01*
X1262301Y-252817D02*
X1281348Y-243293D01*
X1281348Y-243293D02*
X1328967Y-243293D01*
X1328967Y-243293D02*
X1348015Y-233769D01*
X1443253Y-186150D02*
X1443253Y-386150D01*
X1443253Y-195674D02*
X1462301Y-186150D01*
X1462301Y-186150D02*
X1500396Y-186150D01*
X1500396Y-186150D02*
X1519443Y-195674D01*
X1519443Y-195674D02*
X1528967Y-205198D01*
X1528967Y-205198D02*
X1538491Y-224246D01*
X1538491Y-224246D02*
X1538491Y-281389D01*
X1538491Y-281389D02*
X1528967Y-300436D01*
X1528967Y-300436D02*
X1519443Y-309960D01*
X1519443Y-309960D02*
X1500396Y-319484D01*
X1500396Y-319484D02*
X1462301Y-319484D01*
X1462301Y-319484D02*
X1443253Y-309960D01*
X1624205Y-300436D02*
X1633729Y-309960D01*
X1633729Y-309960D02*
X1624205Y-319484D01*
X1624205Y-319484D02*
X1614682Y-309960D01*
X1614682Y-309960D02*
X1624205Y-300436D01*
X1624205Y-300436D02*
X1624205Y-319484D01*
X1624205Y-195674D02*
X1633729Y-205198D01*
X1633729Y-205198D02*
X1624205Y-214722D01*
X1624205Y-214722D02*
X1614682Y-205198D01*
X1614682Y-205198D02*
X1624205Y-195674D01*
X1624205Y-195674D02*
X1624205Y-214722D01*
D10*
X-68000Y-618000D02*
X-8000Y-678000D01*
X-8000Y-618000D02*
X-68000Y-678000D01*
D12*
X290872Y-539484D02*
X309920Y-539484D01*
X309920Y-539484D02*
X328967Y-549008D01*
X328967Y-549008D02*
X338491Y-558531D01*
X338491Y-558531D02*
X348015Y-577579D01*
X348015Y-577579D02*
X357539Y-615674D01*
X357539Y-615674D02*
X357539Y-663293D01*
X357539Y-663293D02*
X348015Y-701388D01*
X348015Y-701388D02*
X338491Y-720436D01*
X338491Y-720436D02*
X328967Y-729960D01*
X328967Y-729960D02*
X309920Y-739484D01*
X309920Y-739484D02*
X290872Y-739484D01*
X290872Y-739484D02*
X271824Y-729960D01*
X271824Y-729960D02*
X262301Y-720436D01*
X262301Y-720436D02*
X252777Y-701388D01*
X252777Y-701388D02*
X243253Y-663293D01*
X243253Y-663293D02*
X243253Y-615674D01*
X243253Y-615674D02*
X252777Y-577579D01*
X252777Y-577579D02*
X262301Y-558531D01*
X262301Y-558531D02*
X271824Y-549008D01*
X271824Y-549008D02*
X290872Y-539484D01*
X443253Y-720436D02*
X452777Y-729960D01*
X452777Y-729960D02*
X443253Y-739484D01*
X443253Y-739484D02*
X433729Y-729960D01*
X433729Y-729960D02*
X443253Y-720436D01*
X443253Y-720436D02*
X443253Y-739484D01*
X624205Y-539484D02*
X586110Y-539484D01*
X586110Y-539484D02*
X567063Y-549008D01*
X567063Y-549008D02*
X557539Y-558531D01*
X557539Y-558531D02*
X538491Y-587103D01*
X538491Y-587103D02*
X528967Y-625198D01*
X528967Y-625198D02*
X528967Y-701388D01*
X528967Y-701388D02*
X538491Y-720436D01*
X538491Y-720436D02*
X548015Y-729960D01*
X548015Y-729960D02*
X567063Y-739484D01*
X567063Y-739484D02*
X605158Y-739484D01*
X605158Y-739484D02*
X624205Y-729960D01*
X624205Y-729960D02*
X633729Y-720436D01*
X633729Y-720436D02*
X643253Y-701388D01*
X643253Y-701388D02*
X643253Y-653770D01*
X643253Y-653770D02*
X633729Y-634722D01*
X633729Y-634722D02*
X624205Y-625198D01*
X624205Y-625198D02*
X605158Y-615674D01*
X605158Y-615674D02*
X567063Y-615674D01*
X567063Y-615674D02*
X548015Y-625198D01*
X548015Y-625198D02*
X538491Y-634722D01*
X538491Y-634722D02*
X528967Y-653770D01*
X767062Y-539484D02*
X786110Y-539484D01*
X786110Y-539484D02*
X805158Y-549008D01*
X805158Y-549008D02*
X814682Y-558531D01*
X814682Y-558531D02*
X824205Y-577579D01*
X824205Y-577579D02*
X833729Y-615674D01*
X833729Y-615674D02*
X833729Y-663293D01*
X833729Y-663293D02*
X824205Y-701388D01*
X824205Y-701388D02*
X814682Y-720436D01*
X814682Y-720436D02*
X805158Y-729960D01*
X805158Y-729960D02*
X786110Y-739484D01*
X786110Y-739484D02*
X767062Y-739484D01*
X767062Y-739484D02*
X748015Y-729960D01*
X748015Y-729960D02*
X738491Y-720436D01*
X738491Y-720436D02*
X728967Y-701388D01*
X728967Y-701388D02*
X719443Y-663293D01*
X719443Y-663293D02*
X719443Y-615674D01*
X719443Y-615674D02*
X728967Y-577579D01*
X728967Y-577579D02*
X738491Y-558531D01*
X738491Y-558531D02*
X748015Y-549008D01*
X748015Y-549008D02*
X767062Y-539484D01*
X957539Y-539484D02*
X976586Y-539484D01*
X976586Y-539484D02*
X995634Y-549008D01*
X995634Y-549008D02*
X1005158Y-558531D01*
X1005158Y-558531D02*
X1014682Y-577579D01*
X1014682Y-577579D02*
X1024205Y-615674D01*
X1024205Y-615674D02*
X1024205Y-663293D01*
X1024205Y-663293D02*
X1014682Y-701388D01*
X1014682Y-701388D02*
X1005158Y-720436D01*
X1005158Y-720436D02*
X995634Y-729960D01*
X995634Y-729960D02*
X976586Y-739484D01*
X976586Y-739484D02*
X957539Y-739484D01*
X957539Y-739484D02*
X938491Y-729960D01*
X938491Y-729960D02*
X928967Y-720436D01*
X928967Y-720436D02*
X919443Y-701388D01*
X919443Y-701388D02*
X909920Y-663293D01*
X909920Y-663293D02*
X909920Y-615674D01*
X909920Y-615674D02*
X919443Y-577579D01*
X919443Y-577579D02*
X928967Y-558531D01*
X928967Y-558531D02*
X938491Y-549008D01*
X938491Y-549008D02*
X957539Y-539484D01*
X1109920Y-739484D02*
X1109920Y-606150D01*
X1109920Y-625198D02*
X1119444Y-615674D01*
X1119444Y-615674D02*
X1138491Y-606150D01*
X1138491Y-606150D02*
X1167063Y-606150D01*
X1167063Y-606150D02*
X1186110Y-615674D01*
X1186110Y-615674D02*
X1195634Y-634722D01*
X1195634Y-634722D02*
X1195634Y-739484D01*
X1195634Y-634722D02*
X1205158Y-615674D01*
X1205158Y-615674D02*
X1224205Y-606150D01*
X1224205Y-606150D02*
X1252777Y-606150D01*
X1252777Y-606150D02*
X1271825Y-615674D01*
X1271825Y-615674D02*
X1281348Y-634722D01*
X1281348Y-634722D02*
X1281348Y-739484D01*
X1376586Y-739484D02*
X1376586Y-606150D01*
X1376586Y-625198D02*
X1386110Y-615674D01*
X1386110Y-615674D02*
X1405158Y-606150D01*
X1405158Y-606150D02*
X1433729Y-606150D01*
X1433729Y-606150D02*
X1452777Y-615674D01*
X1452777Y-615674D02*
X1462301Y-634722D01*
X1462301Y-634722D02*
X1462301Y-739484D01*
X1462301Y-634722D02*
X1471824Y-615674D01*
X1471824Y-615674D02*
X1490872Y-606150D01*
X1490872Y-606150D02*
X1519443Y-606150D01*
X1519443Y-606150D02*
X1538491Y-615674D01*
X1538491Y-615674D02*
X1548015Y-634722D01*
X1548015Y-634722D02*
X1548015Y-739484D01*
X1938491Y-529960D02*
X1767063Y-787103D01*
X2195634Y-539484D02*
X2214682Y-539484D01*
X2214682Y-539484D02*
X2233729Y-549008D01*
X2233729Y-549008D02*
X2243253Y-558531D01*
X2243253Y-558531D02*
X2252777Y-577579D01*
X2252777Y-577579D02*
X2262301Y-615674D01*
X2262301Y-615674D02*
X2262301Y-663293D01*
X2262301Y-663293D02*
X2252777Y-701388D01*
X2252777Y-701388D02*
X2243253Y-720436D01*
X2243253Y-720436D02*
X2233729Y-729960D01*
X2233729Y-729960D02*
X2214682Y-739484D01*
X2214682Y-739484D02*
X2195634Y-739484D01*
X2195634Y-739484D02*
X2176587Y-729960D01*
X2176587Y-729960D02*
X2167063Y-720436D01*
X2167063Y-720436D02*
X2157539Y-701388D01*
X2157539Y-701388D02*
X2148015Y-663293D01*
X2148015Y-663293D02*
X2148015Y-615674D01*
X2148015Y-615674D02*
X2157539Y-577579D01*
X2157539Y-577579D02*
X2167063Y-558531D01*
X2167063Y-558531D02*
X2176587Y-549008D01*
X2176587Y-549008D02*
X2195634Y-539484D01*
X2348015Y-720436D02*
X2357539Y-729960D01*
X2357539Y-729960D02*
X2348015Y-739484D01*
X2348015Y-739484D02*
X2338491Y-729960D01*
X2338491Y-729960D02*
X2348015Y-720436D01*
X2348015Y-720436D02*
X2348015Y-739484D01*
X2481348Y-539484D02*
X2500396Y-539484D01*
X2500396Y-539484D02*
X2519444Y-549008D01*
X2519444Y-549008D02*
X2528968Y-558531D01*
X2528968Y-558531D02*
X2538491Y-577579D01*
X2538491Y-577579D02*
X2548015Y-615674D01*
X2548015Y-615674D02*
X2548015Y-663293D01*
X2548015Y-663293D02*
X2538491Y-701388D01*
X2538491Y-701388D02*
X2528968Y-720436D01*
X2528968Y-720436D02*
X2519444Y-729960D01*
X2519444Y-729960D02*
X2500396Y-739484D01*
X2500396Y-739484D02*
X2481348Y-739484D01*
X2481348Y-739484D02*
X2462301Y-729960D01*
X2462301Y-729960D02*
X2452777Y-720436D01*
X2452777Y-720436D02*
X2443253Y-701388D01*
X2443253Y-701388D02*
X2433729Y-663293D01*
X2433729Y-663293D02*
X2433729Y-615674D01*
X2433729Y-615674D02*
X2443253Y-577579D01*
X2443253Y-577579D02*
X2452777Y-558531D01*
X2452777Y-558531D02*
X2462301Y-549008D01*
X2462301Y-549008D02*
X2481348Y-539484D01*
X2624206Y-558531D02*
X2633729Y-549008D01*
X2633729Y-549008D02*
X2652777Y-539484D01*
X2652777Y-539484D02*
X2700396Y-539484D01*
X2700396Y-539484D02*
X2719444Y-549008D01*
X2719444Y-549008D02*
X2728968Y-558531D01*
X2728968Y-558531D02*
X2738491Y-577579D01*
X2738491Y-577579D02*
X2738491Y-596627D01*
X2738491Y-596627D02*
X2728968Y-625198D01*
X2728968Y-625198D02*
X2614682Y-739484D01*
X2614682Y-739484D02*
X2738491Y-739484D01*
X2805158Y-539484D02*
X2928967Y-539484D01*
X2928967Y-539484D02*
X2862301Y-615674D01*
X2862301Y-615674D02*
X2890872Y-615674D01*
X2890872Y-615674D02*
X2909920Y-625198D01*
X2909920Y-625198D02*
X2919444Y-634722D01*
X2919444Y-634722D02*
X2928967Y-653770D01*
X2928967Y-653770D02*
X2928967Y-701388D01*
X2928967Y-701388D02*
X2919444Y-720436D01*
X2919444Y-720436D02*
X2909920Y-729960D01*
X2909920Y-729960D02*
X2890872Y-739484D01*
X2890872Y-739484D02*
X2833729Y-739484D01*
X2833729Y-739484D02*
X2814682Y-729960D01*
X2814682Y-729960D02*
X2805158Y-720436D01*
X3100396Y-539484D02*
X3062301Y-539484D01*
X3062301Y-539484D02*
X3043253Y-549008D01*
X3043253Y-549008D02*
X3033729Y-558531D01*
X3033729Y-558531D02*
X3014682Y-587103D01*
X3014682Y-587103D02*
X3005158Y-625198D01*
X3005158Y-625198D02*
X3005158Y-701388D01*
X3005158Y-701388D02*
X3014682Y-720436D01*
X3014682Y-720436D02*
X3024206Y-729960D01*
X3024206Y-729960D02*
X3043253Y-739484D01*
X3043253Y-739484D02*
X3081348Y-739484D01*
X3081348Y-739484D02*
X3100396Y-729960D01*
X3100396Y-729960D02*
X3109920Y-720436D01*
X3109920Y-720436D02*
X3119444Y-701388D01*
X3119444Y-701388D02*
X3119444Y-653770D01*
X3119444Y-653770D02*
X3109920Y-634722D01*
X3109920Y-634722D02*
X3100396Y-625198D01*
X3100396Y-625198D02*
X3081348Y-615674D01*
X3081348Y-615674D02*
X3043253Y-615674D01*
X3043253Y-615674D02*
X3024206Y-625198D01*
X3024206Y-625198D02*
X3014682Y-634722D01*
X3014682Y-634722D02*
X3005158Y-653770D01*
X3195634Y-539484D02*
X3195634Y-577579D01*
X3271825Y-539484D02*
X3271825Y-577579D01*
X3567063Y-815674D02*
X3557539Y-806150D01*
X3557539Y-806150D02*
X3538491Y-777579D01*
X3538491Y-777579D02*
X3528968Y-758531D01*
X3528968Y-758531D02*
X3519444Y-729960D01*
X3519444Y-729960D02*
X3509920Y-682341D01*
X3509920Y-682341D02*
X3509920Y-644246D01*
X3509920Y-644246D02*
X3519444Y-596627D01*
X3519444Y-596627D02*
X3528968Y-568055D01*
X3528968Y-568055D02*
X3538491Y-549008D01*
X3538491Y-549008D02*
X3557539Y-520436D01*
X3557539Y-520436D02*
X3567063Y-510912D01*
X3633729Y-558531D02*
X3643253Y-549008D01*
X3643253Y-549008D02*
X3662301Y-539484D01*
X3662301Y-539484D02*
X3709920Y-539484D01*
X3709920Y-539484D02*
X3728968Y-549008D01*
X3728968Y-549008D02*
X3738491Y-558531D01*
X3738491Y-558531D02*
X3748015Y-577579D01*
X3748015Y-577579D02*
X3748015Y-596627D01*
X3748015Y-596627D02*
X3738491Y-625198D01*
X3738491Y-625198D02*
X3624206Y-739484D01*
X3624206Y-739484D02*
X3748015Y-739484D01*
X3919444Y-606150D02*
X3919444Y-739484D01*
X3871825Y-529960D02*
X3824206Y-672817D01*
X3824206Y-672817D02*
X3948015Y-672817D01*
X4176587Y-739484D02*
X4176587Y-539484D01*
X4262301Y-739484D02*
X4262301Y-634722D01*
X4262301Y-634722D02*
X4252777Y-615674D01*
X4252777Y-615674D02*
X4233730Y-606150D01*
X4233730Y-606150D02*
X4205158Y-606150D01*
X4205158Y-606150D02*
X4186110Y-615674D01*
X4186110Y-615674D02*
X4176587Y-625198D01*
X4386111Y-739484D02*
X4367063Y-729960D01*
X4367063Y-729960D02*
X4357539Y-720436D01*
X4357539Y-720436D02*
X4348015Y-701388D01*
X4348015Y-701388D02*
X4348015Y-644246D01*
X4348015Y-644246D02*
X4357539Y-625198D01*
X4357539Y-625198D02*
X4367063Y-615674D01*
X4367063Y-615674D02*
X4386111Y-606150D01*
X4386111Y-606150D02*
X4414682Y-606150D01*
X4414682Y-606150D02*
X4433730Y-615674D01*
X4433730Y-615674D02*
X4443253Y-625198D01*
X4443253Y-625198D02*
X4452777Y-644246D01*
X4452777Y-644246D02*
X4452777Y-701388D01*
X4452777Y-701388D02*
X4443253Y-720436D01*
X4443253Y-720436D02*
X4433730Y-729960D01*
X4433730Y-729960D02*
X4414682Y-739484D01*
X4414682Y-739484D02*
X4386111Y-739484D01*
X4567063Y-739484D02*
X4548015Y-729960D01*
X4548015Y-729960D02*
X4538492Y-710912D01*
X4538492Y-710912D02*
X4538492Y-539484D01*
X4719444Y-729960D02*
X4700396Y-739484D01*
X4700396Y-739484D02*
X4662301Y-739484D01*
X4662301Y-739484D02*
X4643253Y-729960D01*
X4643253Y-729960D02*
X4633730Y-710912D01*
X4633730Y-710912D02*
X4633730Y-634722D01*
X4633730Y-634722D02*
X4643253Y-615674D01*
X4643253Y-615674D02*
X4662301Y-606150D01*
X4662301Y-606150D02*
X4700396Y-606150D01*
X4700396Y-606150D02*
X4719444Y-615674D01*
X4719444Y-615674D02*
X4728968Y-634722D01*
X4728968Y-634722D02*
X4728968Y-653770D01*
X4728968Y-653770D02*
X4633730Y-672817D01*
X4805158Y-729960D02*
X4824206Y-739484D01*
X4824206Y-739484D02*
X4862301Y-739484D01*
X4862301Y-739484D02*
X4881349Y-729960D01*
X4881349Y-729960D02*
X4890873Y-710912D01*
X4890873Y-710912D02*
X4890873Y-701388D01*
X4890873Y-701388D02*
X4881349Y-682341D01*
X4881349Y-682341D02*
X4862301Y-672817D01*
X4862301Y-672817D02*
X4833730Y-672817D01*
X4833730Y-672817D02*
X4814682Y-663293D01*
X4814682Y-663293D02*
X4805158Y-644246D01*
X4805158Y-644246D02*
X4805158Y-634722D01*
X4805158Y-634722D02*
X4814682Y-615674D01*
X4814682Y-615674D02*
X4833730Y-606150D01*
X4833730Y-606150D02*
X4862301Y-606150D01*
X4862301Y-606150D02*
X4881349Y-615674D01*
X4957539Y-815674D02*
X4967063Y-806150D01*
X4967063Y-806150D02*
X4986111Y-777579D01*
X4986111Y-777579D02*
X4995634Y-758531D01*
X4995634Y-758531D02*
X5005158Y-729960D01*
X5005158Y-729960D02*
X5014682Y-682341D01*
X5014682Y-682341D02*
X5014682Y-644246D01*
X5014682Y-644246D02*
X5005158Y-596627D01*
X5005158Y-596627D02*
X4995634Y-568055D01*
X4995634Y-568055D02*
X4986111Y-549008D01*
X4986111Y-549008D02*
X4967063Y-520436D01*
X4967063Y-520436D02*
X4957539Y-510912D01*
D10*
X-8000Y-912000D02*
G75*
G03*
X-88000Y-912000I-40000J0D01*
G01*
X-88000Y-912000D02*
G75*
G03*
X-8000Y-912000I40000J0D01*
G01*
D12*
X290872Y-803484D02*
X309920Y-803484D01*
X309920Y-803484D02*
X328967Y-813008D01*
X328967Y-813008D02*
X338491Y-822531D01*
X338491Y-822531D02*
X348015Y-841579D01*
X348015Y-841579D02*
X357539Y-879674D01*
X357539Y-879674D02*
X357539Y-927293D01*
X357539Y-927293D02*
X348015Y-965388D01*
X348015Y-965388D02*
X338491Y-984436D01*
X338491Y-984436D02*
X328967Y-993960D01*
X328967Y-993960D02*
X309920Y-1003484D01*
X309920Y-1003484D02*
X290872Y-1003484D01*
X290872Y-1003484D02*
X271824Y-993960D01*
X271824Y-993960D02*
X262301Y-984436D01*
X262301Y-984436D02*
X252777Y-965388D01*
X252777Y-965388D02*
X243253Y-927293D01*
X243253Y-927293D02*
X243253Y-879674D01*
X243253Y-879674D02*
X252777Y-841579D01*
X252777Y-841579D02*
X262301Y-822531D01*
X262301Y-822531D02*
X271824Y-813008D01*
X271824Y-813008D02*
X290872Y-803484D01*
X443253Y-984436D02*
X452777Y-993960D01*
X452777Y-993960D02*
X443253Y-1003484D01*
X443253Y-1003484D02*
X433729Y-993960D01*
X433729Y-993960D02*
X443253Y-984436D01*
X443253Y-984436D02*
X443253Y-1003484D01*
X567063Y-889198D02*
X548015Y-879674D01*
X548015Y-879674D02*
X538491Y-870150D01*
X538491Y-870150D02*
X528967Y-851103D01*
X528967Y-851103D02*
X528967Y-841579D01*
X528967Y-841579D02*
X538491Y-822531D01*
X538491Y-822531D02*
X548015Y-813008D01*
X548015Y-813008D02*
X567063Y-803484D01*
X567063Y-803484D02*
X605158Y-803484D01*
X605158Y-803484D02*
X624205Y-813008D01*
X624205Y-813008D02*
X633729Y-822531D01*
X633729Y-822531D02*
X643253Y-841579D01*
X643253Y-841579D02*
X643253Y-851103D01*
X643253Y-851103D02*
X633729Y-870150D01*
X633729Y-870150D02*
X624205Y-879674D01*
X624205Y-879674D02*
X605158Y-889198D01*
X605158Y-889198D02*
X567063Y-889198D01*
X567063Y-889198D02*
X548015Y-898722D01*
X548015Y-898722D02*
X538491Y-908246D01*
X538491Y-908246D02*
X528967Y-927293D01*
X528967Y-927293D02*
X528967Y-965388D01*
X528967Y-965388D02*
X538491Y-984436D01*
X538491Y-984436D02*
X548015Y-993960D01*
X548015Y-993960D02*
X567063Y-1003484D01*
X567063Y-1003484D02*
X605158Y-1003484D01*
X605158Y-1003484D02*
X624205Y-993960D01*
X624205Y-993960D02*
X633729Y-984436D01*
X633729Y-984436D02*
X643253Y-965388D01*
X643253Y-965388D02*
X643253Y-927293D01*
X643253Y-927293D02*
X633729Y-908246D01*
X633729Y-908246D02*
X624205Y-898722D01*
X624205Y-898722D02*
X605158Y-889198D01*
X767062Y-803484D02*
X786110Y-803484D01*
X786110Y-803484D02*
X805158Y-813008D01*
X805158Y-813008D02*
X814682Y-822531D01*
X814682Y-822531D02*
X824205Y-841579D01*
X824205Y-841579D02*
X833729Y-879674D01*
X833729Y-879674D02*
X833729Y-927293D01*
X833729Y-927293D02*
X824205Y-965388D01*
X824205Y-965388D02*
X814682Y-984436D01*
X814682Y-984436D02*
X805158Y-993960D01*
X805158Y-993960D02*
X786110Y-1003484D01*
X786110Y-1003484D02*
X767062Y-1003484D01*
X767062Y-1003484D02*
X748015Y-993960D01*
X748015Y-993960D02*
X738491Y-984436D01*
X738491Y-984436D02*
X728967Y-965388D01*
X728967Y-965388D02*
X719443Y-927293D01*
X719443Y-927293D02*
X719443Y-879674D01*
X719443Y-879674D02*
X728967Y-841579D01*
X728967Y-841579D02*
X738491Y-822531D01*
X738491Y-822531D02*
X748015Y-813008D01*
X748015Y-813008D02*
X767062Y-803484D01*
X957539Y-803484D02*
X976586Y-803484D01*
X976586Y-803484D02*
X995634Y-813008D01*
X995634Y-813008D02*
X1005158Y-822531D01*
X1005158Y-822531D02*
X1014682Y-841579D01*
X1014682Y-841579D02*
X1024205Y-879674D01*
X1024205Y-879674D02*
X1024205Y-927293D01*
X1024205Y-927293D02*
X1014682Y-965388D01*
X1014682Y-965388D02*
X1005158Y-984436D01*
X1005158Y-984436D02*
X995634Y-993960D01*
X995634Y-993960D02*
X976586Y-1003484D01*
X976586Y-1003484D02*
X957539Y-1003484D01*
X957539Y-1003484D02*
X938491Y-993960D01*
X938491Y-993960D02*
X928967Y-984436D01*
X928967Y-984436D02*
X919443Y-965388D01*
X919443Y-965388D02*
X909920Y-927293D01*
X909920Y-927293D02*
X909920Y-879674D01*
X909920Y-879674D02*
X919443Y-841579D01*
X919443Y-841579D02*
X928967Y-822531D01*
X928967Y-822531D02*
X938491Y-813008D01*
X938491Y-813008D02*
X957539Y-803484D01*
X1109920Y-1003484D02*
X1109920Y-870150D01*
X1109920Y-889198D02*
X1119444Y-879674D01*
X1119444Y-879674D02*
X1138491Y-870150D01*
X1138491Y-870150D02*
X1167063Y-870150D01*
X1167063Y-870150D02*
X1186110Y-879674D01*
X1186110Y-879674D02*
X1195634Y-898722D01*
X1195634Y-898722D02*
X1195634Y-1003484D01*
X1195634Y-898722D02*
X1205158Y-879674D01*
X1205158Y-879674D02*
X1224205Y-870150D01*
X1224205Y-870150D02*
X1252777Y-870150D01*
X1252777Y-870150D02*
X1271825Y-879674D01*
X1271825Y-879674D02*
X1281348Y-898722D01*
X1281348Y-898722D02*
X1281348Y-1003484D01*
X1376586Y-1003484D02*
X1376586Y-870150D01*
X1376586Y-889198D02*
X1386110Y-879674D01*
X1386110Y-879674D02*
X1405158Y-870150D01*
X1405158Y-870150D02*
X1433729Y-870150D01*
X1433729Y-870150D02*
X1452777Y-879674D01*
X1452777Y-879674D02*
X1462301Y-898722D01*
X1462301Y-898722D02*
X1462301Y-1003484D01*
X1462301Y-898722D02*
X1471824Y-879674D01*
X1471824Y-879674D02*
X1490872Y-870150D01*
X1490872Y-870150D02*
X1519443Y-870150D01*
X1519443Y-870150D02*
X1538491Y-879674D01*
X1538491Y-879674D02*
X1548015Y-898722D01*
X1548015Y-898722D02*
X1548015Y-1003484D01*
X1938491Y-793960D02*
X1767063Y-1051103D01*
X2195634Y-803484D02*
X2214682Y-803484D01*
X2214682Y-803484D02*
X2233729Y-813008D01*
X2233729Y-813008D02*
X2243253Y-822531D01*
X2243253Y-822531D02*
X2252777Y-841579D01*
X2252777Y-841579D02*
X2262301Y-879674D01*
X2262301Y-879674D02*
X2262301Y-927293D01*
X2262301Y-927293D02*
X2252777Y-965388D01*
X2252777Y-965388D02*
X2243253Y-984436D01*
X2243253Y-984436D02*
X2233729Y-993960D01*
X2233729Y-993960D02*
X2214682Y-1003484D01*
X2214682Y-1003484D02*
X2195634Y-1003484D01*
X2195634Y-1003484D02*
X2176587Y-993960D01*
X2176587Y-993960D02*
X2167063Y-984436D01*
X2167063Y-984436D02*
X2157539Y-965388D01*
X2157539Y-965388D02*
X2148015Y-927293D01*
X2148015Y-927293D02*
X2148015Y-879674D01*
X2148015Y-879674D02*
X2157539Y-841579D01*
X2157539Y-841579D02*
X2167063Y-822531D01*
X2167063Y-822531D02*
X2176587Y-813008D01*
X2176587Y-813008D02*
X2195634Y-803484D01*
X2348015Y-984436D02*
X2357539Y-993960D01*
X2357539Y-993960D02*
X2348015Y-1003484D01*
X2348015Y-1003484D02*
X2338491Y-993960D01*
X2338491Y-993960D02*
X2348015Y-984436D01*
X2348015Y-984436D02*
X2348015Y-1003484D01*
X2481348Y-803484D02*
X2500396Y-803484D01*
X2500396Y-803484D02*
X2519444Y-813008D01*
X2519444Y-813008D02*
X2528968Y-822531D01*
X2528968Y-822531D02*
X2538491Y-841579D01*
X2538491Y-841579D02*
X2548015Y-879674D01*
X2548015Y-879674D02*
X2548015Y-927293D01*
X2548015Y-927293D02*
X2538491Y-965388D01*
X2538491Y-965388D02*
X2528968Y-984436D01*
X2528968Y-984436D02*
X2519444Y-993960D01*
X2519444Y-993960D02*
X2500396Y-1003484D01*
X2500396Y-1003484D02*
X2481348Y-1003484D01*
X2481348Y-1003484D02*
X2462301Y-993960D01*
X2462301Y-993960D02*
X2452777Y-984436D01*
X2452777Y-984436D02*
X2443253Y-965388D01*
X2443253Y-965388D02*
X2433729Y-927293D01*
X2433729Y-927293D02*
X2433729Y-879674D01*
X2433729Y-879674D02*
X2443253Y-841579D01*
X2443253Y-841579D02*
X2452777Y-822531D01*
X2452777Y-822531D02*
X2462301Y-813008D01*
X2462301Y-813008D02*
X2481348Y-803484D01*
X2614682Y-803484D02*
X2738491Y-803484D01*
X2738491Y-803484D02*
X2671825Y-879674D01*
X2671825Y-879674D02*
X2700396Y-879674D01*
X2700396Y-879674D02*
X2719444Y-889198D01*
X2719444Y-889198D02*
X2728968Y-898722D01*
X2728968Y-898722D02*
X2738491Y-917769D01*
X2738491Y-917769D02*
X2738491Y-965388D01*
X2738491Y-965388D02*
X2728968Y-984436D01*
X2728968Y-984436D02*
X2719444Y-993960D01*
X2719444Y-993960D02*
X2700396Y-1003484D01*
X2700396Y-1003484D02*
X2643253Y-1003484D01*
X2643253Y-1003484D02*
X2624206Y-993960D01*
X2624206Y-993960D02*
X2614682Y-984436D01*
X2928967Y-1003484D02*
X2814682Y-1003484D01*
X2871825Y-1003484D02*
X2871825Y-803484D01*
X2871825Y-803484D02*
X2852777Y-832055D01*
X2852777Y-832055D02*
X2833729Y-851103D01*
X2833729Y-851103D02*
X2814682Y-860627D01*
X3109920Y-803484D02*
X3014682Y-803484D01*
X3014682Y-803484D02*
X3005158Y-898722D01*
X3005158Y-898722D02*
X3014682Y-889198D01*
X3014682Y-889198D02*
X3033729Y-879674D01*
X3033729Y-879674D02*
X3081348Y-879674D01*
X3081348Y-879674D02*
X3100396Y-889198D01*
X3100396Y-889198D02*
X3109920Y-898722D01*
X3109920Y-898722D02*
X3119444Y-917769D01*
X3119444Y-917769D02*
X3119444Y-965388D01*
X3119444Y-965388D02*
X3109920Y-984436D01*
X3109920Y-984436D02*
X3100396Y-993960D01*
X3100396Y-993960D02*
X3081348Y-1003484D01*
X3081348Y-1003484D02*
X3033729Y-1003484D01*
X3033729Y-1003484D02*
X3014682Y-993960D01*
X3014682Y-993960D02*
X3005158Y-984436D01*
X3195634Y-803484D02*
X3195634Y-841579D01*
X3271825Y-803484D02*
X3271825Y-841579D01*
X3567063Y-1079674D02*
X3557539Y-1070150D01*
X3557539Y-1070150D02*
X3538491Y-1041579D01*
X3538491Y-1041579D02*
X3528968Y-1022531D01*
X3528968Y-1022531D02*
X3519444Y-993960D01*
X3519444Y-993960D02*
X3509920Y-946341D01*
X3509920Y-946341D02*
X3509920Y-908246D01*
X3509920Y-908246D02*
X3519444Y-860627D01*
X3519444Y-860627D02*
X3528968Y-832055D01*
X3528968Y-832055D02*
X3538491Y-813008D01*
X3538491Y-813008D02*
X3557539Y-784436D01*
X3557539Y-784436D02*
X3567063Y-774912D01*
X3748015Y-1003484D02*
X3633729Y-1003484D01*
X3690872Y-1003484D02*
X3690872Y-803484D01*
X3690872Y-803484D02*
X3671825Y-832055D01*
X3671825Y-832055D02*
X3652777Y-851103D01*
X3652777Y-851103D02*
X3633729Y-860627D01*
X3862301Y-889198D02*
X3843253Y-879674D01*
X3843253Y-879674D02*
X3833729Y-870150D01*
X3833729Y-870150D02*
X3824206Y-851103D01*
X3824206Y-851103D02*
X3824206Y-841579D01*
X3824206Y-841579D02*
X3833729Y-822531D01*
X3833729Y-822531D02*
X3843253Y-813008D01*
X3843253Y-813008D02*
X3862301Y-803484D01*
X3862301Y-803484D02*
X3900396Y-803484D01*
X3900396Y-803484D02*
X3919444Y-813008D01*
X3919444Y-813008D02*
X3928968Y-822531D01*
X3928968Y-822531D02*
X3938491Y-841579D01*
X3938491Y-841579D02*
X3938491Y-851103D01*
X3938491Y-851103D02*
X3928968Y-870150D01*
X3928968Y-870150D02*
X3919444Y-879674D01*
X3919444Y-879674D02*
X3900396Y-889198D01*
X3900396Y-889198D02*
X3862301Y-889198D01*
X3862301Y-889198D02*
X3843253Y-898722D01*
X3843253Y-898722D02*
X3833729Y-908246D01*
X3833729Y-908246D02*
X3824206Y-927293D01*
X3824206Y-927293D02*
X3824206Y-965388D01*
X3824206Y-965388D02*
X3833729Y-984436D01*
X3833729Y-984436D02*
X3843253Y-993960D01*
X3843253Y-993960D02*
X3862301Y-1003484D01*
X3862301Y-1003484D02*
X3900396Y-1003484D01*
X3900396Y-1003484D02*
X3919444Y-993960D01*
X3919444Y-993960D02*
X3928968Y-984436D01*
X3928968Y-984436D02*
X3938491Y-965388D01*
X3938491Y-965388D02*
X3938491Y-927293D01*
X3938491Y-927293D02*
X3928968Y-908246D01*
X3928968Y-908246D02*
X3919444Y-898722D01*
X3919444Y-898722D02*
X3900396Y-889198D01*
X4176587Y-1003484D02*
X4176587Y-803484D01*
X4262301Y-1003484D02*
X4262301Y-898722D01*
X4262301Y-898722D02*
X4252777Y-879674D01*
X4252777Y-879674D02*
X4233730Y-870150D01*
X4233730Y-870150D02*
X4205158Y-870150D01*
X4205158Y-870150D02*
X4186110Y-879674D01*
X4186110Y-879674D02*
X4176587Y-889198D01*
X4386111Y-1003484D02*
X4367063Y-993960D01*
X4367063Y-993960D02*
X4357539Y-984436D01*
X4357539Y-984436D02*
X4348015Y-965388D01*
X4348015Y-965388D02*
X4348015Y-908246D01*
X4348015Y-908246D02*
X4357539Y-889198D01*
X4357539Y-889198D02*
X4367063Y-879674D01*
X4367063Y-879674D02*
X4386111Y-870150D01*
X4386111Y-870150D02*
X4414682Y-870150D01*
X4414682Y-870150D02*
X4433730Y-879674D01*
X4433730Y-879674D02*
X4443253Y-889198D01*
X4443253Y-889198D02*
X4452777Y-908246D01*
X4452777Y-908246D02*
X4452777Y-965388D01*
X4452777Y-965388D02*
X4443253Y-984436D01*
X4443253Y-984436D02*
X4433730Y-993960D01*
X4433730Y-993960D02*
X4414682Y-1003484D01*
X4414682Y-1003484D02*
X4386111Y-1003484D01*
X4567063Y-1003484D02*
X4548015Y-993960D01*
X4548015Y-993960D02*
X4538492Y-974912D01*
X4538492Y-974912D02*
X4538492Y-803484D01*
X4719444Y-993960D02*
X4700396Y-1003484D01*
X4700396Y-1003484D02*
X4662301Y-1003484D01*
X4662301Y-1003484D02*
X4643253Y-993960D01*
X4643253Y-993960D02*
X4633730Y-974912D01*
X4633730Y-974912D02*
X4633730Y-898722D01*
X4633730Y-898722D02*
X4643253Y-879674D01*
X4643253Y-879674D02*
X4662301Y-870150D01*
X4662301Y-870150D02*
X4700396Y-870150D01*
X4700396Y-870150D02*
X4719444Y-879674D01*
X4719444Y-879674D02*
X4728968Y-898722D01*
X4728968Y-898722D02*
X4728968Y-917769D01*
X4728968Y-917769D02*
X4633730Y-936817D01*
X4805158Y-993960D02*
X4824206Y-1003484D01*
X4824206Y-1003484D02*
X4862301Y-1003484D01*
X4862301Y-1003484D02*
X4881349Y-993960D01*
X4881349Y-993960D02*
X4890873Y-974912D01*
X4890873Y-974912D02*
X4890873Y-965388D01*
X4890873Y-965388D02*
X4881349Y-946341D01*
X4881349Y-946341D02*
X4862301Y-936817D01*
X4862301Y-936817D02*
X4833730Y-936817D01*
X4833730Y-936817D02*
X4814682Y-927293D01*
X4814682Y-927293D02*
X4805158Y-908246D01*
X4805158Y-908246D02*
X4805158Y-898722D01*
X4805158Y-898722D02*
X4814682Y-879674D01*
X4814682Y-879674D02*
X4833730Y-870150D01*
X4833730Y-870150D02*
X4862301Y-870150D01*
X4862301Y-870150D02*
X4881349Y-879674D01*
X4957539Y-1079674D02*
X4967063Y-1070150D01*
X4967063Y-1070150D02*
X4986111Y-1041579D01*
X4986111Y-1041579D02*
X4995634Y-1022531D01*
X4995634Y-1022531D02*
X5005158Y-993960D01*
X5005158Y-993960D02*
X5014682Y-946341D01*
X5014682Y-946341D02*
X5014682Y-908246D01*
X5014682Y-908246D02*
X5005158Y-860627D01*
X5005158Y-860627D02*
X4995634Y-832055D01*
X4995634Y-832055D02*
X4986111Y-813008D01*
X4986111Y-813008D02*
X4967063Y-784436D01*
X4967063Y-784436D02*
X4957539Y-774912D01*
D10*
X-55500Y-1128500D02*
X-55500Y-1223500D01*
X-103000Y-1176000D02*
X-8000Y-1176000D01*
D12*
X290872Y-1067484D02*
X309920Y-1067484D01*
X309920Y-1067484D02*
X328967Y-1077008D01*
X328967Y-1077008D02*
X338491Y-1086531D01*
X338491Y-1086531D02*
X348015Y-1105579D01*
X348015Y-1105579D02*
X357539Y-1143674D01*
X357539Y-1143674D02*
X357539Y-1191293D01*
X357539Y-1191293D02*
X348015Y-1229389D01*
X348015Y-1229389D02*
X338491Y-1248436D01*
X338491Y-1248436D02*
X328967Y-1257960D01*
X328967Y-1257960D02*
X309920Y-1267484D01*
X309920Y-1267484D02*
X290872Y-1267484D01*
X290872Y-1267484D02*
X271824Y-1257960D01*
X271824Y-1257960D02*
X262301Y-1248436D01*
X262301Y-1248436D02*
X252777Y-1229389D01*
X252777Y-1229389D02*
X243253Y-1191293D01*
X243253Y-1191293D02*
X243253Y-1143674D01*
X243253Y-1143674D02*
X252777Y-1105579D01*
X252777Y-1105579D02*
X262301Y-1086531D01*
X262301Y-1086531D02*
X271824Y-1077008D01*
X271824Y-1077008D02*
X290872Y-1067484D01*
X443253Y-1248436D02*
X452777Y-1257960D01*
X452777Y-1257960D02*
X443253Y-1267484D01*
X443253Y-1267484D02*
X433729Y-1257960D01*
X433729Y-1257960D02*
X443253Y-1248436D01*
X443253Y-1248436D02*
X443253Y-1267484D01*
X548015Y-1267484D02*
X586110Y-1267484D01*
X586110Y-1267484D02*
X605158Y-1257960D01*
X605158Y-1257960D02*
X614682Y-1248436D01*
X614682Y-1248436D02*
X633729Y-1219865D01*
X633729Y-1219865D02*
X643253Y-1181770D01*
X643253Y-1181770D02*
X643253Y-1105579D01*
X643253Y-1105579D02*
X633729Y-1086531D01*
X633729Y-1086531D02*
X624205Y-1077008D01*
X624205Y-1077008D02*
X605158Y-1067484D01*
X605158Y-1067484D02*
X567063Y-1067484D01*
X567063Y-1067484D02*
X548015Y-1077008D01*
X548015Y-1077008D02*
X538491Y-1086531D01*
X538491Y-1086531D02*
X528967Y-1105579D01*
X528967Y-1105579D02*
X528967Y-1153198D01*
X528967Y-1153198D02*
X538491Y-1172246D01*
X538491Y-1172246D02*
X548015Y-1181770D01*
X548015Y-1181770D02*
X567063Y-1191293D01*
X567063Y-1191293D02*
X605158Y-1191293D01*
X605158Y-1191293D02*
X624205Y-1181770D01*
X624205Y-1181770D02*
X633729Y-1172246D01*
X633729Y-1172246D02*
X643253Y-1153198D01*
X824205Y-1067484D02*
X728967Y-1067484D01*
X728967Y-1067484D02*
X719443Y-1162722D01*
X719443Y-1162722D02*
X728967Y-1153198D01*
X728967Y-1153198D02*
X748015Y-1143674D01*
X748015Y-1143674D02*
X795634Y-1143674D01*
X795634Y-1143674D02*
X814682Y-1153198D01*
X814682Y-1153198D02*
X824205Y-1162722D01*
X824205Y-1162722D02*
X833729Y-1181770D01*
X833729Y-1181770D02*
X833729Y-1229389D01*
X833729Y-1229389D02*
X824205Y-1248436D01*
X824205Y-1248436D02*
X814682Y-1257960D01*
X814682Y-1257960D02*
X795634Y-1267484D01*
X795634Y-1267484D02*
X748015Y-1267484D01*
X748015Y-1267484D02*
X728967Y-1257960D01*
X728967Y-1257960D02*
X719443Y-1248436D01*
X957539Y-1067484D02*
X976586Y-1067484D01*
X976586Y-1067484D02*
X995634Y-1077008D01*
X995634Y-1077008D02*
X1005158Y-1086531D01*
X1005158Y-1086531D02*
X1014682Y-1105579D01*
X1014682Y-1105579D02*
X1024205Y-1143674D01*
X1024205Y-1143674D02*
X1024205Y-1191293D01*
X1024205Y-1191293D02*
X1014682Y-1229389D01*
X1014682Y-1229389D02*
X1005158Y-1248436D01*
X1005158Y-1248436D02*
X995634Y-1257960D01*
X995634Y-1257960D02*
X976586Y-1267484D01*
X976586Y-1267484D02*
X957539Y-1267484D01*
X957539Y-1267484D02*
X938491Y-1257960D01*
X938491Y-1257960D02*
X928967Y-1248436D01*
X928967Y-1248436D02*
X919443Y-1229389D01*
X919443Y-1229389D02*
X909920Y-1191293D01*
X909920Y-1191293D02*
X909920Y-1143674D01*
X909920Y-1143674D02*
X919443Y-1105579D01*
X919443Y-1105579D02*
X928967Y-1086531D01*
X928967Y-1086531D02*
X938491Y-1077008D01*
X938491Y-1077008D02*
X957539Y-1067484D01*
X1109920Y-1267484D02*
X1109920Y-1134150D01*
X1109920Y-1153198D02*
X1119444Y-1143674D01*
X1119444Y-1143674D02*
X1138491Y-1134150D01*
X1138491Y-1134150D02*
X1167063Y-1134150D01*
X1167063Y-1134150D02*
X1186110Y-1143674D01*
X1186110Y-1143674D02*
X1195634Y-1162722D01*
X1195634Y-1162722D02*
X1195634Y-1267484D01*
X1195634Y-1162722D02*
X1205158Y-1143674D01*
X1205158Y-1143674D02*
X1224205Y-1134150D01*
X1224205Y-1134150D02*
X1252777Y-1134150D01*
X1252777Y-1134150D02*
X1271825Y-1143674D01*
X1271825Y-1143674D02*
X1281348Y-1162722D01*
X1281348Y-1162722D02*
X1281348Y-1267484D01*
X1376586Y-1267484D02*
X1376586Y-1134150D01*
X1376586Y-1153198D02*
X1386110Y-1143674D01*
X1386110Y-1143674D02*
X1405158Y-1134150D01*
X1405158Y-1134150D02*
X1433729Y-1134150D01*
X1433729Y-1134150D02*
X1452777Y-1143674D01*
X1452777Y-1143674D02*
X1462301Y-1162722D01*
X1462301Y-1162722D02*
X1462301Y-1267484D01*
X1462301Y-1162722D02*
X1471824Y-1143674D01*
X1471824Y-1143674D02*
X1490872Y-1134150D01*
X1490872Y-1134150D02*
X1519443Y-1134150D01*
X1519443Y-1134150D02*
X1538491Y-1143674D01*
X1538491Y-1143674D02*
X1548015Y-1162722D01*
X1548015Y-1162722D02*
X1548015Y-1267484D01*
X1938491Y-1057960D02*
X1767063Y-1315103D01*
X2195634Y-1067484D02*
X2214682Y-1067484D01*
X2214682Y-1067484D02*
X2233729Y-1077008D01*
X2233729Y-1077008D02*
X2243253Y-1086531D01*
X2243253Y-1086531D02*
X2252777Y-1105579D01*
X2252777Y-1105579D02*
X2262301Y-1143674D01*
X2262301Y-1143674D02*
X2262301Y-1191293D01*
X2262301Y-1191293D02*
X2252777Y-1229389D01*
X2252777Y-1229389D02*
X2243253Y-1248436D01*
X2243253Y-1248436D02*
X2233729Y-1257960D01*
X2233729Y-1257960D02*
X2214682Y-1267484D01*
X2214682Y-1267484D02*
X2195634Y-1267484D01*
X2195634Y-1267484D02*
X2176587Y-1257960D01*
X2176587Y-1257960D02*
X2167063Y-1248436D01*
X2167063Y-1248436D02*
X2157539Y-1229389D01*
X2157539Y-1229389D02*
X2148015Y-1191293D01*
X2148015Y-1191293D02*
X2148015Y-1143674D01*
X2148015Y-1143674D02*
X2157539Y-1105579D01*
X2157539Y-1105579D02*
X2167063Y-1086531D01*
X2167063Y-1086531D02*
X2176587Y-1077008D01*
X2176587Y-1077008D02*
X2195634Y-1067484D01*
X2348015Y-1248436D02*
X2357539Y-1257960D01*
X2357539Y-1257960D02*
X2348015Y-1267484D01*
X2348015Y-1267484D02*
X2338491Y-1257960D01*
X2338491Y-1257960D02*
X2348015Y-1248436D01*
X2348015Y-1248436D02*
X2348015Y-1267484D01*
X2481348Y-1067484D02*
X2500396Y-1067484D01*
X2500396Y-1067484D02*
X2519444Y-1077008D01*
X2519444Y-1077008D02*
X2528968Y-1086531D01*
X2528968Y-1086531D02*
X2538491Y-1105579D01*
X2538491Y-1105579D02*
X2548015Y-1143674D01*
X2548015Y-1143674D02*
X2548015Y-1191293D01*
X2548015Y-1191293D02*
X2538491Y-1229389D01*
X2538491Y-1229389D02*
X2528968Y-1248436D01*
X2528968Y-1248436D02*
X2519444Y-1257960D01*
X2519444Y-1257960D02*
X2500396Y-1267484D01*
X2500396Y-1267484D02*
X2481348Y-1267484D01*
X2481348Y-1267484D02*
X2462301Y-1257960D01*
X2462301Y-1257960D02*
X2452777Y-1248436D01*
X2452777Y-1248436D02*
X2443253Y-1229389D01*
X2443253Y-1229389D02*
X2433729Y-1191293D01*
X2433729Y-1191293D02*
X2433729Y-1143674D01*
X2433729Y-1143674D02*
X2443253Y-1105579D01*
X2443253Y-1105579D02*
X2452777Y-1086531D01*
X2452777Y-1086531D02*
X2462301Y-1077008D01*
X2462301Y-1077008D02*
X2481348Y-1067484D01*
X2614682Y-1067484D02*
X2738491Y-1067484D01*
X2738491Y-1067484D02*
X2671825Y-1143674D01*
X2671825Y-1143674D02*
X2700396Y-1143674D01*
X2700396Y-1143674D02*
X2719444Y-1153198D01*
X2719444Y-1153198D02*
X2728968Y-1162722D01*
X2728968Y-1162722D02*
X2738491Y-1181770D01*
X2738491Y-1181770D02*
X2738491Y-1229389D01*
X2738491Y-1229389D02*
X2728968Y-1248436D01*
X2728968Y-1248436D02*
X2719444Y-1257960D01*
X2719444Y-1257960D02*
X2700396Y-1267484D01*
X2700396Y-1267484D02*
X2643253Y-1267484D01*
X2643253Y-1267484D02*
X2624206Y-1257960D01*
X2624206Y-1257960D02*
X2614682Y-1248436D01*
X2805158Y-1067484D02*
X2938491Y-1067484D01*
X2938491Y-1067484D02*
X2852777Y-1267484D01*
X3100396Y-1134150D02*
X3100396Y-1267484D01*
X3052777Y-1057960D02*
X3005158Y-1200817D01*
X3005158Y-1200817D02*
X3128967Y-1200817D01*
X3195634Y-1067484D02*
X3195634Y-1105579D01*
X3271825Y-1067484D02*
X3271825Y-1105579D01*
X3567063Y-1343674D02*
X3557539Y-1334150D01*
X3557539Y-1334150D02*
X3538491Y-1305579D01*
X3538491Y-1305579D02*
X3528968Y-1286531D01*
X3528968Y-1286531D02*
X3519444Y-1257960D01*
X3519444Y-1257960D02*
X3509920Y-1210341D01*
X3509920Y-1210341D02*
X3509920Y-1172246D01*
X3509920Y-1172246D02*
X3519444Y-1124627D01*
X3519444Y-1124627D02*
X3528968Y-1096055D01*
X3528968Y-1096055D02*
X3538491Y-1077008D01*
X3538491Y-1077008D02*
X3557539Y-1048436D01*
X3557539Y-1048436D02*
X3567063Y-1038912D01*
X3633729Y-1086531D02*
X3643253Y-1077008D01*
X3643253Y-1077008D02*
X3662301Y-1067484D01*
X3662301Y-1067484D02*
X3709920Y-1067484D01*
X3709920Y-1067484D02*
X3728968Y-1077008D01*
X3728968Y-1077008D02*
X3738491Y-1086531D01*
X3738491Y-1086531D02*
X3748015Y-1105579D01*
X3748015Y-1105579D02*
X3748015Y-1124627D01*
X3748015Y-1124627D02*
X3738491Y-1153198D01*
X3738491Y-1153198D02*
X3624206Y-1267484D01*
X3624206Y-1267484D02*
X3748015Y-1267484D01*
X3814682Y-1067484D02*
X3948015Y-1067484D01*
X3948015Y-1067484D02*
X3862301Y-1267484D01*
X4176587Y-1267484D02*
X4176587Y-1067484D01*
X4262301Y-1267484D02*
X4262301Y-1162722D01*
X4262301Y-1162722D02*
X4252777Y-1143674D01*
X4252777Y-1143674D02*
X4233730Y-1134150D01*
X4233730Y-1134150D02*
X4205158Y-1134150D01*
X4205158Y-1134150D02*
X4186110Y-1143674D01*
X4186110Y-1143674D02*
X4176587Y-1153198D01*
X4386111Y-1267484D02*
X4367063Y-1257960D01*
X4367063Y-1257960D02*
X4357539Y-1248436D01*
X4357539Y-1248436D02*
X4348015Y-1229389D01*
X4348015Y-1229389D02*
X4348015Y-1172246D01*
X4348015Y-1172246D02*
X4357539Y-1153198D01*
X4357539Y-1153198D02*
X4367063Y-1143674D01*
X4367063Y-1143674D02*
X4386111Y-1134150D01*
X4386111Y-1134150D02*
X4414682Y-1134150D01*
X4414682Y-1134150D02*
X4433730Y-1143674D01*
X4433730Y-1143674D02*
X4443253Y-1153198D01*
X4443253Y-1153198D02*
X4452777Y-1172246D01*
X4452777Y-1172246D02*
X4452777Y-1229389D01*
X4452777Y-1229389D02*
X4443253Y-1248436D01*
X4443253Y-1248436D02*
X4433730Y-1257960D01*
X4433730Y-1257960D02*
X4414682Y-1267484D01*
X4414682Y-1267484D02*
X4386111Y-1267484D01*
X4567063Y-1267484D02*
X4548015Y-1257960D01*
X4548015Y-1257960D02*
X4538492Y-1238912D01*
X4538492Y-1238912D02*
X4538492Y-1067484D01*
X4719444Y-1257960D02*
X4700396Y-1267484D01*
X4700396Y-1267484D02*
X4662301Y-1267484D01*
X4662301Y-1267484D02*
X4643253Y-1257960D01*
X4643253Y-1257960D02*
X4633730Y-1238912D01*
X4633730Y-1238912D02*
X4633730Y-1162722D01*
X4633730Y-1162722D02*
X4643253Y-1143674D01*
X4643253Y-1143674D02*
X4662301Y-1134150D01*
X4662301Y-1134150D02*
X4700396Y-1134150D01*
X4700396Y-1134150D02*
X4719444Y-1143674D01*
X4719444Y-1143674D02*
X4728968Y-1162722D01*
X4728968Y-1162722D02*
X4728968Y-1181770D01*
X4728968Y-1181770D02*
X4633730Y-1200817D01*
X4805158Y-1257960D02*
X4824206Y-1267484D01*
X4824206Y-1267484D02*
X4862301Y-1267484D01*
X4862301Y-1267484D02*
X4881349Y-1257960D01*
X4881349Y-1257960D02*
X4890873Y-1238912D01*
X4890873Y-1238912D02*
X4890873Y-1229389D01*
X4890873Y-1229389D02*
X4881349Y-1210341D01*
X4881349Y-1210341D02*
X4862301Y-1200817D01*
X4862301Y-1200817D02*
X4833730Y-1200817D01*
X4833730Y-1200817D02*
X4814682Y-1191293D01*
X4814682Y-1191293D02*
X4805158Y-1172246D01*
X4805158Y-1172246D02*
X4805158Y-1162722D01*
X4805158Y-1162722D02*
X4814682Y-1143674D01*
X4814682Y-1143674D02*
X4833730Y-1134150D01*
X4833730Y-1134150D02*
X4862301Y-1134150D01*
X4862301Y-1134150D02*
X4881349Y-1143674D01*
X4957539Y-1343674D02*
X4967063Y-1334150D01*
X4967063Y-1334150D02*
X4986111Y-1305579D01*
X4986111Y-1305579D02*
X4995634Y-1286531D01*
X4995634Y-1286531D02*
X5005158Y-1257960D01*
X5005158Y-1257960D02*
X5014682Y-1210341D01*
X5014682Y-1210341D02*
X5014682Y-1172246D01*
X5014682Y-1172246D02*
X5005158Y-1124627D01*
X5005158Y-1124627D02*
X4995634Y-1096055D01*
X4995634Y-1096055D02*
X4986111Y-1077008D01*
X4986111Y-1077008D02*
X4967063Y-1048436D01*
X4967063Y-1048436D02*
X4957539Y-1038912D01*
D10*
X-22644Y-1475356D02*
X-22644Y-1404644D01*
X-93356Y-1404644D01*
X-93356Y-1475356D01*
X-22644Y-1475356D01*
D12*
X357539Y-1531484D02*
X243253Y-1531484D01*
X300396Y-1531484D02*
X300396Y-1331484D01*
X300396Y-1331484D02*
X281348Y-1360055D01*
X281348Y-1360055D02*
X262301Y-1379103D01*
X262301Y-1379103D02*
X243253Y-1388627D01*
X443253Y-1512436D02*
X452777Y-1521960D01*
X452777Y-1521960D02*
X443253Y-1531484D01*
X443253Y-1531484D02*
X433729Y-1521960D01*
X433729Y-1521960D02*
X443253Y-1512436D01*
X443253Y-1512436D02*
X443253Y-1531484D01*
X576586Y-1331484D02*
X595634Y-1331484D01*
X595634Y-1331484D02*
X614682Y-1341008D01*
X614682Y-1341008D02*
X624205Y-1350531D01*
X624205Y-1350531D02*
X633729Y-1369579D01*
X633729Y-1369579D02*
X643253Y-1407674D01*
X643253Y-1407674D02*
X643253Y-1455293D01*
X643253Y-1455293D02*
X633729Y-1493388D01*
X633729Y-1493388D02*
X624205Y-1512436D01*
X624205Y-1512436D02*
X614682Y-1521960D01*
X614682Y-1521960D02*
X595634Y-1531484D01*
X595634Y-1531484D02*
X576586Y-1531484D01*
X576586Y-1531484D02*
X557539Y-1521960D01*
X557539Y-1521960D02*
X548015Y-1512436D01*
X548015Y-1512436D02*
X538491Y-1493388D01*
X538491Y-1493388D02*
X528967Y-1455293D01*
X528967Y-1455293D02*
X528967Y-1407674D01*
X528967Y-1407674D02*
X538491Y-1369579D01*
X538491Y-1369579D02*
X548015Y-1350531D01*
X548015Y-1350531D02*
X557539Y-1341008D01*
X557539Y-1341008D02*
X576586Y-1331484D01*
X767062Y-1331484D02*
X786110Y-1331484D01*
X786110Y-1331484D02*
X805158Y-1341008D01*
X805158Y-1341008D02*
X814682Y-1350531D01*
X814682Y-1350531D02*
X824205Y-1369579D01*
X824205Y-1369579D02*
X833729Y-1407674D01*
X833729Y-1407674D02*
X833729Y-1455293D01*
X833729Y-1455293D02*
X824205Y-1493388D01*
X824205Y-1493388D02*
X814682Y-1512436D01*
X814682Y-1512436D02*
X805158Y-1521960D01*
X805158Y-1521960D02*
X786110Y-1531484D01*
X786110Y-1531484D02*
X767062Y-1531484D01*
X767062Y-1531484D02*
X748015Y-1521960D01*
X748015Y-1521960D02*
X738491Y-1512436D01*
X738491Y-1512436D02*
X728967Y-1493388D01*
X728967Y-1493388D02*
X719443Y-1455293D01*
X719443Y-1455293D02*
X719443Y-1407674D01*
X719443Y-1407674D02*
X728967Y-1369579D01*
X728967Y-1369579D02*
X738491Y-1350531D01*
X738491Y-1350531D02*
X748015Y-1341008D01*
X748015Y-1341008D02*
X767062Y-1331484D01*
X957539Y-1331484D02*
X976586Y-1331484D01*
X976586Y-1331484D02*
X995634Y-1341008D01*
X995634Y-1341008D02*
X1005158Y-1350531D01*
X1005158Y-1350531D02*
X1014682Y-1369579D01*
X1014682Y-1369579D02*
X1024205Y-1407674D01*
X1024205Y-1407674D02*
X1024205Y-1455293D01*
X1024205Y-1455293D02*
X1014682Y-1493388D01*
X1014682Y-1493388D02*
X1005158Y-1512436D01*
X1005158Y-1512436D02*
X995634Y-1521960D01*
X995634Y-1521960D02*
X976586Y-1531484D01*
X976586Y-1531484D02*
X957539Y-1531484D01*
X957539Y-1531484D02*
X938491Y-1521960D01*
X938491Y-1521960D02*
X928967Y-1512436D01*
X928967Y-1512436D02*
X919443Y-1493388D01*
X919443Y-1493388D02*
X909920Y-1455293D01*
X909920Y-1455293D02*
X909920Y-1407674D01*
X909920Y-1407674D02*
X919443Y-1369579D01*
X919443Y-1369579D02*
X928967Y-1350531D01*
X928967Y-1350531D02*
X938491Y-1341008D01*
X938491Y-1341008D02*
X957539Y-1331484D01*
X1109920Y-1531484D02*
X1109920Y-1398150D01*
X1109920Y-1417198D02*
X1119444Y-1407674D01*
X1119444Y-1407674D02*
X1138491Y-1398150D01*
X1138491Y-1398150D02*
X1167063Y-1398150D01*
X1167063Y-1398150D02*
X1186110Y-1407674D01*
X1186110Y-1407674D02*
X1195634Y-1426722D01*
X1195634Y-1426722D02*
X1195634Y-1531484D01*
X1195634Y-1426722D02*
X1205158Y-1407674D01*
X1205158Y-1407674D02*
X1224205Y-1398150D01*
X1224205Y-1398150D02*
X1252777Y-1398150D01*
X1252777Y-1398150D02*
X1271825Y-1407674D01*
X1271825Y-1407674D02*
X1281348Y-1426722D01*
X1281348Y-1426722D02*
X1281348Y-1531484D01*
X1376586Y-1531484D02*
X1376586Y-1398150D01*
X1376586Y-1417198D02*
X1386110Y-1407674D01*
X1386110Y-1407674D02*
X1405158Y-1398150D01*
X1405158Y-1398150D02*
X1433729Y-1398150D01*
X1433729Y-1398150D02*
X1452777Y-1407674D01*
X1452777Y-1407674D02*
X1462301Y-1426722D01*
X1462301Y-1426722D02*
X1462301Y-1531484D01*
X1462301Y-1426722D02*
X1471824Y-1407674D01*
X1471824Y-1407674D02*
X1490872Y-1398150D01*
X1490872Y-1398150D02*
X1519443Y-1398150D01*
X1519443Y-1398150D02*
X1538491Y-1407674D01*
X1538491Y-1407674D02*
X1548015Y-1426722D01*
X1548015Y-1426722D02*
X1548015Y-1531484D01*
X1938491Y-1321960D02*
X1767063Y-1579103D01*
X2195634Y-1331484D02*
X2214682Y-1331484D01*
X2214682Y-1331484D02*
X2233729Y-1341008D01*
X2233729Y-1341008D02*
X2243253Y-1350531D01*
X2243253Y-1350531D02*
X2252777Y-1369579D01*
X2252777Y-1369579D02*
X2262301Y-1407674D01*
X2262301Y-1407674D02*
X2262301Y-1455293D01*
X2262301Y-1455293D02*
X2252777Y-1493388D01*
X2252777Y-1493388D02*
X2243253Y-1512436D01*
X2243253Y-1512436D02*
X2233729Y-1521960D01*
X2233729Y-1521960D02*
X2214682Y-1531484D01*
X2214682Y-1531484D02*
X2195634Y-1531484D01*
X2195634Y-1531484D02*
X2176587Y-1521960D01*
X2176587Y-1521960D02*
X2167063Y-1512436D01*
X2167063Y-1512436D02*
X2157539Y-1493388D01*
X2157539Y-1493388D02*
X2148015Y-1455293D01*
X2148015Y-1455293D02*
X2148015Y-1407674D01*
X2148015Y-1407674D02*
X2157539Y-1369579D01*
X2157539Y-1369579D02*
X2167063Y-1350531D01*
X2167063Y-1350531D02*
X2176587Y-1341008D01*
X2176587Y-1341008D02*
X2195634Y-1331484D01*
X2348015Y-1512436D02*
X2357539Y-1521960D01*
X2357539Y-1521960D02*
X2348015Y-1531484D01*
X2348015Y-1531484D02*
X2338491Y-1521960D01*
X2338491Y-1521960D02*
X2348015Y-1512436D01*
X2348015Y-1512436D02*
X2348015Y-1531484D01*
X2481348Y-1331484D02*
X2500396Y-1331484D01*
X2500396Y-1331484D02*
X2519444Y-1341008D01*
X2519444Y-1341008D02*
X2528968Y-1350531D01*
X2528968Y-1350531D02*
X2538491Y-1369579D01*
X2538491Y-1369579D02*
X2548015Y-1407674D01*
X2548015Y-1407674D02*
X2548015Y-1455293D01*
X2548015Y-1455293D02*
X2538491Y-1493388D01*
X2538491Y-1493388D02*
X2528968Y-1512436D01*
X2528968Y-1512436D02*
X2519444Y-1521960D01*
X2519444Y-1521960D02*
X2500396Y-1531484D01*
X2500396Y-1531484D02*
X2481348Y-1531484D01*
X2481348Y-1531484D02*
X2462301Y-1521960D01*
X2462301Y-1521960D02*
X2452777Y-1512436D01*
X2452777Y-1512436D02*
X2443253Y-1493388D01*
X2443253Y-1493388D02*
X2433729Y-1455293D01*
X2433729Y-1455293D02*
X2433729Y-1407674D01*
X2433729Y-1407674D02*
X2443253Y-1369579D01*
X2443253Y-1369579D02*
X2452777Y-1350531D01*
X2452777Y-1350531D02*
X2462301Y-1341008D01*
X2462301Y-1341008D02*
X2481348Y-1331484D01*
X2614682Y-1331484D02*
X2738491Y-1331484D01*
X2738491Y-1331484D02*
X2671825Y-1407674D01*
X2671825Y-1407674D02*
X2700396Y-1407674D01*
X2700396Y-1407674D02*
X2719444Y-1417198D01*
X2719444Y-1417198D02*
X2728968Y-1426722D01*
X2728968Y-1426722D02*
X2738491Y-1445769D01*
X2738491Y-1445769D02*
X2738491Y-1493388D01*
X2738491Y-1493388D02*
X2728968Y-1512436D01*
X2728968Y-1512436D02*
X2719444Y-1521960D01*
X2719444Y-1521960D02*
X2700396Y-1531484D01*
X2700396Y-1531484D02*
X2643253Y-1531484D01*
X2643253Y-1531484D02*
X2624206Y-1521960D01*
X2624206Y-1521960D02*
X2614682Y-1512436D01*
X2833729Y-1531484D02*
X2871825Y-1531484D01*
X2871825Y-1531484D02*
X2890872Y-1521960D01*
X2890872Y-1521960D02*
X2900396Y-1512436D01*
X2900396Y-1512436D02*
X2919444Y-1483865D01*
X2919444Y-1483865D02*
X2928967Y-1445769D01*
X2928967Y-1445769D02*
X2928967Y-1369579D01*
X2928967Y-1369579D02*
X2919444Y-1350531D01*
X2919444Y-1350531D02*
X2909920Y-1341008D01*
X2909920Y-1341008D02*
X2890872Y-1331484D01*
X2890872Y-1331484D02*
X2852777Y-1331484D01*
X2852777Y-1331484D02*
X2833729Y-1341008D01*
X2833729Y-1341008D02*
X2824206Y-1350531D01*
X2824206Y-1350531D02*
X2814682Y-1369579D01*
X2814682Y-1369579D02*
X2814682Y-1417198D01*
X2814682Y-1417198D02*
X2824206Y-1436246D01*
X2824206Y-1436246D02*
X2833729Y-1445769D01*
X2833729Y-1445769D02*
X2852777Y-1455293D01*
X2852777Y-1455293D02*
X2890872Y-1455293D01*
X2890872Y-1455293D02*
X2909920Y-1445769D01*
X2909920Y-1445769D02*
X2919444Y-1436246D01*
X2919444Y-1436246D02*
X2928967Y-1417198D01*
X3100396Y-1398150D02*
X3100396Y-1531484D01*
X3052777Y-1321960D02*
X3005158Y-1464817D01*
X3005158Y-1464817D02*
X3128967Y-1464817D01*
X3195634Y-1331484D02*
X3195634Y-1369579D01*
X3271825Y-1331484D02*
X3271825Y-1369579D01*
X3567063Y-1607674D02*
X3557539Y-1598150D01*
X3557539Y-1598150D02*
X3538491Y-1569579D01*
X3538491Y-1569579D02*
X3528968Y-1550531D01*
X3528968Y-1550531D02*
X3519444Y-1521960D01*
X3519444Y-1521960D02*
X3509920Y-1474341D01*
X3509920Y-1474341D02*
X3509920Y-1436246D01*
X3509920Y-1436246D02*
X3519444Y-1388627D01*
X3519444Y-1388627D02*
X3528968Y-1360055D01*
X3528968Y-1360055D02*
X3538491Y-1341008D01*
X3538491Y-1341008D02*
X3557539Y-1312436D01*
X3557539Y-1312436D02*
X3567063Y-1302912D01*
X3728968Y-1398150D02*
X3728968Y-1531484D01*
X3681348Y-1321960D02*
X3633729Y-1464817D01*
X3633729Y-1464817D02*
X3757539Y-1464817D01*
X3986110Y-1531484D02*
X3986110Y-1331484D01*
X4071825Y-1531484D02*
X4071825Y-1426722D01*
X4071825Y-1426722D02*
X4062301Y-1407674D01*
X4062301Y-1407674D02*
X4043253Y-1398150D01*
X4043253Y-1398150D02*
X4014682Y-1398150D01*
X4014682Y-1398150D02*
X3995634Y-1407674D01*
X3995634Y-1407674D02*
X3986110Y-1417198D01*
X4195634Y-1531484D02*
X4176587Y-1521960D01*
X4176587Y-1521960D02*
X4167063Y-1512436D01*
X4167063Y-1512436D02*
X4157539Y-1493388D01*
X4157539Y-1493388D02*
X4157539Y-1436246D01*
X4157539Y-1436246D02*
X4167063Y-1417198D01*
X4167063Y-1417198D02*
X4176587Y-1407674D01*
X4176587Y-1407674D02*
X4195634Y-1398150D01*
X4195634Y-1398150D02*
X4224206Y-1398150D01*
X4224206Y-1398150D02*
X4243253Y-1407674D01*
X4243253Y-1407674D02*
X4252777Y-1417198D01*
X4252777Y-1417198D02*
X4262301Y-1436246D01*
X4262301Y-1436246D02*
X4262301Y-1493388D01*
X4262301Y-1493388D02*
X4252777Y-1512436D01*
X4252777Y-1512436D02*
X4243253Y-1521960D01*
X4243253Y-1521960D02*
X4224206Y-1531484D01*
X4224206Y-1531484D02*
X4195634Y-1531484D01*
X4376587Y-1531484D02*
X4357539Y-1521960D01*
X4357539Y-1521960D02*
X4348015Y-1502912D01*
X4348015Y-1502912D02*
X4348015Y-1331484D01*
X4528968Y-1521960D02*
X4509920Y-1531484D01*
X4509920Y-1531484D02*
X4471825Y-1531484D01*
X4471825Y-1531484D02*
X4452777Y-1521960D01*
X4452777Y-1521960D02*
X4443253Y-1502912D01*
X4443253Y-1502912D02*
X4443253Y-1426722D01*
X4443253Y-1426722D02*
X4452777Y-1407674D01*
X4452777Y-1407674D02*
X4471825Y-1398150D01*
X4471825Y-1398150D02*
X4509920Y-1398150D01*
X4509920Y-1398150D02*
X4528968Y-1407674D01*
X4528968Y-1407674D02*
X4538492Y-1426722D01*
X4538492Y-1426722D02*
X4538492Y-1445769D01*
X4538492Y-1445769D02*
X4443253Y-1464817D01*
X4614682Y-1521960D02*
X4633730Y-1531484D01*
X4633730Y-1531484D02*
X4671825Y-1531484D01*
X4671825Y-1531484D02*
X4690873Y-1521960D01*
X4690873Y-1521960D02*
X4700396Y-1502912D01*
X4700396Y-1502912D02*
X4700396Y-1493388D01*
X4700396Y-1493388D02*
X4690873Y-1474341D01*
X4690873Y-1474341D02*
X4671825Y-1464817D01*
X4671825Y-1464817D02*
X4643253Y-1464817D01*
X4643253Y-1464817D02*
X4624206Y-1455293D01*
X4624206Y-1455293D02*
X4614682Y-1436246D01*
X4614682Y-1436246D02*
X4614682Y-1426722D01*
X4614682Y-1426722D02*
X4624206Y-1407674D01*
X4624206Y-1407674D02*
X4643253Y-1398150D01*
X4643253Y-1398150D02*
X4671825Y-1398150D01*
X4671825Y-1398150D02*
X4690873Y-1407674D01*
X4767063Y-1607674D02*
X4776587Y-1598150D01*
X4776587Y-1598150D02*
X4795634Y-1569579D01*
X4795634Y-1569579D02*
X4805158Y-1550531D01*
X4805158Y-1550531D02*
X4814682Y-1521960D01*
X4814682Y-1521960D02*
X4824206Y-1474341D01*
X4824206Y-1474341D02*
X4824206Y-1436246D01*
X4824206Y-1436246D02*
X4814682Y-1388627D01*
X4814682Y-1388627D02*
X4805158Y-1360055D01*
X4805158Y-1360055D02*
X4795634Y-1341008D01*
X4795634Y-1341008D02*
X4776587Y-1312436D01*
X4776587Y-1312436D02*
X4767063Y-1302912D01*
D10*
X-58000Y-1754000D02*
X-8000Y-1704000D01*
X-58000Y-1654000D01*
X-108000Y-1704000D01*
X-58000Y-1754000D01*
D12*
X357539Y-1795484D02*
X243253Y-1795484D01*
X300396Y-1795484D02*
X300396Y-1595484D01*
X300396Y-1595484D02*
X281348Y-1624055D01*
X281348Y-1624055D02*
X262301Y-1643103D01*
X262301Y-1643103D02*
X243253Y-1652627D01*
X443253Y-1776436D02*
X452777Y-1785960D01*
X452777Y-1785960D02*
X443253Y-1795484D01*
X443253Y-1795484D02*
X433729Y-1785960D01*
X433729Y-1785960D02*
X443253Y-1776436D01*
X443253Y-1776436D02*
X443253Y-1795484D01*
X576586Y-1595484D02*
X595634Y-1595484D01*
X595634Y-1595484D02*
X614682Y-1605008D01*
X614682Y-1605008D02*
X624205Y-1614531D01*
X624205Y-1614531D02*
X633729Y-1633579D01*
X633729Y-1633579D02*
X643253Y-1671674D01*
X643253Y-1671674D02*
X643253Y-1719293D01*
X643253Y-1719293D02*
X633729Y-1757388D01*
X633729Y-1757388D02*
X624205Y-1776436D01*
X624205Y-1776436D02*
X614682Y-1785960D01*
X614682Y-1785960D02*
X595634Y-1795484D01*
X595634Y-1795484D02*
X576586Y-1795484D01*
X576586Y-1795484D02*
X557539Y-1785960D01*
X557539Y-1785960D02*
X548015Y-1776436D01*
X548015Y-1776436D02*
X538491Y-1757388D01*
X538491Y-1757388D02*
X528967Y-1719293D01*
X528967Y-1719293D02*
X528967Y-1671674D01*
X528967Y-1671674D02*
X538491Y-1633579D01*
X538491Y-1633579D02*
X548015Y-1614531D01*
X548015Y-1614531D02*
X557539Y-1605008D01*
X557539Y-1605008D02*
X576586Y-1595484D01*
X767062Y-1595484D02*
X786110Y-1595484D01*
X786110Y-1595484D02*
X805158Y-1605008D01*
X805158Y-1605008D02*
X814682Y-1614531D01*
X814682Y-1614531D02*
X824205Y-1633579D01*
X824205Y-1633579D02*
X833729Y-1671674D01*
X833729Y-1671674D02*
X833729Y-1719293D01*
X833729Y-1719293D02*
X824205Y-1757388D01*
X824205Y-1757388D02*
X814682Y-1776436D01*
X814682Y-1776436D02*
X805158Y-1785960D01*
X805158Y-1785960D02*
X786110Y-1795484D01*
X786110Y-1795484D02*
X767062Y-1795484D01*
X767062Y-1795484D02*
X748015Y-1785960D01*
X748015Y-1785960D02*
X738491Y-1776436D01*
X738491Y-1776436D02*
X728967Y-1757388D01*
X728967Y-1757388D02*
X719443Y-1719293D01*
X719443Y-1719293D02*
X719443Y-1671674D01*
X719443Y-1671674D02*
X728967Y-1633579D01*
X728967Y-1633579D02*
X738491Y-1614531D01*
X738491Y-1614531D02*
X748015Y-1605008D01*
X748015Y-1605008D02*
X767062Y-1595484D01*
X957539Y-1595484D02*
X976586Y-1595484D01*
X976586Y-1595484D02*
X995634Y-1605008D01*
X995634Y-1605008D02*
X1005158Y-1614531D01*
X1005158Y-1614531D02*
X1014682Y-1633579D01*
X1014682Y-1633579D02*
X1024205Y-1671674D01*
X1024205Y-1671674D02*
X1024205Y-1719293D01*
X1024205Y-1719293D02*
X1014682Y-1757388D01*
X1014682Y-1757388D02*
X1005158Y-1776436D01*
X1005158Y-1776436D02*
X995634Y-1785960D01*
X995634Y-1785960D02*
X976586Y-1795484D01*
X976586Y-1795484D02*
X957539Y-1795484D01*
X957539Y-1795484D02*
X938491Y-1785960D01*
X938491Y-1785960D02*
X928967Y-1776436D01*
X928967Y-1776436D02*
X919443Y-1757388D01*
X919443Y-1757388D02*
X909920Y-1719293D01*
X909920Y-1719293D02*
X909920Y-1671674D01*
X909920Y-1671674D02*
X919443Y-1633579D01*
X919443Y-1633579D02*
X928967Y-1614531D01*
X928967Y-1614531D02*
X938491Y-1605008D01*
X938491Y-1605008D02*
X957539Y-1595484D01*
X1109920Y-1795484D02*
X1109920Y-1662150D01*
X1109920Y-1681198D02*
X1119444Y-1671674D01*
X1119444Y-1671674D02*
X1138491Y-1662150D01*
X1138491Y-1662150D02*
X1167063Y-1662150D01*
X1167063Y-1662150D02*
X1186110Y-1671674D01*
X1186110Y-1671674D02*
X1195634Y-1690722D01*
X1195634Y-1690722D02*
X1195634Y-1795484D01*
X1195634Y-1690722D02*
X1205158Y-1671674D01*
X1205158Y-1671674D02*
X1224205Y-1662150D01*
X1224205Y-1662150D02*
X1252777Y-1662150D01*
X1252777Y-1662150D02*
X1271825Y-1671674D01*
X1271825Y-1671674D02*
X1281348Y-1690722D01*
X1281348Y-1690722D02*
X1281348Y-1795484D01*
X1376586Y-1795484D02*
X1376586Y-1662150D01*
X1376586Y-1681198D02*
X1386110Y-1671674D01*
X1386110Y-1671674D02*
X1405158Y-1662150D01*
X1405158Y-1662150D02*
X1433729Y-1662150D01*
X1433729Y-1662150D02*
X1452777Y-1671674D01*
X1452777Y-1671674D02*
X1462301Y-1690722D01*
X1462301Y-1690722D02*
X1462301Y-1795484D01*
X1462301Y-1690722D02*
X1471824Y-1671674D01*
X1471824Y-1671674D02*
X1490872Y-1662150D01*
X1490872Y-1662150D02*
X1519443Y-1662150D01*
X1519443Y-1662150D02*
X1538491Y-1671674D01*
X1538491Y-1671674D02*
X1548015Y-1690722D01*
X1548015Y-1690722D02*
X1548015Y-1795484D01*
X1938491Y-1585960D02*
X1767063Y-1843103D01*
X2195634Y-1595484D02*
X2214682Y-1595484D01*
X2214682Y-1595484D02*
X2233729Y-1605008D01*
X2233729Y-1605008D02*
X2243253Y-1614531D01*
X2243253Y-1614531D02*
X2252777Y-1633579D01*
X2252777Y-1633579D02*
X2262301Y-1671674D01*
X2262301Y-1671674D02*
X2262301Y-1719293D01*
X2262301Y-1719293D02*
X2252777Y-1757388D01*
X2252777Y-1757388D02*
X2243253Y-1776436D01*
X2243253Y-1776436D02*
X2233729Y-1785960D01*
X2233729Y-1785960D02*
X2214682Y-1795484D01*
X2214682Y-1795484D02*
X2195634Y-1795484D01*
X2195634Y-1795484D02*
X2176587Y-1785960D01*
X2176587Y-1785960D02*
X2167063Y-1776436D01*
X2167063Y-1776436D02*
X2157539Y-1757388D01*
X2157539Y-1757388D02*
X2148015Y-1719293D01*
X2148015Y-1719293D02*
X2148015Y-1671674D01*
X2148015Y-1671674D02*
X2157539Y-1633579D01*
X2157539Y-1633579D02*
X2167063Y-1614531D01*
X2167063Y-1614531D02*
X2176587Y-1605008D01*
X2176587Y-1605008D02*
X2195634Y-1595484D01*
X2348015Y-1776436D02*
X2357539Y-1785960D01*
X2357539Y-1785960D02*
X2348015Y-1795484D01*
X2348015Y-1795484D02*
X2338491Y-1785960D01*
X2338491Y-1785960D02*
X2348015Y-1776436D01*
X2348015Y-1776436D02*
X2348015Y-1795484D01*
X2481348Y-1595484D02*
X2500396Y-1595484D01*
X2500396Y-1595484D02*
X2519444Y-1605008D01*
X2519444Y-1605008D02*
X2528968Y-1614531D01*
X2528968Y-1614531D02*
X2538491Y-1633579D01*
X2538491Y-1633579D02*
X2548015Y-1671674D01*
X2548015Y-1671674D02*
X2548015Y-1719293D01*
X2548015Y-1719293D02*
X2538491Y-1757388D01*
X2538491Y-1757388D02*
X2528968Y-1776436D01*
X2528968Y-1776436D02*
X2519444Y-1785960D01*
X2519444Y-1785960D02*
X2500396Y-1795484D01*
X2500396Y-1795484D02*
X2481348Y-1795484D01*
X2481348Y-1795484D02*
X2462301Y-1785960D01*
X2462301Y-1785960D02*
X2452777Y-1776436D01*
X2452777Y-1776436D02*
X2443253Y-1757388D01*
X2443253Y-1757388D02*
X2433729Y-1719293D01*
X2433729Y-1719293D02*
X2433729Y-1671674D01*
X2433729Y-1671674D02*
X2443253Y-1633579D01*
X2443253Y-1633579D02*
X2452777Y-1614531D01*
X2452777Y-1614531D02*
X2462301Y-1605008D01*
X2462301Y-1605008D02*
X2481348Y-1595484D01*
X2614682Y-1595484D02*
X2738491Y-1595484D01*
X2738491Y-1595484D02*
X2671825Y-1671674D01*
X2671825Y-1671674D02*
X2700396Y-1671674D01*
X2700396Y-1671674D02*
X2719444Y-1681198D01*
X2719444Y-1681198D02*
X2728968Y-1690722D01*
X2728968Y-1690722D02*
X2738491Y-1709769D01*
X2738491Y-1709769D02*
X2738491Y-1757388D01*
X2738491Y-1757388D02*
X2728968Y-1776436D01*
X2728968Y-1776436D02*
X2719444Y-1785960D01*
X2719444Y-1785960D02*
X2700396Y-1795484D01*
X2700396Y-1795484D02*
X2643253Y-1795484D01*
X2643253Y-1795484D02*
X2624206Y-1785960D01*
X2624206Y-1785960D02*
X2614682Y-1776436D01*
X2833729Y-1795484D02*
X2871825Y-1795484D01*
X2871825Y-1795484D02*
X2890872Y-1785960D01*
X2890872Y-1785960D02*
X2900396Y-1776436D01*
X2900396Y-1776436D02*
X2919444Y-1747865D01*
X2919444Y-1747865D02*
X2928967Y-1709769D01*
X2928967Y-1709769D02*
X2928967Y-1633579D01*
X2928967Y-1633579D02*
X2919444Y-1614531D01*
X2919444Y-1614531D02*
X2909920Y-1605008D01*
X2909920Y-1605008D02*
X2890872Y-1595484D01*
X2890872Y-1595484D02*
X2852777Y-1595484D01*
X2852777Y-1595484D02*
X2833729Y-1605008D01*
X2833729Y-1605008D02*
X2824206Y-1614531D01*
X2824206Y-1614531D02*
X2814682Y-1633579D01*
X2814682Y-1633579D02*
X2814682Y-1681198D01*
X2814682Y-1681198D02*
X2824206Y-1700246D01*
X2824206Y-1700246D02*
X2833729Y-1709769D01*
X2833729Y-1709769D02*
X2852777Y-1719293D01*
X2852777Y-1719293D02*
X2890872Y-1719293D01*
X2890872Y-1719293D02*
X2909920Y-1709769D01*
X2909920Y-1709769D02*
X2919444Y-1700246D01*
X2919444Y-1700246D02*
X2928967Y-1681198D01*
X3100396Y-1662150D02*
X3100396Y-1795484D01*
X3052777Y-1585960D02*
X3005158Y-1728817D01*
X3005158Y-1728817D02*
X3128967Y-1728817D01*
X3195634Y-1595484D02*
X3195634Y-1633579D01*
X3271825Y-1595484D02*
X3271825Y-1633579D01*
X3567063Y-1871674D02*
X3557539Y-1862150D01*
X3557539Y-1862150D02*
X3538491Y-1833579D01*
X3538491Y-1833579D02*
X3528968Y-1814531D01*
X3528968Y-1814531D02*
X3519444Y-1785960D01*
X3519444Y-1785960D02*
X3509920Y-1738341D01*
X3509920Y-1738341D02*
X3509920Y-1700246D01*
X3509920Y-1700246D02*
X3519444Y-1652627D01*
X3519444Y-1652627D02*
X3528968Y-1624055D01*
X3528968Y-1624055D02*
X3538491Y-1605008D01*
X3538491Y-1605008D02*
X3557539Y-1576436D01*
X3557539Y-1576436D02*
X3567063Y-1566912D01*
X3728968Y-1662150D02*
X3728968Y-1795484D01*
X3681348Y-1585960D02*
X3633729Y-1728817D01*
X3633729Y-1728817D02*
X3757539Y-1728817D01*
X3986110Y-1795484D02*
X3986110Y-1595484D01*
X4071825Y-1795484D02*
X4071825Y-1690722D01*
X4071825Y-1690722D02*
X4062301Y-1671674D01*
X4062301Y-1671674D02*
X4043253Y-1662150D01*
X4043253Y-1662150D02*
X4014682Y-1662150D01*
X4014682Y-1662150D02*
X3995634Y-1671674D01*
X3995634Y-1671674D02*
X3986110Y-1681198D01*
X4195634Y-1795484D02*
X4176587Y-1785960D01*
X4176587Y-1785960D02*
X4167063Y-1776436D01*
X4167063Y-1776436D02*
X4157539Y-1757388D01*
X4157539Y-1757388D02*
X4157539Y-1700246D01*
X4157539Y-1700246D02*
X4167063Y-1681198D01*
X4167063Y-1681198D02*
X4176587Y-1671674D01*
X4176587Y-1671674D02*
X4195634Y-1662150D01*
X4195634Y-1662150D02*
X4224206Y-1662150D01*
X4224206Y-1662150D02*
X4243253Y-1671674D01*
X4243253Y-1671674D02*
X4252777Y-1681198D01*
X4252777Y-1681198D02*
X4262301Y-1700246D01*
X4262301Y-1700246D02*
X4262301Y-1757388D01*
X4262301Y-1757388D02*
X4252777Y-1776436D01*
X4252777Y-1776436D02*
X4243253Y-1785960D01*
X4243253Y-1785960D02*
X4224206Y-1795484D01*
X4224206Y-1795484D02*
X4195634Y-1795484D01*
X4376587Y-1795484D02*
X4357539Y-1785960D01*
X4357539Y-1785960D02*
X4348015Y-1766912D01*
X4348015Y-1766912D02*
X4348015Y-1595484D01*
X4528968Y-1785960D02*
X4509920Y-1795484D01*
X4509920Y-1795484D02*
X4471825Y-1795484D01*
X4471825Y-1795484D02*
X4452777Y-1785960D01*
X4452777Y-1785960D02*
X4443253Y-1766912D01*
X4443253Y-1766912D02*
X4443253Y-1690722D01*
X4443253Y-1690722D02*
X4452777Y-1671674D01*
X4452777Y-1671674D02*
X4471825Y-1662150D01*
X4471825Y-1662150D02*
X4509920Y-1662150D01*
X4509920Y-1662150D02*
X4528968Y-1671674D01*
X4528968Y-1671674D02*
X4538492Y-1690722D01*
X4538492Y-1690722D02*
X4538492Y-1709769D01*
X4538492Y-1709769D02*
X4443253Y-1728817D01*
X4614682Y-1785960D02*
X4633730Y-1795484D01*
X4633730Y-1795484D02*
X4671825Y-1795484D01*
X4671825Y-1795484D02*
X4690873Y-1785960D01*
X4690873Y-1785960D02*
X4700396Y-1766912D01*
X4700396Y-1766912D02*
X4700396Y-1757388D01*
X4700396Y-1757388D02*
X4690873Y-1738341D01*
X4690873Y-1738341D02*
X4671825Y-1728817D01*
X4671825Y-1728817D02*
X4643253Y-1728817D01*
X4643253Y-1728817D02*
X4624206Y-1719293D01*
X4624206Y-1719293D02*
X4614682Y-1700246D01*
X4614682Y-1700246D02*
X4614682Y-1690722D01*
X4614682Y-1690722D02*
X4624206Y-1671674D01*
X4624206Y-1671674D02*
X4643253Y-1662150D01*
X4643253Y-1662150D02*
X4671825Y-1662150D01*
X4671825Y-1662150D02*
X4690873Y-1671674D01*
X4767063Y-1871674D02*
X4776587Y-1862150D01*
X4776587Y-1862150D02*
X4795634Y-1833579D01*
X4795634Y-1833579D02*
X4805158Y-1814531D01*
X4805158Y-1814531D02*
X4814682Y-1785960D01*
X4814682Y-1785960D02*
X4824206Y-1738341D01*
X4824206Y-1738341D02*
X4824206Y-1700246D01*
X4824206Y-1700246D02*
X4814682Y-1652627D01*
X4814682Y-1652627D02*
X4805158Y-1624055D01*
X4805158Y-1624055D02*
X4795634Y-1605008D01*
X4795634Y-1605008D02*
X4776587Y-1576436D01*
X4776587Y-1576436D02*
X4767063Y-1566912D01*
D13*
X-110000Y-1917000D02*
X-8000Y-2019000D01*
X-8000Y-1917000D02*
X-110000Y-2019000D01*
X-8000Y-1968000D02*
G75*
G03*
X-110000Y-1968000I-51000J0D01*
G01*
X-110000Y-1968000D02*
G75*
G03*
X-8000Y-1968000I51000J0D01*
G01*
D12*
X357539Y-2059484D02*
X243253Y-2059484D01*
X300396Y-2059484D02*
X300396Y-1859484D01*
X300396Y-1859484D02*
X281348Y-1888055D01*
X281348Y-1888055D02*
X262301Y-1907103D01*
X262301Y-1907103D02*
X243253Y-1916627D01*
X443253Y-2040436D02*
X452777Y-2049960D01*
X452777Y-2049960D02*
X443253Y-2059484D01*
X443253Y-2059484D02*
X433729Y-2049960D01*
X433729Y-2049960D02*
X443253Y-2040436D01*
X443253Y-2040436D02*
X443253Y-2059484D01*
X576586Y-1859484D02*
X595634Y-1859484D01*
X595634Y-1859484D02*
X614682Y-1869008D01*
X614682Y-1869008D02*
X624205Y-1878531D01*
X624205Y-1878531D02*
X633729Y-1897579D01*
X633729Y-1897579D02*
X643253Y-1935674D01*
X643253Y-1935674D02*
X643253Y-1983293D01*
X643253Y-1983293D02*
X633729Y-2021388D01*
X633729Y-2021388D02*
X624205Y-2040436D01*
X624205Y-2040436D02*
X614682Y-2049960D01*
X614682Y-2049960D02*
X595634Y-2059484D01*
X595634Y-2059484D02*
X576586Y-2059484D01*
X576586Y-2059484D02*
X557539Y-2049960D01*
X557539Y-2049960D02*
X548015Y-2040436D01*
X548015Y-2040436D02*
X538491Y-2021388D01*
X538491Y-2021388D02*
X528967Y-1983293D01*
X528967Y-1983293D02*
X528967Y-1935674D01*
X528967Y-1935674D02*
X538491Y-1897579D01*
X538491Y-1897579D02*
X548015Y-1878531D01*
X548015Y-1878531D02*
X557539Y-1869008D01*
X557539Y-1869008D02*
X576586Y-1859484D01*
X719443Y-1878531D02*
X728967Y-1869008D01*
X728967Y-1869008D02*
X748015Y-1859484D01*
X748015Y-1859484D02*
X795634Y-1859484D01*
X795634Y-1859484D02*
X814682Y-1869008D01*
X814682Y-1869008D02*
X824205Y-1878531D01*
X824205Y-1878531D02*
X833729Y-1897579D01*
X833729Y-1897579D02*
X833729Y-1916627D01*
X833729Y-1916627D02*
X824205Y-1945198D01*
X824205Y-1945198D02*
X709920Y-2059484D01*
X709920Y-2059484D02*
X833729Y-2059484D01*
X957539Y-1859484D02*
X976586Y-1859484D01*
X976586Y-1859484D02*
X995634Y-1869008D01*
X995634Y-1869008D02*
X1005158Y-1878531D01*
X1005158Y-1878531D02*
X1014682Y-1897579D01*
X1014682Y-1897579D02*
X1024205Y-1935674D01*
X1024205Y-1935674D02*
X1024205Y-1983293D01*
X1024205Y-1983293D02*
X1014682Y-2021388D01*
X1014682Y-2021388D02*
X1005158Y-2040436D01*
X1005158Y-2040436D02*
X995634Y-2049960D01*
X995634Y-2049960D02*
X976586Y-2059484D01*
X976586Y-2059484D02*
X957539Y-2059484D01*
X957539Y-2059484D02*
X938491Y-2049960D01*
X938491Y-2049960D02*
X928967Y-2040436D01*
X928967Y-2040436D02*
X919443Y-2021388D01*
X919443Y-2021388D02*
X909920Y-1983293D01*
X909920Y-1983293D02*
X909920Y-1935674D01*
X909920Y-1935674D02*
X919443Y-1897579D01*
X919443Y-1897579D02*
X928967Y-1878531D01*
X928967Y-1878531D02*
X938491Y-1869008D01*
X938491Y-1869008D02*
X957539Y-1859484D01*
X1109920Y-2059484D02*
X1109920Y-1926150D01*
X1109920Y-1945198D02*
X1119444Y-1935674D01*
X1119444Y-1935674D02*
X1138491Y-1926150D01*
X1138491Y-1926150D02*
X1167063Y-1926150D01*
X1167063Y-1926150D02*
X1186110Y-1935674D01*
X1186110Y-1935674D02*
X1195634Y-1954722D01*
X1195634Y-1954722D02*
X1195634Y-2059484D01*
X1195634Y-1954722D02*
X1205158Y-1935674D01*
X1205158Y-1935674D02*
X1224205Y-1926150D01*
X1224205Y-1926150D02*
X1252777Y-1926150D01*
X1252777Y-1926150D02*
X1271825Y-1935674D01*
X1271825Y-1935674D02*
X1281348Y-1954722D01*
X1281348Y-1954722D02*
X1281348Y-2059484D01*
X1376586Y-2059484D02*
X1376586Y-1926150D01*
X1376586Y-1945198D02*
X1386110Y-1935674D01*
X1386110Y-1935674D02*
X1405158Y-1926150D01*
X1405158Y-1926150D02*
X1433729Y-1926150D01*
X1433729Y-1926150D02*
X1452777Y-1935674D01*
X1452777Y-1935674D02*
X1462301Y-1954722D01*
X1462301Y-1954722D02*
X1462301Y-2059484D01*
X1462301Y-1954722D02*
X1471824Y-1935674D01*
X1471824Y-1935674D02*
X1490872Y-1926150D01*
X1490872Y-1926150D02*
X1519443Y-1926150D01*
X1519443Y-1926150D02*
X1538491Y-1935674D01*
X1538491Y-1935674D02*
X1548015Y-1954722D01*
X1548015Y-1954722D02*
X1548015Y-2059484D01*
X1938491Y-1849960D02*
X1767063Y-2107103D01*
X2195634Y-1859484D02*
X2214682Y-1859484D01*
X2214682Y-1859484D02*
X2233729Y-1869008D01*
X2233729Y-1869008D02*
X2243253Y-1878531D01*
X2243253Y-1878531D02*
X2252777Y-1897579D01*
X2252777Y-1897579D02*
X2262301Y-1935674D01*
X2262301Y-1935674D02*
X2262301Y-1983293D01*
X2262301Y-1983293D02*
X2252777Y-2021388D01*
X2252777Y-2021388D02*
X2243253Y-2040436D01*
X2243253Y-2040436D02*
X2233729Y-2049960D01*
X2233729Y-2049960D02*
X2214682Y-2059484D01*
X2214682Y-2059484D02*
X2195634Y-2059484D01*
X2195634Y-2059484D02*
X2176587Y-2049960D01*
X2176587Y-2049960D02*
X2167063Y-2040436D01*
X2167063Y-2040436D02*
X2157539Y-2021388D01*
X2157539Y-2021388D02*
X2148015Y-1983293D01*
X2148015Y-1983293D02*
X2148015Y-1935674D01*
X2148015Y-1935674D02*
X2157539Y-1897579D01*
X2157539Y-1897579D02*
X2167063Y-1878531D01*
X2167063Y-1878531D02*
X2176587Y-1869008D01*
X2176587Y-1869008D02*
X2195634Y-1859484D01*
X2348015Y-2040436D02*
X2357539Y-2049960D01*
X2357539Y-2049960D02*
X2348015Y-2059484D01*
X2348015Y-2059484D02*
X2338491Y-2049960D01*
X2338491Y-2049960D02*
X2348015Y-2040436D01*
X2348015Y-2040436D02*
X2348015Y-2059484D01*
X2481348Y-1859484D02*
X2500396Y-1859484D01*
X2500396Y-1859484D02*
X2519444Y-1869008D01*
X2519444Y-1869008D02*
X2528968Y-1878531D01*
X2528968Y-1878531D02*
X2538491Y-1897579D01*
X2538491Y-1897579D02*
X2548015Y-1935674D01*
X2548015Y-1935674D02*
X2548015Y-1983293D01*
X2548015Y-1983293D02*
X2538491Y-2021388D01*
X2538491Y-2021388D02*
X2528968Y-2040436D01*
X2528968Y-2040436D02*
X2519444Y-2049960D01*
X2519444Y-2049960D02*
X2500396Y-2059484D01*
X2500396Y-2059484D02*
X2481348Y-2059484D01*
X2481348Y-2059484D02*
X2462301Y-2049960D01*
X2462301Y-2049960D02*
X2452777Y-2040436D01*
X2452777Y-2040436D02*
X2443253Y-2021388D01*
X2443253Y-2021388D02*
X2433729Y-1983293D01*
X2433729Y-1983293D02*
X2433729Y-1935674D01*
X2433729Y-1935674D02*
X2443253Y-1897579D01*
X2443253Y-1897579D02*
X2452777Y-1878531D01*
X2452777Y-1878531D02*
X2462301Y-1869008D01*
X2462301Y-1869008D02*
X2481348Y-1859484D01*
X2719444Y-1926150D02*
X2719444Y-2059484D01*
X2671825Y-1849960D02*
X2624206Y-1992817D01*
X2624206Y-1992817D02*
X2748015Y-1992817D01*
X2862301Y-1859484D02*
X2881348Y-1859484D01*
X2881348Y-1859484D02*
X2900396Y-1869008D01*
X2900396Y-1869008D02*
X2909920Y-1878531D01*
X2909920Y-1878531D02*
X2919444Y-1897579D01*
X2919444Y-1897579D02*
X2928967Y-1935674D01*
X2928967Y-1935674D02*
X2928967Y-1983293D01*
X2928967Y-1983293D02*
X2919444Y-2021388D01*
X2919444Y-2021388D02*
X2909920Y-2040436D01*
X2909920Y-2040436D02*
X2900396Y-2049960D01*
X2900396Y-2049960D02*
X2881348Y-2059484D01*
X2881348Y-2059484D02*
X2862301Y-2059484D01*
X2862301Y-2059484D02*
X2843253Y-2049960D01*
X2843253Y-2049960D02*
X2833729Y-2040436D01*
X2833729Y-2040436D02*
X2824206Y-2021388D01*
X2824206Y-2021388D02*
X2814682Y-1983293D01*
X2814682Y-1983293D02*
X2814682Y-1935674D01*
X2814682Y-1935674D02*
X2824206Y-1897579D01*
X2824206Y-1897579D02*
X2833729Y-1878531D01*
X2833729Y-1878531D02*
X2843253Y-1869008D01*
X2843253Y-1869008D02*
X2862301Y-1859484D01*
X3005158Y-1878531D02*
X3014682Y-1869008D01*
X3014682Y-1869008D02*
X3033729Y-1859484D01*
X3033729Y-1859484D02*
X3081348Y-1859484D01*
X3081348Y-1859484D02*
X3100396Y-1869008D01*
X3100396Y-1869008D02*
X3109920Y-1878531D01*
X3109920Y-1878531D02*
X3119444Y-1897579D01*
X3119444Y-1897579D02*
X3119444Y-1916627D01*
X3119444Y-1916627D02*
X3109920Y-1945198D01*
X3109920Y-1945198D02*
X2995634Y-2059484D01*
X2995634Y-2059484D02*
X3119444Y-2059484D01*
X3195634Y-1859484D02*
X3195634Y-1897579D01*
X3271825Y-1859484D02*
X3271825Y-1897579D01*
X3567063Y-2135674D02*
X3557539Y-2126150D01*
X3557539Y-2126150D02*
X3538491Y-2097579D01*
X3538491Y-2097579D02*
X3528968Y-2078531D01*
X3528968Y-2078531D02*
X3519444Y-2049960D01*
X3519444Y-2049960D02*
X3509920Y-2002341D01*
X3509920Y-2002341D02*
X3509920Y-1964246D01*
X3509920Y-1964246D02*
X3519444Y-1916627D01*
X3519444Y-1916627D02*
X3528968Y-1888055D01*
X3528968Y-1888055D02*
X3538491Y-1869008D01*
X3538491Y-1869008D02*
X3557539Y-1840436D01*
X3557539Y-1840436D02*
X3567063Y-1830912D01*
X3624206Y-1859484D02*
X3748015Y-1859484D01*
X3748015Y-1859484D02*
X3681348Y-1935674D01*
X3681348Y-1935674D02*
X3709920Y-1935674D01*
X3709920Y-1935674D02*
X3728968Y-1945198D01*
X3728968Y-1945198D02*
X3738491Y-1954722D01*
X3738491Y-1954722D02*
X3748015Y-1973769D01*
X3748015Y-1973769D02*
X3748015Y-2021388D01*
X3748015Y-2021388D02*
X3738491Y-2040436D01*
X3738491Y-2040436D02*
X3728968Y-2049960D01*
X3728968Y-2049960D02*
X3709920Y-2059484D01*
X3709920Y-2059484D02*
X3652777Y-2059484D01*
X3652777Y-2059484D02*
X3633729Y-2049960D01*
X3633729Y-2049960D02*
X3624206Y-2040436D01*
X3986110Y-2059484D02*
X3986110Y-1859484D01*
X4071825Y-2059484D02*
X4071825Y-1954722D01*
X4071825Y-1954722D02*
X4062301Y-1935674D01*
X4062301Y-1935674D02*
X4043253Y-1926150D01*
X4043253Y-1926150D02*
X4014682Y-1926150D01*
X4014682Y-1926150D02*
X3995634Y-1935674D01*
X3995634Y-1935674D02*
X3986110Y-1945198D01*
X4195634Y-2059484D02*
X4176587Y-2049960D01*
X4176587Y-2049960D02*
X4167063Y-2040436D01*
X4167063Y-2040436D02*
X4157539Y-2021388D01*
X4157539Y-2021388D02*
X4157539Y-1964246D01*
X4157539Y-1964246D02*
X4167063Y-1945198D01*
X4167063Y-1945198D02*
X4176587Y-1935674D01*
X4176587Y-1935674D02*
X4195634Y-1926150D01*
X4195634Y-1926150D02*
X4224206Y-1926150D01*
X4224206Y-1926150D02*
X4243253Y-1935674D01*
X4243253Y-1935674D02*
X4252777Y-1945198D01*
X4252777Y-1945198D02*
X4262301Y-1964246D01*
X4262301Y-1964246D02*
X4262301Y-2021388D01*
X4262301Y-2021388D02*
X4252777Y-2040436D01*
X4252777Y-2040436D02*
X4243253Y-2049960D01*
X4243253Y-2049960D02*
X4224206Y-2059484D01*
X4224206Y-2059484D02*
X4195634Y-2059484D01*
X4376587Y-2059484D02*
X4357539Y-2049960D01*
X4357539Y-2049960D02*
X4348015Y-2030912D01*
X4348015Y-2030912D02*
X4348015Y-1859484D01*
X4528968Y-2049960D02*
X4509920Y-2059484D01*
X4509920Y-2059484D02*
X4471825Y-2059484D01*
X4471825Y-2059484D02*
X4452777Y-2049960D01*
X4452777Y-2049960D02*
X4443253Y-2030912D01*
X4443253Y-2030912D02*
X4443253Y-1954722D01*
X4443253Y-1954722D02*
X4452777Y-1935674D01*
X4452777Y-1935674D02*
X4471825Y-1926150D01*
X4471825Y-1926150D02*
X4509920Y-1926150D01*
X4509920Y-1926150D02*
X4528968Y-1935674D01*
X4528968Y-1935674D02*
X4538492Y-1954722D01*
X4538492Y-1954722D02*
X4538492Y-1973769D01*
X4538492Y-1973769D02*
X4443253Y-1992817D01*
X4614682Y-2049960D02*
X4633730Y-2059484D01*
X4633730Y-2059484D02*
X4671825Y-2059484D01*
X4671825Y-2059484D02*
X4690873Y-2049960D01*
X4690873Y-2049960D02*
X4700396Y-2030912D01*
X4700396Y-2030912D02*
X4700396Y-2021388D01*
X4700396Y-2021388D02*
X4690873Y-2002341D01*
X4690873Y-2002341D02*
X4671825Y-1992817D01*
X4671825Y-1992817D02*
X4643253Y-1992817D01*
X4643253Y-1992817D02*
X4624206Y-1983293D01*
X4624206Y-1983293D02*
X4614682Y-1964246D01*
X4614682Y-1964246D02*
X4614682Y-1954722D01*
X4614682Y-1954722D02*
X4624206Y-1935674D01*
X4624206Y-1935674D02*
X4643253Y-1926150D01*
X4643253Y-1926150D02*
X4671825Y-1926150D01*
X4671825Y-1926150D02*
X4690873Y-1935674D01*
X4767063Y-2135674D02*
X4776587Y-2126150D01*
X4776587Y-2126150D02*
X4795634Y-2097579D01*
X4795634Y-2097579D02*
X4805158Y-2078531D01*
X4805158Y-2078531D02*
X4814682Y-2049960D01*
X4814682Y-2049960D02*
X4824206Y-2002341D01*
X4824206Y-2002341D02*
X4824206Y-1964246D01*
X4824206Y-1964246D02*
X4814682Y-1916627D01*
X4814682Y-1916627D02*
X4805158Y-1888055D01*
X4805158Y-1888055D02*
X4795634Y-1869008D01*
X4795634Y-1869008D02*
X4776587Y-1840436D01*
X4776587Y-1840436D02*
X4767063Y-1830912D01*
D14*
X-128000Y-2172000D02*
X-8000Y-2292000D01*
X-8000Y-2172000D02*
X-128000Y-2292000D01*
X-68000Y-2172000D02*
X-68000Y-2292000D01*
X-128000Y-2232000D02*
X-8000Y-2232000D01*
D12*
X357539Y-2323484D02*
X243253Y-2323484D01*
X300396Y-2323484D02*
X300396Y-2123484D01*
X300396Y-2123484D02*
X281348Y-2152055D01*
X281348Y-2152055D02*
X262301Y-2171103D01*
X262301Y-2171103D02*
X243253Y-2180627D01*
X443253Y-2304436D02*
X452777Y-2313960D01*
X452777Y-2313960D02*
X443253Y-2323484D01*
X443253Y-2323484D02*
X433729Y-2313960D01*
X433729Y-2313960D02*
X443253Y-2304436D01*
X443253Y-2304436D02*
X443253Y-2323484D01*
X528967Y-2142531D02*
X538491Y-2133008D01*
X538491Y-2133008D02*
X557539Y-2123484D01*
X557539Y-2123484D02*
X605158Y-2123484D01*
X605158Y-2123484D02*
X624205Y-2133008D01*
X624205Y-2133008D02*
X633729Y-2142531D01*
X633729Y-2142531D02*
X643253Y-2161579D01*
X643253Y-2161579D02*
X643253Y-2180627D01*
X643253Y-2180627D02*
X633729Y-2209198D01*
X633729Y-2209198D02*
X519443Y-2323484D01*
X519443Y-2323484D02*
X643253Y-2323484D01*
X767062Y-2123484D02*
X786110Y-2123484D01*
X786110Y-2123484D02*
X805158Y-2133008D01*
X805158Y-2133008D02*
X814682Y-2142531D01*
X814682Y-2142531D02*
X824205Y-2161579D01*
X824205Y-2161579D02*
X833729Y-2199674D01*
X833729Y-2199674D02*
X833729Y-2247293D01*
X833729Y-2247293D02*
X824205Y-2285389D01*
X824205Y-2285389D02*
X814682Y-2304436D01*
X814682Y-2304436D02*
X805158Y-2313960D01*
X805158Y-2313960D02*
X786110Y-2323484D01*
X786110Y-2323484D02*
X767062Y-2323484D01*
X767062Y-2323484D02*
X748015Y-2313960D01*
X748015Y-2313960D02*
X738491Y-2304436D01*
X738491Y-2304436D02*
X728967Y-2285389D01*
X728967Y-2285389D02*
X719443Y-2247293D01*
X719443Y-2247293D02*
X719443Y-2199674D01*
X719443Y-2199674D02*
X728967Y-2161579D01*
X728967Y-2161579D02*
X738491Y-2142531D01*
X738491Y-2142531D02*
X748015Y-2133008D01*
X748015Y-2133008D02*
X767062Y-2123484D01*
X957539Y-2123484D02*
X976586Y-2123484D01*
X976586Y-2123484D02*
X995634Y-2133008D01*
X995634Y-2133008D02*
X1005158Y-2142531D01*
X1005158Y-2142531D02*
X1014682Y-2161579D01*
X1014682Y-2161579D02*
X1024205Y-2199674D01*
X1024205Y-2199674D02*
X1024205Y-2247293D01*
X1024205Y-2247293D02*
X1014682Y-2285389D01*
X1014682Y-2285389D02*
X1005158Y-2304436D01*
X1005158Y-2304436D02*
X995634Y-2313960D01*
X995634Y-2313960D02*
X976586Y-2323484D01*
X976586Y-2323484D02*
X957539Y-2323484D01*
X957539Y-2323484D02*
X938491Y-2313960D01*
X938491Y-2313960D02*
X928967Y-2304436D01*
X928967Y-2304436D02*
X919443Y-2285389D01*
X919443Y-2285389D02*
X909920Y-2247293D01*
X909920Y-2247293D02*
X909920Y-2199674D01*
X909920Y-2199674D02*
X919443Y-2161579D01*
X919443Y-2161579D02*
X928967Y-2142531D01*
X928967Y-2142531D02*
X938491Y-2133008D01*
X938491Y-2133008D02*
X957539Y-2123484D01*
X1109920Y-2323484D02*
X1109920Y-2190150D01*
X1109920Y-2209198D02*
X1119444Y-2199674D01*
X1119444Y-2199674D02*
X1138491Y-2190150D01*
X1138491Y-2190150D02*
X1167063Y-2190150D01*
X1167063Y-2190150D02*
X1186110Y-2199674D01*
X1186110Y-2199674D02*
X1195634Y-2218722D01*
X1195634Y-2218722D02*
X1195634Y-2323484D01*
X1195634Y-2218722D02*
X1205158Y-2199674D01*
X1205158Y-2199674D02*
X1224205Y-2190150D01*
X1224205Y-2190150D02*
X1252777Y-2190150D01*
X1252777Y-2190150D02*
X1271825Y-2199674D01*
X1271825Y-2199674D02*
X1281348Y-2218722D01*
X1281348Y-2218722D02*
X1281348Y-2323484D01*
X1376586Y-2323484D02*
X1376586Y-2190150D01*
X1376586Y-2209198D02*
X1386110Y-2199674D01*
X1386110Y-2199674D02*
X1405158Y-2190150D01*
X1405158Y-2190150D02*
X1433729Y-2190150D01*
X1433729Y-2190150D02*
X1452777Y-2199674D01*
X1452777Y-2199674D02*
X1462301Y-2218722D01*
X1462301Y-2218722D02*
X1462301Y-2323484D01*
X1462301Y-2218722D02*
X1471824Y-2199674D01*
X1471824Y-2199674D02*
X1490872Y-2190150D01*
X1490872Y-2190150D02*
X1519443Y-2190150D01*
X1519443Y-2190150D02*
X1538491Y-2199674D01*
X1538491Y-2199674D02*
X1548015Y-2218722D01*
X1548015Y-2218722D02*
X1548015Y-2323484D01*
X1938491Y-2113960D02*
X1767063Y-2371103D01*
X2195634Y-2123484D02*
X2214682Y-2123484D01*
X2214682Y-2123484D02*
X2233729Y-2133008D01*
X2233729Y-2133008D02*
X2243253Y-2142531D01*
X2243253Y-2142531D02*
X2252777Y-2161579D01*
X2252777Y-2161579D02*
X2262301Y-2199674D01*
X2262301Y-2199674D02*
X2262301Y-2247293D01*
X2262301Y-2247293D02*
X2252777Y-2285389D01*
X2252777Y-2285389D02*
X2243253Y-2304436D01*
X2243253Y-2304436D02*
X2233729Y-2313960D01*
X2233729Y-2313960D02*
X2214682Y-2323484D01*
X2214682Y-2323484D02*
X2195634Y-2323484D01*
X2195634Y-2323484D02*
X2176587Y-2313960D01*
X2176587Y-2313960D02*
X2167063Y-2304436D01*
X2167063Y-2304436D02*
X2157539Y-2285389D01*
X2157539Y-2285389D02*
X2148015Y-2247293D01*
X2148015Y-2247293D02*
X2148015Y-2199674D01*
X2148015Y-2199674D02*
X2157539Y-2161579D01*
X2157539Y-2161579D02*
X2167063Y-2142531D01*
X2167063Y-2142531D02*
X2176587Y-2133008D01*
X2176587Y-2133008D02*
X2195634Y-2123484D01*
X2348015Y-2304436D02*
X2357539Y-2313960D01*
X2357539Y-2313960D02*
X2348015Y-2323484D01*
X2348015Y-2323484D02*
X2338491Y-2313960D01*
X2338491Y-2313960D02*
X2348015Y-2304436D01*
X2348015Y-2304436D02*
X2348015Y-2323484D01*
X2481348Y-2123484D02*
X2500396Y-2123484D01*
X2500396Y-2123484D02*
X2519444Y-2133008D01*
X2519444Y-2133008D02*
X2528968Y-2142531D01*
X2528968Y-2142531D02*
X2538491Y-2161579D01*
X2538491Y-2161579D02*
X2548015Y-2199674D01*
X2548015Y-2199674D02*
X2548015Y-2247293D01*
X2548015Y-2247293D02*
X2538491Y-2285389D01*
X2538491Y-2285389D02*
X2528968Y-2304436D01*
X2528968Y-2304436D02*
X2519444Y-2313960D01*
X2519444Y-2313960D02*
X2500396Y-2323484D01*
X2500396Y-2323484D02*
X2481348Y-2323484D01*
X2481348Y-2323484D02*
X2462301Y-2313960D01*
X2462301Y-2313960D02*
X2452777Y-2304436D01*
X2452777Y-2304436D02*
X2443253Y-2285389D01*
X2443253Y-2285389D02*
X2433729Y-2247293D01*
X2433729Y-2247293D02*
X2433729Y-2199674D01*
X2433729Y-2199674D02*
X2443253Y-2161579D01*
X2443253Y-2161579D02*
X2452777Y-2142531D01*
X2452777Y-2142531D02*
X2462301Y-2133008D01*
X2462301Y-2133008D02*
X2481348Y-2123484D01*
X2719444Y-2190150D02*
X2719444Y-2323484D01*
X2671825Y-2113960D02*
X2624206Y-2256817D01*
X2624206Y-2256817D02*
X2748015Y-2256817D01*
X2805158Y-2123484D02*
X2938491Y-2123484D01*
X2938491Y-2123484D02*
X2852777Y-2323484D01*
X3005158Y-2142531D02*
X3014682Y-2133008D01*
X3014682Y-2133008D02*
X3033729Y-2123484D01*
X3033729Y-2123484D02*
X3081348Y-2123484D01*
X3081348Y-2123484D02*
X3100396Y-2133008D01*
X3100396Y-2133008D02*
X3109920Y-2142531D01*
X3109920Y-2142531D02*
X3119444Y-2161579D01*
X3119444Y-2161579D02*
X3119444Y-2180627D01*
X3119444Y-2180627D02*
X3109920Y-2209198D01*
X3109920Y-2209198D02*
X2995634Y-2323484D01*
X2995634Y-2323484D02*
X3119444Y-2323484D01*
X3195634Y-2123484D02*
X3195634Y-2161579D01*
X3271825Y-2123484D02*
X3271825Y-2161579D01*
X3567063Y-2399674D02*
X3557539Y-2390150D01*
X3557539Y-2390150D02*
X3538491Y-2361579D01*
X3538491Y-2361579D02*
X3528968Y-2342531D01*
X3528968Y-2342531D02*
X3519444Y-2313960D01*
X3519444Y-2313960D02*
X3509920Y-2266341D01*
X3509920Y-2266341D02*
X3509920Y-2228246D01*
X3509920Y-2228246D02*
X3519444Y-2180627D01*
X3519444Y-2180627D02*
X3528968Y-2152055D01*
X3528968Y-2152055D02*
X3538491Y-2133008D01*
X3538491Y-2133008D02*
X3557539Y-2104436D01*
X3557539Y-2104436D02*
X3567063Y-2094912D01*
X3624206Y-2123484D02*
X3748015Y-2123484D01*
X3748015Y-2123484D02*
X3681348Y-2199674D01*
X3681348Y-2199674D02*
X3709920Y-2199674D01*
X3709920Y-2199674D02*
X3728968Y-2209198D01*
X3728968Y-2209198D02*
X3738491Y-2218722D01*
X3738491Y-2218722D02*
X3748015Y-2237770D01*
X3748015Y-2237770D02*
X3748015Y-2285389D01*
X3748015Y-2285389D02*
X3738491Y-2304436D01*
X3738491Y-2304436D02*
X3728968Y-2313960D01*
X3728968Y-2313960D02*
X3709920Y-2323484D01*
X3709920Y-2323484D02*
X3652777Y-2323484D01*
X3652777Y-2323484D02*
X3633729Y-2313960D01*
X3633729Y-2313960D02*
X3624206Y-2304436D01*
X3938491Y-2323484D02*
X3824206Y-2323484D01*
X3881348Y-2323484D02*
X3881348Y-2123484D01*
X3881348Y-2123484D02*
X3862301Y-2152055D01*
X3862301Y-2152055D02*
X3843253Y-2171103D01*
X3843253Y-2171103D02*
X3824206Y-2180627D01*
X4176587Y-2323484D02*
X4176587Y-2123484D01*
X4262301Y-2323484D02*
X4262301Y-2218722D01*
X4262301Y-2218722D02*
X4252777Y-2199674D01*
X4252777Y-2199674D02*
X4233730Y-2190150D01*
X4233730Y-2190150D02*
X4205158Y-2190150D01*
X4205158Y-2190150D02*
X4186110Y-2199674D01*
X4186110Y-2199674D02*
X4176587Y-2209198D01*
X4386111Y-2323484D02*
X4367063Y-2313960D01*
X4367063Y-2313960D02*
X4357539Y-2304436D01*
X4357539Y-2304436D02*
X4348015Y-2285389D01*
X4348015Y-2285389D02*
X4348015Y-2228246D01*
X4348015Y-2228246D02*
X4357539Y-2209198D01*
X4357539Y-2209198D02*
X4367063Y-2199674D01*
X4367063Y-2199674D02*
X4386111Y-2190150D01*
X4386111Y-2190150D02*
X4414682Y-2190150D01*
X4414682Y-2190150D02*
X4433730Y-2199674D01*
X4433730Y-2199674D02*
X4443253Y-2209198D01*
X4443253Y-2209198D02*
X4452777Y-2228246D01*
X4452777Y-2228246D02*
X4452777Y-2285389D01*
X4452777Y-2285389D02*
X4443253Y-2304436D01*
X4443253Y-2304436D02*
X4433730Y-2313960D01*
X4433730Y-2313960D02*
X4414682Y-2323484D01*
X4414682Y-2323484D02*
X4386111Y-2323484D01*
X4567063Y-2323484D02*
X4548015Y-2313960D01*
X4548015Y-2313960D02*
X4538492Y-2294912D01*
X4538492Y-2294912D02*
X4538492Y-2123484D01*
X4719444Y-2313960D02*
X4700396Y-2323484D01*
X4700396Y-2323484D02*
X4662301Y-2323484D01*
X4662301Y-2323484D02*
X4643253Y-2313960D01*
X4643253Y-2313960D02*
X4633730Y-2294912D01*
X4633730Y-2294912D02*
X4633730Y-2218722D01*
X4633730Y-2218722D02*
X4643253Y-2199674D01*
X4643253Y-2199674D02*
X4662301Y-2190150D01*
X4662301Y-2190150D02*
X4700396Y-2190150D01*
X4700396Y-2190150D02*
X4719444Y-2199674D01*
X4719444Y-2199674D02*
X4728968Y-2218722D01*
X4728968Y-2218722D02*
X4728968Y-2237770D01*
X4728968Y-2237770D02*
X4633730Y-2256817D01*
X4805158Y-2313960D02*
X4824206Y-2323484D01*
X4824206Y-2323484D02*
X4862301Y-2323484D01*
X4862301Y-2323484D02*
X4881349Y-2313960D01*
X4881349Y-2313960D02*
X4890873Y-2294912D01*
X4890873Y-2294912D02*
X4890873Y-2285389D01*
X4890873Y-2285389D02*
X4881349Y-2266341D01*
X4881349Y-2266341D02*
X4862301Y-2256817D01*
X4862301Y-2256817D02*
X4833730Y-2256817D01*
X4833730Y-2256817D02*
X4814682Y-2247293D01*
X4814682Y-2247293D02*
X4805158Y-2228246D01*
X4805158Y-2228246D02*
X4805158Y-2218722D01*
X4805158Y-2218722D02*
X4814682Y-2199674D01*
X4814682Y-2199674D02*
X4833730Y-2190150D01*
X4833730Y-2190150D02*
X4862301Y-2190150D01*
X4862301Y-2190150D02*
X4881349Y-2199674D01*
X4957539Y-2399674D02*
X4967063Y-2390150D01*
X4967063Y-2390150D02*
X4986111Y-2361579D01*
X4986111Y-2361579D02*
X4995634Y-2342531D01*
X4995634Y-2342531D02*
X5005158Y-2313960D01*
X5005158Y-2313960D02*
X5014682Y-2266341D01*
X5014682Y-2266341D02*
X5014682Y-2228246D01*
X5014682Y-2228246D02*
X5005158Y-2180627D01*
X5005158Y-2180627D02*
X4995634Y-2152055D01*
X4995634Y-2152055D02*
X4986111Y-2133008D01*
X4986111Y-2133008D02*
X4967063Y-2104436D01*
X4967063Y-2104436D02*
X4957539Y-2094912D01*
D15*
X-148000Y-2426000D02*
X-8000Y-2566000D01*
X-8000Y-2426000D02*
X-148000Y-2566000D01*
X-28502Y-2545498D02*
X-28502Y-2446502D01*
X-127498Y-2446502D01*
X-127498Y-2545498D01*
X-28502Y-2545498D01*
D12*
X357539Y-2587484D02*
X243253Y-2587484D01*
X300396Y-2587484D02*
X300396Y-2387484D01*
X300396Y-2387484D02*
X281348Y-2416055D01*
X281348Y-2416055D02*
X262301Y-2435103D01*
X262301Y-2435103D02*
X243253Y-2444627D01*
X443253Y-2568436D02*
X452777Y-2577960D01*
X452777Y-2577960D02*
X443253Y-2587484D01*
X443253Y-2587484D02*
X433729Y-2577960D01*
X433729Y-2577960D02*
X443253Y-2568436D01*
X443253Y-2568436D02*
X443253Y-2587484D01*
X624205Y-2454150D02*
X624205Y-2587484D01*
X576586Y-2377960D02*
X528967Y-2520817D01*
X528967Y-2520817D02*
X652777Y-2520817D01*
X767062Y-2387484D02*
X786110Y-2387484D01*
X786110Y-2387484D02*
X805158Y-2397008D01*
X805158Y-2397008D02*
X814682Y-2406531D01*
X814682Y-2406531D02*
X824205Y-2425579D01*
X824205Y-2425579D02*
X833729Y-2463674D01*
X833729Y-2463674D02*
X833729Y-2511293D01*
X833729Y-2511293D02*
X824205Y-2549389D01*
X824205Y-2549389D02*
X814682Y-2568436D01*
X814682Y-2568436D02*
X805158Y-2577960D01*
X805158Y-2577960D02*
X786110Y-2587484D01*
X786110Y-2587484D02*
X767062Y-2587484D01*
X767062Y-2587484D02*
X748015Y-2577960D01*
X748015Y-2577960D02*
X738491Y-2568436D01*
X738491Y-2568436D02*
X728967Y-2549389D01*
X728967Y-2549389D02*
X719443Y-2511293D01*
X719443Y-2511293D02*
X719443Y-2463674D01*
X719443Y-2463674D02*
X728967Y-2425579D01*
X728967Y-2425579D02*
X738491Y-2406531D01*
X738491Y-2406531D02*
X748015Y-2397008D01*
X748015Y-2397008D02*
X767062Y-2387484D01*
X957539Y-2387484D02*
X976586Y-2387484D01*
X976586Y-2387484D02*
X995634Y-2397008D01*
X995634Y-2397008D02*
X1005158Y-2406531D01*
X1005158Y-2406531D02*
X1014682Y-2425579D01*
X1014682Y-2425579D02*
X1024205Y-2463674D01*
X1024205Y-2463674D02*
X1024205Y-2511293D01*
X1024205Y-2511293D02*
X1014682Y-2549389D01*
X1014682Y-2549389D02*
X1005158Y-2568436D01*
X1005158Y-2568436D02*
X995634Y-2577960D01*
X995634Y-2577960D02*
X976586Y-2587484D01*
X976586Y-2587484D02*
X957539Y-2587484D01*
X957539Y-2587484D02*
X938491Y-2577960D01*
X938491Y-2577960D02*
X928967Y-2568436D01*
X928967Y-2568436D02*
X919443Y-2549389D01*
X919443Y-2549389D02*
X909920Y-2511293D01*
X909920Y-2511293D02*
X909920Y-2463674D01*
X909920Y-2463674D02*
X919443Y-2425579D01*
X919443Y-2425579D02*
X928967Y-2406531D01*
X928967Y-2406531D02*
X938491Y-2397008D01*
X938491Y-2397008D02*
X957539Y-2387484D01*
X1109920Y-2587484D02*
X1109920Y-2454150D01*
X1109920Y-2473198D02*
X1119444Y-2463674D01*
X1119444Y-2463674D02*
X1138491Y-2454150D01*
X1138491Y-2454150D02*
X1167063Y-2454150D01*
X1167063Y-2454150D02*
X1186110Y-2463674D01*
X1186110Y-2463674D02*
X1195634Y-2482722D01*
X1195634Y-2482722D02*
X1195634Y-2587484D01*
X1195634Y-2482722D02*
X1205158Y-2463674D01*
X1205158Y-2463674D02*
X1224205Y-2454150D01*
X1224205Y-2454150D02*
X1252777Y-2454150D01*
X1252777Y-2454150D02*
X1271825Y-2463674D01*
X1271825Y-2463674D02*
X1281348Y-2482722D01*
X1281348Y-2482722D02*
X1281348Y-2587484D01*
X1376586Y-2587484D02*
X1376586Y-2454150D01*
X1376586Y-2473198D02*
X1386110Y-2463674D01*
X1386110Y-2463674D02*
X1405158Y-2454150D01*
X1405158Y-2454150D02*
X1433729Y-2454150D01*
X1433729Y-2454150D02*
X1452777Y-2463674D01*
X1452777Y-2463674D02*
X1462301Y-2482722D01*
X1462301Y-2482722D02*
X1462301Y-2587484D01*
X1462301Y-2482722D02*
X1471824Y-2463674D01*
X1471824Y-2463674D02*
X1490872Y-2454150D01*
X1490872Y-2454150D02*
X1519443Y-2454150D01*
X1519443Y-2454150D02*
X1538491Y-2463674D01*
X1538491Y-2463674D02*
X1548015Y-2482722D01*
X1548015Y-2482722D02*
X1548015Y-2587484D01*
X1938491Y-2377960D02*
X1767063Y-2635103D01*
X2195634Y-2387484D02*
X2214682Y-2387484D01*
X2214682Y-2387484D02*
X2233729Y-2397008D01*
X2233729Y-2397008D02*
X2243253Y-2406531D01*
X2243253Y-2406531D02*
X2252777Y-2425579D01*
X2252777Y-2425579D02*
X2262301Y-2463674D01*
X2262301Y-2463674D02*
X2262301Y-2511293D01*
X2262301Y-2511293D02*
X2252777Y-2549389D01*
X2252777Y-2549389D02*
X2243253Y-2568436D01*
X2243253Y-2568436D02*
X2233729Y-2577960D01*
X2233729Y-2577960D02*
X2214682Y-2587484D01*
X2214682Y-2587484D02*
X2195634Y-2587484D01*
X2195634Y-2587484D02*
X2176587Y-2577960D01*
X2176587Y-2577960D02*
X2167063Y-2568436D01*
X2167063Y-2568436D02*
X2157539Y-2549389D01*
X2157539Y-2549389D02*
X2148015Y-2511293D01*
X2148015Y-2511293D02*
X2148015Y-2463674D01*
X2148015Y-2463674D02*
X2157539Y-2425579D01*
X2157539Y-2425579D02*
X2167063Y-2406531D01*
X2167063Y-2406531D02*
X2176587Y-2397008D01*
X2176587Y-2397008D02*
X2195634Y-2387484D01*
X2348015Y-2568436D02*
X2357539Y-2577960D01*
X2357539Y-2577960D02*
X2348015Y-2587484D01*
X2348015Y-2587484D02*
X2338491Y-2577960D01*
X2338491Y-2577960D02*
X2348015Y-2568436D01*
X2348015Y-2568436D02*
X2348015Y-2587484D01*
X2481348Y-2387484D02*
X2500396Y-2387484D01*
X2500396Y-2387484D02*
X2519444Y-2397008D01*
X2519444Y-2397008D02*
X2528968Y-2406531D01*
X2528968Y-2406531D02*
X2538491Y-2425579D01*
X2538491Y-2425579D02*
X2548015Y-2463674D01*
X2548015Y-2463674D02*
X2548015Y-2511293D01*
X2548015Y-2511293D02*
X2538491Y-2549389D01*
X2538491Y-2549389D02*
X2528968Y-2568436D01*
X2528968Y-2568436D02*
X2519444Y-2577960D01*
X2519444Y-2577960D02*
X2500396Y-2587484D01*
X2500396Y-2587484D02*
X2481348Y-2587484D01*
X2481348Y-2587484D02*
X2462301Y-2577960D01*
X2462301Y-2577960D02*
X2452777Y-2568436D01*
X2452777Y-2568436D02*
X2443253Y-2549389D01*
X2443253Y-2549389D02*
X2433729Y-2511293D01*
X2433729Y-2511293D02*
X2433729Y-2463674D01*
X2433729Y-2463674D02*
X2443253Y-2425579D01*
X2443253Y-2425579D02*
X2452777Y-2406531D01*
X2452777Y-2406531D02*
X2462301Y-2397008D01*
X2462301Y-2397008D02*
X2481348Y-2387484D01*
X2728968Y-2387484D02*
X2633729Y-2387484D01*
X2633729Y-2387484D02*
X2624206Y-2482722D01*
X2624206Y-2482722D02*
X2633729Y-2473198D01*
X2633729Y-2473198D02*
X2652777Y-2463674D01*
X2652777Y-2463674D02*
X2700396Y-2463674D01*
X2700396Y-2463674D02*
X2719444Y-2473198D01*
X2719444Y-2473198D02*
X2728968Y-2482722D01*
X2728968Y-2482722D02*
X2738491Y-2501770D01*
X2738491Y-2501770D02*
X2738491Y-2549389D01*
X2738491Y-2549389D02*
X2728968Y-2568436D01*
X2728968Y-2568436D02*
X2719444Y-2577960D01*
X2719444Y-2577960D02*
X2700396Y-2587484D01*
X2700396Y-2587484D02*
X2652777Y-2587484D01*
X2652777Y-2587484D02*
X2633729Y-2577960D01*
X2633729Y-2577960D02*
X2624206Y-2568436D01*
X2919444Y-2387484D02*
X2824206Y-2387484D01*
X2824206Y-2387484D02*
X2814682Y-2482722D01*
X2814682Y-2482722D02*
X2824206Y-2473198D01*
X2824206Y-2473198D02*
X2843253Y-2463674D01*
X2843253Y-2463674D02*
X2890872Y-2463674D01*
X2890872Y-2463674D02*
X2909920Y-2473198D01*
X2909920Y-2473198D02*
X2919444Y-2482722D01*
X2919444Y-2482722D02*
X2928967Y-2501770D01*
X2928967Y-2501770D02*
X2928967Y-2549389D01*
X2928967Y-2549389D02*
X2919444Y-2568436D01*
X2919444Y-2568436D02*
X2909920Y-2577960D01*
X2909920Y-2577960D02*
X2890872Y-2587484D01*
X2890872Y-2587484D02*
X2843253Y-2587484D01*
X2843253Y-2587484D02*
X2824206Y-2577960D01*
X2824206Y-2577960D02*
X2814682Y-2568436D01*
X3119444Y-2587484D02*
X3005158Y-2587484D01*
X3062301Y-2587484D02*
X3062301Y-2387484D01*
X3062301Y-2387484D02*
X3043253Y-2416055D01*
X3043253Y-2416055D02*
X3024206Y-2435103D01*
X3024206Y-2435103D02*
X3005158Y-2444627D01*
X3195634Y-2387484D02*
X3195634Y-2425579D01*
X3271825Y-2387484D02*
X3271825Y-2425579D01*
X3567063Y-2663674D02*
X3557539Y-2654150D01*
X3557539Y-2654150D02*
X3538491Y-2625579D01*
X3538491Y-2625579D02*
X3528968Y-2606531D01*
X3528968Y-2606531D02*
X3519444Y-2577960D01*
X3519444Y-2577960D02*
X3509920Y-2530341D01*
X3509920Y-2530341D02*
X3509920Y-2492246D01*
X3509920Y-2492246D02*
X3519444Y-2444627D01*
X3519444Y-2444627D02*
X3528968Y-2416055D01*
X3528968Y-2416055D02*
X3538491Y-2397008D01*
X3538491Y-2397008D02*
X3557539Y-2368436D01*
X3557539Y-2368436D02*
X3567063Y-2358912D01*
X3633729Y-2406531D02*
X3643253Y-2397008D01*
X3643253Y-2397008D02*
X3662301Y-2387484D01*
X3662301Y-2387484D02*
X3709920Y-2387484D01*
X3709920Y-2387484D02*
X3728968Y-2397008D01*
X3728968Y-2397008D02*
X3738491Y-2406531D01*
X3738491Y-2406531D02*
X3748015Y-2425579D01*
X3748015Y-2425579D02*
X3748015Y-2444627D01*
X3748015Y-2444627D02*
X3738491Y-2473198D01*
X3738491Y-2473198D02*
X3624206Y-2587484D01*
X3624206Y-2587484D02*
X3748015Y-2587484D01*
X3986110Y-2587484D02*
X3986110Y-2387484D01*
X4071825Y-2587484D02*
X4071825Y-2482722D01*
X4071825Y-2482722D02*
X4062301Y-2463674D01*
X4062301Y-2463674D02*
X4043253Y-2454150D01*
X4043253Y-2454150D02*
X4014682Y-2454150D01*
X4014682Y-2454150D02*
X3995634Y-2463674D01*
X3995634Y-2463674D02*
X3986110Y-2473198D01*
X4195634Y-2587484D02*
X4176587Y-2577960D01*
X4176587Y-2577960D02*
X4167063Y-2568436D01*
X4167063Y-2568436D02*
X4157539Y-2549389D01*
X4157539Y-2549389D02*
X4157539Y-2492246D01*
X4157539Y-2492246D02*
X4167063Y-2473198D01*
X4167063Y-2473198D02*
X4176587Y-2463674D01*
X4176587Y-2463674D02*
X4195634Y-2454150D01*
X4195634Y-2454150D02*
X4224206Y-2454150D01*
X4224206Y-2454150D02*
X4243253Y-2463674D01*
X4243253Y-2463674D02*
X4252777Y-2473198D01*
X4252777Y-2473198D02*
X4262301Y-2492246D01*
X4262301Y-2492246D02*
X4262301Y-2549389D01*
X4262301Y-2549389D02*
X4252777Y-2568436D01*
X4252777Y-2568436D02*
X4243253Y-2577960D01*
X4243253Y-2577960D02*
X4224206Y-2587484D01*
X4224206Y-2587484D02*
X4195634Y-2587484D01*
X4376587Y-2587484D02*
X4357539Y-2577960D01*
X4357539Y-2577960D02*
X4348015Y-2558912D01*
X4348015Y-2558912D02*
X4348015Y-2387484D01*
X4528968Y-2577960D02*
X4509920Y-2587484D01*
X4509920Y-2587484D02*
X4471825Y-2587484D01*
X4471825Y-2587484D02*
X4452777Y-2577960D01*
X4452777Y-2577960D02*
X4443253Y-2558912D01*
X4443253Y-2558912D02*
X4443253Y-2482722D01*
X4443253Y-2482722D02*
X4452777Y-2463674D01*
X4452777Y-2463674D02*
X4471825Y-2454150D01*
X4471825Y-2454150D02*
X4509920Y-2454150D01*
X4509920Y-2454150D02*
X4528968Y-2463674D01*
X4528968Y-2463674D02*
X4538492Y-2482722D01*
X4538492Y-2482722D02*
X4538492Y-2501770D01*
X4538492Y-2501770D02*
X4443253Y-2520817D01*
X4614682Y-2577960D02*
X4633730Y-2587484D01*
X4633730Y-2587484D02*
X4671825Y-2587484D01*
X4671825Y-2587484D02*
X4690873Y-2577960D01*
X4690873Y-2577960D02*
X4700396Y-2558912D01*
X4700396Y-2558912D02*
X4700396Y-2549389D01*
X4700396Y-2549389D02*
X4690873Y-2530341D01*
X4690873Y-2530341D02*
X4671825Y-2520817D01*
X4671825Y-2520817D02*
X4643253Y-2520817D01*
X4643253Y-2520817D02*
X4624206Y-2511293D01*
X4624206Y-2511293D02*
X4614682Y-2492246D01*
X4614682Y-2492246D02*
X4614682Y-2482722D01*
X4614682Y-2482722D02*
X4624206Y-2463674D01*
X4624206Y-2463674D02*
X4643253Y-2454150D01*
X4643253Y-2454150D02*
X4671825Y-2454150D01*
X4671825Y-2454150D02*
X4690873Y-2463674D01*
X4767063Y-2663674D02*
X4776587Y-2654150D01*
X4776587Y-2654150D02*
X4795634Y-2625579D01*
X4795634Y-2625579D02*
X4805158Y-2606531D01*
X4805158Y-2606531D02*
X4814682Y-2577960D01*
X4814682Y-2577960D02*
X4824206Y-2530341D01*
X4824206Y-2530341D02*
X4824206Y-2492246D01*
X4824206Y-2492246D02*
X4814682Y-2444627D01*
X4814682Y-2444627D02*
X4805158Y-2416055D01*
X4805158Y-2416055D02*
X4795634Y-2397008D01*
X4795634Y-2397008D02*
X4776587Y-2368436D01*
X4776587Y-2368436D02*
X4767063Y-2358912D01*
X-208000Y-2660000D02*
X-8000Y-2860000D01*
X-8000Y-2660000D02*
X-208000Y-2860000D01*
X-108000Y-2860000D02*
X-8000Y-2760000D01*
X-108000Y-2660000D01*
X-208000Y-2760000D01*
X-108000Y-2860000D01*
X233729Y-2651484D02*
X357539Y-2651484D01*
X357539Y-2651484D02*
X290872Y-2727674D01*
X290872Y-2727674D02*
X319444Y-2727674D01*
X319444Y-2727674D02*
X338491Y-2737198D01*
X338491Y-2737198D02*
X348015Y-2746722D01*
X348015Y-2746722D02*
X357539Y-2765770D01*
X357539Y-2765770D02*
X357539Y-2813388D01*
X357539Y-2813388D02*
X348015Y-2832436D01*
X348015Y-2832436D02*
X338491Y-2841960D01*
X338491Y-2841960D02*
X319444Y-2851484D01*
X319444Y-2851484D02*
X262301Y-2851484D01*
X262301Y-2851484D02*
X243253Y-2841960D01*
X243253Y-2841960D02*
X233729Y-2832436D01*
X443253Y-2832436D02*
X452777Y-2841960D01*
X452777Y-2841960D02*
X443253Y-2851484D01*
X443253Y-2851484D02*
X433729Y-2841960D01*
X433729Y-2841960D02*
X443253Y-2832436D01*
X443253Y-2832436D02*
X443253Y-2851484D01*
X528967Y-2670531D02*
X538491Y-2661008D01*
X538491Y-2661008D02*
X557539Y-2651484D01*
X557539Y-2651484D02*
X605158Y-2651484D01*
X605158Y-2651484D02*
X624205Y-2661008D01*
X624205Y-2661008D02*
X633729Y-2670531D01*
X633729Y-2670531D02*
X643253Y-2689579D01*
X643253Y-2689579D02*
X643253Y-2708627D01*
X643253Y-2708627D02*
X633729Y-2737198D01*
X633729Y-2737198D02*
X519443Y-2851484D01*
X519443Y-2851484D02*
X643253Y-2851484D01*
X767062Y-2651484D02*
X786110Y-2651484D01*
X786110Y-2651484D02*
X805158Y-2661008D01*
X805158Y-2661008D02*
X814682Y-2670531D01*
X814682Y-2670531D02*
X824205Y-2689579D01*
X824205Y-2689579D02*
X833729Y-2727674D01*
X833729Y-2727674D02*
X833729Y-2775293D01*
X833729Y-2775293D02*
X824205Y-2813388D01*
X824205Y-2813388D02*
X814682Y-2832436D01*
X814682Y-2832436D02*
X805158Y-2841960D01*
X805158Y-2841960D02*
X786110Y-2851484D01*
X786110Y-2851484D02*
X767062Y-2851484D01*
X767062Y-2851484D02*
X748015Y-2841960D01*
X748015Y-2841960D02*
X738491Y-2832436D01*
X738491Y-2832436D02*
X728967Y-2813388D01*
X728967Y-2813388D02*
X719443Y-2775293D01*
X719443Y-2775293D02*
X719443Y-2727674D01*
X719443Y-2727674D02*
X728967Y-2689579D01*
X728967Y-2689579D02*
X738491Y-2670531D01*
X738491Y-2670531D02*
X748015Y-2661008D01*
X748015Y-2661008D02*
X767062Y-2651484D01*
X957539Y-2651484D02*
X976586Y-2651484D01*
X976586Y-2651484D02*
X995634Y-2661008D01*
X995634Y-2661008D02*
X1005158Y-2670531D01*
X1005158Y-2670531D02*
X1014682Y-2689579D01*
X1014682Y-2689579D02*
X1024205Y-2727674D01*
X1024205Y-2727674D02*
X1024205Y-2775293D01*
X1024205Y-2775293D02*
X1014682Y-2813388D01*
X1014682Y-2813388D02*
X1005158Y-2832436D01*
X1005158Y-2832436D02*
X995634Y-2841960D01*
X995634Y-2841960D02*
X976586Y-2851484D01*
X976586Y-2851484D02*
X957539Y-2851484D01*
X957539Y-2851484D02*
X938491Y-2841960D01*
X938491Y-2841960D02*
X928967Y-2832436D01*
X928967Y-2832436D02*
X919443Y-2813388D01*
X919443Y-2813388D02*
X909920Y-2775293D01*
X909920Y-2775293D02*
X909920Y-2727674D01*
X909920Y-2727674D02*
X919443Y-2689579D01*
X919443Y-2689579D02*
X928967Y-2670531D01*
X928967Y-2670531D02*
X938491Y-2661008D01*
X938491Y-2661008D02*
X957539Y-2651484D01*
X1109920Y-2851484D02*
X1109920Y-2718150D01*
X1109920Y-2737198D02*
X1119444Y-2727674D01*
X1119444Y-2727674D02*
X1138491Y-2718150D01*
X1138491Y-2718150D02*
X1167063Y-2718150D01*
X1167063Y-2718150D02*
X1186110Y-2727674D01*
X1186110Y-2727674D02*
X1195634Y-2746722D01*
X1195634Y-2746722D02*
X1195634Y-2851484D01*
X1195634Y-2746722D02*
X1205158Y-2727674D01*
X1205158Y-2727674D02*
X1224205Y-2718150D01*
X1224205Y-2718150D02*
X1252777Y-2718150D01*
X1252777Y-2718150D02*
X1271825Y-2727674D01*
X1271825Y-2727674D02*
X1281348Y-2746722D01*
X1281348Y-2746722D02*
X1281348Y-2851484D01*
X1376586Y-2851484D02*
X1376586Y-2718150D01*
X1376586Y-2737198D02*
X1386110Y-2727674D01*
X1386110Y-2727674D02*
X1405158Y-2718150D01*
X1405158Y-2718150D02*
X1433729Y-2718150D01*
X1433729Y-2718150D02*
X1452777Y-2727674D01*
X1452777Y-2727674D02*
X1462301Y-2746722D01*
X1462301Y-2746722D02*
X1462301Y-2851484D01*
X1462301Y-2746722D02*
X1471824Y-2727674D01*
X1471824Y-2727674D02*
X1490872Y-2718150D01*
X1490872Y-2718150D02*
X1519443Y-2718150D01*
X1519443Y-2718150D02*
X1538491Y-2727674D01*
X1538491Y-2727674D02*
X1548015Y-2746722D01*
X1548015Y-2746722D02*
X1548015Y-2851484D01*
X1938491Y-2641960D02*
X1767063Y-2899103D01*
X2195634Y-2651484D02*
X2214682Y-2651484D01*
X2214682Y-2651484D02*
X2233729Y-2661008D01*
X2233729Y-2661008D02*
X2243253Y-2670531D01*
X2243253Y-2670531D02*
X2252777Y-2689579D01*
X2252777Y-2689579D02*
X2262301Y-2727674D01*
X2262301Y-2727674D02*
X2262301Y-2775293D01*
X2262301Y-2775293D02*
X2252777Y-2813388D01*
X2252777Y-2813388D02*
X2243253Y-2832436D01*
X2243253Y-2832436D02*
X2233729Y-2841960D01*
X2233729Y-2841960D02*
X2214682Y-2851484D01*
X2214682Y-2851484D02*
X2195634Y-2851484D01*
X2195634Y-2851484D02*
X2176587Y-2841960D01*
X2176587Y-2841960D02*
X2167063Y-2832436D01*
X2167063Y-2832436D02*
X2157539Y-2813388D01*
X2157539Y-2813388D02*
X2148015Y-2775293D01*
X2148015Y-2775293D02*
X2148015Y-2727674D01*
X2148015Y-2727674D02*
X2157539Y-2689579D01*
X2157539Y-2689579D02*
X2167063Y-2670531D01*
X2167063Y-2670531D02*
X2176587Y-2661008D01*
X2176587Y-2661008D02*
X2195634Y-2651484D01*
X2348015Y-2832436D02*
X2357539Y-2841960D01*
X2357539Y-2841960D02*
X2348015Y-2851484D01*
X2348015Y-2851484D02*
X2338491Y-2841960D01*
X2338491Y-2841960D02*
X2348015Y-2832436D01*
X2348015Y-2832436D02*
X2348015Y-2851484D01*
X2548015Y-2851484D02*
X2433729Y-2851484D01*
X2490872Y-2851484D02*
X2490872Y-2651484D01*
X2490872Y-2651484D02*
X2471825Y-2680055D01*
X2471825Y-2680055D02*
X2452777Y-2699103D01*
X2452777Y-2699103D02*
X2433729Y-2708627D01*
X2624206Y-2670531D02*
X2633729Y-2661008D01*
X2633729Y-2661008D02*
X2652777Y-2651484D01*
X2652777Y-2651484D02*
X2700396Y-2651484D01*
X2700396Y-2651484D02*
X2719444Y-2661008D01*
X2719444Y-2661008D02*
X2728968Y-2670531D01*
X2728968Y-2670531D02*
X2738491Y-2689579D01*
X2738491Y-2689579D02*
X2738491Y-2708627D01*
X2738491Y-2708627D02*
X2728968Y-2737198D01*
X2728968Y-2737198D02*
X2614682Y-2851484D01*
X2614682Y-2851484D02*
X2738491Y-2851484D01*
X2909920Y-2651484D02*
X2871825Y-2651484D01*
X2871825Y-2651484D02*
X2852777Y-2661008D01*
X2852777Y-2661008D02*
X2843253Y-2670531D01*
X2843253Y-2670531D02*
X2824206Y-2699103D01*
X2824206Y-2699103D02*
X2814682Y-2737198D01*
X2814682Y-2737198D02*
X2814682Y-2813388D01*
X2814682Y-2813388D02*
X2824206Y-2832436D01*
X2824206Y-2832436D02*
X2833729Y-2841960D01*
X2833729Y-2841960D02*
X2852777Y-2851484D01*
X2852777Y-2851484D02*
X2890872Y-2851484D01*
X2890872Y-2851484D02*
X2909920Y-2841960D01*
X2909920Y-2841960D02*
X2919444Y-2832436D01*
X2919444Y-2832436D02*
X2928967Y-2813388D01*
X2928967Y-2813388D02*
X2928967Y-2765770D01*
X2928967Y-2765770D02*
X2919444Y-2746722D01*
X2919444Y-2746722D02*
X2909920Y-2737198D01*
X2909920Y-2737198D02*
X2890872Y-2727674D01*
X2890872Y-2727674D02*
X2852777Y-2727674D01*
X2852777Y-2727674D02*
X2833729Y-2737198D01*
X2833729Y-2737198D02*
X2824206Y-2746722D01*
X2824206Y-2746722D02*
X2814682Y-2765770D01*
X3052777Y-2651484D02*
X3071825Y-2651484D01*
X3071825Y-2651484D02*
X3090872Y-2661008D01*
X3090872Y-2661008D02*
X3100396Y-2670531D01*
X3100396Y-2670531D02*
X3109920Y-2689579D01*
X3109920Y-2689579D02*
X3119444Y-2727674D01*
X3119444Y-2727674D02*
X3119444Y-2775293D01*
X3119444Y-2775293D02*
X3109920Y-2813388D01*
X3109920Y-2813388D02*
X3100396Y-2832436D01*
X3100396Y-2832436D02*
X3090872Y-2841960D01*
X3090872Y-2841960D02*
X3071825Y-2851484D01*
X3071825Y-2851484D02*
X3052777Y-2851484D01*
X3052777Y-2851484D02*
X3033729Y-2841960D01*
X3033729Y-2841960D02*
X3024206Y-2832436D01*
X3024206Y-2832436D02*
X3014682Y-2813388D01*
X3014682Y-2813388D02*
X3005158Y-2775293D01*
X3005158Y-2775293D02*
X3005158Y-2727674D01*
X3005158Y-2727674D02*
X3014682Y-2689579D01*
X3014682Y-2689579D02*
X3024206Y-2670531D01*
X3024206Y-2670531D02*
X3033729Y-2661008D01*
X3033729Y-2661008D02*
X3052777Y-2651484D01*
X3195634Y-2651484D02*
X3195634Y-2689579D01*
X3271825Y-2651484D02*
X3271825Y-2689579D01*
X3567063Y-2927674D02*
X3557539Y-2918150D01*
X3557539Y-2918150D02*
X3538491Y-2889579D01*
X3538491Y-2889579D02*
X3528968Y-2870531D01*
X3528968Y-2870531D02*
X3519444Y-2841960D01*
X3519444Y-2841960D02*
X3509920Y-2794341D01*
X3509920Y-2794341D02*
X3509920Y-2756246D01*
X3509920Y-2756246D02*
X3519444Y-2708627D01*
X3519444Y-2708627D02*
X3528968Y-2680055D01*
X3528968Y-2680055D02*
X3538491Y-2661008D01*
X3538491Y-2661008D02*
X3557539Y-2632436D01*
X3557539Y-2632436D02*
X3567063Y-2622912D01*
X3624206Y-2651484D02*
X3748015Y-2651484D01*
X3748015Y-2651484D02*
X3681348Y-2727674D01*
X3681348Y-2727674D02*
X3709920Y-2727674D01*
X3709920Y-2727674D02*
X3728968Y-2737198D01*
X3728968Y-2737198D02*
X3738491Y-2746722D01*
X3738491Y-2746722D02*
X3748015Y-2765770D01*
X3748015Y-2765770D02*
X3748015Y-2813388D01*
X3748015Y-2813388D02*
X3738491Y-2832436D01*
X3738491Y-2832436D02*
X3728968Y-2841960D01*
X3728968Y-2841960D02*
X3709920Y-2851484D01*
X3709920Y-2851484D02*
X3652777Y-2851484D01*
X3652777Y-2851484D02*
X3633729Y-2841960D01*
X3633729Y-2841960D02*
X3624206Y-2832436D01*
X3986110Y-2851484D02*
X3986110Y-2651484D01*
X4071825Y-2851484D02*
X4071825Y-2746722D01*
X4071825Y-2746722D02*
X4062301Y-2727674D01*
X4062301Y-2727674D02*
X4043253Y-2718150D01*
X4043253Y-2718150D02*
X4014682Y-2718150D01*
X4014682Y-2718150D02*
X3995634Y-2727674D01*
X3995634Y-2727674D02*
X3986110Y-2737198D01*
X4195634Y-2851484D02*
X4176587Y-2841960D01*
X4176587Y-2841960D02*
X4167063Y-2832436D01*
X4167063Y-2832436D02*
X4157539Y-2813388D01*
X4157539Y-2813388D02*
X4157539Y-2756246D01*
X4157539Y-2756246D02*
X4167063Y-2737198D01*
X4167063Y-2737198D02*
X4176587Y-2727674D01*
X4176587Y-2727674D02*
X4195634Y-2718150D01*
X4195634Y-2718150D02*
X4224206Y-2718150D01*
X4224206Y-2718150D02*
X4243253Y-2727674D01*
X4243253Y-2727674D02*
X4252777Y-2737198D01*
X4252777Y-2737198D02*
X4262301Y-2756246D01*
X4262301Y-2756246D02*
X4262301Y-2813388D01*
X4262301Y-2813388D02*
X4252777Y-2832436D01*
X4252777Y-2832436D02*
X4243253Y-2841960D01*
X4243253Y-2841960D02*
X4224206Y-2851484D01*
X4224206Y-2851484D02*
X4195634Y-2851484D01*
X4376587Y-2851484D02*
X4357539Y-2841960D01*
X4357539Y-2841960D02*
X4348015Y-2822912D01*
X4348015Y-2822912D02*
X4348015Y-2651484D01*
X4528968Y-2841960D02*
X4509920Y-2851484D01*
X4509920Y-2851484D02*
X4471825Y-2851484D01*
X4471825Y-2851484D02*
X4452777Y-2841960D01*
X4452777Y-2841960D02*
X4443253Y-2822912D01*
X4443253Y-2822912D02*
X4443253Y-2746722D01*
X4443253Y-2746722D02*
X4452777Y-2727674D01*
X4452777Y-2727674D02*
X4471825Y-2718150D01*
X4471825Y-2718150D02*
X4509920Y-2718150D01*
X4509920Y-2718150D02*
X4528968Y-2727674D01*
X4528968Y-2727674D02*
X4538492Y-2746722D01*
X4538492Y-2746722D02*
X4538492Y-2765770D01*
X4538492Y-2765770D02*
X4443253Y-2784817D01*
X4614682Y-2841960D02*
X4633730Y-2851484D01*
X4633730Y-2851484D02*
X4671825Y-2851484D01*
X4671825Y-2851484D02*
X4690873Y-2841960D01*
X4690873Y-2841960D02*
X4700396Y-2822912D01*
X4700396Y-2822912D02*
X4700396Y-2813388D01*
X4700396Y-2813388D02*
X4690873Y-2794341D01*
X4690873Y-2794341D02*
X4671825Y-2784817D01*
X4671825Y-2784817D02*
X4643253Y-2784817D01*
X4643253Y-2784817D02*
X4624206Y-2775293D01*
X4624206Y-2775293D02*
X4614682Y-2756246D01*
X4614682Y-2756246D02*
X4614682Y-2746722D01*
X4614682Y-2746722D02*
X4624206Y-2727674D01*
X4624206Y-2727674D02*
X4643253Y-2718150D01*
X4643253Y-2718150D02*
X4671825Y-2718150D01*
X4671825Y-2718150D02*
X4690873Y-2727674D01*
X4767063Y-2927674D02*
X4776587Y-2918150D01*
X4776587Y-2918150D02*
X4795634Y-2889579D01*
X4795634Y-2889579D02*
X4805158Y-2870531D01*
X4805158Y-2870531D02*
X4814682Y-2841960D01*
X4814682Y-2841960D02*
X4824206Y-2794341D01*
X4824206Y-2794341D02*
X4824206Y-2756246D01*
X4824206Y-2756246D02*
X4814682Y-2708627D01*
X4814682Y-2708627D02*
X4805158Y-2680055D01*
X4805158Y-2680055D02*
X4795634Y-2661008D01*
X4795634Y-2661008D02*
X4776587Y-2632436D01*
X4776587Y-2632436D02*
X4767063Y-2622912D01*
M02*
