%TF.GenerationSoftware,KiCad,Pcbnew,7.0.11-7.0.11~ubuntu22.04.1*%
%TF.CreationDate,2024-03-11T04:50:29+03:00*%
%TF.ProjectId,MSConn,4d53436f-6e6e-42e6-9b69-6361645f7063,rev?*%
%TF.SameCoordinates,PX5f5e100PY5f5e100*%
%TF.FileFunction,Soldermask,Bot*%
%TF.FilePolarity,Negative*%
%FSLAX46Y46*%
G04 Gerber Fmt 4.6, Leading zero omitted, Abs format (unit mm)*
G04 Created by KiCad (PCBNEW 7.0.11-7.0.11~ubuntu22.04.1) date 2024-03-11 04:50:29*
%MOMM*%
%LPD*%
G01*
G04 APERTURE LIST*
G04 Aperture macros list*
%AMRoundRect*
0 Rectangle with rounded corners*
0 $1 Rounding radius*
0 $2 $3 $4 $5 $6 $7 $8 $9 X,Y pos of 4 corners*
0 Add a 4 corners polygon primitive as box body*
4,1,4,$2,$3,$4,$5,$6,$7,$8,$9,$2,$3,0*
0 Add four circle primitives for the rounded corners*
1,1,$1+$1,$2,$3*
1,1,$1+$1,$4,$5*
1,1,$1+$1,$6,$7*
1,1,$1+$1,$8,$9*
0 Add four rect primitives between the rounded corners*
20,1,$1+$1,$2,$3,$4,$5,0*
20,1,$1+$1,$4,$5,$6,$7,0*
20,1,$1+$1,$6,$7,$8,$9,0*
20,1,$1+$1,$8,$9,$2,$3,0*%
G04 Aperture macros list end*
%ADD10R,3.000000X3.000000*%
%ADD11C,3.000000*%
%ADD12C,4.000000*%
%ADD13R,1.600000X1.600000*%
%ADD14C,1.600000*%
%ADD15C,2.000000*%
%ADD16RoundRect,0.250000X-0.725000X0.600000X-0.725000X-0.600000X0.725000X-0.600000X0.725000X0.600000X0*%
%ADD17O,1.950000X1.700000*%
%ADD18RoundRect,0.249999X1.550001X-0.790001X1.550001X0.790001X-1.550001X0.790001X-1.550001X-0.790001X0*%
%ADD19O,3.600000X2.080000*%
%ADD20C,2.400000*%
%ADD21O,2.400000X2.400000*%
%ADD22O,1.600000X1.600000*%
%ADD23RoundRect,0.250000X0.750000X-0.600000X0.750000X0.600000X-0.750000X0.600000X-0.750000X-0.600000X0*%
%ADD24O,2.000000X1.700000*%
%ADD25RoundRect,0.250000X1.550000X-0.650000X1.550000X0.650000X-1.550000X0.650000X-1.550000X-0.650000X0*%
%ADD26O,3.600000X1.800000*%
%ADD27R,2.030000X1.730000*%
%ADD28O,2.030000X1.730000*%
%ADD29RoundRect,0.250000X0.725000X-0.600000X0.725000X0.600000X-0.725000X0.600000X-0.725000X-0.600000X0*%
G04 APERTURE END LIST*
D10*
%TO.C,RV1*%
X2500000Y54731350D03*
D11*
X2500000Y49651350D03*
X2500000Y44571350D03*
%TD*%
D12*
%TO.C,H1*%
X47000000Y87000000D03*
%TD*%
D13*
%TO.C,C10*%
X21500000Y27947349D03*
D14*
X21500000Y31447349D03*
%TD*%
D15*
%TO.C,C11*%
X28500000Y16500000D03*
X38500000Y16500000D03*
%TD*%
D16*
%TO.C,J4*%
X38763153Y85731350D03*
D17*
X38763153Y83231350D03*
X38763153Y80731350D03*
%TD*%
D18*
%TO.C,J9*%
X43100000Y17320000D03*
D19*
X43100000Y22400000D03*
%TD*%
D16*
%TO.C,J2*%
X24963153Y85731350D03*
D17*
X24963153Y83231350D03*
X24963153Y80731350D03*
%TD*%
D12*
%TO.C,H3*%
X47000000Y3000000D03*
%TD*%
D16*
%TO.C,J3*%
X31863153Y85731350D03*
D17*
X31863153Y83231350D03*
X31863153Y80731350D03*
%TD*%
D20*
%TO.C,R27*%
X41300000Y2500000D03*
D21*
X26060000Y2500000D03*
%TD*%
D13*
%TO.C,U3*%
X32400000Y28520000D03*
D22*
X29860000Y28520000D03*
X27320000Y28520000D03*
X27320000Y20900000D03*
X29860000Y20900000D03*
X32400000Y20900000D03*
%TD*%
D13*
%TO.C,C7*%
X21500000Y40000000D03*
D14*
X21500000Y36500000D03*
%TD*%
D10*
%TO.C,RV2*%
X2500000Y34731350D03*
D11*
X2500000Y29651350D03*
X2500000Y24571350D03*
%TD*%
D13*
%TO.C,C3*%
X21500000Y57184001D03*
D14*
X21500000Y53684001D03*
%TD*%
D23*
%TO.C,J7*%
X44100000Y42100000D03*
D24*
X44100000Y44600000D03*
%TD*%
D25*
%TO.C,J6*%
X45100000Y50900000D03*
D26*
X45100000Y54400000D03*
%TD*%
D25*
%TO.C,J5*%
X45100000Y63700000D03*
D26*
X45100000Y67200000D03*
X45100000Y70700000D03*
X45100000Y74200000D03*
X45100000Y77700000D03*
%TD*%
D27*
%TO.C,J8*%
X43800000Y31600000D03*
D28*
X43800000Y34140000D03*
X43800000Y36680000D03*
%TD*%
D16*
%TO.C,J1*%
X18063153Y85731350D03*
D17*
X18063153Y83231350D03*
X18063153Y80731350D03*
%TD*%
D10*
%TO.C,RV3*%
X2500000Y14731350D03*
D11*
X2500000Y9651350D03*
X2500000Y4571350D03*
%TD*%
D12*
%TO.C,H2*%
X3000000Y62000000D03*
%TD*%
D20*
%TO.C,R25*%
X19960000Y11200000D03*
D21*
X35200000Y11200000D03*
%TD*%
D20*
%TO.C,R26*%
X19960000Y7100000D03*
D21*
X35200000Y7100000D03*
%TD*%
D13*
%TO.C,C6*%
X21500000Y45131350D03*
D14*
X21500000Y48631350D03*
%TD*%
D13*
%TO.C,C2*%
X9500000Y61117620D03*
D14*
X9500000Y63617620D03*
%TD*%
D13*
%TO.C,D6*%
X22500000Y19900000D03*
D22*
X14880000Y19900000D03*
%TD*%
D20*
%TO.C,R23*%
X10700000Y16840000D03*
D21*
X10700000Y1600000D03*
%TD*%
D20*
%TO.C,R24*%
X15700000Y16840000D03*
D21*
X15700000Y1600000D03*
%TD*%
D25*
%TO.C,J13*%
X29157500Y46517500D03*
D26*
X29157500Y50017500D03*
X29157500Y53517500D03*
%TD*%
D25*
%TO.C,J10*%
X37613153Y63931350D03*
D26*
X37613153Y67431350D03*
%TD*%
D29*
%TO.C,J15*%
X37900000Y31231350D03*
D17*
X37900000Y33731350D03*
X37900000Y36231350D03*
%TD*%
D29*
%TO.C,J12*%
X37900000Y53031350D03*
D17*
X37900000Y55531350D03*
X37900000Y58031350D03*
%TD*%
D29*
%TO.C,J14*%
X37875000Y42131350D03*
D17*
X37875000Y44631350D03*
X37875000Y47131350D03*
%TD*%
D29*
%TO.C,J11*%
X21213153Y61931350D03*
D17*
X21213153Y64431350D03*
X21213153Y66931350D03*
X21213153Y69431350D03*
X21213153Y71931350D03*
X21213153Y74431350D03*
%TD*%
M02*
