M48
; DRILL file {KiCad 7.0.11-7.0.11~ubuntu22.04.1} date Sun 10 Mar 2024 10:15:34 AM +03
; FORMAT={-:-/ absolute / inch / decimal}
; #@! TF.CreationDate,2024-03-10T10:15:34+03:00
; #@! TF.GenerationSoftware,Kicad,Pcbnew,7.0.11-7.0.11~ubuntu22.04.1
; #@! TF.FileFunction,Plated,1,2,PTH
FMAT,2
INCH
; #@! TA.AperFunction,Plated,PTH,ViaDrill
T1C0.0236
; #@! TA.AperFunction,Plated,PTH,ComponentDrill
T2C0.0315
; #@! TA.AperFunction,Plated,PTH,ComponentDrill
T3C0.0374
; #@! TA.AperFunction,Plated,PTH,ComponentDrill
T4C0.0394
%
G90
G05
T1
X1.8222Y-2.4002
X1.8485Y-2.2515
X1.8748Y-2.3002
X1.9416Y-2.6251
X2.0118Y-2.374
X2.1381Y-2.543
T2
X1.9902Y-1.6402
X2.0598Y-1.7098
T3
X1.8031Y-3.3
X1.9016Y-3.3
X2.0Y-3.3
X2.0984Y-3.3
T4
X1.7Y-1.6
X1.7Y-1.7
X1.7Y-1.8
X1.7Y-1.9
X1.7Y-2.0
X1.7Y-2.1
X1.7Y-2.2
X1.7Y-2.3
X1.7Y-2.4
X1.7Y-2.5
X1.7Y-2.6
X1.7Y-2.7
X1.7Y-2.8
X1.7Y-2.9
X1.7Y-3.0
X1.7Y-3.1
X1.8Y-2.575
X1.8Y-2.675
X1.8Y-2.775
X1.9Y-2.575
X1.9Y-2.675
X1.9Y-2.775
X2.2Y-1.6
X2.2Y-1.7
X2.2Y-1.8
X2.2Y-1.9
X2.2Y-2.0
X2.2Y-2.1
X2.2Y-2.2
X2.2Y-2.3
X2.2Y-2.4
X2.2Y-2.5
X2.2Y-2.6
X2.2Y-2.7
X2.2Y-2.8
X2.2Y-2.9
X2.2Y-3.0
X2.2Y-3.1
M30
