%TF.GenerationSoftware,KiCad,Pcbnew,7.0.11-7.0.11~ubuntu22.04.1*%
%TF.CreationDate,2024-03-10T10:15:41+03:00*%
%TF.ProjectId,MDExt,4d444578-742e-46b6-9963-61645f706362,rev?*%
%TF.SameCoordinates,Original*%
%TF.FileFunction,Copper,L2,Bot*%
%TF.FilePolarity,Positive*%
%FSLAX46Y46*%
G04 Gerber Fmt 4.6, Leading zero omitted, Abs format (unit mm)*
G04 Created by KiCad (PCBNEW 7.0.11-7.0.11~ubuntu22.04.1) date 2024-03-10 10:15:41*
%MOMM*%
%LPD*%
G01*
G04 APERTURE LIST*
G04 Aperture macros list*
%AMRoundRect*
0 Rectangle with rounded corners*
0 $1 Rounding radius*
0 $2 $3 $4 $5 $6 $7 $8 $9 X,Y pos of 4 corners*
0 Add a 4 corners polygon primitive as box body*
4,1,4,$2,$3,$4,$5,$6,$7,$8,$9,$2,$3,0*
0 Add four circle primitives for the rounded corners*
1,1,$1+$1,$2,$3*
1,1,$1+$1,$4,$5*
1,1,$1+$1,$6,$7*
1,1,$1+$1,$8,$9*
0 Add four rect primitives between the rounded corners*
20,1,$1+$1,$2,$3,$4,$5,0*
20,1,$1+$1,$4,$5,$6,$7,0*
20,1,$1+$1,$6,$7,$8,$9,0*
20,1,$1+$1,$8,$9,$2,$3,0*%
G04 Aperture macros list end*
%TA.AperFunction,ComponentPad*%
%ADD10RoundRect,0.250000X0.600000X0.725000X-0.600000X0.725000X-0.600000X-0.725000X0.600000X-0.725000X0*%
%TD*%
%TA.AperFunction,ComponentPad*%
%ADD11O,1.700000X1.950000*%
%TD*%
%TA.AperFunction,ComponentPad*%
%ADD12C,1.600000*%
%TD*%
%TA.AperFunction,ComponentPad*%
%ADD13R,1.700000X1.700000*%
%TD*%
%TA.AperFunction,ComponentPad*%
%ADD14O,1.700000X1.700000*%
%TD*%
%TA.AperFunction,ViaPad*%
%ADD15C,1.000000*%
%TD*%
%TA.AperFunction,Conductor*%
%ADD16C,1.000000*%
%TD*%
%TA.AperFunction,Conductor*%
%ADD17C,0.500000*%
%TD*%
%TA.AperFunction,Conductor*%
%ADD18C,1.500000*%
%TD*%
G04 APERTURE END LIST*
D10*
%TO.P,J6,1,Pin_1*%
%TO.N,Net-(J2-Pin_6)*%
X53300000Y-83820000D03*
D11*
%TO.P,J6,2,Pin_2*%
%TO.N,Net-(J2-Pin_5)*%
X50800000Y-83820000D03*
%TO.P,J6,3,Pin_3*%
%TO.N,Net-(J2-Pin_4)*%
X48300000Y-83820000D03*
%TO.P,J6,4,Pin_4*%
%TO.N,Net-(J2-Pin_3)*%
X45800000Y-83820000D03*
%TD*%
D12*
%TO.P,C1,1*%
%TO.N,+12V*%
X50551117Y-41661117D03*
%TO.P,C1,2*%
%TO.N,GND*%
X52318884Y-43428884D03*
%TD*%
D13*
%TO.P,J1,1,Pin_1*%
%TO.N,/MDriverExtendY/EN*%
X43180000Y-60960000D03*
D14*
%TO.P,J1,2,Pin_2*%
%TO.N,Net-(J1-Pin_2)*%
X43180000Y-63500000D03*
%TO.P,J1,3,Pin_3*%
%TO.N,Net-(J1-Pin_3)*%
X43180000Y-66040000D03*
%TO.P,J1,4,Pin_4*%
%TO.N,Net-(J1-Pin_4)*%
X43180000Y-68580000D03*
%TO.P,J1,5,Pin_5*%
%TO.N,/MDriverExtendY/RST*%
X43180000Y-71120000D03*
%TO.P,J1,6,Pin_6*%
%TO.N,/MDriverExtendY/SLP*%
X43180000Y-73660000D03*
%TO.P,J1,7,Pin_7*%
%TO.N,/MDriverExtendY/STP*%
X43180000Y-76200000D03*
%TO.P,J1,8,Pin_8*%
%TO.N,/MDriverExtendY/DIR*%
X43180000Y-78740000D03*
%TD*%
D13*
%TO.P,J5,1,Pin_1*%
%TO.N,+12V*%
X55880000Y-40640000D03*
D14*
%TO.P,J5,2,Pin_2*%
%TO.N,GND*%
X55880000Y-43180000D03*
%TO.P,J5,3,Pin_3*%
%TO.N,unconnected-(J5-Pin_3-Pad3)*%
X55880000Y-45720000D03*
%TO.P,J5,4,Pin_4*%
%TO.N,unconnected-(J5-Pin_4-Pad4)*%
X55880000Y-48260000D03*
%TO.P,J5,5,Pin_5*%
%TO.N,unconnected-(J5-Pin_5-Pad5)*%
X55880000Y-50800000D03*
%TO.P,J5,6,Pin_6*%
%TO.N,unconnected-(J5-Pin_6-Pad6)*%
X55880000Y-53340000D03*
%TO.P,J5,7,Pin_7*%
%TO.N,+5V*%
X55880000Y-55880000D03*
%TO.P,J5,8,Pin_8*%
%TO.N,GND*%
X55880000Y-58420000D03*
%TD*%
D13*
%TO.P,J4,1,Pin_1*%
%TO.N,/MDriverExtendY/EN*%
X43180000Y-40640000D03*
D14*
%TO.P,J4,2,Pin_2*%
%TO.N,unconnected-(J4-Pin_2-Pad2)*%
X43180000Y-43180000D03*
%TO.P,J4,3,Pin_3*%
%TO.N,unconnected-(J4-Pin_3-Pad3)*%
X43180000Y-45720000D03*
%TO.P,J4,4,Pin_4*%
%TO.N,unconnected-(J4-Pin_4-Pad4)*%
X43180000Y-48260000D03*
%TO.P,J4,5,Pin_5*%
%TO.N,/MDriverExtendY/RST*%
X43180000Y-50800000D03*
%TO.P,J4,6,Pin_6*%
%TO.N,/MDriverExtendY/SLP*%
X43180000Y-53340000D03*
%TO.P,J4,7,Pin_7*%
%TO.N,/MDriverExtendY/STP*%
X43180000Y-55880000D03*
%TO.P,J4,8,Pin_8*%
%TO.N,/MDriverExtendY/DIR*%
X43180000Y-58420000D03*
%TD*%
D13*
%TO.P,J2,1,Pin_1*%
%TO.N,+12V*%
X55880000Y-60960000D03*
D14*
%TO.P,J2,2,Pin_2*%
%TO.N,GND*%
X55880000Y-63500000D03*
%TO.P,J2,3,Pin_3*%
%TO.N,Net-(J2-Pin_3)*%
X55880000Y-66040000D03*
%TO.P,J2,4,Pin_4*%
%TO.N,Net-(J2-Pin_4)*%
X55880000Y-68580000D03*
%TO.P,J2,5,Pin_5*%
%TO.N,Net-(J2-Pin_5)*%
X55880000Y-71120000D03*
%TO.P,J2,6,Pin_6*%
%TO.N,Net-(J2-Pin_6)*%
X55880000Y-73660000D03*
%TO.P,J2,7,Pin_7*%
%TO.N,+5V*%
X55880000Y-76200000D03*
%TO.P,J2,8,Pin_8*%
%TO.N,GND*%
X55880000Y-78740000D03*
%TD*%
D13*
%TO.P,J3,1,Pin_1*%
%TO.N,Net-(J1-Pin_2)*%
X45720000Y-65405000D03*
D14*
%TO.P,J3,2,Pin_2*%
%TO.N,+5V*%
X48260000Y-65405000D03*
%TO.P,J3,3,Pin_3*%
%TO.N,Net-(J1-Pin_3)*%
X45720000Y-67945000D03*
%TO.P,J3,4,Pin_4*%
%TO.N,+5V*%
X48260000Y-67945000D03*
%TO.P,J3,5,Pin_5*%
%TO.N,Net-(J1-Pin_4)*%
X45720000Y-70485000D03*
%TO.P,J3,6,Pin_6*%
%TO.N,+5V*%
X48260000Y-70485000D03*
%TD*%
D15*
%TO.N,+5V*%
X51100000Y-60300000D03*
X54308472Y-64591544D03*
%TO.N,/MDriverExtendY/RST*%
X49317806Y-66678684D03*
%TO.N,/MDriverExtendY/SLP*%
X46283783Y-60965079D03*
%TO.N,/MDriverExtendY/STP*%
X46951852Y-57188148D03*
%TO.N,/MDriverExtendY/DIR*%
X47620099Y-58424818D03*
%TD*%
D16*
%TO.N,+5V*%
X54153456Y-64591544D02*
X54308472Y-64591544D01*
X48260000Y-70485000D02*
X54153456Y-64591544D01*
X51100000Y-61383071D02*
X54308472Y-64591544D01*
X51100000Y-60300000D02*
X51100000Y-61383071D01*
X48260000Y-65405000D02*
X47900000Y-65765000D01*
X47900000Y-65765000D02*
X47900000Y-70125000D01*
X47900000Y-70125000D02*
X48260000Y-70485000D01*
D17*
%TO.N,/MDriverExtendY/RST*%
X48865000Y-57053478D02*
X48865000Y-56485000D01*
X49700000Y-66296490D02*
X49700000Y-57888478D01*
X49700000Y-57888478D02*
X48865000Y-57053478D01*
X49317806Y-66678684D02*
X49700000Y-66296490D01*
X48865000Y-56485000D02*
X43180000Y-50800000D01*
D18*
%TO.N,+12V*%
X50165000Y-56515000D02*
X50165000Y-42047234D01*
X54610000Y-60960000D02*
X50165000Y-56515000D01*
X51572234Y-40640000D02*
X55880000Y-40640000D01*
X50165000Y-42047234D02*
X51572234Y-40640000D01*
X55880000Y-60960000D02*
X54610000Y-60960000D01*
%TO.N,GND*%
X52070000Y-43677768D02*
X52567768Y-43180000D01*
X55250584Y-58420000D02*
X52070000Y-55239416D01*
X52070000Y-55239416D02*
X52070000Y-43677768D01*
X55880000Y-58420000D02*
X55250584Y-58420000D01*
X52567768Y-43180000D02*
X55880000Y-43180000D01*
D17*
%TO.N,/MDriverExtendY/SLP*%
X44588630Y-53340000D02*
X48065000Y-56816370D01*
X48772871Y-59392054D02*
X47199846Y-60965079D01*
X48065000Y-56816370D02*
X48065000Y-57384848D01*
X47199846Y-60965079D02*
X46283783Y-60965079D01*
X43180000Y-53340000D02*
X44588630Y-53340000D01*
X48065000Y-57384848D02*
X48772871Y-58092720D01*
X48772871Y-58092720D02*
X48772871Y-59392054D01*
%TO.N,/MDriverExtendY/STP*%
X45643704Y-55880000D02*
X46951852Y-57188148D01*
X43180000Y-55880000D02*
X45643704Y-55880000D01*
%TO.N,/MDriverExtendY/DIR*%
X43180000Y-58420000D02*
X47615281Y-58420000D01*
X47615281Y-58420000D02*
X47620099Y-58424818D01*
%TO.N,Net-(J1-Pin_2)*%
X45085000Y-65405000D02*
X43180000Y-63500000D01*
X45720000Y-65405000D02*
X45085000Y-65405000D01*
%TO.N,Net-(J1-Pin_3)*%
X43815000Y-66040000D02*
X45720000Y-67945000D01*
X43180000Y-66040000D02*
X43815000Y-66040000D01*
%TO.N,Net-(J1-Pin_4)*%
X43815000Y-68580000D02*
X45720000Y-70485000D01*
X43180000Y-68580000D02*
X43815000Y-68580000D01*
D18*
%TO.N,Net-(J2-Pin_3)*%
X55830335Y-66040000D02*
X54977031Y-66893303D01*
X45800000Y-75945509D02*
X45800000Y-83820000D01*
X54852206Y-66893303D02*
X45800000Y-75945509D01*
X55880000Y-66040000D02*
X55830335Y-66040000D01*
X54977031Y-66893303D02*
X54852206Y-66893303D01*
%TO.N,Net-(J2-Pin_4)*%
X55880000Y-68580000D02*
X55711095Y-68580000D01*
X55711095Y-68580000D02*
X48300000Y-75991093D01*
X48300000Y-75991093D02*
X48300000Y-83820000D01*
%TO.N,Net-(J2-Pin_5)*%
X55880000Y-71120000D02*
X55716677Y-71120000D01*
X50800000Y-76036677D02*
X50800000Y-83820000D01*
X55716677Y-71120000D02*
X50800000Y-76036677D01*
%TO.N,Net-(J2-Pin_6)*%
X53300000Y-76082261D02*
X53300000Y-83820000D01*
X55280000Y-74260000D02*
X55122261Y-74260000D01*
X55880000Y-73660000D02*
X55280000Y-74260000D01*
X55122261Y-74260000D02*
X53300000Y-76082261D01*
%TD*%
M02*
