%TF.GenerationSoftware,KiCad,Pcbnew,7.0.11-7.0.11~ubuntu22.04.1*%
%TF.CreationDate,2024-03-10T10:15:33+03:00*%
%TF.ProjectId,MDExt,4d444578-742e-46b6-9963-61645f706362,rev?*%
%TF.SameCoordinates,Original*%
%TF.FileFunction,Drillmap*%
%TF.FilePolarity,Positive*%
%FSLAX45Y45*%
G04 Gerber Fmt 4.5, Leading zero omitted, Abs format (unit mm)*
G04 Created by KiCad (PCBNEW 7.0.11-7.0.11~ubuntu22.04.1) date 2024-03-10 10:15:33*
%MOMM*%
%LPD*%
G01*
G04 APERTURE LIST*
%ADD10C,0.100000*%
%ADD11C,0.200000*%
G04 APERTURE END LIST*
D10*
X4185400Y-3929000D02*
X5715700Y-3929000D01*
X5715700Y-8668000D01*
X4185400Y-8668000D01*
X4185400Y-3929000D01*
D11*
D10*
X4598378Y-6066508D02*
X4658378Y-6126508D01*
X4658378Y-6066508D02*
X4598378Y-6126508D01*
X4665185Y-5688815D02*
X4725185Y-5748815D01*
X4725185Y-5688815D02*
X4665185Y-5748815D01*
X4732010Y-5812482D02*
X4792010Y-5872482D01*
X4792010Y-5812482D02*
X4732010Y-5872482D01*
X4901781Y-6637868D02*
X4961781Y-6697868D01*
X4961781Y-6637868D02*
X4901781Y-6697868D01*
X5080000Y-6000000D02*
X5140000Y-6060000D01*
X5140000Y-6000000D02*
X5080000Y-6060000D01*
X5400847Y-6429154D02*
X5460847Y-6489154D01*
X5460847Y-6429154D02*
X5400847Y-6489154D01*
X5095112Y-4166112D02*
G75*
G03*
X5015112Y-4166112I-40000J0D01*
G01*
X5015112Y-4166112D02*
G75*
G03*
X5095112Y-4166112I40000J0D01*
G01*
X5271888Y-4342888D02*
G75*
G03*
X5191888Y-4342888I-40000J0D01*
G01*
X5191888Y-4342888D02*
G75*
G03*
X5271888Y-4342888I40000J0D01*
G01*
X4580000Y-8334500D02*
X4580000Y-8429500D01*
X4532500Y-8382000D02*
X4627500Y-8382000D01*
X4830000Y-8334500D02*
X4830000Y-8429500D01*
X4782500Y-8382000D02*
X4877500Y-8382000D01*
X5080000Y-8334500D02*
X5080000Y-8429500D01*
X5032500Y-8382000D02*
X5127500Y-8382000D01*
X5330000Y-8334500D02*
X5330000Y-8429500D01*
X5282500Y-8382000D02*
X5377500Y-8382000D01*
X4353356Y-4099356D02*
X4353356Y-4028644D01*
X4282644Y-4028644D01*
X4282644Y-4099356D01*
X4353356Y-4099356D01*
X4353356Y-4353356D02*
X4353356Y-4282644D01*
X4282644Y-4282644D01*
X4282644Y-4353356D01*
X4353356Y-4353356D01*
X4353356Y-4607356D02*
X4353356Y-4536644D01*
X4282644Y-4536644D01*
X4282644Y-4607356D01*
X4353356Y-4607356D01*
X4353356Y-4861356D02*
X4353356Y-4790644D01*
X4282644Y-4790644D01*
X4282644Y-4861356D01*
X4353356Y-4861356D01*
X4353356Y-5115356D02*
X4353356Y-5044644D01*
X4282644Y-5044644D01*
X4282644Y-5115356D01*
X4353356Y-5115356D01*
X4353356Y-5369356D02*
X4353356Y-5298644D01*
X4282644Y-5298644D01*
X4282644Y-5369356D01*
X4353356Y-5369356D01*
X4353356Y-5623356D02*
X4353356Y-5552644D01*
X4282644Y-5552644D01*
X4282644Y-5623356D01*
X4353356Y-5623356D01*
X4353356Y-5877356D02*
X4353356Y-5806644D01*
X4282644Y-5806644D01*
X4282644Y-5877356D01*
X4353356Y-5877356D01*
X4353356Y-6131356D02*
X4353356Y-6060644D01*
X4282644Y-6060644D01*
X4282644Y-6131356D01*
X4353356Y-6131356D01*
X4353356Y-6385356D02*
X4353356Y-6314644D01*
X4282644Y-6314644D01*
X4282644Y-6385356D01*
X4353356Y-6385356D01*
X4353356Y-6639356D02*
X4353356Y-6568644D01*
X4282644Y-6568644D01*
X4282644Y-6639356D01*
X4353356Y-6639356D01*
X4353356Y-6893356D02*
X4353356Y-6822644D01*
X4282644Y-6822644D01*
X4282644Y-6893356D01*
X4353356Y-6893356D01*
X4353356Y-7147356D02*
X4353356Y-7076644D01*
X4282644Y-7076644D01*
X4282644Y-7147356D01*
X4353356Y-7147356D01*
X4353356Y-7401356D02*
X4353356Y-7330644D01*
X4282644Y-7330644D01*
X4282644Y-7401356D01*
X4353356Y-7401356D01*
X4353356Y-7655356D02*
X4353356Y-7584644D01*
X4282644Y-7584644D01*
X4282644Y-7655356D01*
X4353356Y-7655356D01*
X4353356Y-7909356D02*
X4353356Y-7838644D01*
X4282644Y-7838644D01*
X4282644Y-7909356D01*
X4353356Y-7909356D01*
X4607356Y-6575856D02*
X4607356Y-6505144D01*
X4536644Y-6505144D01*
X4536644Y-6575856D01*
X4607356Y-6575856D01*
X4607356Y-6829856D02*
X4607356Y-6759144D01*
X4536644Y-6759144D01*
X4536644Y-6829856D01*
X4607356Y-6829856D01*
X4607356Y-7083856D02*
X4607356Y-7013144D01*
X4536644Y-7013144D01*
X4536644Y-7083856D01*
X4607356Y-7083856D01*
X4861356Y-6575856D02*
X4861356Y-6505144D01*
X4790644Y-6505144D01*
X4790644Y-6575856D01*
X4861356Y-6575856D01*
X4861356Y-6829856D02*
X4861356Y-6759144D01*
X4790644Y-6759144D01*
X4790644Y-6829856D01*
X4861356Y-6829856D01*
X4861356Y-7083856D02*
X4861356Y-7013144D01*
X4790644Y-7013144D01*
X4790644Y-7083856D01*
X4861356Y-7083856D01*
X5623356Y-4099356D02*
X5623356Y-4028644D01*
X5552644Y-4028644D01*
X5552644Y-4099356D01*
X5623356Y-4099356D01*
X5623356Y-4353356D02*
X5623356Y-4282644D01*
X5552644Y-4282644D01*
X5552644Y-4353356D01*
X5623356Y-4353356D01*
X5623356Y-4607356D02*
X5623356Y-4536644D01*
X5552644Y-4536644D01*
X5552644Y-4607356D01*
X5623356Y-4607356D01*
X5623356Y-4861356D02*
X5623356Y-4790644D01*
X5552644Y-4790644D01*
X5552644Y-4861356D01*
X5623356Y-4861356D01*
X5623356Y-5115356D02*
X5623356Y-5044644D01*
X5552644Y-5044644D01*
X5552644Y-5115356D01*
X5623356Y-5115356D01*
X5623356Y-5369356D02*
X5623356Y-5298644D01*
X5552644Y-5298644D01*
X5552644Y-5369356D01*
X5623356Y-5369356D01*
X5623356Y-5623356D02*
X5623356Y-5552644D01*
X5552644Y-5552644D01*
X5552644Y-5623356D01*
X5623356Y-5623356D01*
X5623356Y-5877356D02*
X5623356Y-5806644D01*
X5552644Y-5806644D01*
X5552644Y-5877356D01*
X5623356Y-5877356D01*
X5623356Y-6131356D02*
X5623356Y-6060644D01*
X5552644Y-6060644D01*
X5552644Y-6131356D01*
X5623356Y-6131356D01*
X5623356Y-6385356D02*
X5623356Y-6314644D01*
X5552644Y-6314644D01*
X5552644Y-6385356D01*
X5623356Y-6385356D01*
X5623356Y-6639356D02*
X5623356Y-6568644D01*
X5552644Y-6568644D01*
X5552644Y-6639356D01*
X5623356Y-6639356D01*
X5623356Y-6893356D02*
X5623356Y-6822644D01*
X5552644Y-6822644D01*
X5552644Y-6893356D01*
X5623356Y-6893356D01*
X5623356Y-7147356D02*
X5623356Y-7076644D01*
X5552644Y-7076644D01*
X5552644Y-7147356D01*
X5623356Y-7147356D01*
X5623356Y-7401356D02*
X5623356Y-7330644D01*
X5552644Y-7330644D01*
X5552644Y-7401356D01*
X5623356Y-7401356D01*
X5623356Y-7655356D02*
X5623356Y-7584644D01*
X5552644Y-7584644D01*
X5552644Y-7655356D01*
X5623356Y-7655356D01*
X5623356Y-7909356D02*
X5623356Y-7838644D01*
X5552644Y-7838644D01*
X5552644Y-7909356D01*
X5623356Y-7909356D01*
D11*
X4441177Y-8984484D02*
X4441177Y-8784484D01*
X4441177Y-8784484D02*
X4488796Y-8784484D01*
X4488796Y-8784484D02*
X4517367Y-8794008D01*
X4517367Y-8794008D02*
X4536415Y-8813055D01*
X4536415Y-8813055D02*
X4545939Y-8832103D01*
X4545939Y-8832103D02*
X4555463Y-8870198D01*
X4555463Y-8870198D02*
X4555463Y-8898770D01*
X4555463Y-8898770D02*
X4545939Y-8936865D01*
X4545939Y-8936865D02*
X4536415Y-8955912D01*
X4536415Y-8955912D02*
X4517367Y-8974960D01*
X4517367Y-8974960D02*
X4488796Y-8984484D01*
X4488796Y-8984484D02*
X4441177Y-8984484D01*
X4641177Y-8984484D02*
X4641177Y-8851150D01*
X4641177Y-8889246D02*
X4650701Y-8870198D01*
X4650701Y-8870198D02*
X4660224Y-8860674D01*
X4660224Y-8860674D02*
X4679272Y-8851150D01*
X4679272Y-8851150D02*
X4698320Y-8851150D01*
X4764986Y-8984484D02*
X4764986Y-8851150D01*
X4764986Y-8784484D02*
X4755463Y-8794008D01*
X4755463Y-8794008D02*
X4764986Y-8803531D01*
X4764986Y-8803531D02*
X4774510Y-8794008D01*
X4774510Y-8794008D02*
X4764986Y-8784484D01*
X4764986Y-8784484D02*
X4764986Y-8803531D01*
X4888796Y-8984484D02*
X4869748Y-8974960D01*
X4869748Y-8974960D02*
X4860224Y-8955912D01*
X4860224Y-8955912D02*
X4860224Y-8784484D01*
X4993558Y-8984484D02*
X4974510Y-8974960D01*
X4974510Y-8974960D02*
X4964986Y-8955912D01*
X4964986Y-8955912D02*
X4964986Y-8784484D01*
X5222129Y-8984484D02*
X5222129Y-8784484D01*
X5222129Y-8784484D02*
X5288796Y-8927341D01*
X5288796Y-8927341D02*
X5355463Y-8784484D01*
X5355463Y-8784484D02*
X5355463Y-8984484D01*
X5536415Y-8984484D02*
X5536415Y-8879722D01*
X5536415Y-8879722D02*
X5526891Y-8860674D01*
X5526891Y-8860674D02*
X5507844Y-8851150D01*
X5507844Y-8851150D02*
X5469748Y-8851150D01*
X5469748Y-8851150D02*
X5450701Y-8860674D01*
X5536415Y-8974960D02*
X5517367Y-8984484D01*
X5517367Y-8984484D02*
X5469748Y-8984484D01*
X5469748Y-8984484D02*
X5450701Y-8974960D01*
X5450701Y-8974960D02*
X5441177Y-8955912D01*
X5441177Y-8955912D02*
X5441177Y-8936865D01*
X5441177Y-8936865D02*
X5450701Y-8917817D01*
X5450701Y-8917817D02*
X5469748Y-8908293D01*
X5469748Y-8908293D02*
X5517367Y-8908293D01*
X5517367Y-8908293D02*
X5536415Y-8898770D01*
X5631653Y-8851150D02*
X5631653Y-9051150D01*
X5631653Y-8860674D02*
X5650701Y-8851150D01*
X5650701Y-8851150D02*
X5688796Y-8851150D01*
X5688796Y-8851150D02*
X5707843Y-8860674D01*
X5707843Y-8860674D02*
X5717367Y-8870198D01*
X5717367Y-8870198D02*
X5726891Y-8889246D01*
X5726891Y-8889246D02*
X5726891Y-8946389D01*
X5726891Y-8946389D02*
X5717367Y-8965436D01*
X5717367Y-8965436D02*
X5707843Y-8974960D01*
X5707843Y-8974960D02*
X5688796Y-8984484D01*
X5688796Y-8984484D02*
X5650701Y-8984484D01*
X5650701Y-8984484D02*
X5631653Y-8974960D01*
X5812605Y-8965436D02*
X5822129Y-8974960D01*
X5822129Y-8974960D02*
X5812605Y-8984484D01*
X5812605Y-8984484D02*
X5803082Y-8974960D01*
X5803082Y-8974960D02*
X5812605Y-8965436D01*
X5812605Y-8965436D02*
X5812605Y-8984484D01*
X5812605Y-8860674D02*
X5822129Y-8870198D01*
X5822129Y-8870198D02*
X5812605Y-8879722D01*
X5812605Y-8879722D02*
X5803082Y-8870198D01*
X5803082Y-8870198D02*
X5812605Y-8860674D01*
X5812605Y-8860674D02*
X5812605Y-8879722D01*
D10*
X4120400Y-9283000D02*
X4180400Y-9343000D01*
X4180400Y-9283000D02*
X4120400Y-9343000D01*
D11*
X4479272Y-9204484D02*
X4498320Y-9204484D01*
X4498320Y-9204484D02*
X4517367Y-9214008D01*
X4517367Y-9214008D02*
X4526891Y-9223531D01*
X4526891Y-9223531D02*
X4536415Y-9242579D01*
X4536415Y-9242579D02*
X4545939Y-9280674D01*
X4545939Y-9280674D02*
X4545939Y-9328293D01*
X4545939Y-9328293D02*
X4536415Y-9366389D01*
X4536415Y-9366389D02*
X4526891Y-9385436D01*
X4526891Y-9385436D02*
X4517367Y-9394960D01*
X4517367Y-9394960D02*
X4498320Y-9404484D01*
X4498320Y-9404484D02*
X4479272Y-9404484D01*
X4479272Y-9404484D02*
X4460224Y-9394960D01*
X4460224Y-9394960D02*
X4450701Y-9385436D01*
X4450701Y-9385436D02*
X4441177Y-9366389D01*
X4441177Y-9366389D02*
X4431653Y-9328293D01*
X4431653Y-9328293D02*
X4431653Y-9280674D01*
X4431653Y-9280674D02*
X4441177Y-9242579D01*
X4441177Y-9242579D02*
X4450701Y-9223531D01*
X4450701Y-9223531D02*
X4460224Y-9214008D01*
X4460224Y-9214008D02*
X4479272Y-9204484D01*
X4631653Y-9385436D02*
X4641177Y-9394960D01*
X4641177Y-9394960D02*
X4631653Y-9404484D01*
X4631653Y-9404484D02*
X4622129Y-9394960D01*
X4622129Y-9394960D02*
X4631653Y-9385436D01*
X4631653Y-9385436D02*
X4631653Y-9404484D01*
X4812605Y-9204484D02*
X4774510Y-9204484D01*
X4774510Y-9204484D02*
X4755463Y-9214008D01*
X4755463Y-9214008D02*
X4745939Y-9223531D01*
X4745939Y-9223531D02*
X4726891Y-9252103D01*
X4726891Y-9252103D02*
X4717367Y-9290198D01*
X4717367Y-9290198D02*
X4717367Y-9366389D01*
X4717367Y-9366389D02*
X4726891Y-9385436D01*
X4726891Y-9385436D02*
X4736415Y-9394960D01*
X4736415Y-9394960D02*
X4755463Y-9404484D01*
X4755463Y-9404484D02*
X4793558Y-9404484D01*
X4793558Y-9404484D02*
X4812605Y-9394960D01*
X4812605Y-9394960D02*
X4822129Y-9385436D01*
X4822129Y-9385436D02*
X4831653Y-9366389D01*
X4831653Y-9366389D02*
X4831653Y-9318770D01*
X4831653Y-9318770D02*
X4822129Y-9299722D01*
X4822129Y-9299722D02*
X4812605Y-9290198D01*
X4812605Y-9290198D02*
X4793558Y-9280674D01*
X4793558Y-9280674D02*
X4755463Y-9280674D01*
X4755463Y-9280674D02*
X4736415Y-9290198D01*
X4736415Y-9290198D02*
X4726891Y-9299722D01*
X4726891Y-9299722D02*
X4717367Y-9318770D01*
X4955463Y-9204484D02*
X4974510Y-9204484D01*
X4974510Y-9204484D02*
X4993558Y-9214008D01*
X4993558Y-9214008D02*
X5003082Y-9223531D01*
X5003082Y-9223531D02*
X5012605Y-9242579D01*
X5012605Y-9242579D02*
X5022129Y-9280674D01*
X5022129Y-9280674D02*
X5022129Y-9328293D01*
X5022129Y-9328293D02*
X5012605Y-9366389D01*
X5012605Y-9366389D02*
X5003082Y-9385436D01*
X5003082Y-9385436D02*
X4993558Y-9394960D01*
X4993558Y-9394960D02*
X4974510Y-9404484D01*
X4974510Y-9404484D02*
X4955463Y-9404484D01*
X4955463Y-9404484D02*
X4936415Y-9394960D01*
X4936415Y-9394960D02*
X4926891Y-9385436D01*
X4926891Y-9385436D02*
X4917367Y-9366389D01*
X4917367Y-9366389D02*
X4907844Y-9328293D01*
X4907844Y-9328293D02*
X4907844Y-9280674D01*
X4907844Y-9280674D02*
X4917367Y-9242579D01*
X4917367Y-9242579D02*
X4926891Y-9223531D01*
X4926891Y-9223531D02*
X4936415Y-9214008D01*
X4936415Y-9214008D02*
X4955463Y-9204484D01*
X5145939Y-9204484D02*
X5164986Y-9204484D01*
X5164986Y-9204484D02*
X5184034Y-9214008D01*
X5184034Y-9214008D02*
X5193558Y-9223531D01*
X5193558Y-9223531D02*
X5203082Y-9242579D01*
X5203082Y-9242579D02*
X5212605Y-9280674D01*
X5212605Y-9280674D02*
X5212605Y-9328293D01*
X5212605Y-9328293D02*
X5203082Y-9366389D01*
X5203082Y-9366389D02*
X5193558Y-9385436D01*
X5193558Y-9385436D02*
X5184034Y-9394960D01*
X5184034Y-9394960D02*
X5164986Y-9404484D01*
X5164986Y-9404484D02*
X5145939Y-9404484D01*
X5145939Y-9404484D02*
X5126891Y-9394960D01*
X5126891Y-9394960D02*
X5117367Y-9385436D01*
X5117367Y-9385436D02*
X5107844Y-9366389D01*
X5107844Y-9366389D02*
X5098320Y-9328293D01*
X5098320Y-9328293D02*
X5098320Y-9280674D01*
X5098320Y-9280674D02*
X5107844Y-9242579D01*
X5107844Y-9242579D02*
X5117367Y-9223531D01*
X5117367Y-9223531D02*
X5126891Y-9214008D01*
X5126891Y-9214008D02*
X5145939Y-9204484D01*
X5298320Y-9404484D02*
X5298320Y-9271150D01*
X5298320Y-9290198D02*
X5307844Y-9280674D01*
X5307844Y-9280674D02*
X5326891Y-9271150D01*
X5326891Y-9271150D02*
X5355463Y-9271150D01*
X5355463Y-9271150D02*
X5374510Y-9280674D01*
X5374510Y-9280674D02*
X5384034Y-9299722D01*
X5384034Y-9299722D02*
X5384034Y-9404484D01*
X5384034Y-9299722D02*
X5393558Y-9280674D01*
X5393558Y-9280674D02*
X5412605Y-9271150D01*
X5412605Y-9271150D02*
X5441177Y-9271150D01*
X5441177Y-9271150D02*
X5460225Y-9280674D01*
X5460225Y-9280674D02*
X5469748Y-9299722D01*
X5469748Y-9299722D02*
X5469748Y-9404484D01*
X5564986Y-9404484D02*
X5564986Y-9271150D01*
X5564986Y-9290198D02*
X5574510Y-9280674D01*
X5574510Y-9280674D02*
X5593558Y-9271150D01*
X5593558Y-9271150D02*
X5622129Y-9271150D01*
X5622129Y-9271150D02*
X5641177Y-9280674D01*
X5641177Y-9280674D02*
X5650701Y-9299722D01*
X5650701Y-9299722D02*
X5650701Y-9404484D01*
X5650701Y-9299722D02*
X5660224Y-9280674D01*
X5660224Y-9280674D02*
X5679272Y-9271150D01*
X5679272Y-9271150D02*
X5707843Y-9271150D01*
X5707843Y-9271150D02*
X5726891Y-9280674D01*
X5726891Y-9280674D02*
X5736415Y-9299722D01*
X5736415Y-9299722D02*
X5736415Y-9404484D01*
X6126891Y-9194960D02*
X5955463Y-9452103D01*
X6384034Y-9204484D02*
X6403082Y-9204484D01*
X6403082Y-9204484D02*
X6422129Y-9214008D01*
X6422129Y-9214008D02*
X6431653Y-9223531D01*
X6431653Y-9223531D02*
X6441177Y-9242579D01*
X6441177Y-9242579D02*
X6450701Y-9280674D01*
X6450701Y-9280674D02*
X6450701Y-9328293D01*
X6450701Y-9328293D02*
X6441177Y-9366389D01*
X6441177Y-9366389D02*
X6431653Y-9385436D01*
X6431653Y-9385436D02*
X6422129Y-9394960D01*
X6422129Y-9394960D02*
X6403082Y-9404484D01*
X6403082Y-9404484D02*
X6384034Y-9404484D01*
X6384034Y-9404484D02*
X6364986Y-9394960D01*
X6364986Y-9394960D02*
X6355463Y-9385436D01*
X6355463Y-9385436D02*
X6345939Y-9366389D01*
X6345939Y-9366389D02*
X6336415Y-9328293D01*
X6336415Y-9328293D02*
X6336415Y-9280674D01*
X6336415Y-9280674D02*
X6345939Y-9242579D01*
X6345939Y-9242579D02*
X6355463Y-9223531D01*
X6355463Y-9223531D02*
X6364986Y-9214008D01*
X6364986Y-9214008D02*
X6384034Y-9204484D01*
X6536415Y-9385436D02*
X6545939Y-9394960D01*
X6545939Y-9394960D02*
X6536415Y-9404484D01*
X6536415Y-9404484D02*
X6526891Y-9394960D01*
X6526891Y-9394960D02*
X6536415Y-9385436D01*
X6536415Y-9385436D02*
X6536415Y-9404484D01*
X6669748Y-9204484D02*
X6688796Y-9204484D01*
X6688796Y-9204484D02*
X6707844Y-9214008D01*
X6707844Y-9214008D02*
X6717367Y-9223531D01*
X6717367Y-9223531D02*
X6726891Y-9242579D01*
X6726891Y-9242579D02*
X6736415Y-9280674D01*
X6736415Y-9280674D02*
X6736415Y-9328293D01*
X6736415Y-9328293D02*
X6726891Y-9366389D01*
X6726891Y-9366389D02*
X6717367Y-9385436D01*
X6717367Y-9385436D02*
X6707844Y-9394960D01*
X6707844Y-9394960D02*
X6688796Y-9404484D01*
X6688796Y-9404484D02*
X6669748Y-9404484D01*
X6669748Y-9404484D02*
X6650701Y-9394960D01*
X6650701Y-9394960D02*
X6641177Y-9385436D01*
X6641177Y-9385436D02*
X6631653Y-9366389D01*
X6631653Y-9366389D02*
X6622129Y-9328293D01*
X6622129Y-9328293D02*
X6622129Y-9280674D01*
X6622129Y-9280674D02*
X6631653Y-9242579D01*
X6631653Y-9242579D02*
X6641177Y-9223531D01*
X6641177Y-9223531D02*
X6650701Y-9214008D01*
X6650701Y-9214008D02*
X6669748Y-9204484D01*
X6812606Y-9223531D02*
X6822129Y-9214008D01*
X6822129Y-9214008D02*
X6841177Y-9204484D01*
X6841177Y-9204484D02*
X6888796Y-9204484D01*
X6888796Y-9204484D02*
X6907844Y-9214008D01*
X6907844Y-9214008D02*
X6917367Y-9223531D01*
X6917367Y-9223531D02*
X6926891Y-9242579D01*
X6926891Y-9242579D02*
X6926891Y-9261627D01*
X6926891Y-9261627D02*
X6917367Y-9290198D01*
X6917367Y-9290198D02*
X6803082Y-9404484D01*
X6803082Y-9404484D02*
X6926891Y-9404484D01*
X6993558Y-9204484D02*
X7117367Y-9204484D01*
X7117367Y-9204484D02*
X7050701Y-9280674D01*
X7050701Y-9280674D02*
X7079272Y-9280674D01*
X7079272Y-9280674D02*
X7098320Y-9290198D01*
X7098320Y-9290198D02*
X7107844Y-9299722D01*
X7107844Y-9299722D02*
X7117367Y-9318770D01*
X7117367Y-9318770D02*
X7117367Y-9366389D01*
X7117367Y-9366389D02*
X7107844Y-9385436D01*
X7107844Y-9385436D02*
X7098320Y-9394960D01*
X7098320Y-9394960D02*
X7079272Y-9404484D01*
X7079272Y-9404484D02*
X7022129Y-9404484D01*
X7022129Y-9404484D02*
X7003082Y-9394960D01*
X7003082Y-9394960D02*
X6993558Y-9385436D01*
X7288796Y-9204484D02*
X7250701Y-9204484D01*
X7250701Y-9204484D02*
X7231653Y-9214008D01*
X7231653Y-9214008D02*
X7222129Y-9223531D01*
X7222129Y-9223531D02*
X7203082Y-9252103D01*
X7203082Y-9252103D02*
X7193558Y-9290198D01*
X7193558Y-9290198D02*
X7193558Y-9366389D01*
X7193558Y-9366389D02*
X7203082Y-9385436D01*
X7203082Y-9385436D02*
X7212606Y-9394960D01*
X7212606Y-9394960D02*
X7231653Y-9404484D01*
X7231653Y-9404484D02*
X7269748Y-9404484D01*
X7269748Y-9404484D02*
X7288796Y-9394960D01*
X7288796Y-9394960D02*
X7298320Y-9385436D01*
X7298320Y-9385436D02*
X7307844Y-9366389D01*
X7307844Y-9366389D02*
X7307844Y-9318770D01*
X7307844Y-9318770D02*
X7298320Y-9299722D01*
X7298320Y-9299722D02*
X7288796Y-9290198D01*
X7288796Y-9290198D02*
X7269748Y-9280674D01*
X7269748Y-9280674D02*
X7231653Y-9280674D01*
X7231653Y-9280674D02*
X7212606Y-9290198D01*
X7212606Y-9290198D02*
X7203082Y-9299722D01*
X7203082Y-9299722D02*
X7193558Y-9318770D01*
X7384034Y-9204484D02*
X7384034Y-9242579D01*
X7460225Y-9204484D02*
X7460225Y-9242579D01*
X7755463Y-9480674D02*
X7745939Y-9471150D01*
X7745939Y-9471150D02*
X7726891Y-9442579D01*
X7726891Y-9442579D02*
X7717368Y-9423531D01*
X7717368Y-9423531D02*
X7707844Y-9394960D01*
X7707844Y-9394960D02*
X7698320Y-9347341D01*
X7698320Y-9347341D02*
X7698320Y-9309246D01*
X7698320Y-9309246D02*
X7707844Y-9261627D01*
X7707844Y-9261627D02*
X7717368Y-9233055D01*
X7717368Y-9233055D02*
X7726891Y-9214008D01*
X7726891Y-9214008D02*
X7745939Y-9185436D01*
X7745939Y-9185436D02*
X7755463Y-9175912D01*
X7917368Y-9204484D02*
X7879272Y-9204484D01*
X7879272Y-9204484D02*
X7860225Y-9214008D01*
X7860225Y-9214008D02*
X7850701Y-9223531D01*
X7850701Y-9223531D02*
X7831653Y-9252103D01*
X7831653Y-9252103D02*
X7822129Y-9290198D01*
X7822129Y-9290198D02*
X7822129Y-9366389D01*
X7822129Y-9366389D02*
X7831653Y-9385436D01*
X7831653Y-9385436D02*
X7841177Y-9394960D01*
X7841177Y-9394960D02*
X7860225Y-9404484D01*
X7860225Y-9404484D02*
X7898320Y-9404484D01*
X7898320Y-9404484D02*
X7917368Y-9394960D01*
X7917368Y-9394960D02*
X7926891Y-9385436D01*
X7926891Y-9385436D02*
X7936415Y-9366389D01*
X7936415Y-9366389D02*
X7936415Y-9318770D01*
X7936415Y-9318770D02*
X7926891Y-9299722D01*
X7926891Y-9299722D02*
X7917368Y-9290198D01*
X7917368Y-9290198D02*
X7898320Y-9280674D01*
X7898320Y-9280674D02*
X7860225Y-9280674D01*
X7860225Y-9280674D02*
X7841177Y-9290198D01*
X7841177Y-9290198D02*
X7831653Y-9299722D01*
X7831653Y-9299722D02*
X7822129Y-9318770D01*
X8174510Y-9404484D02*
X8174510Y-9204484D01*
X8260225Y-9404484D02*
X8260225Y-9299722D01*
X8260225Y-9299722D02*
X8250701Y-9280674D01*
X8250701Y-9280674D02*
X8231653Y-9271150D01*
X8231653Y-9271150D02*
X8203082Y-9271150D01*
X8203082Y-9271150D02*
X8184034Y-9280674D01*
X8184034Y-9280674D02*
X8174510Y-9290198D01*
X8384034Y-9404484D02*
X8364987Y-9394960D01*
X8364987Y-9394960D02*
X8355463Y-9385436D01*
X8355463Y-9385436D02*
X8345939Y-9366389D01*
X8345939Y-9366389D02*
X8345939Y-9309246D01*
X8345939Y-9309246D02*
X8355463Y-9290198D01*
X8355463Y-9290198D02*
X8364987Y-9280674D01*
X8364987Y-9280674D02*
X8384034Y-9271150D01*
X8384034Y-9271150D02*
X8412606Y-9271150D01*
X8412606Y-9271150D02*
X8431653Y-9280674D01*
X8431653Y-9280674D02*
X8441177Y-9290198D01*
X8441177Y-9290198D02*
X8450701Y-9309246D01*
X8450701Y-9309246D02*
X8450701Y-9366389D01*
X8450701Y-9366389D02*
X8441177Y-9385436D01*
X8441177Y-9385436D02*
X8431653Y-9394960D01*
X8431653Y-9394960D02*
X8412606Y-9404484D01*
X8412606Y-9404484D02*
X8384034Y-9404484D01*
X8564987Y-9404484D02*
X8545939Y-9394960D01*
X8545939Y-9394960D02*
X8536415Y-9375912D01*
X8536415Y-9375912D02*
X8536415Y-9204484D01*
X8717368Y-9394960D02*
X8698320Y-9404484D01*
X8698320Y-9404484D02*
X8660225Y-9404484D01*
X8660225Y-9404484D02*
X8641177Y-9394960D01*
X8641177Y-9394960D02*
X8631653Y-9375912D01*
X8631653Y-9375912D02*
X8631653Y-9299722D01*
X8631653Y-9299722D02*
X8641177Y-9280674D01*
X8641177Y-9280674D02*
X8660225Y-9271150D01*
X8660225Y-9271150D02*
X8698320Y-9271150D01*
X8698320Y-9271150D02*
X8717368Y-9280674D01*
X8717368Y-9280674D02*
X8726892Y-9299722D01*
X8726892Y-9299722D02*
X8726892Y-9318770D01*
X8726892Y-9318770D02*
X8631653Y-9337817D01*
X8803082Y-9394960D02*
X8822130Y-9404484D01*
X8822130Y-9404484D02*
X8860225Y-9404484D01*
X8860225Y-9404484D02*
X8879273Y-9394960D01*
X8879273Y-9394960D02*
X8888796Y-9375912D01*
X8888796Y-9375912D02*
X8888796Y-9366389D01*
X8888796Y-9366389D02*
X8879273Y-9347341D01*
X8879273Y-9347341D02*
X8860225Y-9337817D01*
X8860225Y-9337817D02*
X8831653Y-9337817D01*
X8831653Y-9337817D02*
X8812606Y-9328293D01*
X8812606Y-9328293D02*
X8803082Y-9309246D01*
X8803082Y-9309246D02*
X8803082Y-9299722D01*
X8803082Y-9299722D02*
X8812606Y-9280674D01*
X8812606Y-9280674D02*
X8831653Y-9271150D01*
X8831653Y-9271150D02*
X8860225Y-9271150D01*
X8860225Y-9271150D02*
X8879273Y-9280674D01*
X8955463Y-9480674D02*
X8964987Y-9471150D01*
X8964987Y-9471150D02*
X8984034Y-9442579D01*
X8984034Y-9442579D02*
X8993558Y-9423531D01*
X8993558Y-9423531D02*
X9003082Y-9394960D01*
X9003082Y-9394960D02*
X9012606Y-9347341D01*
X9012606Y-9347341D02*
X9012606Y-9309246D01*
X9012606Y-9309246D02*
X9003082Y-9261627D01*
X9003082Y-9261627D02*
X8993558Y-9233055D01*
X8993558Y-9233055D02*
X8984034Y-9214008D01*
X8984034Y-9214008D02*
X8964987Y-9185436D01*
X8964987Y-9185436D02*
X8955463Y-9175912D01*
D10*
X4180400Y-9577000D02*
G75*
G03*
X4100400Y-9577000I-40000J0D01*
G01*
X4100400Y-9577000D02*
G75*
G03*
X4180400Y-9577000I40000J0D01*
G01*
D11*
X4479272Y-9468484D02*
X4498320Y-9468484D01*
X4498320Y-9468484D02*
X4517367Y-9478008D01*
X4517367Y-9478008D02*
X4526891Y-9487531D01*
X4526891Y-9487531D02*
X4536415Y-9506579D01*
X4536415Y-9506579D02*
X4545939Y-9544674D01*
X4545939Y-9544674D02*
X4545939Y-9592293D01*
X4545939Y-9592293D02*
X4536415Y-9630389D01*
X4536415Y-9630389D02*
X4526891Y-9649436D01*
X4526891Y-9649436D02*
X4517367Y-9658960D01*
X4517367Y-9658960D02*
X4498320Y-9668484D01*
X4498320Y-9668484D02*
X4479272Y-9668484D01*
X4479272Y-9668484D02*
X4460224Y-9658960D01*
X4460224Y-9658960D02*
X4450701Y-9649436D01*
X4450701Y-9649436D02*
X4441177Y-9630389D01*
X4441177Y-9630389D02*
X4431653Y-9592293D01*
X4431653Y-9592293D02*
X4431653Y-9544674D01*
X4431653Y-9544674D02*
X4441177Y-9506579D01*
X4441177Y-9506579D02*
X4450701Y-9487531D01*
X4450701Y-9487531D02*
X4460224Y-9478008D01*
X4460224Y-9478008D02*
X4479272Y-9468484D01*
X4631653Y-9649436D02*
X4641177Y-9658960D01*
X4641177Y-9658960D02*
X4631653Y-9668484D01*
X4631653Y-9668484D02*
X4622129Y-9658960D01*
X4622129Y-9658960D02*
X4631653Y-9649436D01*
X4631653Y-9649436D02*
X4631653Y-9668484D01*
X4755463Y-9554198D02*
X4736415Y-9544674D01*
X4736415Y-9544674D02*
X4726891Y-9535150D01*
X4726891Y-9535150D02*
X4717367Y-9516103D01*
X4717367Y-9516103D02*
X4717367Y-9506579D01*
X4717367Y-9506579D02*
X4726891Y-9487531D01*
X4726891Y-9487531D02*
X4736415Y-9478008D01*
X4736415Y-9478008D02*
X4755463Y-9468484D01*
X4755463Y-9468484D02*
X4793558Y-9468484D01*
X4793558Y-9468484D02*
X4812605Y-9478008D01*
X4812605Y-9478008D02*
X4822129Y-9487531D01*
X4822129Y-9487531D02*
X4831653Y-9506579D01*
X4831653Y-9506579D02*
X4831653Y-9516103D01*
X4831653Y-9516103D02*
X4822129Y-9535150D01*
X4822129Y-9535150D02*
X4812605Y-9544674D01*
X4812605Y-9544674D02*
X4793558Y-9554198D01*
X4793558Y-9554198D02*
X4755463Y-9554198D01*
X4755463Y-9554198D02*
X4736415Y-9563722D01*
X4736415Y-9563722D02*
X4726891Y-9573246D01*
X4726891Y-9573246D02*
X4717367Y-9592293D01*
X4717367Y-9592293D02*
X4717367Y-9630389D01*
X4717367Y-9630389D02*
X4726891Y-9649436D01*
X4726891Y-9649436D02*
X4736415Y-9658960D01*
X4736415Y-9658960D02*
X4755463Y-9668484D01*
X4755463Y-9668484D02*
X4793558Y-9668484D01*
X4793558Y-9668484D02*
X4812605Y-9658960D01*
X4812605Y-9658960D02*
X4822129Y-9649436D01*
X4822129Y-9649436D02*
X4831653Y-9630389D01*
X4831653Y-9630389D02*
X4831653Y-9592293D01*
X4831653Y-9592293D02*
X4822129Y-9573246D01*
X4822129Y-9573246D02*
X4812605Y-9563722D01*
X4812605Y-9563722D02*
X4793558Y-9554198D01*
X4955463Y-9468484D02*
X4974510Y-9468484D01*
X4974510Y-9468484D02*
X4993558Y-9478008D01*
X4993558Y-9478008D02*
X5003082Y-9487531D01*
X5003082Y-9487531D02*
X5012605Y-9506579D01*
X5012605Y-9506579D02*
X5022129Y-9544674D01*
X5022129Y-9544674D02*
X5022129Y-9592293D01*
X5022129Y-9592293D02*
X5012605Y-9630389D01*
X5012605Y-9630389D02*
X5003082Y-9649436D01*
X5003082Y-9649436D02*
X4993558Y-9658960D01*
X4993558Y-9658960D02*
X4974510Y-9668484D01*
X4974510Y-9668484D02*
X4955463Y-9668484D01*
X4955463Y-9668484D02*
X4936415Y-9658960D01*
X4936415Y-9658960D02*
X4926891Y-9649436D01*
X4926891Y-9649436D02*
X4917367Y-9630389D01*
X4917367Y-9630389D02*
X4907844Y-9592293D01*
X4907844Y-9592293D02*
X4907844Y-9544674D01*
X4907844Y-9544674D02*
X4917367Y-9506579D01*
X4917367Y-9506579D02*
X4926891Y-9487531D01*
X4926891Y-9487531D02*
X4936415Y-9478008D01*
X4936415Y-9478008D02*
X4955463Y-9468484D01*
X5145939Y-9468484D02*
X5164986Y-9468484D01*
X5164986Y-9468484D02*
X5184034Y-9478008D01*
X5184034Y-9478008D02*
X5193558Y-9487531D01*
X5193558Y-9487531D02*
X5203082Y-9506579D01*
X5203082Y-9506579D02*
X5212605Y-9544674D01*
X5212605Y-9544674D02*
X5212605Y-9592293D01*
X5212605Y-9592293D02*
X5203082Y-9630389D01*
X5203082Y-9630389D02*
X5193558Y-9649436D01*
X5193558Y-9649436D02*
X5184034Y-9658960D01*
X5184034Y-9658960D02*
X5164986Y-9668484D01*
X5164986Y-9668484D02*
X5145939Y-9668484D01*
X5145939Y-9668484D02*
X5126891Y-9658960D01*
X5126891Y-9658960D02*
X5117367Y-9649436D01*
X5117367Y-9649436D02*
X5107844Y-9630389D01*
X5107844Y-9630389D02*
X5098320Y-9592293D01*
X5098320Y-9592293D02*
X5098320Y-9544674D01*
X5098320Y-9544674D02*
X5107844Y-9506579D01*
X5107844Y-9506579D02*
X5117367Y-9487531D01*
X5117367Y-9487531D02*
X5126891Y-9478008D01*
X5126891Y-9478008D02*
X5145939Y-9468484D01*
X5298320Y-9668484D02*
X5298320Y-9535150D01*
X5298320Y-9554198D02*
X5307844Y-9544674D01*
X5307844Y-9544674D02*
X5326891Y-9535150D01*
X5326891Y-9535150D02*
X5355463Y-9535150D01*
X5355463Y-9535150D02*
X5374510Y-9544674D01*
X5374510Y-9544674D02*
X5384034Y-9563722D01*
X5384034Y-9563722D02*
X5384034Y-9668484D01*
X5384034Y-9563722D02*
X5393558Y-9544674D01*
X5393558Y-9544674D02*
X5412605Y-9535150D01*
X5412605Y-9535150D02*
X5441177Y-9535150D01*
X5441177Y-9535150D02*
X5460225Y-9544674D01*
X5460225Y-9544674D02*
X5469748Y-9563722D01*
X5469748Y-9563722D02*
X5469748Y-9668484D01*
X5564986Y-9668484D02*
X5564986Y-9535150D01*
X5564986Y-9554198D02*
X5574510Y-9544674D01*
X5574510Y-9544674D02*
X5593558Y-9535150D01*
X5593558Y-9535150D02*
X5622129Y-9535150D01*
X5622129Y-9535150D02*
X5641177Y-9544674D01*
X5641177Y-9544674D02*
X5650701Y-9563722D01*
X5650701Y-9563722D02*
X5650701Y-9668484D01*
X5650701Y-9563722D02*
X5660224Y-9544674D01*
X5660224Y-9544674D02*
X5679272Y-9535150D01*
X5679272Y-9535150D02*
X5707843Y-9535150D01*
X5707843Y-9535150D02*
X5726891Y-9544674D01*
X5726891Y-9544674D02*
X5736415Y-9563722D01*
X5736415Y-9563722D02*
X5736415Y-9668484D01*
X6126891Y-9458960D02*
X5955463Y-9716103D01*
X6384034Y-9468484D02*
X6403082Y-9468484D01*
X6403082Y-9468484D02*
X6422129Y-9478008D01*
X6422129Y-9478008D02*
X6431653Y-9487531D01*
X6431653Y-9487531D02*
X6441177Y-9506579D01*
X6441177Y-9506579D02*
X6450701Y-9544674D01*
X6450701Y-9544674D02*
X6450701Y-9592293D01*
X6450701Y-9592293D02*
X6441177Y-9630389D01*
X6441177Y-9630389D02*
X6431653Y-9649436D01*
X6431653Y-9649436D02*
X6422129Y-9658960D01*
X6422129Y-9658960D02*
X6403082Y-9668484D01*
X6403082Y-9668484D02*
X6384034Y-9668484D01*
X6384034Y-9668484D02*
X6364986Y-9658960D01*
X6364986Y-9658960D02*
X6355463Y-9649436D01*
X6355463Y-9649436D02*
X6345939Y-9630389D01*
X6345939Y-9630389D02*
X6336415Y-9592293D01*
X6336415Y-9592293D02*
X6336415Y-9544674D01*
X6336415Y-9544674D02*
X6345939Y-9506579D01*
X6345939Y-9506579D02*
X6355463Y-9487531D01*
X6355463Y-9487531D02*
X6364986Y-9478008D01*
X6364986Y-9478008D02*
X6384034Y-9468484D01*
X6536415Y-9649436D02*
X6545939Y-9658960D01*
X6545939Y-9658960D02*
X6536415Y-9668484D01*
X6536415Y-9668484D02*
X6526891Y-9658960D01*
X6526891Y-9658960D02*
X6536415Y-9649436D01*
X6536415Y-9649436D02*
X6536415Y-9668484D01*
X6669748Y-9468484D02*
X6688796Y-9468484D01*
X6688796Y-9468484D02*
X6707844Y-9478008D01*
X6707844Y-9478008D02*
X6717367Y-9487531D01*
X6717367Y-9487531D02*
X6726891Y-9506579D01*
X6726891Y-9506579D02*
X6736415Y-9544674D01*
X6736415Y-9544674D02*
X6736415Y-9592293D01*
X6736415Y-9592293D02*
X6726891Y-9630389D01*
X6726891Y-9630389D02*
X6717367Y-9649436D01*
X6717367Y-9649436D02*
X6707844Y-9658960D01*
X6707844Y-9658960D02*
X6688796Y-9668484D01*
X6688796Y-9668484D02*
X6669748Y-9668484D01*
X6669748Y-9668484D02*
X6650701Y-9658960D01*
X6650701Y-9658960D02*
X6641177Y-9649436D01*
X6641177Y-9649436D02*
X6631653Y-9630389D01*
X6631653Y-9630389D02*
X6622129Y-9592293D01*
X6622129Y-9592293D02*
X6622129Y-9544674D01*
X6622129Y-9544674D02*
X6631653Y-9506579D01*
X6631653Y-9506579D02*
X6641177Y-9487531D01*
X6641177Y-9487531D02*
X6650701Y-9478008D01*
X6650701Y-9478008D02*
X6669748Y-9468484D01*
X6803082Y-9468484D02*
X6926891Y-9468484D01*
X6926891Y-9468484D02*
X6860225Y-9544674D01*
X6860225Y-9544674D02*
X6888796Y-9544674D01*
X6888796Y-9544674D02*
X6907844Y-9554198D01*
X6907844Y-9554198D02*
X6917367Y-9563722D01*
X6917367Y-9563722D02*
X6926891Y-9582770D01*
X6926891Y-9582770D02*
X6926891Y-9630389D01*
X6926891Y-9630389D02*
X6917367Y-9649436D01*
X6917367Y-9649436D02*
X6907844Y-9658960D01*
X6907844Y-9658960D02*
X6888796Y-9668484D01*
X6888796Y-9668484D02*
X6831653Y-9668484D01*
X6831653Y-9668484D02*
X6812606Y-9658960D01*
X6812606Y-9658960D02*
X6803082Y-9649436D01*
X7117367Y-9668484D02*
X7003082Y-9668484D01*
X7060225Y-9668484D02*
X7060225Y-9468484D01*
X7060225Y-9468484D02*
X7041177Y-9497055D01*
X7041177Y-9497055D02*
X7022129Y-9516103D01*
X7022129Y-9516103D02*
X7003082Y-9525627D01*
X7298320Y-9468484D02*
X7203082Y-9468484D01*
X7203082Y-9468484D02*
X7193558Y-9563722D01*
X7193558Y-9563722D02*
X7203082Y-9554198D01*
X7203082Y-9554198D02*
X7222129Y-9544674D01*
X7222129Y-9544674D02*
X7269748Y-9544674D01*
X7269748Y-9544674D02*
X7288796Y-9554198D01*
X7288796Y-9554198D02*
X7298320Y-9563722D01*
X7298320Y-9563722D02*
X7307844Y-9582770D01*
X7307844Y-9582770D02*
X7307844Y-9630389D01*
X7307844Y-9630389D02*
X7298320Y-9649436D01*
X7298320Y-9649436D02*
X7288796Y-9658960D01*
X7288796Y-9658960D02*
X7269748Y-9668484D01*
X7269748Y-9668484D02*
X7222129Y-9668484D01*
X7222129Y-9668484D02*
X7203082Y-9658960D01*
X7203082Y-9658960D02*
X7193558Y-9649436D01*
X7384034Y-9468484D02*
X7384034Y-9506579D01*
X7460225Y-9468484D02*
X7460225Y-9506579D01*
X7755463Y-9744674D02*
X7745939Y-9735150D01*
X7745939Y-9735150D02*
X7726891Y-9706579D01*
X7726891Y-9706579D02*
X7717368Y-9687531D01*
X7717368Y-9687531D02*
X7707844Y-9658960D01*
X7707844Y-9658960D02*
X7698320Y-9611341D01*
X7698320Y-9611341D02*
X7698320Y-9573246D01*
X7698320Y-9573246D02*
X7707844Y-9525627D01*
X7707844Y-9525627D02*
X7717368Y-9497055D01*
X7717368Y-9497055D02*
X7726891Y-9478008D01*
X7726891Y-9478008D02*
X7745939Y-9449436D01*
X7745939Y-9449436D02*
X7755463Y-9439912D01*
X7822129Y-9487531D02*
X7831653Y-9478008D01*
X7831653Y-9478008D02*
X7850701Y-9468484D01*
X7850701Y-9468484D02*
X7898320Y-9468484D01*
X7898320Y-9468484D02*
X7917368Y-9478008D01*
X7917368Y-9478008D02*
X7926891Y-9487531D01*
X7926891Y-9487531D02*
X7936415Y-9506579D01*
X7936415Y-9506579D02*
X7936415Y-9525627D01*
X7936415Y-9525627D02*
X7926891Y-9554198D01*
X7926891Y-9554198D02*
X7812606Y-9668484D01*
X7812606Y-9668484D02*
X7936415Y-9668484D01*
X8174510Y-9668484D02*
X8174510Y-9468484D01*
X8260225Y-9668484D02*
X8260225Y-9563722D01*
X8260225Y-9563722D02*
X8250701Y-9544674D01*
X8250701Y-9544674D02*
X8231653Y-9535150D01*
X8231653Y-9535150D02*
X8203082Y-9535150D01*
X8203082Y-9535150D02*
X8184034Y-9544674D01*
X8184034Y-9544674D02*
X8174510Y-9554198D01*
X8384034Y-9668484D02*
X8364987Y-9658960D01*
X8364987Y-9658960D02*
X8355463Y-9649436D01*
X8355463Y-9649436D02*
X8345939Y-9630389D01*
X8345939Y-9630389D02*
X8345939Y-9573246D01*
X8345939Y-9573246D02*
X8355463Y-9554198D01*
X8355463Y-9554198D02*
X8364987Y-9544674D01*
X8364987Y-9544674D02*
X8384034Y-9535150D01*
X8384034Y-9535150D02*
X8412606Y-9535150D01*
X8412606Y-9535150D02*
X8431653Y-9544674D01*
X8431653Y-9544674D02*
X8441177Y-9554198D01*
X8441177Y-9554198D02*
X8450701Y-9573246D01*
X8450701Y-9573246D02*
X8450701Y-9630389D01*
X8450701Y-9630389D02*
X8441177Y-9649436D01*
X8441177Y-9649436D02*
X8431653Y-9658960D01*
X8431653Y-9658960D02*
X8412606Y-9668484D01*
X8412606Y-9668484D02*
X8384034Y-9668484D01*
X8564987Y-9668484D02*
X8545939Y-9658960D01*
X8545939Y-9658960D02*
X8536415Y-9639912D01*
X8536415Y-9639912D02*
X8536415Y-9468484D01*
X8717368Y-9658960D02*
X8698320Y-9668484D01*
X8698320Y-9668484D02*
X8660225Y-9668484D01*
X8660225Y-9668484D02*
X8641177Y-9658960D01*
X8641177Y-9658960D02*
X8631653Y-9639912D01*
X8631653Y-9639912D02*
X8631653Y-9563722D01*
X8631653Y-9563722D02*
X8641177Y-9544674D01*
X8641177Y-9544674D02*
X8660225Y-9535150D01*
X8660225Y-9535150D02*
X8698320Y-9535150D01*
X8698320Y-9535150D02*
X8717368Y-9544674D01*
X8717368Y-9544674D02*
X8726892Y-9563722D01*
X8726892Y-9563722D02*
X8726892Y-9582770D01*
X8726892Y-9582770D02*
X8631653Y-9601817D01*
X8803082Y-9658960D02*
X8822130Y-9668484D01*
X8822130Y-9668484D02*
X8860225Y-9668484D01*
X8860225Y-9668484D02*
X8879273Y-9658960D01*
X8879273Y-9658960D02*
X8888796Y-9639912D01*
X8888796Y-9639912D02*
X8888796Y-9630389D01*
X8888796Y-9630389D02*
X8879273Y-9611341D01*
X8879273Y-9611341D02*
X8860225Y-9601817D01*
X8860225Y-9601817D02*
X8831653Y-9601817D01*
X8831653Y-9601817D02*
X8812606Y-9592293D01*
X8812606Y-9592293D02*
X8803082Y-9573246D01*
X8803082Y-9573246D02*
X8803082Y-9563722D01*
X8803082Y-9563722D02*
X8812606Y-9544674D01*
X8812606Y-9544674D02*
X8831653Y-9535150D01*
X8831653Y-9535150D02*
X8860225Y-9535150D01*
X8860225Y-9535150D02*
X8879273Y-9544674D01*
X8955463Y-9744674D02*
X8964987Y-9735150D01*
X8964987Y-9735150D02*
X8984034Y-9706579D01*
X8984034Y-9706579D02*
X8993558Y-9687531D01*
X8993558Y-9687531D02*
X9003082Y-9658960D01*
X9003082Y-9658960D02*
X9012606Y-9611341D01*
X9012606Y-9611341D02*
X9012606Y-9573246D01*
X9012606Y-9573246D02*
X9003082Y-9525627D01*
X9003082Y-9525627D02*
X8993558Y-9497055D01*
X8993558Y-9497055D02*
X8984034Y-9478008D01*
X8984034Y-9478008D02*
X8964987Y-9449436D01*
X8964987Y-9449436D02*
X8955463Y-9439912D01*
D10*
X4132900Y-9793500D02*
X4132900Y-9888500D01*
X4085400Y-9841000D02*
X4180400Y-9841000D01*
D11*
X4479272Y-9732484D02*
X4498320Y-9732484D01*
X4498320Y-9732484D02*
X4517367Y-9742008D01*
X4517367Y-9742008D02*
X4526891Y-9751531D01*
X4526891Y-9751531D02*
X4536415Y-9770579D01*
X4536415Y-9770579D02*
X4545939Y-9808674D01*
X4545939Y-9808674D02*
X4545939Y-9856293D01*
X4545939Y-9856293D02*
X4536415Y-9894389D01*
X4536415Y-9894389D02*
X4526891Y-9913436D01*
X4526891Y-9913436D02*
X4517367Y-9922960D01*
X4517367Y-9922960D02*
X4498320Y-9932484D01*
X4498320Y-9932484D02*
X4479272Y-9932484D01*
X4479272Y-9932484D02*
X4460224Y-9922960D01*
X4460224Y-9922960D02*
X4450701Y-9913436D01*
X4450701Y-9913436D02*
X4441177Y-9894389D01*
X4441177Y-9894389D02*
X4431653Y-9856293D01*
X4431653Y-9856293D02*
X4431653Y-9808674D01*
X4431653Y-9808674D02*
X4441177Y-9770579D01*
X4441177Y-9770579D02*
X4450701Y-9751531D01*
X4450701Y-9751531D02*
X4460224Y-9742008D01*
X4460224Y-9742008D02*
X4479272Y-9732484D01*
X4631653Y-9913436D02*
X4641177Y-9922960D01*
X4641177Y-9922960D02*
X4631653Y-9932484D01*
X4631653Y-9932484D02*
X4622129Y-9922960D01*
X4622129Y-9922960D02*
X4631653Y-9913436D01*
X4631653Y-9913436D02*
X4631653Y-9932484D01*
X4736415Y-9932484D02*
X4774510Y-9932484D01*
X4774510Y-9932484D02*
X4793558Y-9922960D01*
X4793558Y-9922960D02*
X4803082Y-9913436D01*
X4803082Y-9913436D02*
X4822129Y-9884865D01*
X4822129Y-9884865D02*
X4831653Y-9846770D01*
X4831653Y-9846770D02*
X4831653Y-9770579D01*
X4831653Y-9770579D02*
X4822129Y-9751531D01*
X4822129Y-9751531D02*
X4812605Y-9742008D01*
X4812605Y-9742008D02*
X4793558Y-9732484D01*
X4793558Y-9732484D02*
X4755463Y-9732484D01*
X4755463Y-9732484D02*
X4736415Y-9742008D01*
X4736415Y-9742008D02*
X4726891Y-9751531D01*
X4726891Y-9751531D02*
X4717367Y-9770579D01*
X4717367Y-9770579D02*
X4717367Y-9818198D01*
X4717367Y-9818198D02*
X4726891Y-9837246D01*
X4726891Y-9837246D02*
X4736415Y-9846770D01*
X4736415Y-9846770D02*
X4755463Y-9856293D01*
X4755463Y-9856293D02*
X4793558Y-9856293D01*
X4793558Y-9856293D02*
X4812605Y-9846770D01*
X4812605Y-9846770D02*
X4822129Y-9837246D01*
X4822129Y-9837246D02*
X4831653Y-9818198D01*
X5012605Y-9732484D02*
X4917367Y-9732484D01*
X4917367Y-9732484D02*
X4907844Y-9827722D01*
X4907844Y-9827722D02*
X4917367Y-9818198D01*
X4917367Y-9818198D02*
X4936415Y-9808674D01*
X4936415Y-9808674D02*
X4984034Y-9808674D01*
X4984034Y-9808674D02*
X5003082Y-9818198D01*
X5003082Y-9818198D02*
X5012605Y-9827722D01*
X5012605Y-9827722D02*
X5022129Y-9846770D01*
X5022129Y-9846770D02*
X5022129Y-9894389D01*
X5022129Y-9894389D02*
X5012605Y-9913436D01*
X5012605Y-9913436D02*
X5003082Y-9922960D01*
X5003082Y-9922960D02*
X4984034Y-9932484D01*
X4984034Y-9932484D02*
X4936415Y-9932484D01*
X4936415Y-9932484D02*
X4917367Y-9922960D01*
X4917367Y-9922960D02*
X4907844Y-9913436D01*
X5145939Y-9732484D02*
X5164986Y-9732484D01*
X5164986Y-9732484D02*
X5184034Y-9742008D01*
X5184034Y-9742008D02*
X5193558Y-9751531D01*
X5193558Y-9751531D02*
X5203082Y-9770579D01*
X5203082Y-9770579D02*
X5212605Y-9808674D01*
X5212605Y-9808674D02*
X5212605Y-9856293D01*
X5212605Y-9856293D02*
X5203082Y-9894389D01*
X5203082Y-9894389D02*
X5193558Y-9913436D01*
X5193558Y-9913436D02*
X5184034Y-9922960D01*
X5184034Y-9922960D02*
X5164986Y-9932484D01*
X5164986Y-9932484D02*
X5145939Y-9932484D01*
X5145939Y-9932484D02*
X5126891Y-9922960D01*
X5126891Y-9922960D02*
X5117367Y-9913436D01*
X5117367Y-9913436D02*
X5107844Y-9894389D01*
X5107844Y-9894389D02*
X5098320Y-9856293D01*
X5098320Y-9856293D02*
X5098320Y-9808674D01*
X5098320Y-9808674D02*
X5107844Y-9770579D01*
X5107844Y-9770579D02*
X5117367Y-9751531D01*
X5117367Y-9751531D02*
X5126891Y-9742008D01*
X5126891Y-9742008D02*
X5145939Y-9732484D01*
X5298320Y-9932484D02*
X5298320Y-9799150D01*
X5298320Y-9818198D02*
X5307844Y-9808674D01*
X5307844Y-9808674D02*
X5326891Y-9799150D01*
X5326891Y-9799150D02*
X5355463Y-9799150D01*
X5355463Y-9799150D02*
X5374510Y-9808674D01*
X5374510Y-9808674D02*
X5384034Y-9827722D01*
X5384034Y-9827722D02*
X5384034Y-9932484D01*
X5384034Y-9827722D02*
X5393558Y-9808674D01*
X5393558Y-9808674D02*
X5412605Y-9799150D01*
X5412605Y-9799150D02*
X5441177Y-9799150D01*
X5441177Y-9799150D02*
X5460225Y-9808674D01*
X5460225Y-9808674D02*
X5469748Y-9827722D01*
X5469748Y-9827722D02*
X5469748Y-9932484D01*
X5564986Y-9932484D02*
X5564986Y-9799150D01*
X5564986Y-9818198D02*
X5574510Y-9808674D01*
X5574510Y-9808674D02*
X5593558Y-9799150D01*
X5593558Y-9799150D02*
X5622129Y-9799150D01*
X5622129Y-9799150D02*
X5641177Y-9808674D01*
X5641177Y-9808674D02*
X5650701Y-9827722D01*
X5650701Y-9827722D02*
X5650701Y-9932484D01*
X5650701Y-9827722D02*
X5660224Y-9808674D01*
X5660224Y-9808674D02*
X5679272Y-9799150D01*
X5679272Y-9799150D02*
X5707843Y-9799150D01*
X5707843Y-9799150D02*
X5726891Y-9808674D01*
X5726891Y-9808674D02*
X5736415Y-9827722D01*
X5736415Y-9827722D02*
X5736415Y-9932484D01*
X6126891Y-9722960D02*
X5955463Y-9980103D01*
X6384034Y-9732484D02*
X6403082Y-9732484D01*
X6403082Y-9732484D02*
X6422129Y-9742008D01*
X6422129Y-9742008D02*
X6431653Y-9751531D01*
X6431653Y-9751531D02*
X6441177Y-9770579D01*
X6441177Y-9770579D02*
X6450701Y-9808674D01*
X6450701Y-9808674D02*
X6450701Y-9856293D01*
X6450701Y-9856293D02*
X6441177Y-9894389D01*
X6441177Y-9894389D02*
X6431653Y-9913436D01*
X6431653Y-9913436D02*
X6422129Y-9922960D01*
X6422129Y-9922960D02*
X6403082Y-9932484D01*
X6403082Y-9932484D02*
X6384034Y-9932484D01*
X6384034Y-9932484D02*
X6364986Y-9922960D01*
X6364986Y-9922960D02*
X6355463Y-9913436D01*
X6355463Y-9913436D02*
X6345939Y-9894389D01*
X6345939Y-9894389D02*
X6336415Y-9856293D01*
X6336415Y-9856293D02*
X6336415Y-9808674D01*
X6336415Y-9808674D02*
X6345939Y-9770579D01*
X6345939Y-9770579D02*
X6355463Y-9751531D01*
X6355463Y-9751531D02*
X6364986Y-9742008D01*
X6364986Y-9742008D02*
X6384034Y-9732484D01*
X6536415Y-9913436D02*
X6545939Y-9922960D01*
X6545939Y-9922960D02*
X6536415Y-9932484D01*
X6536415Y-9932484D02*
X6526891Y-9922960D01*
X6526891Y-9922960D02*
X6536415Y-9913436D01*
X6536415Y-9913436D02*
X6536415Y-9932484D01*
X6669748Y-9732484D02*
X6688796Y-9732484D01*
X6688796Y-9732484D02*
X6707844Y-9742008D01*
X6707844Y-9742008D02*
X6717367Y-9751531D01*
X6717367Y-9751531D02*
X6726891Y-9770579D01*
X6726891Y-9770579D02*
X6736415Y-9808674D01*
X6736415Y-9808674D02*
X6736415Y-9856293D01*
X6736415Y-9856293D02*
X6726891Y-9894389D01*
X6726891Y-9894389D02*
X6717367Y-9913436D01*
X6717367Y-9913436D02*
X6707844Y-9922960D01*
X6707844Y-9922960D02*
X6688796Y-9932484D01*
X6688796Y-9932484D02*
X6669748Y-9932484D01*
X6669748Y-9932484D02*
X6650701Y-9922960D01*
X6650701Y-9922960D02*
X6641177Y-9913436D01*
X6641177Y-9913436D02*
X6631653Y-9894389D01*
X6631653Y-9894389D02*
X6622129Y-9856293D01*
X6622129Y-9856293D02*
X6622129Y-9808674D01*
X6622129Y-9808674D02*
X6631653Y-9770579D01*
X6631653Y-9770579D02*
X6641177Y-9751531D01*
X6641177Y-9751531D02*
X6650701Y-9742008D01*
X6650701Y-9742008D02*
X6669748Y-9732484D01*
X6803082Y-9732484D02*
X6926891Y-9732484D01*
X6926891Y-9732484D02*
X6860225Y-9808674D01*
X6860225Y-9808674D02*
X6888796Y-9808674D01*
X6888796Y-9808674D02*
X6907844Y-9818198D01*
X6907844Y-9818198D02*
X6917367Y-9827722D01*
X6917367Y-9827722D02*
X6926891Y-9846770D01*
X6926891Y-9846770D02*
X6926891Y-9894389D01*
X6926891Y-9894389D02*
X6917367Y-9913436D01*
X6917367Y-9913436D02*
X6907844Y-9922960D01*
X6907844Y-9922960D02*
X6888796Y-9932484D01*
X6888796Y-9932484D02*
X6831653Y-9932484D01*
X6831653Y-9932484D02*
X6812606Y-9922960D01*
X6812606Y-9922960D02*
X6803082Y-9913436D01*
X6993558Y-9732484D02*
X7126891Y-9732484D01*
X7126891Y-9732484D02*
X7041177Y-9932484D01*
X7288796Y-9799150D02*
X7288796Y-9932484D01*
X7241177Y-9722960D02*
X7193558Y-9865817D01*
X7193558Y-9865817D02*
X7317367Y-9865817D01*
X7384034Y-9732484D02*
X7384034Y-9770579D01*
X7460225Y-9732484D02*
X7460225Y-9770579D01*
X7755463Y-10008674D02*
X7745939Y-9999150D01*
X7745939Y-9999150D02*
X7726891Y-9970579D01*
X7726891Y-9970579D02*
X7717368Y-9951531D01*
X7717368Y-9951531D02*
X7707844Y-9922960D01*
X7707844Y-9922960D02*
X7698320Y-9875341D01*
X7698320Y-9875341D02*
X7698320Y-9837246D01*
X7698320Y-9837246D02*
X7707844Y-9789627D01*
X7707844Y-9789627D02*
X7717368Y-9761055D01*
X7717368Y-9761055D02*
X7726891Y-9742008D01*
X7726891Y-9742008D02*
X7745939Y-9713436D01*
X7745939Y-9713436D02*
X7755463Y-9703912D01*
X7917368Y-9799150D02*
X7917368Y-9932484D01*
X7869748Y-9722960D02*
X7822129Y-9865817D01*
X7822129Y-9865817D02*
X7945939Y-9865817D01*
X8174510Y-9932484D02*
X8174510Y-9732484D01*
X8260225Y-9932484D02*
X8260225Y-9827722D01*
X8260225Y-9827722D02*
X8250701Y-9808674D01*
X8250701Y-9808674D02*
X8231653Y-9799150D01*
X8231653Y-9799150D02*
X8203082Y-9799150D01*
X8203082Y-9799150D02*
X8184034Y-9808674D01*
X8184034Y-9808674D02*
X8174510Y-9818198D01*
X8384034Y-9932484D02*
X8364987Y-9922960D01*
X8364987Y-9922960D02*
X8355463Y-9913436D01*
X8355463Y-9913436D02*
X8345939Y-9894389D01*
X8345939Y-9894389D02*
X8345939Y-9837246D01*
X8345939Y-9837246D02*
X8355463Y-9818198D01*
X8355463Y-9818198D02*
X8364987Y-9808674D01*
X8364987Y-9808674D02*
X8384034Y-9799150D01*
X8384034Y-9799150D02*
X8412606Y-9799150D01*
X8412606Y-9799150D02*
X8431653Y-9808674D01*
X8431653Y-9808674D02*
X8441177Y-9818198D01*
X8441177Y-9818198D02*
X8450701Y-9837246D01*
X8450701Y-9837246D02*
X8450701Y-9894389D01*
X8450701Y-9894389D02*
X8441177Y-9913436D01*
X8441177Y-9913436D02*
X8431653Y-9922960D01*
X8431653Y-9922960D02*
X8412606Y-9932484D01*
X8412606Y-9932484D02*
X8384034Y-9932484D01*
X8564987Y-9932484D02*
X8545939Y-9922960D01*
X8545939Y-9922960D02*
X8536415Y-9903912D01*
X8536415Y-9903912D02*
X8536415Y-9732484D01*
X8717368Y-9922960D02*
X8698320Y-9932484D01*
X8698320Y-9932484D02*
X8660225Y-9932484D01*
X8660225Y-9932484D02*
X8641177Y-9922960D01*
X8641177Y-9922960D02*
X8631653Y-9903912D01*
X8631653Y-9903912D02*
X8631653Y-9827722D01*
X8631653Y-9827722D02*
X8641177Y-9808674D01*
X8641177Y-9808674D02*
X8660225Y-9799150D01*
X8660225Y-9799150D02*
X8698320Y-9799150D01*
X8698320Y-9799150D02*
X8717368Y-9808674D01*
X8717368Y-9808674D02*
X8726892Y-9827722D01*
X8726892Y-9827722D02*
X8726892Y-9846770D01*
X8726892Y-9846770D02*
X8631653Y-9865817D01*
X8803082Y-9922960D02*
X8822130Y-9932484D01*
X8822130Y-9932484D02*
X8860225Y-9932484D01*
X8860225Y-9932484D02*
X8879273Y-9922960D01*
X8879273Y-9922960D02*
X8888796Y-9903912D01*
X8888796Y-9903912D02*
X8888796Y-9894389D01*
X8888796Y-9894389D02*
X8879273Y-9875341D01*
X8879273Y-9875341D02*
X8860225Y-9865817D01*
X8860225Y-9865817D02*
X8831653Y-9865817D01*
X8831653Y-9865817D02*
X8812606Y-9856293D01*
X8812606Y-9856293D02*
X8803082Y-9837246D01*
X8803082Y-9837246D02*
X8803082Y-9827722D01*
X8803082Y-9827722D02*
X8812606Y-9808674D01*
X8812606Y-9808674D02*
X8831653Y-9799150D01*
X8831653Y-9799150D02*
X8860225Y-9799150D01*
X8860225Y-9799150D02*
X8879273Y-9808674D01*
X8955463Y-10008674D02*
X8964987Y-9999150D01*
X8964987Y-9999150D02*
X8984034Y-9970579D01*
X8984034Y-9970579D02*
X8993558Y-9951531D01*
X8993558Y-9951531D02*
X9003082Y-9922960D01*
X9003082Y-9922960D02*
X9012606Y-9875341D01*
X9012606Y-9875341D02*
X9012606Y-9837246D01*
X9012606Y-9837246D02*
X9003082Y-9789627D01*
X9003082Y-9789627D02*
X8993558Y-9761055D01*
X8993558Y-9761055D02*
X8984034Y-9742008D01*
X8984034Y-9742008D02*
X8964987Y-9713436D01*
X8964987Y-9713436D02*
X8955463Y-9703912D01*
D10*
X4165756Y-10140356D02*
X4165756Y-10069644D01*
X4095044Y-10069644D01*
X4095044Y-10140356D01*
X4165756Y-10140356D01*
D11*
X4545939Y-10196484D02*
X4431653Y-10196484D01*
X4488796Y-10196484D02*
X4488796Y-9996484D01*
X4488796Y-9996484D02*
X4469748Y-10025055D01*
X4469748Y-10025055D02*
X4450701Y-10044103D01*
X4450701Y-10044103D02*
X4431653Y-10053627D01*
X4631653Y-10177436D02*
X4641177Y-10186960D01*
X4641177Y-10186960D02*
X4631653Y-10196484D01*
X4631653Y-10196484D02*
X4622129Y-10186960D01*
X4622129Y-10186960D02*
X4631653Y-10177436D01*
X4631653Y-10177436D02*
X4631653Y-10196484D01*
X4764986Y-9996484D02*
X4784034Y-9996484D01*
X4784034Y-9996484D02*
X4803082Y-10006008D01*
X4803082Y-10006008D02*
X4812605Y-10015531D01*
X4812605Y-10015531D02*
X4822129Y-10034579D01*
X4822129Y-10034579D02*
X4831653Y-10072674D01*
X4831653Y-10072674D02*
X4831653Y-10120293D01*
X4831653Y-10120293D02*
X4822129Y-10158389D01*
X4822129Y-10158389D02*
X4812605Y-10177436D01*
X4812605Y-10177436D02*
X4803082Y-10186960D01*
X4803082Y-10186960D02*
X4784034Y-10196484D01*
X4784034Y-10196484D02*
X4764986Y-10196484D01*
X4764986Y-10196484D02*
X4745939Y-10186960D01*
X4745939Y-10186960D02*
X4736415Y-10177436D01*
X4736415Y-10177436D02*
X4726891Y-10158389D01*
X4726891Y-10158389D02*
X4717367Y-10120293D01*
X4717367Y-10120293D02*
X4717367Y-10072674D01*
X4717367Y-10072674D02*
X4726891Y-10034579D01*
X4726891Y-10034579D02*
X4736415Y-10015531D01*
X4736415Y-10015531D02*
X4745939Y-10006008D01*
X4745939Y-10006008D02*
X4764986Y-9996484D01*
X4955463Y-9996484D02*
X4974510Y-9996484D01*
X4974510Y-9996484D02*
X4993558Y-10006008D01*
X4993558Y-10006008D02*
X5003082Y-10015531D01*
X5003082Y-10015531D02*
X5012605Y-10034579D01*
X5012605Y-10034579D02*
X5022129Y-10072674D01*
X5022129Y-10072674D02*
X5022129Y-10120293D01*
X5022129Y-10120293D02*
X5012605Y-10158389D01*
X5012605Y-10158389D02*
X5003082Y-10177436D01*
X5003082Y-10177436D02*
X4993558Y-10186960D01*
X4993558Y-10186960D02*
X4974510Y-10196484D01*
X4974510Y-10196484D02*
X4955463Y-10196484D01*
X4955463Y-10196484D02*
X4936415Y-10186960D01*
X4936415Y-10186960D02*
X4926891Y-10177436D01*
X4926891Y-10177436D02*
X4917367Y-10158389D01*
X4917367Y-10158389D02*
X4907844Y-10120293D01*
X4907844Y-10120293D02*
X4907844Y-10072674D01*
X4907844Y-10072674D02*
X4917367Y-10034579D01*
X4917367Y-10034579D02*
X4926891Y-10015531D01*
X4926891Y-10015531D02*
X4936415Y-10006008D01*
X4936415Y-10006008D02*
X4955463Y-9996484D01*
X5145939Y-9996484D02*
X5164986Y-9996484D01*
X5164986Y-9996484D02*
X5184034Y-10006008D01*
X5184034Y-10006008D02*
X5193558Y-10015531D01*
X5193558Y-10015531D02*
X5203082Y-10034579D01*
X5203082Y-10034579D02*
X5212605Y-10072674D01*
X5212605Y-10072674D02*
X5212605Y-10120293D01*
X5212605Y-10120293D02*
X5203082Y-10158389D01*
X5203082Y-10158389D02*
X5193558Y-10177436D01*
X5193558Y-10177436D02*
X5184034Y-10186960D01*
X5184034Y-10186960D02*
X5164986Y-10196484D01*
X5164986Y-10196484D02*
X5145939Y-10196484D01*
X5145939Y-10196484D02*
X5126891Y-10186960D01*
X5126891Y-10186960D02*
X5117367Y-10177436D01*
X5117367Y-10177436D02*
X5107844Y-10158389D01*
X5107844Y-10158389D02*
X5098320Y-10120293D01*
X5098320Y-10120293D02*
X5098320Y-10072674D01*
X5098320Y-10072674D02*
X5107844Y-10034579D01*
X5107844Y-10034579D02*
X5117367Y-10015531D01*
X5117367Y-10015531D02*
X5126891Y-10006008D01*
X5126891Y-10006008D02*
X5145939Y-9996484D01*
X5298320Y-10196484D02*
X5298320Y-10063150D01*
X5298320Y-10082198D02*
X5307844Y-10072674D01*
X5307844Y-10072674D02*
X5326891Y-10063150D01*
X5326891Y-10063150D02*
X5355463Y-10063150D01*
X5355463Y-10063150D02*
X5374510Y-10072674D01*
X5374510Y-10072674D02*
X5384034Y-10091722D01*
X5384034Y-10091722D02*
X5384034Y-10196484D01*
X5384034Y-10091722D02*
X5393558Y-10072674D01*
X5393558Y-10072674D02*
X5412605Y-10063150D01*
X5412605Y-10063150D02*
X5441177Y-10063150D01*
X5441177Y-10063150D02*
X5460225Y-10072674D01*
X5460225Y-10072674D02*
X5469748Y-10091722D01*
X5469748Y-10091722D02*
X5469748Y-10196484D01*
X5564986Y-10196484D02*
X5564986Y-10063150D01*
X5564986Y-10082198D02*
X5574510Y-10072674D01*
X5574510Y-10072674D02*
X5593558Y-10063150D01*
X5593558Y-10063150D02*
X5622129Y-10063150D01*
X5622129Y-10063150D02*
X5641177Y-10072674D01*
X5641177Y-10072674D02*
X5650701Y-10091722D01*
X5650701Y-10091722D02*
X5650701Y-10196484D01*
X5650701Y-10091722D02*
X5660224Y-10072674D01*
X5660224Y-10072674D02*
X5679272Y-10063150D01*
X5679272Y-10063150D02*
X5707843Y-10063150D01*
X5707843Y-10063150D02*
X5726891Y-10072674D01*
X5726891Y-10072674D02*
X5736415Y-10091722D01*
X5736415Y-10091722D02*
X5736415Y-10196484D01*
X6126891Y-9986960D02*
X5955463Y-10244103D01*
X6384034Y-9996484D02*
X6403082Y-9996484D01*
X6403082Y-9996484D02*
X6422129Y-10006008D01*
X6422129Y-10006008D02*
X6431653Y-10015531D01*
X6431653Y-10015531D02*
X6441177Y-10034579D01*
X6441177Y-10034579D02*
X6450701Y-10072674D01*
X6450701Y-10072674D02*
X6450701Y-10120293D01*
X6450701Y-10120293D02*
X6441177Y-10158389D01*
X6441177Y-10158389D02*
X6431653Y-10177436D01*
X6431653Y-10177436D02*
X6422129Y-10186960D01*
X6422129Y-10186960D02*
X6403082Y-10196484D01*
X6403082Y-10196484D02*
X6384034Y-10196484D01*
X6384034Y-10196484D02*
X6364986Y-10186960D01*
X6364986Y-10186960D02*
X6355463Y-10177436D01*
X6355463Y-10177436D02*
X6345939Y-10158389D01*
X6345939Y-10158389D02*
X6336415Y-10120293D01*
X6336415Y-10120293D02*
X6336415Y-10072674D01*
X6336415Y-10072674D02*
X6345939Y-10034579D01*
X6345939Y-10034579D02*
X6355463Y-10015531D01*
X6355463Y-10015531D02*
X6364986Y-10006008D01*
X6364986Y-10006008D02*
X6384034Y-9996484D01*
X6536415Y-10177436D02*
X6545939Y-10186960D01*
X6545939Y-10186960D02*
X6536415Y-10196484D01*
X6536415Y-10196484D02*
X6526891Y-10186960D01*
X6526891Y-10186960D02*
X6536415Y-10177436D01*
X6536415Y-10177436D02*
X6536415Y-10196484D01*
X6669748Y-9996484D02*
X6688796Y-9996484D01*
X6688796Y-9996484D02*
X6707844Y-10006008D01*
X6707844Y-10006008D02*
X6717367Y-10015531D01*
X6717367Y-10015531D02*
X6726891Y-10034579D01*
X6726891Y-10034579D02*
X6736415Y-10072674D01*
X6736415Y-10072674D02*
X6736415Y-10120293D01*
X6736415Y-10120293D02*
X6726891Y-10158389D01*
X6726891Y-10158389D02*
X6717367Y-10177436D01*
X6717367Y-10177436D02*
X6707844Y-10186960D01*
X6707844Y-10186960D02*
X6688796Y-10196484D01*
X6688796Y-10196484D02*
X6669748Y-10196484D01*
X6669748Y-10196484D02*
X6650701Y-10186960D01*
X6650701Y-10186960D02*
X6641177Y-10177436D01*
X6641177Y-10177436D02*
X6631653Y-10158389D01*
X6631653Y-10158389D02*
X6622129Y-10120293D01*
X6622129Y-10120293D02*
X6622129Y-10072674D01*
X6622129Y-10072674D02*
X6631653Y-10034579D01*
X6631653Y-10034579D02*
X6641177Y-10015531D01*
X6641177Y-10015531D02*
X6650701Y-10006008D01*
X6650701Y-10006008D02*
X6669748Y-9996484D01*
X6803082Y-9996484D02*
X6926891Y-9996484D01*
X6926891Y-9996484D02*
X6860225Y-10072674D01*
X6860225Y-10072674D02*
X6888796Y-10072674D01*
X6888796Y-10072674D02*
X6907844Y-10082198D01*
X6907844Y-10082198D02*
X6917367Y-10091722D01*
X6917367Y-10091722D02*
X6926891Y-10110770D01*
X6926891Y-10110770D02*
X6926891Y-10158389D01*
X6926891Y-10158389D02*
X6917367Y-10177436D01*
X6917367Y-10177436D02*
X6907844Y-10186960D01*
X6907844Y-10186960D02*
X6888796Y-10196484D01*
X6888796Y-10196484D02*
X6831653Y-10196484D01*
X6831653Y-10196484D02*
X6812606Y-10186960D01*
X6812606Y-10186960D02*
X6803082Y-10177436D01*
X7022129Y-10196484D02*
X7060225Y-10196484D01*
X7060225Y-10196484D02*
X7079272Y-10186960D01*
X7079272Y-10186960D02*
X7088796Y-10177436D01*
X7088796Y-10177436D02*
X7107844Y-10148865D01*
X7107844Y-10148865D02*
X7117367Y-10110770D01*
X7117367Y-10110770D02*
X7117367Y-10034579D01*
X7117367Y-10034579D02*
X7107844Y-10015531D01*
X7107844Y-10015531D02*
X7098320Y-10006008D01*
X7098320Y-10006008D02*
X7079272Y-9996484D01*
X7079272Y-9996484D02*
X7041177Y-9996484D01*
X7041177Y-9996484D02*
X7022129Y-10006008D01*
X7022129Y-10006008D02*
X7012606Y-10015531D01*
X7012606Y-10015531D02*
X7003082Y-10034579D01*
X7003082Y-10034579D02*
X7003082Y-10082198D01*
X7003082Y-10082198D02*
X7012606Y-10101246D01*
X7012606Y-10101246D02*
X7022129Y-10110770D01*
X7022129Y-10110770D02*
X7041177Y-10120293D01*
X7041177Y-10120293D02*
X7079272Y-10120293D01*
X7079272Y-10120293D02*
X7098320Y-10110770D01*
X7098320Y-10110770D02*
X7107844Y-10101246D01*
X7107844Y-10101246D02*
X7117367Y-10082198D01*
X7288796Y-10063150D02*
X7288796Y-10196484D01*
X7241177Y-9986960D02*
X7193558Y-10129817D01*
X7193558Y-10129817D02*
X7317367Y-10129817D01*
X7384034Y-9996484D02*
X7384034Y-10034579D01*
X7460225Y-9996484D02*
X7460225Y-10034579D01*
X7755463Y-10272674D02*
X7745939Y-10263150D01*
X7745939Y-10263150D02*
X7726891Y-10234579D01*
X7726891Y-10234579D02*
X7717368Y-10215531D01*
X7717368Y-10215531D02*
X7707844Y-10186960D01*
X7707844Y-10186960D02*
X7698320Y-10139341D01*
X7698320Y-10139341D02*
X7698320Y-10101246D01*
X7698320Y-10101246D02*
X7707844Y-10053627D01*
X7707844Y-10053627D02*
X7717368Y-10025055D01*
X7717368Y-10025055D02*
X7726891Y-10006008D01*
X7726891Y-10006008D02*
X7745939Y-9977436D01*
X7745939Y-9977436D02*
X7755463Y-9967912D01*
X7812606Y-9996484D02*
X7936415Y-9996484D01*
X7936415Y-9996484D02*
X7869748Y-10072674D01*
X7869748Y-10072674D02*
X7898320Y-10072674D01*
X7898320Y-10072674D02*
X7917368Y-10082198D01*
X7917368Y-10082198D02*
X7926891Y-10091722D01*
X7926891Y-10091722D02*
X7936415Y-10110770D01*
X7936415Y-10110770D02*
X7936415Y-10158389D01*
X7936415Y-10158389D02*
X7926891Y-10177436D01*
X7926891Y-10177436D02*
X7917368Y-10186960D01*
X7917368Y-10186960D02*
X7898320Y-10196484D01*
X7898320Y-10196484D02*
X7841177Y-10196484D01*
X7841177Y-10196484D02*
X7822129Y-10186960D01*
X7822129Y-10186960D02*
X7812606Y-10177436D01*
X8050701Y-10082198D02*
X8031653Y-10072674D01*
X8031653Y-10072674D02*
X8022129Y-10063150D01*
X8022129Y-10063150D02*
X8012606Y-10044103D01*
X8012606Y-10044103D02*
X8012606Y-10034579D01*
X8012606Y-10034579D02*
X8022129Y-10015531D01*
X8022129Y-10015531D02*
X8031653Y-10006008D01*
X8031653Y-10006008D02*
X8050701Y-9996484D01*
X8050701Y-9996484D02*
X8088796Y-9996484D01*
X8088796Y-9996484D02*
X8107844Y-10006008D01*
X8107844Y-10006008D02*
X8117368Y-10015531D01*
X8117368Y-10015531D02*
X8126891Y-10034579D01*
X8126891Y-10034579D02*
X8126891Y-10044103D01*
X8126891Y-10044103D02*
X8117368Y-10063150D01*
X8117368Y-10063150D02*
X8107844Y-10072674D01*
X8107844Y-10072674D02*
X8088796Y-10082198D01*
X8088796Y-10082198D02*
X8050701Y-10082198D01*
X8050701Y-10082198D02*
X8031653Y-10091722D01*
X8031653Y-10091722D02*
X8022129Y-10101246D01*
X8022129Y-10101246D02*
X8012606Y-10120293D01*
X8012606Y-10120293D02*
X8012606Y-10158389D01*
X8012606Y-10158389D02*
X8022129Y-10177436D01*
X8022129Y-10177436D02*
X8031653Y-10186960D01*
X8031653Y-10186960D02*
X8050701Y-10196484D01*
X8050701Y-10196484D02*
X8088796Y-10196484D01*
X8088796Y-10196484D02*
X8107844Y-10186960D01*
X8107844Y-10186960D02*
X8117368Y-10177436D01*
X8117368Y-10177436D02*
X8126891Y-10158389D01*
X8126891Y-10158389D02*
X8126891Y-10120293D01*
X8126891Y-10120293D02*
X8117368Y-10101246D01*
X8117368Y-10101246D02*
X8107844Y-10091722D01*
X8107844Y-10091722D02*
X8088796Y-10082198D01*
X8364987Y-10196484D02*
X8364987Y-9996484D01*
X8450701Y-10196484D02*
X8450701Y-10091722D01*
X8450701Y-10091722D02*
X8441177Y-10072674D01*
X8441177Y-10072674D02*
X8422130Y-10063150D01*
X8422130Y-10063150D02*
X8393558Y-10063150D01*
X8393558Y-10063150D02*
X8374510Y-10072674D01*
X8374510Y-10072674D02*
X8364987Y-10082198D01*
X8574511Y-10196484D02*
X8555463Y-10186960D01*
X8555463Y-10186960D02*
X8545939Y-10177436D01*
X8545939Y-10177436D02*
X8536415Y-10158389D01*
X8536415Y-10158389D02*
X8536415Y-10101246D01*
X8536415Y-10101246D02*
X8545939Y-10082198D01*
X8545939Y-10082198D02*
X8555463Y-10072674D01*
X8555463Y-10072674D02*
X8574511Y-10063150D01*
X8574511Y-10063150D02*
X8603082Y-10063150D01*
X8603082Y-10063150D02*
X8622130Y-10072674D01*
X8622130Y-10072674D02*
X8631653Y-10082198D01*
X8631653Y-10082198D02*
X8641177Y-10101246D01*
X8641177Y-10101246D02*
X8641177Y-10158389D01*
X8641177Y-10158389D02*
X8631653Y-10177436D01*
X8631653Y-10177436D02*
X8622130Y-10186960D01*
X8622130Y-10186960D02*
X8603082Y-10196484D01*
X8603082Y-10196484D02*
X8574511Y-10196484D01*
X8755463Y-10196484D02*
X8736415Y-10186960D01*
X8736415Y-10186960D02*
X8726892Y-10167912D01*
X8726892Y-10167912D02*
X8726892Y-9996484D01*
X8907844Y-10186960D02*
X8888796Y-10196484D01*
X8888796Y-10196484D02*
X8850701Y-10196484D01*
X8850701Y-10196484D02*
X8831653Y-10186960D01*
X8831653Y-10186960D02*
X8822130Y-10167912D01*
X8822130Y-10167912D02*
X8822130Y-10091722D01*
X8822130Y-10091722D02*
X8831653Y-10072674D01*
X8831653Y-10072674D02*
X8850701Y-10063150D01*
X8850701Y-10063150D02*
X8888796Y-10063150D01*
X8888796Y-10063150D02*
X8907844Y-10072674D01*
X8907844Y-10072674D02*
X8917368Y-10091722D01*
X8917368Y-10091722D02*
X8917368Y-10110770D01*
X8917368Y-10110770D02*
X8822130Y-10129817D01*
X8993558Y-10186960D02*
X9012606Y-10196484D01*
X9012606Y-10196484D02*
X9050701Y-10196484D01*
X9050701Y-10196484D02*
X9069749Y-10186960D01*
X9069749Y-10186960D02*
X9079273Y-10167912D01*
X9079273Y-10167912D02*
X9079273Y-10158389D01*
X9079273Y-10158389D02*
X9069749Y-10139341D01*
X9069749Y-10139341D02*
X9050701Y-10129817D01*
X9050701Y-10129817D02*
X9022130Y-10129817D01*
X9022130Y-10129817D02*
X9003082Y-10120293D01*
X9003082Y-10120293D02*
X8993558Y-10101246D01*
X8993558Y-10101246D02*
X8993558Y-10091722D01*
X8993558Y-10091722D02*
X9003082Y-10072674D01*
X9003082Y-10072674D02*
X9022130Y-10063150D01*
X9022130Y-10063150D02*
X9050701Y-10063150D01*
X9050701Y-10063150D02*
X9069749Y-10072674D01*
X9145939Y-10272674D02*
X9155463Y-10263150D01*
X9155463Y-10263150D02*
X9174511Y-10234579D01*
X9174511Y-10234579D02*
X9184034Y-10215531D01*
X9184034Y-10215531D02*
X9193558Y-10186960D01*
X9193558Y-10186960D02*
X9203082Y-10139341D01*
X9203082Y-10139341D02*
X9203082Y-10101246D01*
X9203082Y-10101246D02*
X9193558Y-10053627D01*
X9193558Y-10053627D02*
X9184034Y-10025055D01*
X9184034Y-10025055D02*
X9174511Y-10006008D01*
X9174511Y-10006008D02*
X9155463Y-9977436D01*
X9155463Y-9977436D02*
X9145939Y-9967912D01*
M02*
